<svg xmlns="http://www.w3.org/2000/svg" xmlns:xlink="http://www.w3.org/1999/xlink" width="80.772mm" height="59.944mm" viewBox="4025 3030.5 318 236"><title></title><style type="text/css">
*[layerid="1"] {stroke:#FF0000;fill:#FF0000;}
*[layerid="2"] {stroke:#0000FF;fill:#0000FF;}
*[layerid="3"] {stroke:#FFCC00;fill:#FFCC00;}
*[layerid="4"] {stroke:#66CC33;fill:#66CC33;}
*[layerid="5"] {stroke:#808080;fill:#808080;}
*[layerid="6"] {stroke:#800000;fill:#800000;}
*[layerid="7"] {stroke:#800080;fill:#800080;stroke-opacity:0.7;fill-opacity:0.7;}
*[layerid="8"] {stroke:#AA00FF;fill:#AA00FF;stroke-opacity:0.7;fill-opacity:0.7;}
*[layerid="9"] {stroke:#6464FF;fill:#6464FF;}
*[layerid="10"] {stroke:#FF00FF;fill:#FF00FF;}
*[layerid="11"] {stroke:#C0C0C0;fill:#C0C0C0;}
*[layerid="12"] {stroke:#FFFFFF;fill:#FFFFFF;}
*[layerid="13"] {stroke:#33CC99;fill:#33CC99;}
*[layerid="14"] {stroke:#5555FF;fill:#5555FF;}
*[layerid="15"] {stroke:#F022F0;fill:#F022F0;}
*[layerid="19"] {stroke:#66CCFF;fill:#66CCFF;}
*[layerid="21"] {stroke:#999966;fill:#999966;}
*[layerid="22"] {stroke:#008000;fill:#008000;}
*[layerid="23"] {stroke:#00FF00;fill:#00FF00;}
*[layerid="24"] {stroke:#BC8E00;fill:#BC8E00;}
*[layerid="25"] {stroke:#70DBFA;fill:#70DBFA;}
*[layerid="26"] {stroke:#00CC66;fill:#00CC66;}
*[layerid="27"] {stroke:#9966FF;fill:#9966FF;}
*[layerid="28"] {stroke:#800080;fill:#800080;}
*[layerid="29"] {stroke:#008080;fill:#008080;}
*[layerid="30"] {stroke:#15935F;fill:#15935F;}
*[layerid="31"] {stroke:#000080;fill:#000080;}
*[layerid="32"] {stroke:#00B400;fill:#00B400;}
*[layerid="33"] {stroke:#2E4756;fill:#2E4756;}
*[layerid="34"] {stroke:#99842F;fill:#99842F;}
*[layerid="35"] {stroke:#FFFFAA;fill:#FFFFAA;}
*[layerid="36"] {stroke:#99842F;fill:#99842F;}
*[layerid="37"] {stroke:#2E4756;fill:#2E4756;}
*[layerid="38"] {stroke:#3535FF;fill:#3535FF;}
*[layerid="39"] {stroke:#8000BC;fill:#8000BC;}
*[layerid="40"] {stroke:#43AE5F;fill:#43AE5F;}
*[layerid="41"] {stroke:#C3ECCE;fill:#C3ECCE;}
*[layerid="42"] {stroke:#728978;fill:#728978;}
*[layerid="43"] {stroke:#39503F;fill:#39503F;}
*[layerid="44"] {stroke:#0C715D;fill:#0C715D;}
*[layerid="45"] {stroke:#5A8A80;fill:#5A8A80;}
*[layerid="46"] {stroke:#2B937E;fill:#2B937E;}
*[layerid="47"] {stroke:#23999D;fill:#23999D;}
*[layerid="48"] {stroke:#45B4E3;fill:#45B4E3;}
*[layerid="49"] {stroke:#215DA1;fill:#215DA1;}
*[layerid="50"] {stroke:#4564D7;fill:#4564D7;}
*[layerid="51"] {stroke:#6969E9;fill:#6969E9;}
*[layerid="52"] {stroke:#9069E9;fill:#9069E9;}
*[layerid="99"] {stroke:#00CCCC;fill:#00CCCC;}
*[layerid="100"] {stroke:#CC9999;fill:#CC9999;}
*[layerid="Hole"] {stroke:#222222;fill:#222222;}
*[layerid="DRCError"] {stroke:#FAD609;fill:#FAD609;}
*[fill="none"] {fill: none;}
*[stroke="none"] {stroke: none;}
path, polyline, polygon, line {stroke-linecap:round;}
g[c_partid="part_pad"][layerid="1"] ellipse:not([c_etype="pad_outer"]) {fill:#FF0000;}
g[c_partid="part_pad"][layerid="1"] polygon:not([c_etype="pad_outer"]) {fill:#FF0000;}
g[c_partid="part_pad"][layerid="1"] polyline:not([c_etype="pad_outer"]) {stroke:#FF0000;}
g[c_partid="part_pad"][layerid="2"] ellipse:not([c_etype="pad_outer"]) {fill:#0000FF;}
g[c_partid="part_pad"][layerid="2"] polygon:not([c_etype="pad_outer"]) {fill:#0000FF;}
g[c_partid="part_pad"][layerid="2"] polyline:not([c_etype="pad_outer"]) {stroke:#0000FF;}
g[c_partid="part_pad"][layerid="11"] ellipse:not([c_etype="pad_outer"]) {fill:#C0C0C0;}
g[c_partid="part_pad"][layerid="11"] polygon:not([c_etype="pad_outer"]) {fill:#C0C0C0;}
g[c_partid="part_pad"][layerid="11"] polyline:not([c_etype="pad_outer"]) {stroke:#C0C0C0;}
g[c_partid="part_pad"][layerid="11"] circle {fill:#222222;}
g[c_partid="part_pad"][layerid="11"] > polyline:nth-of-type(2) {stroke:#222222;}
g[c_partid="part_pad"][layerid="11"][c_shape="ELLIPSE"]  polyline:nth-last-of-type(1) {stroke:#222222;}
g[c_partid="part_pad"][layerid="11"][c_shape="RECT"]  polyline:nth-last-of-type(1) {stroke:#222222;}
g[c_partid="part_pad"][layerid="11"][c_shape="POLYGON"]  polyline:nth-last-of-type(1) {stroke:#222222;}
g[c_partid="part_via"] > * + circle, #gCurParts g[c_partid="part_via"] > * + circle {fill:#222222;}
g[c_partid="part_pad"] > polygon[c_etype="pad_outer"], #gCurParts g[c_partid="part_pad"] > polygon[c_etype="pad_outer"] {stroke-linejoin: miter;stroke-miterlimit: 100;}
g[c_partid="part_hole"] > circle {fill: #222222;}path, polyline, polygon {stroke-linejoin:round;}
rect, circle, ellipse, polyline, line, polygon, path {shape-rendering:crispEdges;}
</style>
<rect x="4025" y="3030.5" width="318" height="236" fill="#000000" stroke="none"/><polyline points="4146 3150 4146 3163.78" stroke-width="3"  stroke-linecap="round" fill="none" layerid="1" net="U2_4" id="gge476" locked="0" /><polyline points="4310 3215 4296.22 3215" stroke-width="3"  stroke-linecap="round" fill="none" layerid="1" net="U2_27" id="gge475" locked="0" /><polyline points="4116 3157 4086 3157" stroke-width="3"  stroke-linecap="round" fill="none" layerid="1" net="U2_5" id="gge3" locked="0" /><polyline points="4171.5 3117 4153.5 3117 4143 3127.5 4117.5 3127.5" stroke-width="3"  stroke-linecap="round" fill="none" layerid="1" net="U2_17" id="gge2" locked="0" /><g c_partid="part_pad" c_etype="pinpart" c_origin="4310,3215" layerid="11" number="1" net="U2_27" plated ="Y"  id="gge33" locked="0" c_rotation="0" c_width="5.9055" c_height="5.9055" title="U2_27" c_shape="RECT" pasteexpansion="0" solderexpansion="0.4"><polygon  c_etype="pad_shell" points="4312.953 3212.047 4307.047 3212.047 4307.047 3217.953 4312.953 3217.953" layerid="11" stroke-width="0" /><circle c_etype="pad_hole" cx="4310" cy="3215" r="0.05" layerid="11" stroke-width="0"/></g><g c_partid="part_pad" c_etype="pinpart" c_origin="4296.22,3215" layerid="11" number="2" net="U2_27" plated ="Y"  id="gge29" locked="0" c_rotation="0" c_width="5.9055" c_height="5.9055" title="U2_27" c_shape="RECT" pasteexpansion="0" solderexpansion="0.4"><polygon  c_etype="pad_shell" points="4299.173 3212.047 4293.268 3212.047 4293.268 3217.953 4299.173 3217.953" layerid="11" stroke-width="0" /><circle c_etype="pad_hole" cx="4296.22" cy="3215" r="0.05" layerid="11" stroke-width="0"/></g><g c_partid="part_pad" c_etype="pinpart" c_origin="4146,3150" layerid="11" number="1" net="U2_4" plated ="Y"  id="gge41" locked="0" c_rotation="90" c_width="5.9055" c_height="5.9055" title="U2_4" c_shape="RECT" pasteexpansion="0" solderexpansion="0.4"><polygon  c_etype="pad_shell" points="4143.047 3147.047 4143.047 3152.953 4148.953 3152.953 4148.953 3147.047" layerid="11" stroke-width="0" /><circle c_etype="pad_hole" cx="4146" cy="3150" r="0.05" layerid="11" stroke-width="0"/></g><g c_partid="part_pad" c_etype="pinpart" c_origin="4146,3163.78" layerid="11" number="2" net="U2_4" plated ="Y"  id="gge37" locked="0" c_rotation="90" c_width="5.9055" c_height="5.9055" title="U2_4" c_shape="RECT" pasteexpansion="0" solderexpansion="0.4"><polygon  c_etype="pad_shell" points="4143.047 3160.827 4143.047 3166.732 4148.953 3166.732 4148.953 3160.827" layerid="11" stroke-width="0" /><circle c_etype="pad_hole" cx="4146" cy="3163.78" r="0.05" layerid="11" stroke-width="0"/></g><g c_partid="part_pad" c_etype="pinpart" c_origin="4236.147,3218.793" layerid="11" number="4" net="U2_7" plated ="Y"  id="gge504" locked="0" c_rotation="90" c_width="5.3" c_height="9" title="U2_7" c_shape="RECT" pasteexpansion="0" solderexpansion="0.4"><polygon  c_etype="pad_shell" points="4231.647 3221.443 4231.647 3216.143 4240.647 3216.143 4240.647 3221.443" layerid="11" stroke-width="0" /><circle c_etype="pad_hole" cx="4236.147" cy="3218.793" r="2.362" layerid="11" stroke-width="0"/></g><g c_partid="part_pad" c_etype="pinpart" c_origin="4236.147,3193.203" layerid="11" number="3" net="U2_7" plated ="Y"  id="gge509" locked="0" c_rotation="90" c_width="5.3" c_height="9" title="U2_7" c_shape="RECT" pasteexpansion="0" solderexpansion="0.4"><polygon  c_etype="pad_shell" points="4231.647 3195.853 4231.647 3190.553 4240.647 3190.553 4240.647 3195.853" layerid="11" stroke-width="0" /><circle c_etype="pad_hole" cx="4236.147" cy="3193.203" r="2.362" layerid="11" stroke-width="0"/></g><g c_partid="part_pad" c_etype="pinpart" c_origin="4253.863,3193.203" layerid="11" number="2" net="U2_27" plated ="Y"  id="gge514" locked="0" c_rotation="90" c_width="5.3" c_height="9" title="U2_27" c_shape="RECT" pasteexpansion="0" solderexpansion="0.4"><polygon  c_etype="pad_shell" points="4249.363 3195.853 4249.363 3190.553 4258.363 3190.553 4258.363 3195.853" layerid="11" stroke-width="0" /><circle c_etype="pad_hole" cx="4253.863" cy="3193.203" r="2.362" layerid="11" stroke-width="0"/></g><g c_partid="part_pad" c_etype="pinpart" c_origin="4253.863,3218.793" layerid="11" number="1" net="U2_27" plated ="Y"  id="gge519" locked="0" c_rotation="90" c_width="5.3" c_height="9" title="U2_27" c_shape="RECT" pasteexpansion="0" solderexpansion="0.4"><polygon  c_etype="pad_shell" points="4249.363 3221.443 4249.363 3216.143 4258.363 3216.143 4258.363 3221.443" layerid="11" stroke-width="0" /><circle c_etype="pad_hole" cx="4253.863" cy="3218.793" r="2.362" layerid="11" stroke-width="0"/></g><g c_partid="part_pad" c_etype="pinpart" c_origin="4170.5,3173.658" layerid="11" number="1" net="LS1_1" plated ="Y"  id="gge57" locked="0" c_rotation="0" c_width="6.6929" c_height="6.6929" title="LS1_1" c_shape="RECT" pasteexpansion="0" solderexpansion="0.4"><polygon  c_etype="pad_shell" points="4167.1535 3170.311 4173.8465 3170.311 4173.8465 3177.004 4167.1535 3177.004" layerid="11" stroke-width="0" /><circle c_etype="pad_hole" cx="4170.5004" cy="3173.658" r="1.7717" layerid="11" stroke-width="0"/></g><g c_partid="part_pad" c_etype="pinpart" c_origin="4170.5,3193.343" layerid="11" number="2" net="U2_4" plated ="Y"  id="gge62" locked="0" c_rotation="0" c_width="6.6929" c_height="6.6929" title="U2_4" c_shape="ELLIPSE" pasteexpansion="0" solderexpansion="0.4"><ellipse c_etype="pad_shell" cx="4170.5" cy="3193.343" rx="3.34645" ry="3.34645" layerid="11" stroke-width="0"/><circle c_etype="pad_hole" cx="4170.5004" cy="3193.343" r="1.7717" layerid="11" stroke-width="0"/></g><g c_partid="part_pad" c_etype="pinpart" c_origin="4163,3141.5" layerid="11" number="1" net="U2_1" plated ="Y"  id="gge137" locked="0" c_rotation="0" c_width="7" c_height="7" title="U2_1" c_shape="RECT" pasteexpansion="0" solderexpansion="0.4"><polygon  c_etype="pad_shell" points="4159.5 3138 4166.5 3138 4166.5 3145 4159.5 3145" layerid="11" stroke-width="0" /><circle c_etype="pad_hole" cx="4163" cy="3141.5" r="1.8" layerid="11" stroke-width="0"/></g><g c_partid="part_pad" c_etype="pinpart" c_origin="4173,3141.5" layerid="11" number="2" net="U2_2" plated ="Y"  id="gge142" locked="0" c_rotation="0" c_width="7" c_height="7" title="U2_2" c_shape="ELLIPSE" pasteexpansion="0" solderexpansion="0.4"><ellipse c_etype="pad_shell" cx="4173" cy="3141.5" rx="3.5" ry="3.5" layerid="11" stroke-width="0"/><circle c_etype="pad_hole" cx="4173" cy="3141.5" r="1.8" layerid="11" stroke-width="0"/></g><g c_partid="part_pad" c_etype="pinpart" c_origin="4183,3141.5" layerid="11" number="3" net="U2_3" plated ="Y"  id="gge147" locked="0" c_rotation="0" c_width="7" c_height="7" title="U2_3" c_shape="ELLIPSE" pasteexpansion="0" solderexpansion="0.4"><ellipse c_etype="pad_shell" cx="4183" cy="3141.5" rx="3.5" ry="3.5" layerid="11" stroke-width="0"/><circle c_etype="pad_hole" cx="4183" cy="3141.5" r="1.8" layerid="11" stroke-width="0"/></g><g c_partid="part_pad" c_etype="pinpart" c_origin="4193,3141.5" layerid="11" number="4" net="U2_4" plated ="Y"  id="gge152" locked="0" c_rotation="0" c_width="7" c_height="7" title="U2_4" c_shape="ELLIPSE" pasteexpansion="0" solderexpansion="0.4"><ellipse c_etype="pad_shell" cx="4193" cy="3141.5" rx="3.5" ry="3.5" layerid="11" stroke-width="0"/><circle c_etype="pad_hole" cx="4193" cy="3141.5" r="1.8" layerid="11" stroke-width="0"/></g><g c_partid="part_pad" c_etype="pinpart" c_origin="4203,3141.5" layerid="11" number="5" net="U2_5" plated ="Y"  id="gge157" locked="0" c_rotation="0" c_width="7" c_height="7" title="U2_5" c_shape="ELLIPSE" pasteexpansion="0" solderexpansion="0.4"><ellipse c_etype="pad_shell" cx="4203" cy="3141.5" rx="3.5" ry="3.5" layerid="11" stroke-width="0"/><circle c_etype="pad_hole" cx="4203" cy="3141.5" r="1.8" layerid="11" stroke-width="0"/></g><g c_partid="part_pad" c_etype="pinpart" c_origin="4213,3141.5" layerid="11" number="6" net="U2_6" plated ="Y"  id="gge162" locked="0" c_rotation="0" c_width="7" c_height="7" title="U2_6" c_shape="ELLIPSE" pasteexpansion="0" solderexpansion="0.4"><ellipse c_etype="pad_shell" cx="4213" cy="3141.5" rx="3.5" ry="3.5" layerid="11" stroke-width="0"/><circle c_etype="pad_hole" cx="4213" cy="3141.5" r="1.8" layerid="11" stroke-width="0"/></g><g c_partid="part_pad" c_etype="pinpart" c_origin="4223,3141.5" layerid="11" number="7" net="U2_7" plated ="Y"  id="gge167" locked="0" c_rotation="0" c_width="7" c_height="7" title="U2_7" c_shape="ELLIPSE" pasteexpansion="0" solderexpansion="0.4"><ellipse c_etype="pad_shell" cx="4223" cy="3141.5" rx="3.5" ry="3.5" layerid="11" stroke-width="0"/><circle c_etype="pad_hole" cx="4223" cy="3141.5" r="1.8" layerid="11" stroke-width="0"/></g><g c_partid="part_pad" c_etype="pinpart" c_origin="4233,3141.5" layerid="11" number="8" net="U2_8" plated ="Y"  id="gge172" locked="0" c_rotation="0" c_width="7" c_height="7" title="U2_8" c_shape="ELLIPSE" pasteexpansion="0" solderexpansion="0.4"><ellipse c_etype="pad_shell" cx="4233" cy="3141.5" rx="3.5" ry="3.5" layerid="11" stroke-width="0"/><circle c_etype="pad_hole" cx="4233" cy="3141.5" r="1.8" layerid="11" stroke-width="0"/></g><g c_partid="part_pad" c_etype="pinpart" c_origin="4243,3141.5" layerid="11" number="9" net="U2_9" plated ="Y"  id="gge177" locked="0" c_rotation="0" c_width="7" c_height="7" title="U2_9" c_shape="ELLIPSE" pasteexpansion="0" solderexpansion="0.4"><ellipse c_etype="pad_shell" cx="4243" cy="3141.5" rx="3.5" ry="3.5" layerid="11" stroke-width="0"/><circle c_etype="pad_hole" cx="4243" cy="3141.5" r="1.8" layerid="11" stroke-width="0"/></g><g c_partid="part_pad" c_etype="pinpart" c_origin="4253,3141.5" layerid="11" number="10" net="U2_10" plated ="Y"  id="gge182" locked="0" c_rotation="0" c_width="7" c_height="7" title="U2_10" c_shape="ELLIPSE" pasteexpansion="0" solderexpansion="0.4"><ellipse c_etype="pad_shell" cx="4253" cy="3141.5" rx="3.5" ry="3.5" layerid="11" stroke-width="0"/><circle c_etype="pad_hole" cx="4253" cy="3141.5" r="1.8" layerid="11" stroke-width="0"/></g><g c_partid="part_pad" c_etype="pinpart" c_origin="4263,3141.5" layerid="11" number="11" net="U2_11" plated ="Y"  id="gge187" locked="0" c_rotation="0" c_width="7" c_height="7" title="U2_11" c_shape="ELLIPSE" pasteexpansion="0" solderexpansion="0.4"><ellipse c_etype="pad_shell" cx="4263" cy="3141.5" rx="3.5" ry="3.5" layerid="11" stroke-width="0"/><circle c_etype="pad_hole" cx="4263" cy="3141.5" r="1.8" layerid="11" stroke-width="0"/></g><g c_partid="part_pad" c_etype="pinpart" c_origin="4273,3141.5" layerid="11" number="12" net="U2_12" plated ="Y"  id="gge192" locked="0" c_rotation="0" c_width="7" c_height="7" title="U2_12" c_shape="ELLIPSE" pasteexpansion="0" solderexpansion="0.4"><ellipse c_etype="pad_shell" cx="4273" cy="3141.5" rx="3.5" ry="3.5" layerid="11" stroke-width="0"/><circle c_etype="pad_hole" cx="4273" cy="3141.5" r="1.8" layerid="11" stroke-width="0"/></g><g c_partid="part_pad" c_etype="pinpart" c_origin="4283,3141.5" layerid="11" number="13" net="U2_13" plated ="Y"  id="gge197" locked="0" c_rotation="0" c_width="7" c_height="7" title="U2_13" c_shape="ELLIPSE" pasteexpansion="0" solderexpansion="0.4"><ellipse c_etype="pad_shell" cx="4283" cy="3141.5" rx="3.5" ry="3.5" layerid="11" stroke-width="0"/><circle c_etype="pad_hole" cx="4283" cy="3141.5" r="1.8" layerid="11" stroke-width="0"/></g><g c_partid="part_pad" c_etype="pinpart" c_origin="4293,3141.5" layerid="11" number="14" net="U2_14" plated ="Y"  id="gge202" locked="0" c_rotation="0" c_width="7" c_height="7" title="U2_14" c_shape="ELLIPSE" pasteexpansion="0" solderexpansion="0.4"><ellipse c_etype="pad_shell" cx="4293" cy="3141.5" rx="3.5" ry="3.5" layerid="11" stroke-width="0"/><circle c_etype="pad_hole" cx="4293" cy="3141.5" r="1.8" layerid="11" stroke-width="0"/></g><g c_partid="part_pad" c_etype="pinpart" c_origin="4303,3141.5" layerid="11" number="15" net="U2_15" plated ="Y"  id="gge207" locked="0" c_rotation="0" c_width="7" c_height="7" title="U2_15" c_shape="ELLIPSE" pasteexpansion="0" solderexpansion="0.4"><ellipse c_etype="pad_shell" cx="4303" cy="3141.5" rx="3.5" ry="3.5" layerid="11" stroke-width="0"/><circle c_etype="pad_hole" cx="4303" cy="3141.5" r="1.8" layerid="11" stroke-width="0"/></g><g c_partid="part_pad" c_etype="pinpart" c_origin="4163,3081.5" layerid="11" number="30" net="U2_30" plated ="Y"  id="gge212" locked="0" c_rotation="0" c_width="7" c_height="7" title="U2_30" c_shape="ELLIPSE" pasteexpansion="0" solderexpansion="0.4"><ellipse c_etype="pad_shell" cx="4163" cy="3081.5" rx="3.5" ry="3.5" layerid="11" stroke-width="0"/><circle c_etype="pad_hole" cx="4163" cy="3081.5" r="1.8" layerid="11" stroke-width="0"/></g><g c_partid="part_pad" c_etype="pinpart" c_origin="4173,3081.5" layerid="11" number="29" net="U2_29" plated ="Y"  id="gge217" locked="0" c_rotation="0" c_width="7" c_height="7" title="U2_29" c_shape="ELLIPSE" pasteexpansion="0" solderexpansion="0.4"><ellipse c_etype="pad_shell" cx="4173" cy="3081.5" rx="3.5" ry="3.5" layerid="11" stroke-width="0"/><circle c_etype="pad_hole" cx="4173" cy="3081.5" r="1.8" layerid="11" stroke-width="0"/></g><g c_partid="part_pad" c_etype="pinpart" c_origin="4183,3081.5" layerid="11" number="28" net="U2_28" plated ="Y"  id="gge222" locked="0" c_rotation="0" c_width="7" c_height="7" title="U2_28" c_shape="ELLIPSE" pasteexpansion="0" solderexpansion="0.4"><ellipse c_etype="pad_shell" cx="4183" cy="3081.5" rx="3.5" ry="3.5" layerid="11" stroke-width="0"/><circle c_etype="pad_hole" cx="4183" cy="3081.5" r="1.8" layerid="11" stroke-width="0"/></g><g c_partid="part_pad" c_etype="pinpart" c_origin="4193,3081.5" layerid="11" number="27" net="U2_27" plated ="Y"  id="gge227" locked="0" c_rotation="0" c_width="7" c_height="7" title="U2_27" c_shape="ELLIPSE" pasteexpansion="0" solderexpansion="0.4"><ellipse c_etype="pad_shell" cx="4193" cy="3081.5" rx="3.5" ry="3.5" layerid="11" stroke-width="0"/><circle c_etype="pad_hole" cx="4193" cy="3081.5" r="1.8" layerid="11" stroke-width="0"/></g><g c_partid="part_pad" c_etype="pinpart" c_origin="4203,3081.5" layerid="11" number="26" net="U2_26" plated ="Y"  id="gge232" locked="0" c_rotation="0" c_width="7" c_height="7" title="U2_26" c_shape="ELLIPSE" pasteexpansion="0" solderexpansion="0.4"><ellipse c_etype="pad_shell" cx="4203" cy="3081.5" rx="3.5" ry="3.5" layerid="11" stroke-width="0"/><circle c_etype="pad_hole" cx="4203" cy="3081.5" r="1.8" layerid="11" stroke-width="0"/></g><g c_partid="part_pad" c_etype="pinpart" c_origin="4213,3081.5" layerid="11" number="25" net="U2_25" plated ="Y"  id="gge237" locked="0" c_rotation="0" c_width="7" c_height="7" title="U2_25" c_shape="ELLIPSE" pasteexpansion="0" solderexpansion="0.4"><ellipse c_etype="pad_shell" cx="4213" cy="3081.5" rx="3.5" ry="3.5" layerid="11" stroke-width="0"/><circle c_etype="pad_hole" cx="4213" cy="3081.5" r="1.8" layerid="11" stroke-width="0"/></g><g c_partid="part_pad" c_etype="pinpart" c_origin="4223,3081.5" layerid="11" number="24" net="U2_24" plated ="Y"  id="gge242" locked="0" c_rotation="0" c_width="7" c_height="7" title="U2_24" c_shape="ELLIPSE" pasteexpansion="0" solderexpansion="0.4"><ellipse c_etype="pad_shell" cx="4223" cy="3081.5" rx="3.5" ry="3.5" layerid="11" stroke-width="0"/><circle c_etype="pad_hole" cx="4223" cy="3081.5" r="1.8" layerid="11" stroke-width="0"/></g><g c_partid="part_pad" c_etype="pinpart" c_origin="4233,3081.5" layerid="11" number="23" net="U2_23" plated ="Y"  id="gge247" locked="0" c_rotation="0" c_width="7" c_height="7" title="U2_23" c_shape="ELLIPSE" pasteexpansion="0" solderexpansion="0.4"><ellipse c_etype="pad_shell" cx="4233" cy="3081.5" rx="3.5" ry="3.5" layerid="11" stroke-width="0"/><circle c_etype="pad_hole" cx="4233" cy="3081.5" r="1.8" layerid="11" stroke-width="0"/></g><g c_partid="part_pad" c_etype="pinpart" c_origin="4243,3081.5" layerid="11" number="22" net="U2_22" plated ="Y"  id="gge252" locked="0" c_rotation="0" c_width="7" c_height="7" title="U2_22" c_shape="ELLIPSE" pasteexpansion="0" solderexpansion="0.4"><ellipse c_etype="pad_shell" cx="4243" cy="3081.5" rx="3.5" ry="3.5" layerid="11" stroke-width="0"/><circle c_etype="pad_hole" cx="4243" cy="3081.5" r="1.8" layerid="11" stroke-width="0"/></g><g c_partid="part_pad" c_etype="pinpart" c_origin="4253,3081.5" layerid="11" number="21" net="U2_21" plated ="Y"  id="gge257" locked="0" c_rotation="0" c_width="7" c_height="7" title="U2_21" c_shape="ELLIPSE" pasteexpansion="0" solderexpansion="0.4"><ellipse c_etype="pad_shell" cx="4253" cy="3081.5" rx="3.5" ry="3.5" layerid="11" stroke-width="0"/><circle c_etype="pad_hole" cx="4253" cy="3081.5" r="1.8" layerid="11" stroke-width="0"/></g><g c_partid="part_pad" c_etype="pinpart" c_origin="4263,3081.5" layerid="11" number="20" net="U2_20" plated ="Y"  id="gge262" locked="0" c_rotation="0" c_width="7" c_height="7" title="U2_20" c_shape="ELLIPSE" pasteexpansion="0" solderexpansion="0.4"><ellipse c_etype="pad_shell" cx="4263" cy="3081.5" rx="3.5" ry="3.5" layerid="11" stroke-width="0"/><circle c_etype="pad_hole" cx="4263" cy="3081.5" r="1.8" layerid="11" stroke-width="0"/></g><g c_partid="part_pad" c_etype="pinpart" c_origin="4273,3081.5" layerid="11" number="19" net="U2_19" plated ="Y"  id="gge267" locked="0" c_rotation="0" c_width="7" c_height="7" title="U2_19" c_shape="ELLIPSE" pasteexpansion="0" solderexpansion="0.4"><ellipse c_etype="pad_shell" cx="4273" cy="3081.5" rx="3.5" ry="3.5" layerid="11" stroke-width="0"/><circle c_etype="pad_hole" cx="4273" cy="3081.5" r="1.8" layerid="11" stroke-width="0"/></g><g c_partid="part_pad" c_etype="pinpart" c_origin="4283,3081.5" layerid="11" number="18" net="U2_18" plated ="Y"  id="gge272" locked="0" c_rotation="0" c_width="7" c_height="7" title="U2_18" c_shape="ELLIPSE" pasteexpansion="0" solderexpansion="0.4"><ellipse c_etype="pad_shell" cx="4283" cy="3081.5" rx="3.5" ry="3.5" layerid="11" stroke-width="0"/><circle c_etype="pad_hole" cx="4283" cy="3081.5" r="1.8" layerid="11" stroke-width="0"/></g><g c_partid="part_pad" c_etype="pinpart" c_origin="4293,3081.5" layerid="11" number="17" net="U2_17" plated ="Y"  id="gge277" locked="0" c_rotation="0" c_width="7" c_height="7" title="U2_17" c_shape="ELLIPSE" pasteexpansion="0" solderexpansion="0.4"><ellipse c_etype="pad_shell" cx="4293" cy="3081.5" rx="3.5" ry="3.5" layerid="11" stroke-width="0"/><circle c_etype="pad_hole" cx="4293" cy="3081.5" r="1.8" layerid="11" stroke-width="0"/></g><g c_partid="part_pad" c_etype="pinpart" c_origin="4303,3081.5" layerid="11" number="16" net="U2_16" plated ="Y"  id="gge282" locked="0" c_rotation="0" c_width="7" c_height="7" title="U2_16" c_shape="ELLIPSE" pasteexpansion="0" solderexpansion="0.4"><ellipse c_etype="pad_shell" cx="4303" cy="3081.5" rx="3.5" ry="3.5" layerid="11" stroke-width="0"/><circle c_etype="pad_hole" cx="4303" cy="3081.5" r="1.8" layerid="11" stroke-width="0"/></g><g c_partid="part_pad" c_etype="pinpart" c_origin="4117.1,3070.5" layerid="11" number="1" net="U2_19" plated ="Y"  id="gge298" locked="0" c_rotation="0" c_width="6.6" c_height="6.6" title="U2_19" c_shape="ELLIPSE" pasteexpansion="0" solderexpansion="0.4"><ellipse c_etype="pad_shell" cx="4117.1" cy="3070.5" rx="3.3" ry="3.3" layerid="11" stroke-width="0"/><circle c_etype="pad_hole" cx="4117.1" cy="3070.5" r="1.57" layerid="11" stroke-width="0"/></g><g c_partid="part_pad" c_etype="pinpart" c_origin="4132.9,3070.5" layerid="11" number="2" net="U2_27" plated ="Y"  id="gge303" locked="0" c_rotation="0" c_width="6.6" c_height="6.6" title="U2_27" c_shape="ELLIPSE" pasteexpansion="0" solderexpansion="0.4"><ellipse c_etype="pad_shell" cx="4132.9" cy="3070.5" rx="3.3" ry="3.3" layerid="11" stroke-width="0"/><circle c_etype="pad_hole" cx="4132.9" cy="3070.5" r="1.57" layerid="11" stroke-width="0"/></g><g c_partid="part_pad" c_etype="pinpart" c_origin="4115.99,3105.495" layerid="11" number="1" net="U2_4" plated ="Y"  id="gge318" locked="0" c_rotation="180" c_width="7.0866" c_height="7.0866" title="U2_4" c_shape="ELLIPSE" pasteexpansion="0" solderexpansion="0.4"><ellipse c_etype="pad_shell" cx="4115.99" cy="3105.495" rx="3.5433" ry="3.5433" layerid="11" stroke-width="0"/><circle c_etype="pad_hole" cx="4115.99" cy="3105.495" r="1.5" layerid="11" stroke-width="0"/></g><g c_partid="part_pad" c_etype="pinpart" c_origin="4116,3115.505" layerid="11" number="2" net="U2_17" plated ="Y"  id="gge323" locked="0" c_rotation="180" c_width="7.0866" c_height="7.0866" title="U2_17" c_shape="ELLIPSE" pasteexpansion="0" solderexpansion="0.4"><ellipse c_etype="pad_shell" cx="4116" cy="3115.505" rx="3.5433" ry="3.5433" layerid="11" stroke-width="0"/><circle c_etype="pad_hole" cx="4116" cy="3115.505" r="1.5" layerid="11" stroke-width="0"/></g><g c_partid="part_pad" c_etype="pinpart" c_origin="4106,3105.505" layerid="11" number="3" net="U2_12" plated ="Y"  id="gge328" locked="0" c_rotation="180" c_width="7.0866" c_height="7.0866" title="U2_12" c_shape="ELLIPSE" pasteexpansion="0" solderexpansion="0.4"><ellipse c_etype="pad_shell" cx="4106" cy="3105.505" rx="3.5433" ry="3.5433" layerid="11" stroke-width="0"/><circle c_etype="pad_hole" cx="4106" cy="3105.505" r="1.5" layerid="11" stroke-width="0"/></g><g c_partid="part_pad" c_etype="pinpart" c_origin="4106,3115.505" layerid="11" number="4" net="U2_13" plated ="Y"  id="gge333" locked="0" c_rotation="180" c_width="7.0866" c_height="7.0866" title="U2_13" c_shape="ELLIPSE" pasteexpansion="0" solderexpansion="0.4"><ellipse c_etype="pad_shell" cx="4106" cy="3115.505" rx="3.5433" ry="3.5433" layerid="11" stroke-width="0"/><circle c_etype="pad_hole" cx="4106" cy="3115.505" r="1.5" layerid="11" stroke-width="0"/></g><g c_partid="part_pad" c_etype="pinpart" c_origin="4096,3105.505" layerid="11" number="5" net="U2_16" plated ="Y"  id="gge338" locked="0" c_rotation="180" c_width="7.0866" c_height="7.0866" title="U2_16" c_shape="ELLIPSE" pasteexpansion="0" solderexpansion="0.4"><ellipse c_etype="pad_shell" cx="4096" cy="3105.505" rx="3.5433" ry="3.5433" layerid="11" stroke-width="0"/><circle c_etype="pad_hole" cx="4096" cy="3105.505" r="1.5" layerid="11" stroke-width="0"/></g><g c_partid="part_pad" c_etype="pinpart" c_origin="4096,3115.505" layerid="11" number="6" net="U2_14" plated ="Y"  id="gge343" locked="0" c_rotation="180" c_width="7.0866" c_height="7.0866" title="U2_14" c_shape="ELLIPSE" pasteexpansion="0" solderexpansion="0.4"><ellipse c_etype="pad_shell" cx="4096" cy="3115.505" rx="3.5433" ry="3.5433" layerid="11" stroke-width="0"/><circle c_etype="pad_hole" cx="4096" cy="3115.505" r="1.5" layerid="11" stroke-width="0"/></g><g c_partid="part_pad" c_etype="pinpart" c_origin="4086,3105.505" layerid="11" number="7" net="U2_15" plated ="Y"  id="gge348" locked="0" c_rotation="180" c_width="7.0866" c_height="7.0866" title="U2_15" c_shape="ELLIPSE" pasteexpansion="0" solderexpansion="0.4"><ellipse c_etype="pad_shell" cx="4086" cy="3105.505" rx="3.5433" ry="3.5433" layerid="11" stroke-width="0"/><circle c_etype="pad_hole" cx="4086" cy="3105.505" r="1.5" layerid="11" stroke-width="0"/></g><g c_partid="part_pad" c_etype="pinpart" c_origin="4086,3115.505" layerid="11" number="8" net="U2_5" plated ="Y"  id="gge353" locked="0" c_rotation="180" c_width="7.0866" c_height="7.0866" title="U2_5" c_shape="ELLIPSE" pasteexpansion="0" solderexpansion="0.4"><ellipse c_etype="pad_shell" cx="4086" cy="3115.505" rx="3.5433" ry="3.5433" layerid="11" stroke-width="0"/><circle c_etype="pad_hole" cx="4086" cy="3115.505" r="1.5" layerid="11" stroke-width="0"/></g><g c_partid="part_pad" c_etype="pinpart" c_origin="4124.563,3139.5" layerid="11" number="1" net="U2_17" plated ="Y"  id="gge367" locked="0" c_rotation="0" c_width="5.1181" c_height="5.1181" title="U2_17" c_shape="ELLIPSE" pasteexpansion="0" solderexpansion="0.4"><ellipse c_etype="pad_shell" cx="4124.563" cy="3139.5" rx="2.55905" ry="2.55905" layerid="11" stroke-width="0"/><circle c_etype="pad_hole" cx="4124.563" cy="3139.5" r="1.1" layerid="11" stroke-width="0"/></g><g c_partid="part_pad" c_etype="pinpart" c_origin="4132.437,3139.5" layerid="11" number="2" net="U2_4" plated ="Y"  id="gge372" locked="0" c_rotation="0" c_width="5.1181" c_height="5.1181" title="U2_4" c_shape="ELLIPSE" pasteexpansion="0" solderexpansion="0.4"><ellipse c_etype="pad_shell" cx="4132.437" cy="3139.5" rx="2.55905" ry="2.55905" layerid="11" stroke-width="0"/><circle c_etype="pad_hole" cx="4132.437" cy="3139.5" r="1.1" layerid="11" stroke-width="0"/></g><g c_partid="part_via" c_etype="pinpart" c_shapetype="group" net="U2_17" c_origin="4117.5,3127.5" layerid="11" id="gge462" locked="0" solderexpansion=""><circle cx="4117.5" cy="3127.5" r="3.8" stroke-width="0" c_etype="pad_shell"/><circle cx="4117.5" cy="3127.5" r="1.8"  stroke-width="0" c_etype="pad_hole"/></g><g c_partid="part_via" c_etype="pinpart" c_shapetype="group" net="U2_17" c_origin="4171.5,3117" layerid="11" id="gge465" locked="0" solderexpansion=""><circle cx="4171.5" cy="3117" r="3.8" stroke-width="0" c_etype="pad_shell"/><circle cx="4171.5" cy="3117" r="1.8"  stroke-width="0" c_etype="pad_hole"/></g><g c_partid="part_via" c_etype="pinpart" c_shapetype="group" net="U2_5" c_origin="4086,3157" layerid="11" id="gge468" locked="0" solderexpansion=""><circle cx="4086" cy="3157" r="3.8" stroke-width="0" c_etype="pad_shell"/><circle cx="4086" cy="3157" r="1.8"  stroke-width="0" c_etype="pad_hole"/></g><g c_partid="part_via" c_etype="pinpart" c_shapetype="group" net="U2_5" c_origin="4116,3157" layerid="11" id="gge471" locked="0" solderexpansion=""><circle cx="4116" cy="3157" r="3.8" stroke-width="0" c_etype="pad_shell"/><circle cx="4116" cy="3157" r="1.8"  stroke-width="0" c_etype="pad_hole"/></g><polyline points="4233.189 3214.9559 4233.189 3197.0401" stroke-width="1"  stroke-linecap="round" fill="none" layerid="3" net="" id="gge498" locked="0" /><polyline points="4240.79 3194.593 4249.22 3194.593" stroke-width="1"  stroke-linecap="round" fill="none" layerid="3" net="" id="gge499" locked="0" /><polyline points="4256.413 3197.3232 4256.413 3214.6728" stroke-width="1"  stroke-linecap="round" fill="none" layerid="3" net="" id="gge500" locked="0" /><polyline points="4249.2144 3217.422 4240.7956 3217.422" stroke-width="1"  stroke-linecap="round" fill="none" layerid="3" net="" id="gge501" locked="0" /><polyline points="4175.4606 3173.5 4179.4606 3173.5" stroke-width="1"  stroke-linecap="round" fill="none" layerid="3" net="S$35" id="gge51" locked="0" /><polyline points="4177.46 3171 4177.46 3176" stroke-width="1"  stroke-linecap="round" fill="none" layerid="3" net="S$37" id="gge52" locked="0" /><polyline points="4160.6565 3159.8783 4180.3415 3159.8783" stroke-width="1"  stroke-linecap="round" fill="none" layerid="3" net="" id="gge54" locked="0" /><polyline points="4180.3415 3167.3682 4180.3415 3159.8783" stroke-width="1"  stroke-linecap="round" fill="none" layerid="3" net="" id="gge55" locked="0" /><polyline points="4160.6565 3167.3682 4160.6565 3159.8783" stroke-width="1"  stroke-linecap="round" fill="none" layerid="3" net="" id="gge56" locked="0" /><polyline points="4318 3146.5 4318 3076.5" stroke-width="1"  stroke-linecap="round" fill="none" layerid="3" net="" id="gge72" locked="0" /><polyline points="4318 3076.5 4148 3076.5" stroke-width="1"  stroke-linecap="round" fill="none" layerid="3" net="" id="gge73" locked="0" /><polyline points="4148 3076.5 4148 3146.5" stroke-width="1"  stroke-linecap="round" fill="none" layerid="3" net="" id="gge74" locked="0" /><polyline points="4148 3146.5 4318 3146.5" stroke-width="1"  stroke-linecap="round" fill="none" layerid="3" net="" id="gge75" locked="0" /><polyline points="4303 3126.5 4333 3126.5 4333 3096.5 4303 3096.5 4303 3126.5" stroke-width="1"  stroke-linecap="round" fill="none" layerid="3" net="" id="gge76" locked="0" /><polyline points="4121.1 3062.6 4128.9 3062.6" stroke-width="1"  stroke-linecap="round" fill="none" layerid="3" net="" id="gge292" locked="0" /><polyline points="4128.9 3078.4 4121.1 3078.4" stroke-width="1"  stroke-linecap="round" fill="none" layerid="3" net="" id="gge293" locked="0" /><polyline points="4123.467 3212.971 4123.467 3098.798" stroke-width="1"  stroke-linecap="round" fill="none" layerid="3" net="" id="gge313" locked="0" /><polyline points="4123.467 3212.971 4064.412 3212.971" stroke-width="1"  stroke-linecap="round" fill="none" layerid="3" net="" id="gge314" locked="0" /><polyline points="4064.412 3098.798 4064.412 3212.971" stroke-width="1"  stroke-linecap="round" fill="none" layerid="3" net="" id="gge315" locked="0" /><polyline points="4064.373 3098.798 4123.428 3098.798" stroke-width="1"  stroke-linecap="round" fill="none" layerid="3" net="" id="gge316" locked="0" /><polyline points="4121.496 3121.238 4080.551 3121.238 4080.551 3100.766 4121.496 3100.766 4121.496 3121.238" stroke-width="1"  stroke-linecap="round" fill="none" layerid="3" net="" id="gge317" locked="0" /><polyline points="4122.531 3133.595 4126.531 3133.595" stroke-width="1"  stroke-linecap="round" fill="none" layerid="3" net="" id="gge363" locked="0" /><polyline points="4124.563 3131.626 4124.563 3135.626" stroke-width="1"  stroke-linecap="round" fill="none" layerid="3" net="" id="gge364" locked="0" /><g c_partid="part_pcbtext" c_etype="" c_origin="4227.172,3206.798" c_rotation="90" c_mirror="0" id="gge399" locked="0" layerid="3" c_shapetype="group" display="none"><path c_fontsize="4.5" c_fontfamily="" c_text="button6*6*8.5" d="M 4222.627 3206.793 L 4226.927 3206.793 M 4224.677 3206.793 L 4224.267 3206.393 L 4224.067 3205.983 L 4224.067 3205.363 L 4224.267 3204.953 L 4224.677 3204.543 L 4225.287 3204.343 L 4225.697 3204.343 L 4226.317 3204.543 L 4226.727 3204.953 L 4226.927 3205.363 L 4226.927 3205.983 L 4226.727 3206.393 L 4226.317 3206.793 M 4224.067 3202.993 L 4226.107 3202.993 L 4226.727 3202.793 L 4226.927 3202.383 L 4226.927 3201.763 L 4226.727 3201.353 L 4226.107 3200.743 M 4224.067 3200.743 L 4226.927 3200.743 M 4222.627 3198.783 L 4226.107 3198.783 L 4226.727 3198.573 L 4226.927 3198.163 L 4226.927 3197.753 M 4224.067 3199.393 L 4224.067 3197.963 M 4222.627 3195.793 L 4226.107 3195.793 L 4226.727 3195.593 L 4226.927 3195.183 L 4226.927 3194.773 M 4224.067 3196.403 L 4224.067 3194.973 M 4224.067 3192.393 L 4224.267 3192.803 L 4224.677 3193.213 L 4225.287 3193.423 L 4225.697 3193.423 L 4226.317 3193.213 L 4226.727 3192.803 L 4226.927 3192.393 L 4226.927 3191.783 L 4226.727 3191.373 L 4226.317 3190.963 L 4225.697 3190.763 L 4225.287 3190.763 L 4224.677 3190.963 L 4224.267 3191.373 L 4224.067 3191.783 L 4224.067 3192.393 M 4224.067 3189.413 L 4226.927 3189.413 M 4224.877 3189.413 L 4224.267 3188.793 L 4224.067 3188.393 L 4224.067 3187.773 L 4224.267 3187.363 L 4224.877 3187.163 L 4226.927 3187.163 M 4223.247 3183.353 L 4222.837 3183.563 L 4222.627 3184.173 L 4222.627 3184.583 L 4222.837 3185.193 L 4223.447 3185.603 L 4224.477 3185.813 L 4225.497 3185.813 L 4226.317 3185.603 L 4226.727 3185.193 L 4226.927 3184.583 L 4226.927 3184.383 L 4226.727 3183.763 L 4226.317 3183.353 L 4225.697 3183.153 L 4225.497 3183.153 L 4224.877 3183.353 L 4224.477 3183.763 L 4224.267 3184.383 L 4224.267 3184.583 L 4224.477 3185.193 L 4224.877 3185.603 L 4225.497 3185.813 M 4223.857 3180.783 L 4226.317 3180.783 M 4224.477 3181.803 L 4225.697 3179.753 M 4224.477 3179.753 L 4225.697 3181.803 M 4223.247 3175.953 L 4222.837 3176.153 L 4222.627 3176.773 L 4222.627 3177.183 L 4222.837 3177.793 L 4223.447 3178.203 L 4224.477 3178.403 L 4225.497 3178.403 L 4226.317 3178.203 L 4226.727 3177.793 L 4226.927 3177.183 L 4226.927 3176.973 L 4226.727 3176.363 L 4226.317 3175.953 L 4225.697 3175.743 L 4225.497 3175.743 L 4224.877 3175.953 L 4224.477 3176.363 L 4224.267 3176.973 L 4224.267 3177.183 L 4224.477 3177.793 L 4224.877 3178.203 L 4225.497 3178.403 M 4223.857 3173.373 L 4226.317 3173.373 M 4224.477 3174.393 L 4225.697 3172.353 M 4224.477 3172.353 L 4225.697 3174.393 M 4222.627 3169.983 L 4222.837 3170.593 L 4223.247 3170.793 L 4223.657 3170.793 L 4224.067 3170.593 L 4224.267 3170.183 L 4224.477 3169.363 L 4224.677 3168.753 L 4225.087 3168.343 L 4225.497 3168.143 L 4226.107 3168.143 L 4226.517 3168.343 L 4226.727 3168.543 L 4226.927 3169.163 L 4226.927 3169.983 L 4226.727 3170.593 L 4226.517 3170.793 L 4226.107 3171.003 L 4225.497 3171.003 L 4225.087 3170.793 L 4224.677 3170.393 L 4224.477 3169.773 L 4224.267 3168.953 L 4224.067 3168.543 L 4223.657 3168.343 L 4223.247 3168.343 L 4222.837 3168.543 L 4222.627 3169.163 L 4222.627 3169.983 M 4225.907 3166.583 L 4226.107 3166.793 L 4226.317 3166.583 L 4226.107 3166.383 L 4225.907 3166.583 M 4222.627 3162.573 L 4222.627 3164.623 L 4224.477 3164.823 L 4224.267 3164.623 L 4224.067 3164.003 L 4224.067 3163.393 L 4224.267 3162.783 L 4224.677 3162.373 L 4225.287 3162.163 L 4225.697 3162.163 L 4226.317 3162.373 L 4226.727 3162.783 L 4226.927 3163.393 L 4226.927 3164.003 L 4226.727 3164.623 L 4226.517 3164.823 L 4226.107 3165.033" fill="none"  stroke-width="0.6" c_note="note_name" /></g><g c_partid="part_pcbtext" c_etype="" c_origin="4232.672,3206.798" c_rotation="90" c_mirror="0" id="gge397" locked="0" layerid="3" c_shapetype="group" ><path c_fontsize="4.5" c_fontfamily="" c_text="KEY1" d="M 4228.127 3206.793 L 4232.427 3206.793 M 4228.127 3203.933 L 4230.997 3206.793 M 4229.977 3205.773 L 4232.427 3203.933 M 4228.127 3202.583 L 4232.427 3202.583 M 4228.127 3202.583 L 4228.127 3199.923 M 4230.177 3202.583 L 4230.177 3200.943 M 4232.427 3202.583 L 4232.427 3199.923 M 4228.127 3198.573 L 4230.177 3196.943 L 4232.427 3196.943 M 4228.127 3195.303 L 4230.177 3196.943 M 4228.947 3193.953 L 4228.747 3193.543 L 4228.127 3192.933 L 4232.427 3192.933" fill="none"  stroke-width="0.6" c_note="note_pre" /></g><g c_partid="part_pcbtext" c_etype="" c_origin="4169.539,3160.739" c_rotation="0" c_mirror="0" id="gge47" locked="0" layerid="3" c_shapetype="group" ><path c_fontsize="4.5" c_fontfamily="" c_text="LS1" d="M 4169.5394 3154.58 L 4169.5394 3158.88 M 4169.5394 3158.88 L 4171.9894 3158.88 M 4176.2094 3155.2 L 4175.7994 3154.79 L 4175.1894 3154.58 L 4174.3694 3154.58 L 4173.7494 3154.79 L 4173.3394 3155.2 L 4173.3394 3155.61 L 4173.5494 3156.02 L 4173.7494 3156.22 L 4174.1594 3156.42 L 4175.3894 3156.83 L 4175.7994 3157.04 L 4175.9994 3157.24 L 4176.2094 3157.65 L 4176.2094 3158.27 L 4175.7994 3158.67 L 4175.1894 3158.88 L 4174.3694 3158.88 L 4173.7494 3158.67 L 4173.3394 3158.27 M 4177.5594 3155.4 L 4177.9694 3155.2 L 4178.5794 3154.58 L 4178.5794 3158.88" fill="none"  stroke-width="0.6" c_note="note_pre" /></g><g c_partid="part_pcbtext" c_etype="" c_origin="4169.539,3155.239" c_rotation="0" c_mirror="0" id="gge49" locked="0" layerid="3" c_shapetype="group" display="none"><path c_fontsize="4.5" c_fontfamily="" c_text="GMD9505RB-3V2700" d="M 4172.6094 3150.11 L 4172.3994 3149.7 L 4171.9894 3149.29 L 4171.5894 3149.08 L 4170.7694 3149.08 L 4170.3594 3149.29 L 4169.9494 3149.7 L 4169.7394 3150.11 L 4169.5394 3150.72 L 4169.5394 3151.74 L 4169.7394 3152.36 L 4169.9494 3152.77 L 4170.3594 3153.17 L 4170.7694 3153.38 L 4171.5894 3153.38 L 4171.9894 3153.17 L 4172.3994 3152.77 L 4172.6094 3152.36 L 4172.6094 3151.74 M 4171.5894 3151.74 L 4172.6094 3151.74 M 4173.9594 3149.08 L 4173.9594 3153.38 M 4173.9594 3149.08 L 4175.5894 3153.38 M 4177.2294 3149.08 L 4175.5894 3153.38 M 4177.2294 3149.08 L 4177.2294 3153.38 M 4178.5794 3149.08 L 4178.5794 3153.38 M 4178.5794 3149.08 L 4180.0094 3149.08 L 4180.6294 3149.29 L 4181.0394 3149.7 L 4181.2394 3150.11 L 4181.4394 3150.72 L 4181.4394 3151.74 L 4181.2394 3152.36 L 4181.0394 3152.77 L 4180.6294 3153.17 L 4180.0094 3153.38 L 4178.5794 3153.38 M 4185.4494 3150.52 L 4185.2494 3151.13 L 4184.8394 3151.54 L 4184.2294 3151.74 L 4184.0194 3151.74 L 4183.4094 3151.54 L 4182.9994 3151.13 L 4182.7894 3150.52 L 4182.7894 3150.31 L 4182.9994 3149.7 L 4183.4094 3149.29 L 4184.0194 3149.08 L 4184.2294 3149.08 L 4184.8394 3149.29 L 4185.2494 3149.7 L 4185.4494 3150.52 L 4185.4494 3151.54 L 4185.2494 3152.56 L 4184.8394 3153.17 L 4184.2294 3153.38 L 4183.8194 3153.38 L 4183.1994 3153.17 L 4182.9994 3152.77 M 4189.2594 3149.08 L 4187.2094 3149.08 L 4187.0094 3150.92 L 4187.2094 3150.72 L 4187.8294 3150.52 L 4188.4394 3150.52 L 4189.0494 3150.72 L 4189.4594 3151.13 L 4189.6694 3151.74 L 4189.6694 3152.15 L 4189.4594 3152.77 L 4189.0494 3153.17 L 4188.4394 3153.38 L 4187.8294 3153.38 L 4187.2094 3153.17 L 4187.0094 3152.97 L 4186.7994 3152.56 M 4192.2394 3149.08 L 4191.6294 3149.29 L 4191.2194 3149.9 L 4191.0194 3150.92 L 4191.0194 3151.54 L 4191.2194 3152.56 L 4191.6294 3153.17 L 4192.2394 3153.38 L 4192.6494 3153.38 L 4193.2694 3153.17 L 4193.6794 3152.56 L 4193.8794 3151.54 L 4193.8794 3150.92 L 4193.6794 3149.9 L 4193.2694 3149.29 L 4192.6494 3149.08 L 4192.2394 3149.08 M 4197.6894 3149.08 L 4195.6394 3149.08 L 4195.4394 3150.92 L 4195.6394 3150.72 L 4196.2494 3150.52 L 4196.8694 3150.52 L 4197.4794 3150.72 L 4197.8894 3151.13 L 4198.0894 3151.74 L 4198.0894 3152.15 L 4197.8894 3152.77 L 4197.4794 3153.17 L 4196.8694 3153.38 L 4196.2494 3153.38 L 4195.6394 3153.17 L 4195.4394 3152.97 L 4195.2294 3152.56 M 4199.4394 3149.08 L 4199.4394 3153.38 M 4199.4394 3149.08 L 4201.2894 3149.08 L 4201.8994 3149.29 L 4202.0994 3149.49 L 4202.3094 3149.9 L 4202.3094 3150.31 L 4202.0994 3150.72 L 4201.8994 3150.92 L 4201.2894 3151.13 L 4199.4394 3151.13 M 4200.8794 3151.13 L 4202.3094 3153.38 M 4203.6594 3149.08 L 4203.6594 3153.38 M 4203.6594 3149.08 L 4205.4994 3149.08 L 4206.1094 3149.29 L 4206.3194 3149.49 L 4206.5194 3149.9 L 4206.5194 3150.31 L 4206.3194 3150.72 L 4206.1094 3150.92 L 4205.4994 3151.13 M 4203.6594 3151.13 L 4205.4994 3151.13 L 4206.1094 3151.33 L 4206.3194 3151.54 L 4206.5194 3151.95 L 4206.5194 3152.56 L 4206.3194 3152.97 L 4206.1094 3153.17 L 4205.4994 3153.38 L 4203.6594 3153.38 M 4207.8694 3151.54 L 4211.5494 3151.54 M 4213.3094 3149.08 L 4215.5594 3149.08 L 4214.3394 3150.72 L 4214.9494 3150.72 L 4215.3594 3150.92 L 4215.5594 3151.13 L 4215.7694 3151.74 L 4215.7694 3152.15 L 4215.5594 3152.77 L 4215.1494 3153.17 L 4214.5394 3153.38 L 4213.9294 3153.38 L 4213.3094 3153.17 L 4213.1094 3152.97 L 4212.8994 3152.56 M 4217.1194 3149.08 L 4218.7494 3153.38 M 4220.3894 3149.08 L 4218.7494 3153.38 M 4221.9394 3150.11 L 4221.9394 3149.9 L 4222.1494 3149.49 L 4222.3494 3149.29 L 4222.7594 3149.08 L 4223.5794 3149.08 L 4223.9894 3149.29 L 4224.1894 3149.49 L 4224.3994 3149.9 L 4224.3994 3150.31 L 4224.1894 3150.72 L 4223.7894 3151.33 L 4221.7394 3153.38 L 4224.5994 3153.38 M 4228.8194 3149.08 L 4226.7694 3153.38 M 4225.9494 3149.08 L 4228.8194 3149.08 M 4231.3894 3149.08 L 4230.7794 3149.29 L 4230.3694 3149.9 L 4230.1694 3150.92 L 4230.1694 3151.54 L 4230.3694 3152.56 L 4230.7794 3153.17 L 4231.3894 3153.38 L 4231.7994 3153.38 L 4232.4194 3153.17 L 4232.8294 3152.56 L 4233.0294 3151.54 L 4233.0294 3150.92 L 4232.8294 3149.9 L 4232.4194 3149.29 L 4231.7994 3149.08 L 4231.3894 3149.08 M 4235.6094 3149.08 L 4234.9894 3149.29 L 4234.5894 3149.9 L 4234.3794 3150.92 L 4234.3794 3151.54 L 4234.5894 3152.56 L 4234.9894 3153.17 L 4235.6094 3153.38 L 4236.0194 3153.38 L 4236.6294 3153.17 L 4237.0394 3152.56 L 4237.2394 3151.54 L 4237.2394 3150.92 L 4237.0394 3149.9 L 4236.6294 3149.29 L 4236.0194 3149.08 L 4235.6094 3149.08" fill="none"  stroke-width="0.6" c_note="note_name" /></g><g c_partid="part_pcbtext" c_etype="" c_origin="4148.86,3112.5" c_rotation="90" c_mirror="0" id="gge68" locked="0" layerid="3" c_shapetype="group" ><path c_fontsize="4.5" c_fontfamily="" c_text="U2" d="M 4142.71 3112.5 L 4145.77 3112.5 L 4146.39 3112.3 L 4146.8 3111.89 L 4147 3111.27 L 4147 3110.86 L 4146.8 3110.25 L 4146.39 3109.84 L 4145.77 3109.64 L 4142.71 3109.64 M 4143.73 3108.08 L 4143.52 3108.08 L 4143.11 3107.88 L 4142.91 3107.67 L 4142.71 3107.26 L 4142.71 3106.45 L 4142.91 3106.04 L 4143.11 3105.83 L 4143.52 3105.63 L 4143.93 3105.63 L 4144.34 3105.83 L 4144.96 3106.24 L 4147 3108.29 L 4147 3105.42" fill="none"  stroke-width="0.6" c_note="note_pre" /></g><g c_partid="part_pcbtext" c_etype="" c_origin="4143.36,3112.5" c_rotation="90" c_mirror="0" id="gge70" locked="0" layerid="3" c_shapetype="group" display="none"><path c_fontsize="4.5" c_fontfamily="" c_text="ARDUINO_NANO" d="M 4137.21 3110.86 L 4141.5 3112.5 M 4137.21 3110.86 L 4141.5 3109.23 M 4140.07 3111.89 L 4140.07 3109.84 M 4137.21 3107.88 L 4141.5 3107.88 M 4137.21 3107.88 L 4137.21 3106.04 L 4137.41 3105.42 L 4137.61 3105.22 L 4138.02 3105.01 L 4138.43 3105.01 L 4138.84 3105.22 L 4139.05 3105.42 L 4139.25 3106.04 L 4139.25 3107.88 M 4139.25 3106.45 L 4141.5 3105.01 M 4137.21 3103.66 L 4141.5 3103.66 M 4137.21 3103.66 L 4137.21 3102.23 L 4137.41 3101.62 L 4137.82 3101.21 L 4138.23 3101 L 4138.84 3100.8 L 4139.86 3100.8 L 4140.48 3101 L 4140.89 3101.21 L 4141.3 3101.62 L 4141.5 3102.23 L 4141.5 3103.66 M 4137.21 3099.45 L 4140.27 3099.45 L 4140.89 3099.25 L 4141.3 3098.84 L 4141.5 3098.22 L 4141.5 3097.81 L 4141.3 3097.2 L 4140.89 3096.79 L 4140.27 3096.59 L 4137.21 3096.59 M 4137.21 3095.24 L 4141.5 3095.24 M 4137.21 3093.89 L 4141.5 3093.89 M 4137.21 3093.89 L 4141.5 3091.02 M 4137.21 3091.02 L 4141.5 3091.02 M 4137.21 3088.45 L 4137.41 3088.85 L 4137.82 3089.26 L 4138.23 3089.47 L 4138.84 3089.67 L 4139.86 3089.67 L 4140.48 3089.47 L 4140.89 3089.26 L 4141.3 3088.85 L 4141.5 3088.45 L 4141.5 3087.63 L 4141.3 3087.22 L 4140.89 3086.81 L 4140.48 3086.6 L 4139.86 3086.4 L 4138.84 3086.4 L 4138.23 3086.6 L 4137.82 3086.81 L 4137.41 3087.22 L 4137.21 3087.63 L 4137.21 3088.45 M 4142.93 3085.05 L 4142.93 3081.37 M 4137.21 3080.02 L 4141.5 3080.02 M 4137.21 3080.02 L 4141.5 3077.15 M 4137.21 3077.15 L 4141.5 3077.15 M 4137.21 3074.17 L 4141.5 3075.8 M 4137.21 3074.17 L 4141.5 3072.53 M 4140.07 3075.19 L 4140.07 3073.15 M 4137.21 3071.18 L 4141.5 3071.18 M 4137.21 3071.18 L 4141.5 3068.32 M 4137.21 3068.32 L 4141.5 3068.32 M 4137.21 3065.74 L 4137.41 3066.15 L 4137.82 3066.56 L 4138.23 3066.76 L 4138.84 3066.97 L 4139.86 3066.97 L 4140.48 3066.76 L 4140.89 3066.56 L 4141.3 3066.15 L 4141.5 3065.74 L 4141.5 3064.92 L 4141.3 3064.51 L 4140.89 3064.1 L 4140.48 3063.9 L 4139.86 3063.7 L 4138.84 3063.7 L 4138.23 3063.9 L 4137.82 3064.1 L 4137.41 3064.51 L 4137.21 3064.92 L 4137.21 3065.74" fill="none"  stroke-width="0.6" c_note="note_name" /></g><g c_partid="part_pcbtext" c_etype="" c_origin="4161.91,3167.87" c_rotation="90" c_mirror="0" id="gge77" locked="0" layerid="3" c_shapetype="group" ><path c_fontsize="4" c_fontfamily="" c_text="D1/TX" d="M 4159.73 3167.87 L 4163.55 3167.87 M 4159.73 3167.87 L 4159.73 3166.6 L 4159.91 3166.05 L 4160.27 3165.69 L 4160.64 3165.51 L 4161.18 3165.32 L 4162.09 3165.32 L 4162.64 3165.51 L 4163 3165.69 L 4163.36 3166.05 L 4163.55 3166.6 L 4163.55 3167.87 M 4160.46 3164.12 L 4160.27 3163.76 L 4159.73 3163.22 L 4163.55 3163.22 M 4159 3158.74 L 4164.82 3162.02 M 4159.73 3156.27 L 4163.55 3156.27 M 4159.73 3157.54 L 4159.73 3155 M 4159.73 3153.8 L 4163.55 3151.25 M 4159.73 3151.25 L 4163.55 3153.8" fill="none"  stroke-width="0.8"  /></g><g c_partid="part_pcbtext" c_etype="" c_origin="4173,3070.5" c_rotation="90" c_mirror="0" id="gge79" locked="0" layerid="3" c_shapetype="group" ><path c_fontsize="4" c_fontfamily="" c_text="GND" d="M 4171.73 3067.77 L 4171.36 3067.95 L 4171 3068.32 L 4170.82 3068.68 L 4170.82 3069.41 L 4171 3069.77 L 4171.36 3070.14 L 4171.73 3070.32 L 4172.27 3070.5 L 4173.18 3070.5 L 4173.73 3070.32 L 4174.09 3070.14 L 4174.45 3069.77 L 4174.64 3069.41 L 4174.64 3068.68 L 4174.45 3068.32 L 4174.09 3067.95 L 4173.73 3067.77 L 4173.18 3067.77 M 4173.18 3068.68 L 4173.18 3067.77 M 4170.82 3066.57 L 4174.64 3066.57 M 4170.82 3066.57 L 4174.64 3064.03 M 4170.82 3064.03 L 4174.64 3064.03 M 4170.82 3062.83 L 4174.64 3062.83 M 4170.82 3062.83 L 4170.82 3061.55 L 4171 3061.01 L 4171.36 3060.65 L 4171.73 3060.46 L 4172.27 3060.28 L 4173.18 3060.28 L 4173.73 3060.46 L 4174.09 3060.65 L 4174.45 3061.01 L 4174.64 3061.55 L 4174.64 3062.83" fill="none"  stroke-width="0.8"  /></g><g c_partid="part_pcbtext" c_etype="" c_origin="4194,3070.5" c_rotation="90" c_mirror="0" id="gge81" locked="0" layerid="3" c_shapetype="group" ><path c_fontsize="4" c_fontfamily="" c_text="+5V" d="M 4192.36 3068.86 L 4195.64 3068.86 M 4194 3070.5 L 4194 3067.23 M 4191.82 3063.85 L 4191.82 3065.66 L 4193.45 3065.85 L 4193.27 3065.66 L 4193.09 3065.12 L 4193.09 3064.57 L 4193.27 3064.03 L 4193.64 3063.66 L 4194.18 3063.48 L 4194.55 3063.48 L 4195.09 3063.66 L 4195.45 3064.03 L 4195.64 3064.57 L 4195.64 3065.12 L 4195.45 3065.66 L 4195.27 3065.85 L 4194.91 3066.03 M 4191.82 3062.28 L 4195.64 3060.83 M 4191.82 3059.37 L 4195.64 3060.83" fill="none"  stroke-width="0.8"  /></g><g c_partid="part_pcbtext" c_etype="" c_origin="4303,3177.29" c_rotation="90" c_mirror="0" id="gge83" locked="0" layerid="3" c_shapetype="group" ><path c_fontsize="4" c_fontfamily="" c_text="D12/MISO" d="M 4300.82 3177.29 L 4304.64 3177.29 M 4300.82 3177.29 L 4300.82 3176.02 L 4301 3175.47 L 4301.36 3175.11 L 4301.73 3174.93 L 4302.27 3174.74 L 4303.18 3174.74 L 4303.73 3174.93 L 4304.09 3175.11 L 4304.45 3175.47 L 4304.64 3176.02 L 4304.64 3177.29 M 4301.55 3173.54 L 4301.36 3173.18 L 4300.82 3172.64 L 4304.64 3172.64 M 4301.73 3171.25 L 4301.55 3171.25 L 4301.18 3171.07 L 4301 3170.89 L 4300.82 3170.53 L 4300.82 3169.8 L 4301 3169.44 L 4301.18 3169.25 L 4301.55 3169.07 L 4301.91 3169.07 L 4302.27 3169.25 L 4302.82 3169.62 L 4304.64 3171.44 L 4304.64 3168.89 M 4300.09 3164.42 L 4305.91 3167.69 M 4300.82 3163.22 L 4304.64 3163.22 M 4300.82 3163.22 L 4304.64 3161.76 M 4300.82 3160.31 L 4304.64 3161.76 M 4300.82 3160.31 L 4304.64 3160.31 M 4300.82 3159.11 L 4304.64 3159.11 M 4301.36 3155.36 L 4301 3155.73 L 4300.82 3156.27 L 4300.82 3157 L 4301 3157.54 L 4301.36 3157.91 L 4301.73 3157.91 L 4302.09 3157.73 L 4302.27 3157.54 L 4302.45 3157.18 L 4302.82 3156.09 L 4303 3155.73 L 4303.18 3155.54 L 4303.55 3155.36 L 4304.09 3155.36 L 4304.45 3155.73 L 4304.64 3156.27 L 4304.64 3157 L 4304.45 3157.54 L 4304.09 3157.91 M 4300.82 3153.07 L 4301 3153.44 L 4301.36 3153.8 L 4301.73 3153.98 L 4302.27 3154.16 L 4303.18 3154.16 L 4303.73 3153.98 L 4304.09 3153.8 L 4304.45 3153.44 L 4304.64 3153.07 L 4304.64 3152.34 L 4304.45 3151.98 L 4304.09 3151.62 L 4303.73 3151.44 L 4303.18 3151.25 L 4302.27 3151.25 L 4301.73 3151.44 L 4301.36 3151.62 L 4301 3151.98 L 4300.82 3152.34 L 4300.82 3153.07" fill="none"  stroke-width="0.8"  /></g><g c_partid="part_pcbtext" c_etype="" c_origin="4163,3070.5" c_rotation="90" c_mirror="0" id="gge85" locked="0" layerid="3" c_shapetype="group" ><path c_fontsize="4" c_fontfamily="" c_text="VIN" d="M 4160.82 3070.5 L 4164.64 3069.05 M 4160.82 3067.59 L 4164.64 3069.05 M 4160.82 3066.39 L 4164.64 3066.39 M 4160.82 3065.19 L 4164.64 3065.19 M 4160.82 3065.19 L 4164.64 3062.65 M 4160.82 3062.65 L 4164.64 3062.65" fill="none"  stroke-width="0.8"  /></g><g c_partid="part_pcbtext" c_etype="" c_origin="4304,3070.5" c_rotation="90" c_mirror="0" id="gge87" locked="0" layerid="3" c_shapetype="group" ><path c_fontsize="4" c_fontfamily="" c_text="D13/SCK" d="M 4301.82 3070.5 L 4305.64 3070.5 M 4301.82 3070.5 L 4301.82 3069.23 L 4302 3068.68 L 4302.36 3068.32 L 4302.73 3068.14 L 4303.27 3067.95 L 4304.18 3067.95 L 4304.73 3068.14 L 4305.09 3068.32 L 4305.45 3068.68 L 4305.64 3069.23 L 4305.64 3070.5 M 4302.55 3066.75 L 4302.36 3066.39 L 4301.82 3065.85 L 4305.64 3065.85 M 4301.82 3064.28 L 4301.82 3062.28 L 4303.27 3063.37 L 4303.27 3062.83 L 4303.45 3062.46 L 4303.64 3062.28 L 4304.18 3062.1 L 4304.55 3062.1 L 4305.09 3062.28 L 4305.45 3062.65 L 4305.64 3063.19 L 4305.64 3063.74 L 4305.45 3064.28 L 4305.27 3064.46 L 4304.91 3064.65 M 4301.09 3057.63 L 4306.91 3060.9 M 4302.36 3053.88 L 4302 3054.25 L 4301.82 3054.79 L 4301.82 3055.52 L 4302 3056.06 L 4302.36 3056.43 L 4302.73 3056.43 L 4303.09 3056.25 L 4303.27 3056.06 L 4303.45 3055.7 L 4303.82 3054.61 L 4304 3054.25 L 4304.18 3054.06 L 4304.55 3053.88 L 4305.09 3053.88 L 4305.45 3054.25 L 4305.64 3054.79 L 4305.64 3055.52 L 4305.45 3056.06 L 4305.09 3056.43 M 4302.73 3049.95 L 4302.36 3050.14 L 4302 3050.5 L 4301.82 3050.86 L 4301.82 3051.59 L 4302 3051.95 L 4302.36 3052.32 L 4302.73 3052.5 L 4303.27 3052.68 L 4304.18 3052.68 L 4304.73 3052.5 L 4305.09 3052.32 L 4305.45 3051.95 L 4305.64 3051.59 L 4305.64 3050.86 L 4305.45 3050.5 L 4305.09 3050.14 L 4304.73 3049.95 M 4301.82 3048.75 L 4305.64 3048.75 M 4301.82 3046.21 L 4304.36 3048.75 M 4303.45 3047.85 L 4305.64 3046.21" fill="none"  stroke-width="0.8"  /></g><g c_partid="part_pcbtext" c_etype="" c_origin="4193,3161.47" c_rotation="90" c_mirror="0" id="gge89" locked="0" layerid="3" c_shapetype="group" ><path c_fontsize="4" c_fontfamily="" c_text="GND" d="M 4191.73 3158.74 L 4191.36 3158.92 L 4191 3159.29 L 4190.82 3159.65 L 4190.82 3160.38 L 4191 3160.74 L 4191.36 3161.11 L 4191.73 3161.29 L 4192.27 3161.47 L 4193.18 3161.47 L 4193.73 3161.29 L 4194.09 3161.11 L 4194.45 3160.74 L 4194.64 3160.38 L 4194.64 3159.65 L 4194.45 3159.29 L 4194.09 3158.92 L 4193.73 3158.74 L 4193.18 3158.74 M 4193.18 3159.65 L 4193.18 3158.74 M 4190.82 3157.54 L 4194.64 3157.54 M 4190.82 3157.54 L 4194.64 3155 M 4190.82 3155 L 4194.64 3155 M 4190.82 3153.8 L 4194.64 3153.8 M 4190.82 3153.8 L 4190.82 3152.52 L 4191 3151.98 L 4191.36 3151.62 L 4191.73 3151.43 L 4192.27 3151.25 L 4193.18 3151.25 L 4193.73 3151.43 L 4194.09 3151.62 L 4194.45 3151.98 L 4194.64 3152.52 L 4194.64 3153.8" fill="none"  stroke-width="0.8"  /></g><g c_partid="part_pcbtext" c_etype="" c_origin="4173.91,3169.5" c_rotation="90" c_mirror="0" id="gge91" locked="0" layerid="3" c_shapetype="group" ><path c_fontsize="4" c_fontfamily="" c_text="D0/RX" d="M 4171.73 3169.5 L 4175.55 3169.5 M 4171.73 3169.5 L 4171.73 3168.23 L 4171.91 3167.68 L 4172.27 3167.32 L 4172.64 3167.14 L 4173.18 3166.95 L 4174.09 3166.95 L 4174.64 3167.14 L 4175 3167.32 L 4175.36 3167.68 L 4175.55 3168.23 L 4175.55 3169.5 M 4171.73 3164.66 L 4171.91 3165.21 L 4172.46 3165.57 L 4173.36 3165.75 L 4173.91 3165.75 L 4174.82 3165.57 L 4175.36 3165.21 L 4175.55 3164.66 L 4175.55 3164.3 L 4175.36 3163.75 L 4174.82 3163.39 L 4173.91 3163.21 L 4173.36 3163.21 L 4172.46 3163.39 L 4171.91 3163.75 L 4171.73 3164.3 L 4171.73 3164.66 M 4171 3158.74 L 4176.82 3162.01 M 4171.73 3157.54 L 4175.55 3157.54 M 4171.73 3157.54 L 4171.73 3155.9 L 4171.91 3155.35 L 4172.09 3155.17 L 4172.46 3154.99 L 4172.82 3154.99 L 4173.18 3155.17 L 4173.36 3155.35 L 4173.55 3155.9 L 4173.55 3157.54 M 4173.55 3156.26 L 4175.55 3154.99 M 4171.73 3153.79 L 4175.55 3151.25 M 4171.73 3151.25 L 4175.55 3153.79" fill="none"  stroke-width="0.8"  /></g><g c_partid="part_pcbtext" c_etype="" c_origin="4183.18,3168.41" c_rotation="90" c_mirror="0" id="gge93" locked="0" layerid="3" c_shapetype="group" ><path c_fontsize="4" c_fontfamily="" c_text="RESET" d="M 4181 3168.41 L 4184.82 3168.41 M 4181 3168.41 L 4181 3166.77 L 4181.18 3166.23 L 4181.36 3166.05 L 4181.73 3165.86 L 4182.09 3165.86 L 4182.45 3166.05 L 4182.63 3166.23 L 4182.82 3166.77 L 4182.82 3168.41 M 4182.82 3167.14 L 4184.82 3165.86 M 4181 3164.66 L 4184.82 3164.66 M 4181 3164.66 L 4181 3162.3 M 4182.82 3164.66 L 4182.82 3163.21 M 4184.82 3164.66 L 4184.82 3162.3 M 4181.54 3158.56 L 4181.18 3158.92 L 4181 3159.46 L 4181 3160.19 L 4181.18 3160.74 L 4181.54 3161.1 L 4181.91 3161.1 L 4182.27 3160.92 L 4182.45 3160.74 L 4182.63 3160.37 L 4183 3159.28 L 4183.18 3158.92 L 4183.36 3158.74 L 4183.73 3158.56 L 4184.27 3158.56 L 4184.63 3158.92 L 4184.82 3159.46 L 4184.82 3160.19 L 4184.63 3160.74 L 4184.27 3161.1 M 4181 3157.36 L 4184.82 3157.36 M 4181 3157.36 L 4181 3154.99 M 4182.82 3157.36 L 4182.82 3155.9 M 4184.82 3157.36 L 4184.82 3154.99 M 4181 3152.52 L 4184.82 3152.52 M 4181 3153.79 L 4181 3151.25" fill="none"  stroke-width="0.8"  /></g><g c_partid="part_pcbtext" c_etype="" c_origin="4203,3157.54" c_rotation="90" c_mirror="0" id="gge95" locked="0" layerid="3" c_shapetype="group" ><path c_fontsize="4" c_fontfamily="" c_text="D2" d="M 4200.82 3157.54 L 4204.64 3157.54 M 4200.82 3157.54 L 4200.82 3156.27 L 4201 3155.72 L 4201.36 3155.36 L 4201.73 3155.18 L 4202.27 3154.99 L 4203.18 3154.99 L 4203.73 3155.18 L 4204.09 3155.36 L 4204.45 3155.72 L 4204.64 3156.27 L 4204.64 3157.54 M 4201.73 3153.61 L 4201.55 3153.61 L 4201.18 3153.43 L 4201 3153.25 L 4200.82 3152.89 L 4200.82 3152.16 L 4201 3151.79 L 4201.18 3151.61 L 4201.55 3151.43 L 4201.91 3151.43 L 4202.27 3151.61 L 4202.82 3151.98 L 4204.64 3153.79 L 4204.64 3151.25" fill="none"  stroke-width="0.8"  /></g><g c_partid="part_pcbtext" c_etype="" c_origin="4213,3157.54" c_rotation="90" c_mirror="0" id="gge97" locked="0" layerid="3" c_shapetype="group" ><path c_fontsize="4" c_fontfamily="" c_text="D3" d="M 4210.82 3157.54 L 4214.64 3157.54 M 4210.82 3157.54 L 4210.82 3156.27 L 4211 3155.72 L 4211.36 3155.36 L 4211.73 3155.18 L 4212.27 3154.99 L 4213.18 3154.99 L 4213.73 3155.18 L 4214.09 3155.36 L 4214.45 3155.72 L 4214.64 3156.27 L 4214.64 3157.54 M 4210.82 3153.43 L 4210.82 3151.43 L 4212.27 3152.52 L 4212.27 3151.98 L 4212.45 3151.61 L 4212.64 3151.43 L 4213.18 3151.25 L 4213.55 3151.25 L 4214.09 3151.43 L 4214.45 3151.79 L 4214.64 3152.34 L 4214.64 3152.89 L 4214.45 3153.43 L 4214.27 3153.61 L 4213.91 3153.79" fill="none"  stroke-width="0.8"  /></g><g c_partid="part_pcbtext" c_etype="" c_origin="4223,3157.72" c_rotation="90" c_mirror="0" id="gge99" locked="0" layerid="3" c_shapetype="group" ><path c_fontsize="4" c_fontfamily="" c_text="D4" d="M 4220.82 3157.72 L 4224.64 3157.72 M 4220.82 3157.72 L 4220.82 3156.45 L 4221 3155.9 L 4221.36 3155.54 L 4221.73 3155.36 L 4222.27 3155.17 L 4223.18 3155.17 L 4223.73 3155.36 L 4224.09 3155.54 L 4224.45 3155.9 L 4224.64 3156.45 L 4224.64 3157.72 M 4220.82 3152.16 L 4223.36 3153.97 L 4223.36 3151.25 M 4220.82 3152.16 L 4224.64 3152.16" fill="none"  stroke-width="0.8"  /></g><g c_partid="part_pcbtext" c_etype="" c_origin="4232,3157.54" c_rotation="90" c_mirror="0" id="gge101" locked="0" layerid="3" c_shapetype="group" ><path c_fontsize="4" c_fontfamily="" c_text="D5" d="M 4229.82 3157.54 L 4233.64 3157.54 M 4229.82 3157.54 L 4229.82 3156.27 L 4230 3155.72 L 4230.36 3155.36 L 4230.73 3155.18 L 4231.27 3154.99 L 4232.18 3154.99 L 4232.73 3155.18 L 4233.09 3155.36 L 4233.45 3155.72 L 4233.64 3156.27 L 4233.64 3157.54 M 4229.82 3151.61 L 4229.82 3153.43 L 4231.45 3153.61 L 4231.27 3153.43 L 4231.09 3152.89 L 4231.09 3152.34 L 4231.27 3151.79 L 4231.64 3151.43 L 4232.18 3151.25 L 4232.55 3151.25 L 4233.09 3151.43 L 4233.45 3151.79 L 4233.64 3152.34 L 4233.64 3152.89 L 4233.45 3153.43 L 4233.27 3153.61 L 4232.91 3153.79" fill="none"  stroke-width="0.8"  /></g><g c_partid="part_pcbtext" c_etype="" c_origin="4242,3157.36" c_rotation="90" c_mirror="0" id="gge103" locked="0" layerid="3" c_shapetype="group" ><path c_fontsize="4" c_fontfamily="" c_text="D6" d="M 4239.82 3157.36 L 4243.64 3157.36 M 4239.82 3157.36 L 4239.82 3156.09 L 4240 3155.54 L 4240.36 3155.18 L 4240.73 3155 L 4241.27 3154.81 L 4242.18 3154.81 L 4242.73 3155 L 4243.09 3155.18 L 4243.45 3155.54 L 4243.64 3156.09 L 4243.64 3157.36 M 4240.36 3151.43 L 4240 3151.61 L 4239.82 3152.16 L 4239.82 3152.52 L 4240 3153.07 L 4240.55 3153.43 L 4241.45 3153.61 L 4242.36 3153.61 L 4243.09 3153.43 L 4243.45 3153.07 L 4243.64 3152.52 L 4243.64 3152.34 L 4243.45 3151.8 L 4243.09 3151.43 L 4242.55 3151.25 L 4242.36 3151.25 L 4241.82 3151.43 L 4241.45 3151.8 L 4241.27 3152.34 L 4241.27 3152.52 L 4241.45 3153.07 L 4241.82 3153.43 L 4242.36 3153.61" fill="none"  stroke-width="0.8"  /></g><g c_partid="part_pcbtext" c_etype="" c_origin="4253,3157.54" c_rotation="90" c_mirror="0" id="gge105" locked="0" layerid="3" c_shapetype="group" ><path c_fontsize="4" c_fontfamily="" c_text="D7" d="M 4250.82 3157.54 L 4254.64 3157.54 M 4250.82 3157.54 L 4250.82 3156.27 L 4251 3155.72 L 4251.36 3155.36 L 4251.73 3155.18 L 4252.27 3154.99 L 4253.18 3154.99 L 4253.73 3155.18 L 4254.09 3155.36 L 4254.45 3155.72 L 4254.64 3156.27 L 4254.64 3157.54 M 4250.82 3151.25 L 4254.64 3153.07 M 4250.82 3153.79 L 4250.82 3151.25" fill="none"  stroke-width="0.8"  /></g><g c_partid="part_pcbtext" c_etype="" c_origin="4262,3157.54" c_rotation="90" c_mirror="0" id="gge107" locked="0" layerid="3" c_shapetype="group" ><path c_fontsize="4" c_fontfamily="" c_text="D8" d="M 4259.82 3157.54 L 4263.64 3157.54 M 4259.82 3157.54 L 4259.82 3156.27 L 4260 3155.72 L 4260.36 3155.36 L 4260.73 3155.18 L 4261.27 3154.99 L 4262.18 3154.99 L 4262.73 3155.18 L 4263.09 3155.36 L 4263.45 3155.72 L 4263.64 3156.27 L 4263.64 3157.54 M 4259.82 3152.89 L 4260 3153.43 L 4260.36 3153.61 L 4260.73 3153.61 L 4261.09 3153.43 L 4261.27 3153.07 L 4261.45 3152.34 L 4261.64 3151.79 L 4262 3151.43 L 4262.36 3151.25 L 4262.91 3151.25 L 4263.27 3151.43 L 4263.45 3151.61 L 4263.64 3152.16 L 4263.64 3152.89 L 4263.45 3153.43 L 4263.27 3153.61 L 4262.91 3153.79 L 4262.36 3153.79 L 4262 3153.61 L 4261.64 3153.25 L 4261.45 3152.7 L 4261.27 3151.98 L 4261.09 3151.61 L 4260.73 3151.43 L 4260.36 3151.43 L 4260 3151.61 L 4259.82 3152.16 L 4259.82 3152.89" fill="none"  stroke-width="0.8"  /></g><g c_partid="part_pcbtext" c_etype="" c_origin="4272,3157.36" c_rotation="90" c_mirror="0" id="gge109" locked="0" layerid="3" c_shapetype="group" ><path c_fontsize="4" c_fontfamily="" c_text="D9" d="M 4269.82 3157.36 L 4273.64 3157.36 M 4269.82 3157.36 L 4269.82 3156.09 L 4270 3155.54 L 4270.36 3155.18 L 4270.73 3155 L 4271.27 3154.81 L 4272.18 3154.81 L 4272.73 3155 L 4273.09 3155.18 L 4273.45 3155.54 L 4273.64 3156.09 L 4273.64 3157.36 M 4271.09 3151.25 L 4271.64 3151.43 L 4272 3151.8 L 4272.18 3152.34 L 4272.18 3152.52 L 4272 3153.07 L 4271.64 3153.43 L 4271.09 3153.61 L 4270.91 3153.61 L 4270.36 3153.43 L 4270 3153.07 L 4269.82 3152.52 L 4269.82 3152.34 L 4270 3151.8 L 4270.36 3151.43 L 4271.09 3151.25 L 4272 3151.25 L 4272.91 3151.43 L 4273.45 3151.8 L 4273.64 3152.34 L 4273.64 3152.71 L 4273.45 3153.25 L 4273.09 3153.43" fill="none"  stroke-width="0.8"  /></g><g c_partid="part_pcbtext" c_etype="" c_origin="4283,3159.65" c_rotation="90" c_mirror="0" id="gge111" locked="0" layerid="3" c_shapetype="group" ><path c_fontsize="4" c_fontfamily="" c_text="D10" d="M 4280.82 3159.65 L 4284.64 3159.65 M 4280.82 3159.65 L 4280.82 3158.38 L 4281 3157.83 L 4281.36 3157.47 L 4281.73 3157.29 L 4282.27 3157.1 L 4283.18 3157.1 L 4283.73 3157.29 L 4284.09 3157.47 L 4284.45 3157.83 L 4284.64 3158.38 L 4284.64 3159.65 M 4281.55 3155.9 L 4281.36 3155.54 L 4280.82 3155 L 4284.64 3155 M 4280.82 3152.7 L 4281 3153.25 L 4281.55 3153.61 L 4282.45 3153.8 L 4283 3153.8 L 4283.91 3153.61 L 4284.45 3153.25 L 4284.64 3152.7 L 4284.64 3152.34 L 4284.45 3151.8 L 4283.91 3151.43 L 4283 3151.25 L 4282.45 3151.25 L 4281.55 3151.43 L 4281 3151.8 L 4280.82 3152.34 L 4280.82 3152.7" fill="none"  stroke-width="0.8"  /></g><g c_partid="part_pcbtext" c_etype="" c_origin="4292,3175.65" c_rotation="90" c_mirror="0" id="gge113" locked="0" layerid="3" c_shapetype="group" ><path c_fontsize="4" c_fontfamily="" c_text="D11/MOSI" d="M 4289.82 3175.65 L 4293.64 3175.65 M 4289.82 3175.65 L 4289.82 3174.38 L 4290 3173.83 L 4290.36 3173.47 L 4290.73 3173.29 L 4291.27 3173.1 L 4292.18 3173.1 L 4292.73 3173.29 L 4293.09 3173.47 L 4293.45 3173.83 L 4293.64 3174.38 L 4293.64 3175.65 M 4290.55 3171.9 L 4290.36 3171.54 L 4289.82 3171 L 4293.64 3171 M 4290.55 3169.8 L 4290.36 3169.43 L 4289.82 3168.89 L 4293.64 3168.89 M 4289.09 3164.41 L 4294.91 3167.69 M 4289.82 3163.21 L 4293.64 3163.21 M 4289.82 3163.21 L 4293.64 3161.76 M 4289.82 3160.3 L 4293.64 3161.76 M 4289.82 3160.3 L 4293.64 3160.3 M 4289.82 3158.01 L 4290 3158.38 L 4290.36 3158.74 L 4290.73 3158.92 L 4291.27 3159.1 L 4292.18 3159.1 L 4292.73 3158.92 L 4293.09 3158.74 L 4293.45 3158.38 L 4293.64 3158.01 L 4293.64 3157.29 L 4293.45 3156.92 L 4293.09 3156.56 L 4292.73 3156.38 L 4292.18 3156.2 L 4291.27 3156.2 L 4290.73 3156.38 L 4290.36 3156.56 L 4290 3156.92 L 4289.82 3157.29 L 4289.82 3158.01 M 4290.36 3152.45 L 4290 3152.81 L 4289.82 3153.36 L 4289.82 3154.09 L 4290 3154.63 L 4290.36 3155 L 4290.73 3155 L 4291.09 3154.81 L 4291.27 3154.63 L 4291.45 3154.27 L 4291.82 3153.18 L 4292 3152.81 L 4292.18 3152.63 L 4292.55 3152.45 L 4293.09 3152.45 L 4293.45 3152.81 L 4293.64 3153.36 L 4293.64 3154.09 L 4293.45 3154.63 L 4293.09 3155 M 4289.82 3151.25 L 4293.64 3151.25" fill="none"  stroke-width="0.8"  /></g><g c_partid="part_pcbtext" c_etype="" c_origin="4294,3070.5" c_rotation="90" c_mirror="0" id="gge115" locked="0" layerid="3" c_shapetype="group" ><path c_fontsize="4" c_fontfamily="" c_text="3V3" d="M 4291.82 3070.14 L 4291.82 3068.14 L 4293.27 3069.23 L 4293.27 3068.68 L 4293.45 3068.32 L 4293.64 3068.14 L 4294.18 3067.95 L 4294.55 3067.95 L 4295.09 3068.14 L 4295.45 3068.5 L 4295.64 3069.05 L 4295.64 3069.59 L 4295.45 3070.14 L 4295.27 3070.32 L 4294.91 3070.5 M 4291.82 3066.75 L 4295.64 3065.3 M 4291.82 3063.85 L 4295.64 3065.3 M 4291.82 3062.28 L 4291.82 3060.28 L 4293.27 3061.37 L 4293.27 3060.83 L 4293.45 3060.46 L 4293.64 3060.28 L 4294.18 3060.1 L 4294.55 3060.1 L 4295.09 3060.28 L 4295.45 3060.65 L 4295.64 3061.19 L 4295.64 3061.74 L 4295.45 3062.28 L 4295.27 3062.46 L 4294.91 3062.65" fill="none"  stroke-width="0.8"  /></g><g c_partid="part_pcbtext" c_etype="" c_origin="4283,3070.5" c_rotation="90" c_mirror="0" id="gge117" locked="0" layerid="3" c_shapetype="group" ><path c_fontsize="4" c_fontfamily="" c_text="AREF" d="M 4280.82 3069.05 L 4284.64 3070.5 M 4280.82 3069.05 L 4284.64 3067.59 M 4283.36 3069.95 L 4283.36 3068.14 M 4280.82 3066.39 L 4284.64 3066.39 M 4280.82 3066.39 L 4280.82 3064.75 L 4281 3064.21 L 4281.18 3064.03 L 4281.55 3063.85 L 4281.91 3063.85 L 4282.27 3064.03 L 4282.45 3064.21 L 4282.64 3064.75 L 4282.64 3066.39 M 4282.64 3065.12 L 4284.64 3063.85 M 4280.82 3062.65 L 4284.64 3062.65 M 4280.82 3062.65 L 4280.82 3060.28 M 4282.64 3062.65 L 4282.64 3061.19 M 4284.64 3062.65 L 4284.64 3060.28 M 4280.82 3059.08 L 4284.64 3059.08 M 4280.82 3059.08 L 4280.82 3056.72 M 4282.64 3059.08 L 4282.64 3057.63" fill="none"  stroke-width="0.8"  /></g><g c_partid="part_pcbtext" c_etype="" c_origin="4274,3070.5" c_rotation="90" c_mirror="0" id="gge119" locked="0" layerid="3" c_shapetype="group" ><path c_fontsize="4" c_fontfamily="" c_text="A0" d="M 4271.82 3069.05 L 4275.64 3070.5 M 4271.82 3069.05 L 4275.64 3067.59 M 4274.36 3069.95 L 4274.36 3068.14 M 4271.82 3065.3 L 4272 3065.85 L 4272.55 3066.21 L 4273.45 3066.39 L 4274 3066.39 L 4274.91 3066.21 L 4275.45 3065.85 L 4275.64 3065.3 L 4275.64 3064.94 L 4275.45 3064.39 L 4274.91 3064.03 L 4274 3063.85 L 4273.45 3063.85 L 4272.55 3064.03 L 4272 3064.39 L 4271.82 3064.94 L 4271.82 3065.3" fill="none"  stroke-width="0.8"  /></g><g c_partid="part_pcbtext" c_etype="" c_origin="4263,3070.5" c_rotation="90" c_mirror="0" id="gge121" locked="0" layerid="3" c_shapetype="group" ><path c_fontsize="4" c_fontfamily="" c_text="A1" d="M 4260.82 3069.05 L 4264.64 3070.5 M 4260.82 3069.05 L 4264.64 3067.59 M 4263.36 3069.95 L 4263.36 3068.14 M 4261.55 3066.39 L 4261.36 3066.03 L 4260.82 3065.48 L 4264.64 3065.48" fill="none"  stroke-width="0.8"  /></g><g c_partid="part_pcbtext" c_etype="" c_origin="4254,3070.5" c_rotation="90" c_mirror="0" id="gge123" locked="0" layerid="3" c_shapetype="group" ><path c_fontsize="4" c_fontfamily="" c_text="A2" d="M 4251.82 3069.05 L 4255.64 3070.5 M 4251.82 3069.05 L 4255.64 3067.59 M 4254.36 3069.95 L 4254.36 3068.14 M 4252.73 3066.21 L 4252.55 3066.21 L 4252.18 3066.03 L 4252 3065.85 L 4251.82 3065.48 L 4251.82 3064.75 L 4252 3064.39 L 4252.18 3064.21 L 4252.55 3064.03 L 4252.91 3064.03 L 4253.27 3064.21 L 4253.82 3064.57 L 4255.64 3066.39 L 4255.64 3063.85" fill="none"  stroke-width="0.8"  /></g><g c_partid="part_pcbtext" c_etype="" c_origin="4243,3070.5" c_rotation="90" c_mirror="0" id="gge125" locked="0" layerid="3" c_shapetype="group" ><path c_fontsize="4" c_fontfamily="" c_text="A3" d="M 4240.82 3069.05 L 4244.64 3070.5 M 4240.82 3069.05 L 4244.64 3067.59 M 4243.36 3069.95 L 4243.36 3068.14 M 4240.82 3066.03 L 4240.82 3064.03 L 4242.27 3065.12 L 4242.27 3064.57 L 4242.45 3064.21 L 4242.64 3064.03 L 4243.18 3063.85 L 4243.55 3063.85 L 4244.09 3064.03 L 4244.45 3064.39 L 4244.64 3064.94 L 4244.64 3065.48 L 4244.45 3066.03 L 4244.27 3066.21 L 4243.91 3066.39" fill="none"  stroke-width="0.8"  /></g><g c_partid="part_pcbtext" c_etype="" c_origin="4233,3070.5" c_rotation="90" c_mirror="0" id="gge127" locked="0" layerid="3" c_shapetype="group" ><path c_fontsize="4" c_fontfamily="" c_text="A4" d="M 4230.82 3069.05 L 4234.64 3070.5 M 4230.82 3069.05 L 4234.64 3067.59 M 4233.36 3069.95 L 4233.36 3068.14 M 4230.82 3064.57 L 4233.36 3066.39 L 4233.36 3063.66 M 4230.82 3064.57 L 4234.64 3064.57" fill="none"  stroke-width="0.8"  /></g><g c_partid="part_pcbtext" c_etype="" c_origin="4223,3070.5" c_rotation="90" c_mirror="0" id="gge129" locked="0" layerid="3" c_shapetype="group" ><path c_fontsize="4" c_fontfamily="" c_text="A5" d="M 4220.82 3069.05 L 4224.64 3070.5 M 4220.82 3069.05 L 4224.64 3067.59 M 4223.36 3069.95 L 4223.36 3068.14 M 4220.82 3064.21 L 4220.82 3066.03 L 4222.45 3066.21 L 4222.27 3066.03 L 4222.09 3065.48 L 4222.09 3064.94 L 4222.27 3064.39 L 4222.64 3064.03 L 4223.18 3063.85 L 4223.55 3063.85 L 4224.09 3064.03 L 4224.45 3064.39 L 4224.64 3064.94 L 4224.64 3065.48 L 4224.45 3066.03 L 4224.27 3066.21 L 4223.91 3066.39" fill="none"  stroke-width="0.8"  /></g><g c_partid="part_pcbtext" c_etype="" c_origin="4214,3070.5" c_rotation="90" c_mirror="0" id="gge131" locked="0" layerid="3" c_shapetype="group" ><path c_fontsize="4" c_fontfamily="" c_text="A6" d="M 4211.82 3069.05 L 4215.64 3070.5 M 4211.82 3069.05 L 4215.64 3067.59 M 4214.36 3069.95 L 4214.36 3068.14 M 4212.36 3064.21 L 4212 3064.39 L 4211.82 3064.94 L 4211.82 3065.3 L 4212 3065.85 L 4212.55 3066.21 L 4213.45 3066.39 L 4214.36 3066.39 L 4215.09 3066.21 L 4215.45 3065.85 L 4215.64 3065.3 L 4215.64 3065.12 L 4215.45 3064.57 L 4215.09 3064.21 L 4214.55 3064.03 L 4214.36 3064.03 L 4213.82 3064.21 L 4213.45 3064.57 L 4213.27 3065.12 L 4213.27 3065.3 L 4213.45 3065.85 L 4213.82 3066.21 L 4214.36 3066.39" fill="none"  stroke-width="0.8"  /></g><g c_partid="part_pcbtext" c_etype="" c_origin="4203,3070.5" c_rotation="90" c_mirror="0" id="gge133" locked="0" layerid="3" c_shapetype="group" ><path c_fontsize="4" c_fontfamily="" c_text="A7" d="M 4200.82 3069.05 L 4204.64 3070.5 M 4200.82 3069.05 L 4204.64 3067.59 M 4203.36 3069.95 L 4203.36 3068.14 M 4200.82 3063.85 L 4204.64 3065.66 M 4200.82 3066.39 L 4200.82 3063.85" fill="none"  stroke-width="0.8"  /></g><g c_partid="part_pcbtext" c_etype="" c_origin="4183,3070.5" c_rotation="90" c_mirror="0" id="gge135" locked="0" layerid="3" c_shapetype="group" ><path c_fontsize="4" c_fontfamily="" c_text="RESET" d="M 4180.82 3070.5 L 4184.64 3070.5 M 4180.82 3070.5 L 4180.82 3068.86 L 4181 3068.32 L 4181.18 3068.14 L 4181.55 3067.95 L 4181.91 3067.95 L 4182.27 3068.14 L 4182.45 3068.32 L 4182.64 3068.86 L 4182.64 3070.5 M 4182.64 3069.23 L 4184.64 3067.95 M 4180.82 3066.75 L 4184.64 3066.75 M 4180.82 3066.75 L 4180.82 3064.39 M 4182.64 3066.75 L 4182.64 3065.3 M 4184.64 3066.75 L 4184.64 3064.39 M 4181.36 3060.65 L 4181 3061.01 L 4180.82 3061.55 L 4180.82 3062.28 L 4181 3062.83 L 4181.36 3063.19 L 4181.73 3063.19 L 4182.09 3063.01 L 4182.27 3062.83 L 4182.45 3062.46 L 4182.82 3061.37 L 4183 3061.01 L 4183.18 3060.83 L 4183.55 3060.65 L 4184.09 3060.65 L 4184.45 3061.01 L 4184.64 3061.55 L 4184.64 3062.28 L 4184.45 3062.83 L 4184.09 3063.19 M 4180.82 3059.45 L 4184.64 3059.45 M 4180.82 3059.45 L 4180.82 3057.08 M 4182.64 3059.45 L 4182.64 3057.99 M 4184.64 3059.45 L 4184.64 3057.08 M 4180.82 3054.61 L 4184.64 3054.61 M 4180.82 3055.88 L 4180.82 3053.34" fill="none"  stroke-width="0.8"  /></g><g c_partid="part_pcbtext" c_etype="" c_origin="4124,3063.46" c_rotation="0" c_mirror="0" id="gge288" locked="0" layerid="3" c_shapetype="group" ><path c_fontsize="4.5" c_fontfamily="" c_text="R3" d="M 4124 3057.3102 L 4124 3061.6002 M 4124 3057.3102 L 4125.84 3057.3102 L 4126.45 3057.5102 L 4126.66 3057.7102 L 4126.86 3058.1202 L 4126.86 3058.5302 L 4126.66 3058.9402 L 4126.45 3059.1502 L 4125.84 3059.3502 L 4124 3059.3502 M 4125.43 3059.3502 L 4126.86 3061.6002 M 4128.62 3057.3102 L 4130.87 3057.3102 L 4129.65 3058.9402 L 4130.26 3058.9402 L 4130.67 3059.1502 L 4130.87 3059.3502 L 4131.08 3059.9602 L 4131.08 3060.3702 L 4130.87 3060.9902 L 4130.46 3061.4002 L 4129.85 3061.6002 L 4129.24 3061.6002 L 4128.62 3061.4002 L 4128.42 3061.1902 L 4128.21 3060.7802" fill="none"  stroke-width="0.6" c_note="note_pre" /></g><g c_partid="part_pcbtext" c_etype="" c_origin="4124,3057.96" c_rotation="0" c_mirror="0" id="gge290" locked="0" layerid="3" c_shapetype="group" display="none"><path c_fontsize="4.5" c_fontfamily="" c_text="PHOTOCELLPTH" d="M 4124 3051.81 L 4124 3056.1 M 4124 3051.81 L 4125.84 3051.81 L 4126.45 3052.01 L 4126.66 3052.21 L 4126.86 3052.62 L 4126.86 3053.24 L 4126.66 3053.65 L 4126.45 3053.85 L 4125.84 3054.06 L 4124 3054.06 M 4128.21 3051.81 L 4128.21 3056.1 M 4131.08 3051.81 L 4131.08 3056.1 M 4128.21 3053.85 L 4131.08 3053.85 M 4133.65 3051.81 L 4133.25 3052.01 L 4132.84 3052.42 L 4132.63 3052.83 L 4132.43 3053.44 L 4132.43 3054.46 L 4132.63 3055.08 L 4132.84 3055.49 L 4133.25 3055.9 L 4133.65 3056.1 L 4134.47 3056.1 L 4134.88 3055.9 L 4135.29 3055.49 L 4135.5 3055.08 L 4135.7 3054.46 L 4135.7 3053.44 L 4135.5 3052.83 L 4135.29 3052.42 L 4134.88 3052.01 L 4134.47 3051.81 L 4133.65 3051.81 M 4138.48 3051.81 L 4138.48 3056.1 M 4137.05 3051.81 L 4139.91 3051.81 M 4142.49 3051.81 L 4142.08 3052.01 L 4141.67 3052.42 L 4141.47 3052.83 L 4141.26 3053.44 L 4141.26 3054.46 L 4141.47 3055.08 L 4141.67 3055.49 L 4142.08 3055.9 L 4142.49 3056.1 L 4143.31 3056.1 L 4143.72 3055.9 L 4144.13 3055.49 L 4144.33 3055.08 L 4144.54 3054.46 L 4144.54 3053.44 L 4144.33 3052.83 L 4144.13 3052.42 L 4143.72 3052.01 L 4143.31 3051.81 L 4142.49 3051.81 M 4148.95 3052.83 L 4148.75 3052.42 L 4148.34 3052.01 L 4147.93 3051.81 L 4147.11 3051.81 L 4146.7 3052.01 L 4146.3 3052.42 L 4146.09 3052.83 L 4145.89 3053.44 L 4145.89 3054.46 L 4146.09 3055.08 L 4146.3 3055.49 L 4146.7 3055.9 L 4147.11 3056.1 L 4147.93 3056.1 L 4148.34 3055.9 L 4148.75 3055.49 L 4148.95 3055.08 M 4150.3 3051.81 L 4150.3 3056.1 M 4150.3 3051.81 L 4152.96 3051.81 M 4150.3 3053.85 L 4151.94 3053.85 M 4150.3 3056.1 L 4152.96 3056.1 M 4154.31 3051.81 L 4154.31 3056.1 M 4154.31 3056.1 L 4156.77 3056.1 M 4158.12 3051.81 L 4158.12 3056.1 M 4158.12 3056.1 L 4160.57 3056.1 M 4161.92 3051.81 L 4161.92 3056.1 M 4161.92 3051.81 L 4163.76 3051.81 L 4164.38 3052.01 L 4164.58 3052.21 L 4164.79 3052.62 L 4164.79 3053.24 L 4164.58 3053.65 L 4164.38 3053.85 L 4163.76 3054.06 L 4161.92 3054.06 M 4167.57 3051.81 L 4167.57 3056.1 M 4166.14 3051.81 L 4169 3051.81 M 4170.35 3051.81 L 4170.35 3056.1 M 4173.21 3051.81 L 4173.21 3056.1 M 4170.35 3053.85 L 4173.21 3053.85" fill="none"  stroke-width="0.6" c_note="note_name" /></g><g c_partid="part_pcbtext" c_etype="" c_origin="4082.24,3220.119" c_rotation="0" c_mirror="0" id="gge309" locked="0" layerid="3" c_shapetype="group" ><path c_fontsize="4.5" c_fontfamily="" c_text="MK2" d="M 4082.2399 3213.965 L 4082.2399 3218.265 M 4082.2399 3213.965 L 4083.8799 3218.265 M 4085.5099 3213.965 L 4083.8799 3218.265 M 4085.5099 3213.965 L 4085.5099 3218.265 M 4086.8599 3213.965 L 4086.8599 3218.265 M 4089.7299 3213.965 L 4086.8599 3216.825 M 4087.8899 3215.805 L 4089.7299 3218.265 M 4091.2799 3214.985 L 4091.2799 3214.785 L 4091.4899 3214.375 L 4091.6899 3214.165 L 4092.0999 3213.965 L 4092.9199 3213.965 L 4093.3299 3214.165 L 4093.5299 3214.375 L 4093.7399 3214.785 L 4093.7399 3215.195 L 4093.5299 3215.605 L 4093.1199 3216.215 L 4091.0799 3218.265 L 4093.9399 3218.265" fill="none"  stroke-width="0.6" c_note="note_pre" /></g><g c_partid="part_pcbtext" c_etype="" c_origin="4093.94,3217.611" c_rotation="180" c_mirror="0" id="gge311" locked="0" layerid="3" c_shapetype="group" display="none"><path c_fontsize="4.5" c_fontfamily="" c_text="NRF24L01+" d="M 4093.94 3223.765 L 4093.94 3219.465 M 4093.94 3223.765 L 4091.08 3219.465 M 4091.08 3223.765 L 4091.08 3219.465 M 4089.73 3223.765 L 4089.73 3219.465 M 4089.73 3223.765 L 4087.89 3223.765 L 4087.27 3223.565 L 4087.07 3223.355 L 4086.86 3222.945 L 4086.86 3222.535 L 4087.07 3222.125 L 4087.27 3221.925 L 4087.89 3221.715 L 4089.73 3221.715 M 4088.29 3221.715 L 4086.86 3219.465 M 4085.51 3223.765 L 4085.51 3219.465 M 4085.51 3223.765 L 4082.85 3223.765 M 4085.51 3221.715 L 4083.88 3221.715 M 4081.3 3222.745 L 4081.3 3222.945 L 4081.09 3223.355 L 4080.89 3223.565 L 4080.48 3223.765 L 4079.66 3223.765 L 4079.25 3223.565 L 4079.05 3223.355 L 4078.84 3222.945 L 4078.84 3222.535 L 4079.05 3222.125 L 4079.46 3221.515 L 4081.5 3219.465 L 4078.64 3219.465 M 4075.24 3223.765 L 4077.29 3220.905 L 4074.22 3220.905 M 4075.24 3223.765 L 4075.24 3219.465 M 4072.87 3223.765 L 4072.87 3219.465 M 4072.87 3219.465 L 4070.42 3219.465 M 4067.84 3223.765 L 4068.45 3223.565 L 4068.86 3222.945 L 4069.07 3221.925 L 4069.07 3221.315 L 4068.86 3220.285 L 4068.45 3219.675 L 4067.84 3219.465 L 4067.43 3219.465 L 4066.82 3219.675 L 4066.41 3220.285 L 4066.2 3221.315 L 4066.2 3221.925 L 4066.41 3222.945 L 4066.82 3223.565 L 4067.43 3223.765 L 4067.84 3223.765 M 4064.85 3222.945 L 4064.44 3223.155 L 4063.83 3223.765 L 4063.83 3219.465 M 4060.64 3223.155 L 4060.64 3219.465 M 4062.48 3221.315 L 4058.8 3221.315" fill="none"  stroke-width="0.6" c_note="note_name" /></g><g c_partid="part_pcbtext" c_etype="" c_origin="4127.626,3130.517" c_rotation="0" c_mirror="0" id="gge359" locked="0" layerid="3" c_shapetype="group" ><path c_fontsize="4.5" c_fontfamily="" c_text="C2" d="M 4130.696 3125.39 L 4130.486 3124.98 L 4130.076 3124.57 L 4129.676 3124.36 L 4128.856 3124.36 L 4128.446 3124.57 L 4128.036 3124.98 L 4127.826 3125.39 L 4127.626 3126 L 4127.626 3127.02 L 4127.826 3127.64 L 4128.036 3128.04 L 4128.446 3128.45 L 4128.856 3128.66 L 4129.676 3128.66 L 4130.076 3128.45 L 4130.486 3128.04 L 4130.696 3127.64 M 4132.246 3125.39 L 4132.246 3125.18 L 4132.456 3124.77 L 4132.656 3124.57 L 4133.066 3124.36 L 4133.886 3124.36 L 4134.296 3124.57 L 4134.496 3124.77 L 4134.706 3125.18 L 4134.706 3125.59 L 4134.496 3126 L 4134.086 3126.61 L 4132.046 3128.66 L 4134.906 3128.66" fill="none"  stroke-width="0.6" c_note="note_pre" /></g><g c_partid="part_pcbtext" c_etype="" c_origin="4127.626,3125.017" c_rotation="0" c_mirror="0" id="gge361" locked="0" layerid="3" c_shapetype="group" display="none"><path c_fontsize="4.5" c_fontfamily="" c_text="10uF" d="M 4127.626 3119.68 L 4128.036 3119.48 L 4128.646 3118.86 L 4128.646 3123.16 M 4131.226 3118.86 L 4130.616 3119.07 L 4130.206 3119.68 L 4129.996 3120.7 L 4129.996 3121.32 L 4130.206 3122.34 L 4130.616 3122.95 L 4131.226 3123.16 L 4131.636 3123.16 L 4132.246 3122.95 L 4132.656 3122.34 L 4132.866 3121.32 L 4132.866 3120.7 L 4132.656 3119.68 L 4132.246 3119.07 L 4131.636 3118.86 L 4131.226 3118.86 M 4134.216 3120.29 L 4134.216 3122.34 L 4134.416 3122.95 L 4134.826 3123.16 L 4135.436 3123.16 L 4135.846 3122.95 L 4136.466 3122.34 M 4136.466 3120.29 L 4136.466 3123.16 M 4137.816 3118.86 L 4137.816 3123.16 M 4137.816 3118.86 L 4140.476 3118.86 M 4137.816 3120.91 L 4139.446 3120.91" fill="none"  stroke-width="0.6" c_note="note_name" /></g><path d="M 4160.6565 3167.3682 A 18.8976 18.8976 0 1 0 4180.3415 3167.3682" locked="0"  fill="none" stroke-width="1" c_helper_type="arc2" net="" layerid="3" id="gge53" /><path d="M 4121.063 3062.626 A 5.663 5.663 0 0 0 4115.9449 3066.9567" locked="0"  fill="none" stroke-width="1" c_helper_type="arc2" net="" layerid="3" id="gge294" /><path d="M 4128.937 3078.374 A 5.663 5.663 0 0 0 4134.0551 3074.0433" locked="0"  fill="none" stroke-width="1" c_helper_type="arc2" net="" layerid="3" id="gge295" /><path d="M 4128.937 3062.626 A 5.6626 5.6626 0 0 1 4134.0551 3066.9567" locked="0"  fill="none" stroke-width="1" c_helper_type="arc2" net="" layerid="3" id="gge296" /><path d="M 4121.063 3078.374 A 5.6626 5.6626 0 0 1 4115.9449 3074.0433" locked="0"  fill="none" stroke-width="1" c_helper_type="arc2" net="" layerid="3" id="gge297" /><circle cx="4244.815" cy="3206.178" r="6.89" stroke-width="1" fill="none" layerid="3" id="gge502" locked="0"  /><circle cx="4244.815" cy="3206.178" r="2.95" stroke-width="1" fill="none" layerid="3" id="gge503" locked="0"  /><circle cx="4128.5" cy="3139.5" r="9.843" stroke-width="1.1811" fill="none" layerid="3" id="gge365" locked="0"  /><path d="M 4135.563 3133 A 8.99 8.99 0 0 1 4135.563 3146 Z " stroke-width="0"   net="" type="solid" layerid="3" id="gge366" locked="0" c_teardrop="" c_targetpad="" c_targetwire="" /><polyline points="4050 3050 4325.5908 3050 4325.5908 3238.9761 4050 3238.9761 4050 3050" stroke-width="1"  stroke-linecap="round" fill="none" layerid="10" net="" id="gge461" locked="0" /></svg>