<svg xmlns="http://www.w3.org/2000/svg" xmlns:xlink="http://www.w3.org/1999/xlink" width="135.509mm" height="62.23mm" viewBox="4075 3015.5 533.5 245"><title></title><style type="text/css">
*[layerid="1"] {stroke:#FF0000;fill:#FF0000;}
*[layerid="2"] {stroke:#0000FF;fill:#0000FF;}
*[layerid="3"] {stroke:#FFCC00;fill:#FFCC00;}
*[layerid="4"] {stroke:#66CC33;fill:#66CC33;}
*[layerid="5"] {stroke:#808080;fill:#808080;}
*[layerid="6"] {stroke:#800000;fill:#800000;}
*[layerid="7"] {stroke:#800080;fill:#800080;stroke-opacity:0.7;fill-opacity:0.7;}
*[layerid="8"] {stroke:#AA00FF;fill:#AA00FF;stroke-opacity:0.7;fill-opacity:0.7;}
*[layerid="9"] {stroke:#6464FF;fill:#6464FF;}
*[layerid="10"] {stroke:#FF00FF;fill:#FF00FF;}
*[layerid="11"] {stroke:#C0C0C0;fill:#C0C0C0;}
*[layerid="12"] {stroke:#FFFFFF;fill:#FFFFFF;}
*[layerid="13"] {stroke:#33CC99;fill:#33CC99;}
*[layerid="14"] {stroke:#5555FF;fill:#5555FF;}
*[layerid="15"] {stroke:#F022F0;fill:#F022F0;}
*[layerid="19"] {stroke:#66CCFF;fill:#66CCFF;}
*[layerid="21"] {stroke:#999966;fill:#999966;}
*[layerid="22"] {stroke:#008000;fill:#008000;}
*[layerid="23"] {stroke:#00FF00;fill:#00FF00;}
*[layerid="24"] {stroke:#BC8E00;fill:#BC8E00;}
*[layerid="25"] {stroke:#70DBFA;fill:#70DBFA;}
*[layerid="26"] {stroke:#00CC66;fill:#00CC66;}
*[layerid="27"] {stroke:#9966FF;fill:#9966FF;}
*[layerid="28"] {stroke:#800080;fill:#800080;}
*[layerid="29"] {stroke:#008080;fill:#008080;}
*[layerid="30"] {stroke:#15935F;fill:#15935F;}
*[layerid="31"] {stroke:#000080;fill:#000080;}
*[layerid="32"] {stroke:#00B400;fill:#00B400;}
*[layerid="33"] {stroke:#2E4756;fill:#2E4756;}
*[layerid="34"] {stroke:#99842F;fill:#99842F;}
*[layerid="35"] {stroke:#FFFFAA;fill:#FFFFAA;}
*[layerid="36"] {stroke:#99842F;fill:#99842F;}
*[layerid="37"] {stroke:#2E4756;fill:#2E4756;}
*[layerid="38"] {stroke:#3535FF;fill:#3535FF;}
*[layerid="39"] {stroke:#8000BC;fill:#8000BC;}
*[layerid="40"] {stroke:#43AE5F;fill:#43AE5F;}
*[layerid="41"] {stroke:#C3ECCE;fill:#C3ECCE;}
*[layerid="42"] {stroke:#728978;fill:#728978;}
*[layerid="43"] {stroke:#39503F;fill:#39503F;}
*[layerid="44"] {stroke:#0C715D;fill:#0C715D;}
*[layerid="45"] {stroke:#5A8A80;fill:#5A8A80;}
*[layerid="46"] {stroke:#2B937E;fill:#2B937E;}
*[layerid="47"] {stroke:#23999D;fill:#23999D;}
*[layerid="48"] {stroke:#45B4E3;fill:#45B4E3;}
*[layerid="49"] {stroke:#215DA1;fill:#215DA1;}
*[layerid="50"] {stroke:#4564D7;fill:#4564D7;}
*[layerid="51"] {stroke:#6969E9;fill:#6969E9;}
*[layerid="52"] {stroke:#9069E9;fill:#9069E9;}
*[layerid="99"] {stroke:#00CCCC;fill:#00CCCC;}
*[layerid="100"] {stroke:#CC9999;fill:#CC9999;}
*[layerid="Hole"] {stroke:#222222;fill:#222222;}
*[layerid="DRCError"] {stroke:#FAD609;fill:#FAD609;}
*[fill="none"] {fill: none;}
*[stroke="none"] {stroke: none;}
path, polyline, polygon, line {stroke-linecap:round;}
g[c_partid="part_pad"][layerid="1"] ellipse:not([c_etype="pad_outer"]) {fill:#FF0000;}
g[c_partid="part_pad"][layerid="1"] polygon:not([c_etype="pad_outer"]) {fill:#FF0000;}
g[c_partid="part_pad"][layerid="1"] polyline:not([c_etype="pad_outer"]) {stroke:#FF0000;}
g[c_partid="part_pad"][layerid="2"] ellipse:not([c_etype="pad_outer"]) {fill:#0000FF;}
g[c_partid="part_pad"][layerid="2"] polygon:not([c_etype="pad_outer"]) {fill:#0000FF;}
g[c_partid="part_pad"][layerid="2"] polyline:not([c_etype="pad_outer"]) {stroke:#0000FF;}
g[c_partid="part_pad"][layerid="11"] ellipse:not([c_etype="pad_outer"]) {fill:#C0C0C0;}
g[c_partid="part_pad"][layerid="11"] polygon:not([c_etype="pad_outer"]) {fill:#C0C0C0;}
g[c_partid="part_pad"][layerid="11"] polyline:not([c_etype="pad_outer"]) {stroke:#C0C0C0;}
g[c_partid="part_pad"][layerid="11"] circle {fill:#222222;}
g[c_partid="part_pad"][layerid="11"] > polyline:nth-of-type(2) {stroke:#222222;}
g[c_partid="part_pad"][layerid="11"][c_shape="ELLIPSE"]  polyline:nth-last-of-type(1) {stroke:#222222;}
g[c_partid="part_pad"][layerid="11"][c_shape="RECT"]  polyline:nth-last-of-type(1) {stroke:#222222;}
g[c_partid="part_pad"][layerid="11"][c_shape="POLYGON"]  polyline:nth-last-of-type(1) {stroke:#222222;}
g[c_partid="part_via"] > * + circle, #gCurParts g[c_partid="part_via"] > * + circle {fill:#222222;}
g[c_partid="part_pad"] > polygon[c_etype="pad_outer"], #gCurParts g[c_partid="part_pad"] > polygon[c_etype="pad_outer"] {stroke-linejoin: miter;stroke-miterlimit: 100;}
g[c_partid="part_hole"] > circle {fill: #222222;}path, polyline, polygon {stroke-linejoin:round;}
rect, circle, ellipse, polyline, line, polygon, path {shape-rendering:crispEdges;}
</style>
<rect x="4075" y="3015.5" width="533.5" height="245" fill="#000000" stroke="none"/><polyline points="4371.5 3172.5 4322 3172.5" stroke-width="3"  stroke-linecap="round" fill="none" layerid="1" net="U2_6" id="gge479" locked="0" /><polyline points="4343.5 3161 4371 3161 4371.5 3161.5" stroke-width="3"  stroke-linecap="round" fill="none" layerid="1" net="U2_5" id="gge480" locked="0" /><polyline points="4371.5 3151 4322 3151" stroke-width="3"  stroke-linecap="round" fill="none" layerid="1" net="U2_4" id="gge481" locked="0" /><polyline points="4413.5 3093.5 4402 3093.5 4373 3122.5" stroke-width="3"  stroke-linecap="round" fill="none" layerid="1" net="U2_17" id="gge2" locked="0" /><polyline points="4371.5 3183 4322 3183" stroke-width="3"  stroke-linecap="round" fill="none" layerid="1" net="U2_7" id="gge478" locked="0" /><polyline points="4561.5 3186.5 4520.5 3186.5 4520 3186" stroke-width="3"  stroke-linecap="round" fill="none" layerid="1" net="U2_27" id="gge7" locked="0" /><g c_partid="part_pad" c_etype="pinpart" c_origin="4371.5,3151" layerid="11" number="1" net="U2_4" plated ="Y"  id="gge425" locked="0" c_rotation="0" c_width="6" c_height="6" title="U2_4" c_shape="ELLIPSE" pasteexpansion="0" solderexpansion="0.4"><ellipse c_etype="pad_shell" cx="4371.5" cy="3151" rx="3" ry="3" layerid="11" stroke-width="0"/><circle c_etype="pad_hole" cx="4371.5" cy="3151" r="1.8" layerid="11" stroke-width="0"/></g><g c_partid="part_pad" c_etype="pinpart" c_origin="4371.5,3161.5" layerid="11" number="2" net="U2_5" plated ="Y"  id="gge428" locked="0" c_rotation="0" c_width="6" c_height="6" title="U2_5" c_shape="ELLIPSE" pasteexpansion="0" solderexpansion="0.4"><ellipse c_etype="pad_shell" cx="4371.5" cy="3161.5" rx="3" ry="3" layerid="11" stroke-width="0"/><circle c_etype="pad_hole" cx="4371.5" cy="3161.5" r="1.8" layerid="11" stroke-width="0"/></g><g c_partid="part_pad" c_etype="pinpart" c_origin="4371.5,3172.5" layerid="11" number="3" net="U2_6" plated ="Y"  id="gge431" locked="0" c_rotation="0" c_width="6" c_height="6" title="U2_6" c_shape="ELLIPSE" pasteexpansion="0" solderexpansion="0.4"><ellipse c_etype="pad_shell" cx="4371.5" cy="3172.5" rx="3" ry="3" layerid="11" stroke-width="0"/><circle c_etype="pad_hole" cx="4371.5" cy="3172.5" r="1.8" layerid="11" stroke-width="0"/></g><g c_partid="part_pad" c_etype="pinpart" c_origin="4371.5,3183" layerid="11" number="4" net="U2_7" plated ="Y"  id="gge434" locked="0" c_rotation="0" c_width="6" c_height="6" title="U2_7" c_shape="ELLIPSE" pasteexpansion="0" solderexpansion="0.4"><ellipse c_etype="pad_shell" cx="4371.5" cy="3183" rx="3" ry="3" layerid="11" stroke-width="0"/><circle c_etype="pad_hole" cx="4371.5" cy="3183" r="1.8" layerid="11" stroke-width="0"/></g><g c_partid="part_pad" c_etype="pinpart" c_origin="4322,3151" layerid="11" number="5" net="U2_4" plated ="Y"  id="gge437" locked="0" c_rotation="0" c_width="6" c_height="6" title="U2_4" c_shape="ELLIPSE" pasteexpansion="0" solderexpansion="0.4"><ellipse c_etype="pad_shell" cx="4322" cy="3151" rx="3" ry="3" layerid="11" stroke-width="0"/><circle c_etype="pad_hole" cx="4322" cy="3151" r="1.8" layerid="11" stroke-width="0"/></g><g c_partid="part_pad" c_etype="pinpart" c_origin="4343.5,3161" layerid="11" number="6" net="U2_5" plated ="Y"  id="gge440" locked="0" c_rotation="0" c_width="6" c_height="6" title="U2_5" c_shape="ELLIPSE" pasteexpansion="0" solderexpansion="0.4"><ellipse c_etype="pad_shell" cx="4343.5" cy="3161" rx="3" ry="3" layerid="11" stroke-width="0"/><circle c_etype="pad_hole" cx="4343.5" cy="3161" r="1.8" layerid="11" stroke-width="0"/></g><g c_partid="part_pad" c_etype="pinpart" c_origin="4322,3172.5" layerid="11" number="7" net="U2_6" plated ="Y"  id="gge443" locked="0" c_rotation="0" c_width="6" c_height="6" title="U2_6" c_shape="ELLIPSE" pasteexpansion="0" solderexpansion="0.4"><ellipse c_etype="pad_shell" cx="4322" cy="3172.5" rx="3" ry="3" layerid="11" stroke-width="0"/><circle c_etype="pad_hole" cx="4322" cy="3172.5" r="1.8" layerid="11" stroke-width="0"/></g><g c_partid="part_pad" c_etype="pinpart" c_origin="4322,3183" layerid="11" number="8" net="U2_7" plated ="Y"  id="gge446" locked="0" c_rotation="0" c_width="6" c_height="6" title="U2_7" c_shape="ELLIPSE" pasteexpansion="0" solderexpansion="0.4"><ellipse c_etype="pad_shell" cx="4322" cy="3183" rx="3" ry="3" layerid="11" stroke-width="0"/><circle c_etype="pad_hole" cx="4322" cy="3183" r="1.8" layerid="11" stroke-width="0"/></g><g c_partid="part_pad" c_etype="pinpart" c_origin="4303,3097.5" layerid="11" number="VCC" net="U2_27" plated ="Y"  id="gge71" locked="0" c_rotation="90" c_width="5.57" c_height="5.57" title="U2_27" c_shape="ELLIPSE" pasteexpansion="0" solderexpansion="0.4"><ellipse c_etype="pad_shell" cx="4303" cy="3097.5" rx="2.785" ry="2.785" layerid="11" stroke-width="0"/><circle c_etype="pad_hole" cx="4303" cy="3097.5" r="1.5" layerid="11" stroke-width="0"/></g><g c_partid="part_pad" c_etype="pinpart" c_origin="4303,3107.5" layerid="11" number="IN2" net="U2_7" plated ="Y"  id="gge76" locked="0" c_rotation="90" c_width="5.57" c_height="5.57" title="U2_7" c_shape="ELLIPSE" pasteexpansion="0" solderexpansion="0.4"><ellipse c_etype="pad_shell" cx="4303" cy="3107.5" rx="2.785" ry="2.785" layerid="11" stroke-width="0"/><circle c_etype="pad_hole" cx="4303" cy="3107.5" r="1.5" layerid="11" stroke-width="0"/></g><g c_partid="part_pad" c_etype="pinpart" c_origin="4303,3117.5" layerid="11" number="IN1" net="U2_6" plated ="Y"  id="gge81" locked="0" c_rotation="90" c_width="5.57" c_height="5.57" title="U2_6" c_shape="ELLIPSE" pasteexpansion="0" solderexpansion="0.4"><ellipse c_etype="pad_shell" cx="4303" cy="3117.5" rx="2.785" ry="2.785" layerid="11" stroke-width="0"/><circle c_etype="pad_hole" cx="4303" cy="3117.5" r="1.5" layerid="11" stroke-width="0"/></g><g c_partid="part_pad" c_etype="pinpart" c_origin="4303.126,3127.354" layerid="11" number="GND" net="U2_4" plated ="Y"  id="gge86" locked="0" c_rotation="90" c_width="5.57" c_height="5.57" title="U2_4" c_shape="RECT" pasteexpansion="0" solderexpansion="0.4"><polygon  c_etype="pad_shell" points="4300.341 3130.1393 4300.341 3124.5693 4305.911 3124.5693 4305.911 3130.1393" layerid="11" stroke-width="0" /><circle c_etype="pad_hole" cx="4303.126" cy="3127.3543" r="1.5" layerid="11" stroke-width="0"/></g><g c_partid="part_pad" c_etype="pinpart" c_origin="4413,3141" layerid="11" number="1" net="U2_1" plated ="Y"  id="gge161" locked="0" c_rotation="0" c_width="7" c_height="7" title="U2_1" c_shape="RECT" pasteexpansion="0" solderexpansion="0.4"><polygon  c_etype="pad_shell" points="4409.5 3137.5 4416.5 3137.5 4416.5 3144.5 4409.5 3144.5" layerid="11" stroke-width="0" /><circle c_etype="pad_hole" cx="4413" cy="3141" r="1.8" layerid="11" stroke-width="0"/></g><g c_partid="part_pad" c_etype="pinpart" c_origin="4423,3141" layerid="11" number="2" net="U2_2" plated ="Y"  id="gge166" locked="0" c_rotation="0" c_width="7" c_height="7" title="U2_2" c_shape="ELLIPSE" pasteexpansion="0" solderexpansion="0.4"><ellipse c_etype="pad_shell" cx="4423" cy="3141" rx="3.5" ry="3.5" layerid="11" stroke-width="0"/><circle c_etype="pad_hole" cx="4423" cy="3141" r="1.8" layerid="11" stroke-width="0"/></g><g c_partid="part_pad" c_etype="pinpart" c_origin="4433,3141" layerid="11" number="3" net="U2_3" plated ="Y"  id="gge171" locked="0" c_rotation="0" c_width="7" c_height="7" title="U2_3" c_shape="ELLIPSE" pasteexpansion="0" solderexpansion="0.4"><ellipse c_etype="pad_shell" cx="4433" cy="3141" rx="3.5" ry="3.5" layerid="11" stroke-width="0"/><circle c_etype="pad_hole" cx="4433" cy="3141" r="1.8" layerid="11" stroke-width="0"/></g><g c_partid="part_pad" c_etype="pinpart" c_origin="4443,3141" layerid="11" number="4" net="U2_4" plated ="Y"  id="gge176" locked="0" c_rotation="0" c_width="7" c_height="7" title="U2_4" c_shape="ELLIPSE" pasteexpansion="0" solderexpansion="0.4"><ellipse c_etype="pad_shell" cx="4443" cy="3141" rx="3.5" ry="3.5" layerid="11" stroke-width="0"/><circle c_etype="pad_hole" cx="4443" cy="3141" r="1.8" layerid="11" stroke-width="0"/></g><g c_partid="part_pad" c_etype="pinpart" c_origin="4453,3141" layerid="11" number="5" net="U2_5" plated ="Y"  id="gge181" locked="0" c_rotation="0" c_width="7" c_height="7" title="U2_5" c_shape="ELLIPSE" pasteexpansion="0" solderexpansion="0.4"><ellipse c_etype="pad_shell" cx="4453" cy="3141" rx="3.5" ry="3.5" layerid="11" stroke-width="0"/><circle c_etype="pad_hole" cx="4453" cy="3141" r="1.8" layerid="11" stroke-width="0"/></g><g c_partid="part_pad" c_etype="pinpart" c_origin="4463,3141" layerid="11" number="6" net="U2_6" plated ="Y"  id="gge186" locked="0" c_rotation="0" c_width="7" c_height="7" title="U2_6" c_shape="ELLIPSE" pasteexpansion="0" solderexpansion="0.4"><ellipse c_etype="pad_shell" cx="4463" cy="3141" rx="3.5" ry="3.5" layerid="11" stroke-width="0"/><circle c_etype="pad_hole" cx="4463" cy="3141" r="1.8" layerid="11" stroke-width="0"/></g><g c_partid="part_pad" c_etype="pinpart" c_origin="4473,3141" layerid="11" number="7" net="U2_7" plated ="Y"  id="gge191" locked="0" c_rotation="0" c_width="7" c_height="7" title="U2_7" c_shape="ELLIPSE" pasteexpansion="0" solderexpansion="0.4"><ellipse c_etype="pad_shell" cx="4473" cy="3141" rx="3.5" ry="3.5" layerid="11" stroke-width="0"/><circle c_etype="pad_hole" cx="4473" cy="3141" r="1.8" layerid="11" stroke-width="0"/></g><g c_partid="part_pad" c_etype="pinpart" c_origin="4483,3141" layerid="11" number="8" net="U2_8" plated ="Y"  id="gge196" locked="0" c_rotation="0" c_width="7" c_height="7" title="U2_8" c_shape="ELLIPSE" pasteexpansion="0" solderexpansion="0.4"><ellipse c_etype="pad_shell" cx="4483" cy="3141" rx="3.5" ry="3.5" layerid="11" stroke-width="0"/><circle c_etype="pad_hole" cx="4483" cy="3141" r="1.8" layerid="11" stroke-width="0"/></g><g c_partid="part_pad" c_etype="pinpart" c_origin="4493,3141" layerid="11" number="9" net="U2_9" plated ="Y"  id="gge201" locked="0" c_rotation="0" c_width="7" c_height="7" title="U2_9" c_shape="ELLIPSE" pasteexpansion="0" solderexpansion="0.4"><ellipse c_etype="pad_shell" cx="4493" cy="3141" rx="3.5" ry="3.5" layerid="11" stroke-width="0"/><circle c_etype="pad_hole" cx="4493" cy="3141" r="1.8" layerid="11" stroke-width="0"/></g><g c_partid="part_pad" c_etype="pinpart" c_origin="4503,3141" layerid="11" number="10" net="U2_10" plated ="Y"  id="gge206" locked="0" c_rotation="0" c_width="7" c_height="7" title="U2_10" c_shape="ELLIPSE" pasteexpansion="0" solderexpansion="0.4"><ellipse c_etype="pad_shell" cx="4503" cy="3141" rx="3.5" ry="3.5" layerid="11" stroke-width="0"/><circle c_etype="pad_hole" cx="4503" cy="3141" r="1.8" layerid="11" stroke-width="0"/></g><g c_partid="part_pad" c_etype="pinpart" c_origin="4513,3141" layerid="11" number="11" net="U2_11" plated ="Y"  id="gge211" locked="0" c_rotation="0" c_width="7" c_height="7" title="U2_11" c_shape="ELLIPSE" pasteexpansion="0" solderexpansion="0.4"><ellipse c_etype="pad_shell" cx="4513" cy="3141" rx="3.5" ry="3.5" layerid="11" stroke-width="0"/><circle c_etype="pad_hole" cx="4513" cy="3141" r="1.8" layerid="11" stroke-width="0"/></g><g c_partid="part_pad" c_etype="pinpart" c_origin="4523,3141" layerid="11" number="12" net="U2_12" plated ="Y"  id="gge216" locked="0" c_rotation="0" c_width="7" c_height="7" title="U2_12" c_shape="ELLIPSE" pasteexpansion="0" solderexpansion="0.4"><ellipse c_etype="pad_shell" cx="4523" cy="3141" rx="3.5" ry="3.5" layerid="11" stroke-width="0"/><circle c_etype="pad_hole" cx="4523" cy="3141" r="1.8" layerid="11" stroke-width="0"/></g><g c_partid="part_pad" c_etype="pinpart" c_origin="4533,3141" layerid="11" number="13" net="U2_13" plated ="Y"  id="gge221" locked="0" c_rotation="0" c_width="7" c_height="7" title="U2_13" c_shape="ELLIPSE" pasteexpansion="0" solderexpansion="0.4"><ellipse c_etype="pad_shell" cx="4533" cy="3141" rx="3.5" ry="3.5" layerid="11" stroke-width="0"/><circle c_etype="pad_hole" cx="4533" cy="3141" r="1.8" layerid="11" stroke-width="0"/></g><g c_partid="part_pad" c_etype="pinpart" c_origin="4543,3141" layerid="11" number="14" net="U2_14" plated ="Y"  id="gge226" locked="0" c_rotation="0" c_width="7" c_height="7" title="U2_14" c_shape="ELLIPSE" pasteexpansion="0" solderexpansion="0.4"><ellipse c_etype="pad_shell" cx="4543" cy="3141" rx="3.5" ry="3.5" layerid="11" stroke-width="0"/><circle c_etype="pad_hole" cx="4543" cy="3141" r="1.8" layerid="11" stroke-width="0"/></g><g c_partid="part_pad" c_etype="pinpart" c_origin="4553,3141" layerid="11" number="15" net="U2_15" plated ="Y"  id="gge231" locked="0" c_rotation="0" c_width="7" c_height="7" title="U2_15" c_shape="ELLIPSE" pasteexpansion="0" solderexpansion="0.4"><ellipse c_etype="pad_shell" cx="4553" cy="3141" rx="3.5" ry="3.5" layerid="11" stroke-width="0"/><circle c_etype="pad_hole" cx="4553" cy="3141" r="1.8" layerid="11" stroke-width="0"/></g><g c_partid="part_pad" c_etype="pinpart" c_origin="4413,3081" layerid="11" number="30" net="U2_30" plated ="Y"  id="gge236" locked="0" c_rotation="0" c_width="7" c_height="7" title="U2_30" c_shape="ELLIPSE" pasteexpansion="0" solderexpansion="0.4"><ellipse c_etype="pad_shell" cx="4413" cy="3081" rx="3.5" ry="3.5" layerid="11" stroke-width="0"/><circle c_etype="pad_hole" cx="4413" cy="3081" r="1.8" layerid="11" stroke-width="0"/></g><g c_partid="part_pad" c_etype="pinpart" c_origin="4423,3081" layerid="11" number="29" net="U2_29" plated ="Y"  id="gge241" locked="0" c_rotation="0" c_width="7" c_height="7" title="U2_29" c_shape="ELLIPSE" pasteexpansion="0" solderexpansion="0.4"><ellipse c_etype="pad_shell" cx="4423" cy="3081" rx="3.5" ry="3.5" layerid="11" stroke-width="0"/><circle c_etype="pad_hole" cx="4423" cy="3081" r="1.8" layerid="11" stroke-width="0"/></g><g c_partid="part_pad" c_etype="pinpart" c_origin="4433,3081" layerid="11" number="28" net="U2_28" plated ="Y"  id="gge246" locked="0" c_rotation="0" c_width="7" c_height="7" title="U2_28" c_shape="ELLIPSE" pasteexpansion="0" solderexpansion="0.4"><ellipse c_etype="pad_shell" cx="4433" cy="3081" rx="3.5" ry="3.5" layerid="11" stroke-width="0"/><circle c_etype="pad_hole" cx="4433" cy="3081" r="1.8" layerid="11" stroke-width="0"/></g><g c_partid="part_pad" c_etype="pinpart" c_origin="4443,3081" layerid="11" number="27" net="U2_27" plated ="Y"  id="gge251" locked="0" c_rotation="0" c_width="7" c_height="7" title="U2_27" c_shape="ELLIPSE" pasteexpansion="0" solderexpansion="0.4"><ellipse c_etype="pad_shell" cx="4443" cy="3081" rx="3.5" ry="3.5" layerid="11" stroke-width="0"/><circle c_etype="pad_hole" cx="4443" cy="3081" r="1.8" layerid="11" stroke-width="0"/></g><g c_partid="part_pad" c_etype="pinpart" c_origin="4453,3081" layerid="11" number="26" net="U2_26" plated ="Y"  id="gge256" locked="0" c_rotation="0" c_width="7" c_height="7" title="U2_26" c_shape="ELLIPSE" pasteexpansion="0" solderexpansion="0.4"><ellipse c_etype="pad_shell" cx="4453" cy="3081" rx="3.5" ry="3.5" layerid="11" stroke-width="0"/><circle c_etype="pad_hole" cx="4453" cy="3081" r="1.8" layerid="11" stroke-width="0"/></g><g c_partid="part_pad" c_etype="pinpart" c_origin="4463,3081" layerid="11" number="25" net="U2_25" plated ="Y"  id="gge261" locked="0" c_rotation="0" c_width="7" c_height="7" title="U2_25" c_shape="ELLIPSE" pasteexpansion="0" solderexpansion="0.4"><ellipse c_etype="pad_shell" cx="4463" cy="3081" rx="3.5" ry="3.5" layerid="11" stroke-width="0"/><circle c_etype="pad_hole" cx="4463" cy="3081" r="1.8" layerid="11" stroke-width="0"/></g><g c_partid="part_pad" c_etype="pinpart" c_origin="4473,3081" layerid="11" number="24" net="U2_24" plated ="Y"  id="gge266" locked="0" c_rotation="0" c_width="7" c_height="7" title="U2_24" c_shape="ELLIPSE" pasteexpansion="0" solderexpansion="0.4"><ellipse c_etype="pad_shell" cx="4473" cy="3081" rx="3.5" ry="3.5" layerid="11" stroke-width="0"/><circle c_etype="pad_hole" cx="4473" cy="3081" r="1.8" layerid="11" stroke-width="0"/></g><g c_partid="part_pad" c_etype="pinpart" c_origin="4483,3081" layerid="11" number="23" net="U2_23" plated ="Y"  id="gge271" locked="0" c_rotation="0" c_width="7" c_height="7" title="U2_23" c_shape="ELLIPSE" pasteexpansion="0" solderexpansion="0.4"><ellipse c_etype="pad_shell" cx="4483" cy="3081" rx="3.5" ry="3.5" layerid="11" stroke-width="0"/><circle c_etype="pad_hole" cx="4483" cy="3081" r="1.8" layerid="11" stroke-width="0"/></g><g c_partid="part_pad" c_etype="pinpart" c_origin="4493,3081" layerid="11" number="22" net="U2_22" plated ="Y"  id="gge276" locked="0" c_rotation="0" c_width="7" c_height="7" title="U2_22" c_shape="ELLIPSE" pasteexpansion="0" solderexpansion="0.4"><ellipse c_etype="pad_shell" cx="4493" cy="3081" rx="3.5" ry="3.5" layerid="11" stroke-width="0"/><circle c_etype="pad_hole" cx="4493" cy="3081" r="1.8" layerid="11" stroke-width="0"/></g><g c_partid="part_pad" c_etype="pinpart" c_origin="4503,3081" layerid="11" number="21" net="U2_21" plated ="Y"  id="gge281" locked="0" c_rotation="0" c_width="7" c_height="7" title="U2_21" c_shape="ELLIPSE" pasteexpansion="0" solderexpansion="0.4"><ellipse c_etype="pad_shell" cx="4503" cy="3081" rx="3.5" ry="3.5" layerid="11" stroke-width="0"/><circle c_etype="pad_hole" cx="4503" cy="3081" r="1.8" layerid="11" stroke-width="0"/></g><g c_partid="part_pad" c_etype="pinpart" c_origin="4513,3081" layerid="11" number="20" net="U2_20" plated ="Y"  id="gge286" locked="0" c_rotation="0" c_width="7" c_height="7" title="U2_20" c_shape="ELLIPSE" pasteexpansion="0" solderexpansion="0.4"><ellipse c_etype="pad_shell" cx="4513" cy="3081" rx="3.5" ry="3.5" layerid="11" stroke-width="0"/><circle c_etype="pad_hole" cx="4513" cy="3081" r="1.8" layerid="11" stroke-width="0"/></g><g c_partid="part_pad" c_etype="pinpart" c_origin="4523,3081" layerid="11" number="19" net="U2_19" plated ="Y"  id="gge291" locked="0" c_rotation="0" c_width="7" c_height="7" title="U2_19" c_shape="ELLIPSE" pasteexpansion="0" solderexpansion="0.4"><ellipse c_etype="pad_shell" cx="4523" cy="3081" rx="3.5" ry="3.5" layerid="11" stroke-width="0"/><circle c_etype="pad_hole" cx="4523" cy="3081" r="1.8" layerid="11" stroke-width="0"/></g><g c_partid="part_pad" c_etype="pinpart" c_origin="4533,3081" layerid="11" number="18" net="U2_18" plated ="Y"  id="gge296" locked="0" c_rotation="0" c_width="7" c_height="7" title="U2_18" c_shape="ELLIPSE" pasteexpansion="0" solderexpansion="0.4"><ellipse c_etype="pad_shell" cx="4533" cy="3081" rx="3.5" ry="3.5" layerid="11" stroke-width="0"/><circle c_etype="pad_hole" cx="4533" cy="3081" r="1.8" layerid="11" stroke-width="0"/></g><g c_partid="part_pad" c_etype="pinpart" c_origin="4543,3081" layerid="11" number="17" net="U2_17" plated ="Y"  id="gge301" locked="0" c_rotation="0" c_width="7" c_height="7" title="U2_17" c_shape="ELLIPSE" pasteexpansion="0" solderexpansion="0.4"><ellipse c_etype="pad_shell" cx="4543" cy="3081" rx="3.5" ry="3.5" layerid="11" stroke-width="0"/><circle c_etype="pad_hole" cx="4543" cy="3081" r="1.8" layerid="11" stroke-width="0"/></g><g c_partid="part_pad" c_etype="pinpart" c_origin="4553,3081" layerid="11" number="16" net="U2_16" plated ="Y"  id="gge306" locked="0" c_rotation="0" c_width="7" c_height="7" title="U2_16" c_shape="ELLIPSE" pasteexpansion="0" solderexpansion="0.4"><ellipse c_etype="pad_shell" cx="4553" cy="3081" rx="3.5" ry="3.5" layerid="11" stroke-width="0"/><circle c_etype="pad_hole" cx="4553" cy="3081" r="1.8" layerid="11" stroke-width="0"/></g><g c_partid="part_pad" c_etype="pinpart" c_origin="4372.99,3096.495" layerid="11" number="1" net="U2_4" plated ="Y"  id="gge321" locked="0" c_rotation="180" c_width="7.0866" c_height="7.0866" title="U2_4" c_shape="ELLIPSE" pasteexpansion="0" solderexpansion="0.4"><ellipse c_etype="pad_shell" cx="4372.99" cy="3096.495" rx="3.5433" ry="3.5433" layerid="11" stroke-width="0"/><circle c_etype="pad_hole" cx="4372.99" cy="3096.495" r="1.5" layerid="11" stroke-width="0"/></g><g c_partid="part_pad" c_etype="pinpart" c_origin="4373,3106.505" layerid="11" number="2" net="U2_17" plated ="Y"  id="gge326" locked="0" c_rotation="180" c_width="7.0866" c_height="7.0866" title="U2_17" c_shape="ELLIPSE" pasteexpansion="0" solderexpansion="0.4"><ellipse c_etype="pad_shell" cx="4373" cy="3106.505" rx="3.5433" ry="3.5433" layerid="11" stroke-width="0"/><circle c_etype="pad_hole" cx="4373" cy="3106.505" r="1.5" layerid="11" stroke-width="0"/></g><g c_partid="part_pad" c_etype="pinpart" c_origin="4363,3096.505" layerid="11" number="3" net="U2_12" plated ="Y"  id="gge331" locked="0" c_rotation="180" c_width="7.0866" c_height="7.0866" title="U2_12" c_shape="ELLIPSE" pasteexpansion="0" solderexpansion="0.4"><ellipse c_etype="pad_shell" cx="4363" cy="3096.505" rx="3.5433" ry="3.5433" layerid="11" stroke-width="0"/><circle c_etype="pad_hole" cx="4363" cy="3096.505" r="1.5" layerid="11" stroke-width="0"/></g><g c_partid="part_pad" c_etype="pinpart" c_origin="4363,3106.505" layerid="11" number="4" net="U2_13" plated ="Y"  id="gge336" locked="0" c_rotation="180" c_width="7.0866" c_height="7.0866" title="U2_13" c_shape="ELLIPSE" pasteexpansion="0" solderexpansion="0.4"><ellipse c_etype="pad_shell" cx="4363" cy="3106.505" rx="3.5433" ry="3.5433" layerid="11" stroke-width="0"/><circle c_etype="pad_hole" cx="4363" cy="3106.505" r="1.5" layerid="11" stroke-width="0"/></g><g c_partid="part_pad" c_etype="pinpart" c_origin="4353,3096.505" layerid="11" number="5" net="U2_16" plated ="Y"  id="gge341" locked="0" c_rotation="180" c_width="7.0866" c_height="7.0866" title="U2_16" c_shape="ELLIPSE" pasteexpansion="0" solderexpansion="0.4"><ellipse c_etype="pad_shell" cx="4353" cy="3096.505" rx="3.5433" ry="3.5433" layerid="11" stroke-width="0"/><circle c_etype="pad_hole" cx="4353" cy="3096.505" r="1.5" layerid="11" stroke-width="0"/></g><g c_partid="part_pad" c_etype="pinpart" c_origin="4353,3106.505" layerid="11" number="6" net="U2_14" plated ="Y"  id="gge346" locked="0" c_rotation="180" c_width="7.0866" c_height="7.0866" title="U2_14" c_shape="ELLIPSE" pasteexpansion="0" solderexpansion="0.4"><ellipse c_etype="pad_shell" cx="4353" cy="3106.505" rx="3.5433" ry="3.5433" layerid="11" stroke-width="0"/><circle c_etype="pad_hole" cx="4353" cy="3106.505" r="1.5" layerid="11" stroke-width="0"/></g><g c_partid="part_pad" c_etype="pinpart" c_origin="4343,3096.505" layerid="11" number="7" net="U2_15" plated ="Y"  id="gge351" locked="0" c_rotation="180" c_width="7.0866" c_height="7.0866" title="U2_15" c_shape="ELLIPSE" pasteexpansion="0" solderexpansion="0.4"><ellipse c_etype="pad_shell" cx="4343" cy="3096.505" rx="3.5433" ry="3.5433" layerid="11" stroke-width="0"/><circle c_etype="pad_hole" cx="4343" cy="3096.505" r="1.5" layerid="11" stroke-width="0"/></g><g c_partid="part_pad" c_etype="pinpart" c_origin="4343,3106.505" layerid="11" number="8" net="U2_5" plated ="Y"  id="gge356" locked="0" c_rotation="180" c_width="7.0866" c_height="7.0866" title="U2_5" c_shape="ELLIPSE" pasteexpansion="0" solderexpansion="0.4"><ellipse c_etype="pad_shell" cx="4343" cy="3106.505" rx="3.5433" ry="3.5433" layerid="11" stroke-width="0"/><circle c_etype="pad_hole" cx="4343" cy="3106.505" r="1.5" layerid="11" stroke-width="0"/></g><g c_partid="part_pad" c_etype="pinpart" c_origin="4378.563,3137" layerid="11" number="1" net="U2_17" plated ="Y"  id="gge370" locked="0" c_rotation="0" c_width="5.1181" c_height="5.1181" title="U2_17" c_shape="ELLIPSE" pasteexpansion="0" solderexpansion="0.4"><ellipse c_etype="pad_shell" cx="4378.563" cy="3137" rx="2.55905" ry="2.55905" layerid="11" stroke-width="0"/><circle c_etype="pad_hole" cx="4378.563" cy="3137" r="1.5748" layerid="11" stroke-width="0"/></g><g c_partid="part_pad" c_etype="pinpart" c_origin="4386.437,3137" layerid="11" number="2" net="U2_4" plated ="Y"  id="gge375" locked="0" c_rotation="0" c_width="5.1181" c_height="5.1181" title="U2_4" c_shape="ELLIPSE" pasteexpansion="0" solderexpansion="0.4"><ellipse c_etype="pad_shell" cx="4386.437" cy="3137" rx="2.55905" ry="2.55905" layerid="11" stroke-width="0"/><circle c_etype="pad_hole" cx="4386.437" cy="3137" r="1.5748" layerid="11" stroke-width="0"/></g><g c_partid="part_pad" c_etype="pinpart" c_origin="4436.205,3167.642" layerid="11" number="4" net="U2_6" plated ="Y"  id="gge391" locked="0" c_rotation="0" c_width="9" c_height="4" title="U2_6" c_shape="RECT" pasteexpansion="0" solderexpansion="0.4"><polygon  c_etype="pad_shell" points="4431.705 3165.642 4440.705 3165.642 4440.705 3169.642 4431.705 3169.642" layerid="11" stroke-width="0" /><circle c_etype="pad_hole" cx="4436.205" cy="3167.642" r="1.5" layerid="11" stroke-width="0"/></g><g c_partid="part_pad" c_etype="pinpart" c_origin="4461.795,3167.642" layerid="11" number="3" net="U2_6" plated ="Y"  id="gge393" locked="0" c_rotation="0" c_width="9" c_height="4" title="U2_6" c_shape="RECT" pasteexpansion="0" solderexpansion="0.4"><polygon  c_etype="pad_shell" points="4457.295 3165.642 4466.295 3165.642 4466.295 3169.642 4457.295 3169.642" layerid="11" stroke-width="0" /><circle c_etype="pad_hole" cx="4461.795" cy="3167.642" r="1.5" layerid="11" stroke-width="0"/></g><g c_partid="part_pad" c_etype="pinpart" c_origin="4461.795,3185.358" layerid="11" number="2" net="U2_27" plated ="Y"  id="gge395" locked="0" c_rotation="0" c_width="9" c_height="4" title="U2_27" c_shape="RECT" pasteexpansion="0" solderexpansion="0.4"><polygon  c_etype="pad_shell" points="4457.295 3183.358 4466.295 3183.358 4466.295 3187.358 4457.295 3187.358" layerid="11" stroke-width="0" /><circle c_etype="pad_hole" cx="4461.795" cy="3185.358" r="1.5" layerid="11" stroke-width="0"/></g><g c_partid="part_pad" c_etype="pinpart" c_origin="4436.205,3185.358" layerid="11" number="1" net="U2_27" plated ="Y"  id="gge397" locked="0" c_rotation="0" c_width="9" c_height="4" title="U2_27" c_shape="RECT" pasteexpansion="0" solderexpansion="0.4"><polygon  c_etype="pad_shell" points="4431.705 3183.358 4440.705 3183.358 4440.705 3187.358 4431.705 3187.358" layerid="11" stroke-width="0" /><circle c_etype="pad_hole" cx="4436.205" cy="3185.358" r="1.5" layerid="11" stroke-width="0"/></g><g c_partid="part_pad" c_etype="pinpart" c_origin="4484.705,3168.142" layerid="11" number="4" net="U2_7" plated ="Y"  id="gge410" locked="0" c_rotation="0" c_width="9" c_height="4" title="U2_7" c_shape="RECT" pasteexpansion="0" solderexpansion="0.4"><polygon  c_etype="pad_shell" points="4480.205 3166.142 4489.205 3166.142 4489.205 3170.142 4480.205 3170.142" layerid="11" stroke-width="0" /><circle c_etype="pad_hole" cx="4484.705" cy="3168.142" r="1.5" layerid="11" stroke-width="0"/></g><g c_partid="part_pad" c_etype="pinpart" c_origin="4510.295,3168.142" layerid="11" number="3" net="U2_7" plated ="Y"  id="gge412" locked="0" c_rotation="0" c_width="9" c_height="4" title="U2_7" c_shape="RECT" pasteexpansion="0" solderexpansion="0.4"><polygon  c_etype="pad_shell" points="4505.795 3166.142 4514.795 3166.142 4514.795 3170.142 4505.795 3170.142" layerid="11" stroke-width="0" /><circle c_etype="pad_hole" cx="4510.295" cy="3168.142" r="1.5" layerid="11" stroke-width="0"/></g><g c_partid="part_pad" c_etype="pinpart" c_origin="4510.295,3185.858" layerid="11" number="2" net="U2_27" plated ="Y"  id="gge414" locked="0" c_rotation="0" c_width="9" c_height="4" title="U2_27" c_shape="RECT" pasteexpansion="0" solderexpansion="0.4"><polygon  c_etype="pad_shell" points="4505.795 3183.858 4514.795 3183.858 4514.795 3187.858 4505.795 3187.858" layerid="11" stroke-width="0" /><circle c_etype="pad_hole" cx="4510.295" cy="3185.858" r="1.5" layerid="11" stroke-width="0"/></g><g c_partid="part_pad" c_etype="pinpart" c_origin="4484.705,3185.858" layerid="11" number="1" net="U2_27" plated ="Y"  id="gge416" locked="0" c_rotation="0" c_width="9" c_height="4" title="U2_27" c_shape="RECT" pasteexpansion="0" solderexpansion="0.4"><polygon  c_etype="pad_shell" points="4480.205 3183.858 4489.205 3183.858 4489.205 3187.858 4480.205 3187.858" layerid="11" stroke-width="0" /><circle c_etype="pad_hole" cx="4484.705" cy="3185.858" r="1.5" layerid="11" stroke-width="0"/></g><g c_partid="part_via" c_etype="pinpart" c_shapetype="group" net="U2_17" c_origin="4373,3122.5" layerid="11" id="gge419" locked="0" solderexpansion=""><circle cx="4373" cy="3122.5" r="3.8" stroke-width="0" c_etype="pad_shell"/><circle cx="4373" cy="3122.5" r="1.5"  stroke-width="0" c_etype="pad_hole"/></g><g c_partid="part_via" c_etype="pinpart" c_shapetype="group" net="U2_17" c_origin="4413.5,3093.5" layerid="11" id="gge422" locked="0" solderexpansion=""><circle cx="4413.5" cy="3093.5" r="3.8" stroke-width="0" c_etype="pad_shell"/><circle cx="4413.5" cy="3093.5" r="1.5"  stroke-width="0" c_etype="pad_hole"/></g><g c_partid="part_via" c_etype="pinpart" c_shapetype="group" net="U2_27" c_origin="4520,3186" layerid="11" id="gge449" locked="0" solderexpansion=""><circle cx="4520" cy="3186" r="3.8" stroke-width="0" c_etype="pad_shell"/><circle cx="4520" cy="3186" r="1.5"  stroke-width="0" c_etype="pad_hole"/></g><g c_partid="part_via" c_etype="pinpart" c_shapetype="group" net="U2_27" c_origin="4561.5,3186.5" layerid="11" id="gge452" locked="0" solderexpansion=""><circle cx="4561.5" cy="3186.5" r="3.8" stroke-width="0" c_etype="pad_shell"/><circle cx="4561.5" cy="3186.5" r="1.5"  stroke-width="0" c_etype="pad_hole"/></g><g c_partid="part_hole" c_etype="pinpart" c_shapetype="group" c_origin="4304.11,3205.11" layerid="11" id="gge55" locked="0" ><circle cx="4304.11" cy="3205.11" r="5.9055"  stroke-width="0" /></g><g c_partid="part_hole" c_etype="pinpart" c_shapetype="group" c_origin="4304.11,3073.221" layerid="11" id="gge59" locked="0" ><circle cx="4304.11" cy="3073.221" r="5.9055"  stroke-width="0" /></g><g c_partid="part_hole" c_etype="pinpart" c_shapetype="group" c_origin="4129.898,3073.221" layerid="11" id="gge63" locked="0" ><circle cx="4129.898" cy="3073.221" r="5.9055"  stroke-width="0" /></g><g c_partid="part_hole" c_etype="pinpart" c_shapetype="group" c_origin="4129.898,3205.11" layerid="11" id="gge67" locked="0" ><circle cx="4129.898" cy="3205.11" r="5.9055"  stroke-width="0" /></g><polyline points="4122 3212 4122 3065.5 4311 3065.5 4311 3212 4122 3212" stroke-width="1"  stroke-linecap="round" fill="none" layerid="3" net="" id="gge47" locked="0" /><polyline points="4298 3132.5 4298 3122.5" stroke-width="1"  stroke-linecap="round" fill="none" layerid="3" net="null" id="gge48" locked="0" /><polyline points="4298 3092 4308 3092" stroke-width="1"  stroke-linecap="round" fill="none" layerid="3" net="null" id="gge49" locked="0" /><polyline points="4308 3122.5 4298 3122.5" stroke-width="1"  stroke-linecap="round" fill="none" layerid="3" net="null" id="gge50" locked="0" /><polyline points="4298 3122.5 4298 3092" stroke-width="1"  stroke-linecap="round" fill="none" layerid="3" net="null" id="gge51" locked="0" /><polyline points="4308 3122.5 4308 3132.5" stroke-width="1"  stroke-linecap="round" fill="none" layerid="3" net="null" id="gge52" locked="0" /><polyline points="4308 3092 4308 3122.5" stroke-width="1"  stroke-linecap="round" fill="none" layerid="3" net="null" id="gge53" locked="0" /><polyline points="4308 3132.5 4298 3132.5" stroke-width="1"  stroke-linecap="round" fill="none" layerid="3" net="null" id="gge54" locked="0" /><polyline points="4568 3146 4568 3076" stroke-width="1"  stroke-linecap="round" fill="none" layerid="3" net="" id="gge96" locked="0" /><polyline points="4568 3076 4398 3076" stroke-width="1"  stroke-linecap="round" fill="none" layerid="3" net="" id="gge97" locked="0" /><polyline points="4398 3076 4398 3146" stroke-width="1"  stroke-linecap="round" fill="none" layerid="3" net="" id="gge98" locked="0" /><polyline points="4398 3146 4568 3146" stroke-width="1"  stroke-linecap="round" fill="none" layerid="3" net="" id="gge99" locked="0" /><polyline points="4553 3126 4583 3126 4583 3096 4553 3096 4553 3126" stroke-width="1"  stroke-linecap="round" fill="none" layerid="3" net="" id="gge100" locked="0" /><polyline points="4380.467 3203.971 4380.467 3089.798" stroke-width="1"  stroke-linecap="round" fill="none" layerid="3" net="" id="gge316" locked="0" /><polyline points="4380.467 3203.971 4321.412 3203.971" stroke-width="1"  stroke-linecap="round" fill="none" layerid="3" net="" id="gge317" locked="0" /><polyline points="4321.412 3089.798 4321.412 3203.971" stroke-width="1"  stroke-linecap="round" fill="none" layerid="3" net="" id="gge318" locked="0" /><polyline points="4321.373 3089.798 4380.428 3089.798" stroke-width="1"  stroke-linecap="round" fill="none" layerid="3" net="" id="gge319" locked="0" /><polyline points="4378.496 3112.238 4337.551 3112.238 4337.551 3091.766 4378.496 3091.766 4378.496 3112.238" stroke-width="1"  stroke-linecap="round" fill="none" layerid="3" net="" id="gge320" locked="0" /><polyline points="4376.531 3131.095 4380.531 3131.095" stroke-width="1"  stroke-linecap="round" fill="none" layerid="3" net="" id="gge366" locked="0" /><polyline points="4378.563 3129.126 4378.563 3133.126" stroke-width="1"  stroke-linecap="round" fill="none" layerid="3" net="" id="gge367" locked="0" /><polyline points="4440.0421 3164.684 4457.9579 3164.684" stroke-width="1"  stroke-linecap="round" fill="none" layerid="3" net="" id="gge385" locked="0" /><polyline points="4460.405 3172.285 4460.405 3180.715" stroke-width="1"  stroke-linecap="round" fill="none" layerid="3" net="" id="gge386" locked="0" /><polyline points="4457.6748 3187.908 4440.3252 3187.908" stroke-width="1"  stroke-linecap="round" fill="none" layerid="3" net="" id="gge387" locked="0" /><polyline points="4437.576 3180.7094 4437.576 3172.2906" stroke-width="1"  stroke-linecap="round" fill="none" layerid="3" net="" id="gge388" locked="0" /><polyline points="4488.5421 3165.184 4506.4579 3165.184" stroke-width="1"  stroke-linecap="round" fill="none" layerid="3" net="" id="gge404" locked="0" /><polyline points="4508.905 3172.785 4508.905 3181.215" stroke-width="1"  stroke-linecap="round" fill="none" layerid="3" net="" id="gge405" locked="0" /><polyline points="4506.1748 3188.408 4488.8252 3188.408" stroke-width="1"  stroke-linecap="round" fill="none" layerid="3" net="" id="gge406" locked="0" /><polyline points="4486.076 3181.2094 4486.076 3172.7906" stroke-width="1"  stroke-linecap="round" fill="none" layerid="3" net="" id="gge407" locked="0" /><g c_partid="part_pcbtext" c_etype="" c_origin="4122.86,3139" c_rotation="90" c_mirror="0" id="gge43" locked="0" layerid="3" c_shapetype="group" ><path c_fontsize="4.5" c_fontfamily="" c_text="U3" d="M 4116.71 3139 L 4119.77 3139 L 4120.39 3138.8 L 4120.8 3138.39 L 4121 3137.77 L 4121 3137.36 L 4120.8 3136.75 L 4120.39 3136.34 L 4119.77 3136.14 L 4116.71 3136.14 M 4116.71 3134.38 L 4116.71 3132.13 L 4118.34 3133.35 L 4118.34 3132.74 L 4118.55 3132.33 L 4118.75 3132.13 L 4119.36 3131.92 L 4119.77 3131.92 L 4120.39 3132.13 L 4120.8 3132.54 L 4121 3133.15 L 4121 3133.76 L 4120.8 3134.38 L 4120.59 3134.58 L 4120.18 3134.79" fill="none"  stroke-width="0.6" c_note="note_pre" /></g><g c_partid="part_pcbtext" c_etype="" c_origin="4117.36,3139" c_rotation="90" c_mirror="0" id="gge45" locked="0" layerid="3" c_shapetype="group" display="none"><path c_fontsize="4.5" c_fontfamily="" c_text="2 CHANNEL RELAY" d="M 4112.23 3138.8 L 4112.02 3138.8 L 4111.61 3138.59 L 4111.41 3138.39 L 4111.21 3137.98 L 4111.21 3137.16 L 4111.41 3136.75 L 4111.61 3136.55 L 4112.02 3136.34 L 4112.43 3136.34 L 4112.84 3136.55 L 4113.46 3136.95 L 4115.5 3139 L 4115.5 3136.14 M 4112.23 3128.57 L 4111.82 3128.77 L 4111.41 3129.18 L 4111.21 3129.59 L 4111.21 3130.41 L 4111.41 3130.82 L 4111.82 3131.23 L 4112.23 3131.43 L 4112.84 3131.64 L 4113.86 3131.64 L 4114.48 3131.43 L 4114.89 3131.23 L 4115.3 3130.82 L 4115.5 3130.41 L 4115.5 3129.59 L 4115.3 3129.18 L 4114.89 3128.77 L 4114.48 3128.57 M 4111.21 3127.22 L 4115.5 3127.22 M 4111.21 3124.35 L 4115.5 3124.35 M 4113.25 3127.22 L 4113.25 3124.35 M 4111.21 3121.37 L 4115.5 3123 M 4111.21 3121.37 L 4115.5 3119.73 M 4114.07 3122.39 L 4114.07 3120.35 M 4111.21 3118.38 L 4115.5 3118.38 M 4111.21 3118.38 L 4115.5 3115.52 M 4111.21 3115.52 L 4115.5 3115.52 M 4111.21 3114.17 L 4115.5 3114.17 M 4111.21 3114.17 L 4115.5 3111.3 M 4111.21 3111.3 L 4115.5 3111.3 M 4111.21 3109.95 L 4115.5 3109.95 M 4111.21 3109.95 L 4111.21 3107.3 M 4113.25 3109.95 L 4113.25 3108.32 M 4115.5 3109.95 L 4115.5 3107.3 M 4111.21 3105.95 L 4115.5 3105.95 M 4115.5 3105.95 L 4115.5 3103.49 M 4111.21 3098.99 L 4115.5 3098.99 M 4111.21 3098.99 L 4111.21 3097.15 L 4111.41 3096.54 L 4111.61 3096.33 L 4112.02 3096.13 L 4112.43 3096.13 L 4112.84 3096.33 L 4113.05 3096.54 L 4113.25 3097.15 L 4113.25 3098.99 M 4113.25 3097.56 L 4115.5 3096.13 M 4111.21 3094.78 L 4115.5 3094.78 M 4111.21 3094.78 L 4111.21 3092.12 M 4113.25 3094.78 L 4113.25 3093.14 M 4115.5 3094.78 L 4115.5 3092.12 M 4111.21 3090.77 L 4115.5 3090.77 M 4115.5 3090.77 L 4115.5 3088.31 M 4111.21 3085.33 L 4115.5 3086.96 M 4111.21 3085.33 L 4115.5 3083.69 M 4114.07 3086.35 L 4114.07 3084.3 M 4111.21 3082.34 L 4113.25 3080.7 L 4115.5 3080.7 M 4111.21 3079.07 L 4113.25 3080.7" fill="none"  stroke-width="0.6" c_note="note_name" /></g><g c_partid="part_pcbtext" c_etype="" c_origin="4398.86,3112" c_rotation="90" c_mirror="0" id="gge92" locked="0" layerid="3" c_shapetype="group" ><path c_fontsize="4.5" c_fontfamily="" c_text="U2" d="M 4392.71 3112 L 4395.77 3112 L 4396.39 3111.8 L 4396.8 3111.39 L 4397 3110.77 L 4397 3110.36 L 4396.8 3109.75 L 4396.39 3109.34 L 4395.77 3109.14 L 4392.71 3109.14 M 4393.73 3107.58 L 4393.52 3107.58 L 4393.11 3107.38 L 4392.91 3107.17 L 4392.71 3106.76 L 4392.71 3105.95 L 4392.91 3105.54 L 4393.11 3105.33 L 4393.52 3105.13 L 4393.93 3105.13 L 4394.34 3105.33 L 4394.96 3105.74 L 4397 3107.79 L 4397 3104.92" fill="none"  stroke-width="0.6" c_note="note_pre" /></g><g c_partid="part_pcbtext" c_etype="" c_origin="4393.36,3112" c_rotation="90" c_mirror="0" id="gge94" locked="0" layerid="3" c_shapetype="group" display="none"><path c_fontsize="4.5" c_fontfamily="" c_text="ARDUINO_NANO" d="M 4387.21 3110.36 L 4391.5 3112 M 4387.21 3110.36 L 4391.5 3108.73 M 4390.07 3111.39 L 4390.07 3109.34 M 4387.21 3107.38 L 4391.5 3107.38 M 4387.21 3107.38 L 4387.21 3105.54 L 4387.41 3104.92 L 4387.61 3104.72 L 4388.02 3104.51 L 4388.43 3104.51 L 4388.84 3104.72 L 4389.05 3104.92 L 4389.25 3105.54 L 4389.25 3107.38 M 4389.25 3105.95 L 4391.5 3104.51 M 4387.21 3103.16 L 4391.5 3103.16 M 4387.21 3103.16 L 4387.21 3101.73 L 4387.41 3101.12 L 4387.82 3100.71 L 4388.23 3100.5 L 4388.84 3100.3 L 4389.86 3100.3 L 4390.48 3100.5 L 4390.89 3100.71 L 4391.3 3101.12 L 4391.5 3101.73 L 4391.5 3103.16 M 4387.21 3098.95 L 4390.27 3098.95 L 4390.89 3098.75 L 4391.3 3098.34 L 4391.5 3097.72 L 4391.5 3097.31 L 4391.3 3096.7 L 4390.89 3096.29 L 4390.27 3096.09 L 4387.21 3096.09 M 4387.21 3094.74 L 4391.5 3094.74 M 4387.21 3093.39 L 4391.5 3093.39 M 4387.21 3093.39 L 4391.5 3090.52 M 4387.21 3090.52 L 4391.5 3090.52 M 4387.21 3087.95 L 4387.41 3088.35 L 4387.82 3088.76 L 4388.23 3088.97 L 4388.84 3089.17 L 4389.86 3089.17 L 4390.48 3088.97 L 4390.89 3088.76 L 4391.3 3088.35 L 4391.5 3087.95 L 4391.5 3087.13 L 4391.3 3086.72 L 4390.89 3086.31 L 4390.48 3086.1 L 4389.86 3085.9 L 4388.84 3085.9 L 4388.23 3086.1 L 4387.82 3086.31 L 4387.41 3086.72 L 4387.21 3087.13 L 4387.21 3087.95 M 4392.93 3084.55 L 4392.93 3080.87 M 4387.21 3079.52 L 4391.5 3079.52 M 4387.21 3079.52 L 4391.5 3076.65 M 4387.21 3076.65 L 4391.5 3076.65 M 4387.21 3073.67 L 4391.5 3075.3 M 4387.21 3073.67 L 4391.5 3072.03 M 4390.07 3074.69 L 4390.07 3072.65 M 4387.21 3070.68 L 4391.5 3070.68 M 4387.21 3070.68 L 4391.5 3067.82 M 4387.21 3067.82 L 4391.5 3067.82 M 4387.21 3065.24 L 4387.41 3065.65 L 4387.82 3066.06 L 4388.23 3066.26 L 4388.84 3066.47 L 4389.86 3066.47 L 4390.48 3066.26 L 4390.89 3066.06 L 4391.3 3065.65 L 4391.5 3065.24 L 4391.5 3064.42 L 4391.3 3064.01 L 4390.89 3063.6 L 4390.48 3063.4 L 4389.86 3063.2 L 4388.84 3063.2 L 4388.23 3063.4 L 4387.82 3063.6 L 4387.41 3064.01 L 4387.21 3064.42 L 4387.21 3065.24" fill="none"  stroke-width="0.6" c_note="note_name" /></g><g c_partid="part_pcbtext" c_etype="" c_origin="4411.91,3167.37" c_rotation="90" c_mirror="0" id="gge101" locked="0" layerid="3" c_shapetype="group" ><path c_fontsize="4" c_fontfamily="" c_text="D1/TX" d="M 4409.73 3167.37 L 4413.55 3167.37 M 4409.73 3167.37 L 4409.73 3166.1 L 4409.91 3165.55 L 4410.27 3165.19 L 4410.64 3165.01 L 4411.18 3164.82 L 4412.09 3164.82 L 4412.64 3165.01 L 4413 3165.19 L 4413.36 3165.55 L 4413.55 3166.1 L 4413.55 3167.37 M 4410.46 3163.62 L 4410.27 3163.26 L 4409.73 3162.72 L 4413.55 3162.72 M 4409 3158.24 L 4414.82 3161.52 M 4409.73 3155.77 L 4413.55 3155.77 M 4409.73 3157.04 L 4409.73 3154.5 M 4409.73 3153.3 L 4413.55 3150.75 M 4409.73 3150.75 L 4413.55 3153.3" fill="none"  stroke-width="0.8"  /></g><g c_partid="part_pcbtext" c_etype="" c_origin="4423,3070" c_rotation="90" c_mirror="0" id="gge103" locked="0" layerid="3" c_shapetype="group" ><path c_fontsize="4" c_fontfamily="" c_text="GND" d="M 4421.73 3067.27 L 4421.36 3067.45 L 4421 3067.82 L 4420.82 3068.18 L 4420.82 3068.91 L 4421 3069.27 L 4421.36 3069.64 L 4421.73 3069.82 L 4422.27 3070 L 4423.18 3070 L 4423.73 3069.82 L 4424.09 3069.64 L 4424.45 3069.27 L 4424.64 3068.91 L 4424.64 3068.18 L 4424.45 3067.82 L 4424.09 3067.45 L 4423.73 3067.27 L 4423.18 3067.27 M 4423.18 3068.18 L 4423.18 3067.27 M 4420.82 3066.07 L 4424.64 3066.07 M 4420.82 3066.07 L 4424.64 3063.53 M 4420.82 3063.53 L 4424.64 3063.53 M 4420.82 3062.33 L 4424.64 3062.33 M 4420.82 3062.33 L 4420.82 3061.05 L 4421 3060.51 L 4421.36 3060.15 L 4421.73 3059.96 L 4422.27 3059.78 L 4423.18 3059.78 L 4423.73 3059.96 L 4424.09 3060.15 L 4424.45 3060.51 L 4424.64 3061.05 L 4424.64 3062.33" fill="none"  stroke-width="0.8"  /></g><g c_partid="part_pcbtext" c_etype="" c_origin="4444,3070" c_rotation="90" c_mirror="0" id="gge105" locked="0" layerid="3" c_shapetype="group" ><path c_fontsize="4" c_fontfamily="" c_text="+5V" d="M 4442.36 3068.36 L 4445.64 3068.36 M 4444 3070 L 4444 3066.73 M 4441.82 3063.35 L 4441.82 3065.16 L 4443.45 3065.35 L 4443.27 3065.16 L 4443.09 3064.62 L 4443.09 3064.07 L 4443.27 3063.53 L 4443.64 3063.16 L 4444.18 3062.98 L 4444.55 3062.98 L 4445.09 3063.16 L 4445.45 3063.53 L 4445.64 3064.07 L 4445.64 3064.62 L 4445.45 3065.16 L 4445.27 3065.35 L 4444.91 3065.53 M 4441.82 3061.78 L 4445.64 3060.33 M 4441.82 3058.87 L 4445.64 3060.33" fill="none"  stroke-width="0.8"  /></g><g c_partid="part_pcbtext" c_etype="" c_origin="4553,3176.79" c_rotation="90" c_mirror="0" id="gge107" locked="0" layerid="3" c_shapetype="group" ><path c_fontsize="4" c_fontfamily="" c_text="D12/MISO" d="M 4550.82 3176.79 L 4554.64 3176.79 M 4550.82 3176.79 L 4550.82 3175.52 L 4551 3174.97 L 4551.36 3174.61 L 4551.73 3174.43 L 4552.27 3174.24 L 4553.18 3174.24 L 4553.73 3174.43 L 4554.09 3174.61 L 4554.45 3174.97 L 4554.64 3175.52 L 4554.64 3176.79 M 4551.55 3173.04 L 4551.36 3172.68 L 4550.82 3172.14 L 4554.64 3172.14 M 4551.73 3170.75 L 4551.55 3170.75 L 4551.18 3170.57 L 4551 3170.39 L 4550.82 3170.03 L 4550.82 3169.3 L 4551 3168.94 L 4551.18 3168.75 L 4551.55 3168.57 L 4551.91 3168.57 L 4552.27 3168.75 L 4552.82 3169.12 L 4554.64 3170.94 L 4554.64 3168.39 M 4550.09 3163.92 L 4555.91 3167.19 M 4550.82 3162.72 L 4554.64 3162.72 M 4550.82 3162.72 L 4554.64 3161.26 M 4550.82 3159.81 L 4554.64 3161.26 M 4550.82 3159.81 L 4554.64 3159.81 M 4550.82 3158.61 L 4554.64 3158.61 M 4551.36 3154.86 L 4551 3155.23 L 4550.82 3155.77 L 4550.82 3156.5 L 4551 3157.04 L 4551.36 3157.41 L 4551.73 3157.41 L 4552.09 3157.23 L 4552.27 3157.04 L 4552.45 3156.68 L 4552.82 3155.59 L 4553 3155.23 L 4553.18 3155.04 L 4553.55 3154.86 L 4554.09 3154.86 L 4554.45 3155.23 L 4554.64 3155.77 L 4554.64 3156.5 L 4554.45 3157.04 L 4554.09 3157.41 M 4550.82 3152.57 L 4551 3152.94 L 4551.36 3153.3 L 4551.73 3153.48 L 4552.27 3153.66 L 4553.18 3153.66 L 4553.73 3153.48 L 4554.09 3153.3 L 4554.45 3152.94 L 4554.64 3152.57 L 4554.64 3151.84 L 4554.45 3151.48 L 4554.09 3151.12 L 4553.73 3150.94 L 4553.18 3150.75 L 4552.27 3150.75 L 4551.73 3150.94 L 4551.36 3151.12 L 4551 3151.48 L 4550.82 3151.84 L 4550.82 3152.57" fill="none"  stroke-width="0.8"  /></g><g c_partid="part_pcbtext" c_etype="" c_origin="4413,3070" c_rotation="90" c_mirror="0" id="gge109" locked="0" layerid="3" c_shapetype="group" ><path c_fontsize="4" c_fontfamily="" c_text="VIN" d="M 4410.82 3070 L 4414.64 3068.55 M 4410.82 3067.09 L 4414.64 3068.55 M 4410.82 3065.89 L 4414.64 3065.89 M 4410.82 3064.69 L 4414.64 3064.69 M 4410.82 3064.69 L 4414.64 3062.15 M 4410.82 3062.15 L 4414.64 3062.15" fill="none"  stroke-width="0.8"  /></g><g c_partid="part_pcbtext" c_etype="" c_origin="4554,3070" c_rotation="90" c_mirror="0" id="gge111" locked="0" layerid="3" c_shapetype="group" ><path c_fontsize="4" c_fontfamily="" c_text="D13/SCK" d="M 4551.82 3070 L 4555.64 3070 M 4551.82 3070 L 4551.82 3068.73 L 4552 3068.18 L 4552.36 3067.82 L 4552.73 3067.64 L 4553.27 3067.45 L 4554.18 3067.45 L 4554.73 3067.64 L 4555.09 3067.82 L 4555.45 3068.18 L 4555.64 3068.73 L 4555.64 3070 M 4552.55 3066.25 L 4552.36 3065.89 L 4551.82 3065.35 L 4555.64 3065.35 M 4551.82 3063.78 L 4551.82 3061.78 L 4553.27 3062.87 L 4553.27 3062.33 L 4553.45 3061.96 L 4553.64 3061.78 L 4554.18 3061.6 L 4554.55 3061.6 L 4555.09 3061.78 L 4555.45 3062.15 L 4555.64 3062.69 L 4555.64 3063.24 L 4555.45 3063.78 L 4555.27 3063.96 L 4554.91 3064.15 M 4551.09 3057.13 L 4556.91 3060.4 M 4552.36 3053.38 L 4552 3053.75 L 4551.82 3054.29 L 4551.82 3055.02 L 4552 3055.56 L 4552.36 3055.93 L 4552.73 3055.93 L 4553.09 3055.75 L 4553.27 3055.56 L 4553.45 3055.2 L 4553.82 3054.11 L 4554 3053.75 L 4554.18 3053.56 L 4554.55 3053.38 L 4555.09 3053.38 L 4555.45 3053.75 L 4555.64 3054.29 L 4555.64 3055.02 L 4555.45 3055.56 L 4555.09 3055.93 M 4552.73 3049.45 L 4552.36 3049.64 L 4552 3050 L 4551.82 3050.36 L 4551.82 3051.09 L 4552 3051.45 L 4552.36 3051.82 L 4552.73 3052 L 4553.27 3052.18 L 4554.18 3052.18 L 4554.73 3052 L 4555.09 3051.82 L 4555.45 3051.45 L 4555.64 3051.09 L 4555.64 3050.36 L 4555.45 3050 L 4555.09 3049.64 L 4554.73 3049.45 M 4551.82 3048.25 L 4555.64 3048.25 M 4551.82 3045.71 L 4554.36 3048.25 M 4553.45 3047.35 L 4555.64 3045.71" fill="none"  stroke-width="0.8"  /></g><g c_partid="part_pcbtext" c_etype="" c_origin="4443,3160.97" c_rotation="90" c_mirror="0" id="gge113" locked="0" layerid="3" c_shapetype="group" ><path c_fontsize="4" c_fontfamily="" c_text="GND" d="M 4441.73 3158.24 L 4441.36 3158.42 L 4441 3158.79 L 4440.82 3159.15 L 4440.82 3159.88 L 4441 3160.24 L 4441.36 3160.61 L 4441.73 3160.79 L 4442.27 3160.97 L 4443.18 3160.97 L 4443.73 3160.79 L 4444.09 3160.61 L 4444.45 3160.24 L 4444.64 3159.88 L 4444.64 3159.15 L 4444.45 3158.79 L 4444.09 3158.42 L 4443.73 3158.24 L 4443.18 3158.24 M 4443.18 3159.15 L 4443.18 3158.24 M 4440.82 3157.04 L 4444.64 3157.04 M 4440.82 3157.04 L 4444.64 3154.5 M 4440.82 3154.5 L 4444.64 3154.5 M 4440.82 3153.3 L 4444.64 3153.3 M 4440.82 3153.3 L 4440.82 3152.02 L 4441 3151.48 L 4441.36 3151.12 L 4441.73 3150.93 L 4442.27 3150.75 L 4443.18 3150.75 L 4443.73 3150.93 L 4444.09 3151.12 L 4444.45 3151.48 L 4444.64 3152.02 L 4444.64 3153.3" fill="none"  stroke-width="0.8"  /></g><g c_partid="part_pcbtext" c_etype="" c_origin="4423.91,3169" c_rotation="90" c_mirror="0" id="gge115" locked="0" layerid="3" c_shapetype="group" ><path c_fontsize="4" c_fontfamily="" c_text="D0/RX" d="M 4421.73 3169 L 4425.55 3169 M 4421.73 3169 L 4421.73 3167.73 L 4421.91 3167.18 L 4422.27 3166.82 L 4422.64 3166.64 L 4423.18 3166.45 L 4424.09 3166.45 L 4424.64 3166.64 L 4425 3166.82 L 4425.36 3167.18 L 4425.55 3167.73 L 4425.55 3169 M 4421.73 3164.16 L 4421.91 3164.71 L 4422.46 3165.07 L 4423.36 3165.25 L 4423.91 3165.25 L 4424.82 3165.07 L 4425.36 3164.71 L 4425.55 3164.16 L 4425.55 3163.8 L 4425.36 3163.25 L 4424.82 3162.89 L 4423.91 3162.71 L 4423.36 3162.71 L 4422.46 3162.89 L 4421.91 3163.25 L 4421.73 3163.8 L 4421.73 3164.16 M 4421 3158.24 L 4426.82 3161.51 M 4421.73 3157.04 L 4425.55 3157.04 M 4421.73 3157.04 L 4421.73 3155.4 L 4421.91 3154.85 L 4422.09 3154.67 L 4422.46 3154.49 L 4422.82 3154.49 L 4423.18 3154.67 L 4423.36 3154.85 L 4423.55 3155.4 L 4423.55 3157.04 M 4423.55 3155.76 L 4425.55 3154.49 M 4421.73 3153.29 L 4425.55 3150.75 M 4421.73 3150.75 L 4425.55 3153.29" fill="none"  stroke-width="0.8"  /></g><g c_partid="part_pcbtext" c_etype="" c_origin="4433.18,3167.91" c_rotation="90" c_mirror="0" id="gge117" locked="0" layerid="3" c_shapetype="group" ><path c_fontsize="4" c_fontfamily="" c_text="RESET" d="M 4431 3167.91 L 4434.82 3167.91 M 4431 3167.91 L 4431 3166.27 L 4431.18 3165.73 L 4431.36 3165.55 L 4431.73 3165.36 L 4432.09 3165.36 L 4432.45 3165.55 L 4432.63 3165.73 L 4432.82 3166.27 L 4432.82 3167.91 M 4432.82 3166.64 L 4434.82 3165.36 M 4431 3164.16 L 4434.82 3164.16 M 4431 3164.16 L 4431 3161.8 M 4432.82 3164.16 L 4432.82 3162.71 M 4434.82 3164.16 L 4434.82 3161.8 M 4431.54 3158.06 L 4431.18 3158.42 L 4431 3158.96 L 4431 3159.69 L 4431.18 3160.24 L 4431.54 3160.6 L 4431.91 3160.6 L 4432.27 3160.42 L 4432.45 3160.24 L 4432.63 3159.87 L 4433 3158.78 L 4433.18 3158.42 L 4433.36 3158.24 L 4433.73 3158.06 L 4434.27 3158.06 L 4434.63 3158.42 L 4434.82 3158.96 L 4434.82 3159.69 L 4434.63 3160.24 L 4434.27 3160.6 M 4431 3156.86 L 4434.82 3156.86 M 4431 3156.86 L 4431 3154.49 M 4432.82 3156.86 L 4432.82 3155.4 M 4434.82 3156.86 L 4434.82 3154.49 M 4431 3152.02 L 4434.82 3152.02 M 4431 3153.29 L 4431 3150.75" fill="none"  stroke-width="0.8"  /></g><g c_partid="part_pcbtext" c_etype="" c_origin="4453,3157.04" c_rotation="90" c_mirror="0" id="gge119" locked="0" layerid="3" c_shapetype="group" ><path c_fontsize="4" c_fontfamily="" c_text="D2" d="M 4450.82 3157.04 L 4454.64 3157.04 M 4450.82 3157.04 L 4450.82 3155.77 L 4451 3155.22 L 4451.36 3154.86 L 4451.73 3154.68 L 4452.27 3154.49 L 4453.18 3154.49 L 4453.73 3154.68 L 4454.09 3154.86 L 4454.45 3155.22 L 4454.64 3155.77 L 4454.64 3157.04 M 4451.73 3153.11 L 4451.55 3153.11 L 4451.18 3152.93 L 4451 3152.75 L 4450.82 3152.39 L 4450.82 3151.66 L 4451 3151.29 L 4451.18 3151.11 L 4451.55 3150.93 L 4451.91 3150.93 L 4452.27 3151.11 L 4452.82 3151.48 L 4454.64 3153.29 L 4454.64 3150.75" fill="none"  stroke-width="0.8"  /></g><g c_partid="part_pcbtext" c_etype="" c_origin="4463,3157.04" c_rotation="90" c_mirror="0" id="gge121" locked="0" layerid="3" c_shapetype="group" ><path c_fontsize="4" c_fontfamily="" c_text="D3" d="M 4460.82 3157.04 L 4464.64 3157.04 M 4460.82 3157.04 L 4460.82 3155.77 L 4461 3155.22 L 4461.36 3154.86 L 4461.73 3154.68 L 4462.27 3154.49 L 4463.18 3154.49 L 4463.73 3154.68 L 4464.09 3154.86 L 4464.45 3155.22 L 4464.64 3155.77 L 4464.64 3157.04 M 4460.82 3152.93 L 4460.82 3150.93 L 4462.27 3152.02 L 4462.27 3151.48 L 4462.45 3151.11 L 4462.64 3150.93 L 4463.18 3150.75 L 4463.55 3150.75 L 4464.09 3150.93 L 4464.45 3151.29 L 4464.64 3151.84 L 4464.64 3152.39 L 4464.45 3152.93 L 4464.27 3153.11 L 4463.91 3153.29" fill="none"  stroke-width="0.8"  /></g><g c_partid="part_pcbtext" c_etype="" c_origin="4473,3157.22" c_rotation="90" c_mirror="0" id="gge123" locked="0" layerid="3" c_shapetype="group" ><path c_fontsize="4" c_fontfamily="" c_text="D4" d="M 4470.82 3157.22 L 4474.64 3157.22 M 4470.82 3157.22 L 4470.82 3155.95 L 4471 3155.4 L 4471.36 3155.04 L 4471.73 3154.86 L 4472.27 3154.67 L 4473.18 3154.67 L 4473.73 3154.86 L 4474.09 3155.04 L 4474.45 3155.4 L 4474.64 3155.95 L 4474.64 3157.22 M 4470.82 3151.66 L 4473.36 3153.47 L 4473.36 3150.75 M 4470.82 3151.66 L 4474.64 3151.66" fill="none"  stroke-width="0.8"  /></g><g c_partid="part_pcbtext" c_etype="" c_origin="4482,3157.04" c_rotation="90" c_mirror="0" id="gge125" locked="0" layerid="3" c_shapetype="group" ><path c_fontsize="4" c_fontfamily="" c_text="D5" d="M 4479.82 3157.04 L 4483.64 3157.04 M 4479.82 3157.04 L 4479.82 3155.77 L 4480 3155.22 L 4480.36 3154.86 L 4480.73 3154.68 L 4481.27 3154.49 L 4482.18 3154.49 L 4482.73 3154.68 L 4483.09 3154.86 L 4483.45 3155.22 L 4483.64 3155.77 L 4483.64 3157.04 M 4479.82 3151.11 L 4479.82 3152.93 L 4481.45 3153.11 L 4481.27 3152.93 L 4481.09 3152.39 L 4481.09 3151.84 L 4481.27 3151.29 L 4481.64 3150.93 L 4482.18 3150.75 L 4482.55 3150.75 L 4483.09 3150.93 L 4483.45 3151.29 L 4483.64 3151.84 L 4483.64 3152.39 L 4483.45 3152.93 L 4483.27 3153.11 L 4482.91 3153.29" fill="none"  stroke-width="0.8"  /></g><g c_partid="part_pcbtext" c_etype="" c_origin="4492,3156.86" c_rotation="90" c_mirror="0" id="gge127" locked="0" layerid="3" c_shapetype="group" ><path c_fontsize="4" c_fontfamily="" c_text="D6" d="M 4489.82 3156.86 L 4493.64 3156.86 M 4489.82 3156.86 L 4489.82 3155.59 L 4490 3155.04 L 4490.36 3154.68 L 4490.73 3154.5 L 4491.27 3154.31 L 4492.18 3154.31 L 4492.73 3154.5 L 4493.09 3154.68 L 4493.45 3155.04 L 4493.64 3155.59 L 4493.64 3156.86 M 4490.36 3150.93 L 4490 3151.11 L 4489.82 3151.66 L 4489.82 3152.02 L 4490 3152.57 L 4490.55 3152.93 L 4491.45 3153.11 L 4492.36 3153.11 L 4493.09 3152.93 L 4493.45 3152.57 L 4493.64 3152.02 L 4493.64 3151.84 L 4493.45 3151.3 L 4493.09 3150.93 L 4492.55 3150.75 L 4492.36 3150.75 L 4491.82 3150.93 L 4491.45 3151.3 L 4491.27 3151.84 L 4491.27 3152.02 L 4491.45 3152.57 L 4491.82 3152.93 L 4492.36 3153.11" fill="none"  stroke-width="0.8"  /></g><g c_partid="part_pcbtext" c_etype="" c_origin="4503,3157.04" c_rotation="90" c_mirror="0" id="gge129" locked="0" layerid="3" c_shapetype="group" ><path c_fontsize="4" c_fontfamily="" c_text="D7" d="M 4500.82 3157.04 L 4504.64 3157.04 M 4500.82 3157.04 L 4500.82 3155.77 L 4501 3155.22 L 4501.36 3154.86 L 4501.73 3154.68 L 4502.27 3154.49 L 4503.18 3154.49 L 4503.73 3154.68 L 4504.09 3154.86 L 4504.45 3155.22 L 4504.64 3155.77 L 4504.64 3157.04 M 4500.82 3150.75 L 4504.64 3152.57 M 4500.82 3153.29 L 4500.82 3150.75" fill="none"  stroke-width="0.8"  /></g><g c_partid="part_pcbtext" c_etype="" c_origin="4512,3157.04" c_rotation="90" c_mirror="0" id="gge131" locked="0" layerid="3" c_shapetype="group" ><path c_fontsize="4" c_fontfamily="" c_text="D8" d="M 4509.82 3157.04 L 4513.64 3157.04 M 4509.82 3157.04 L 4509.82 3155.77 L 4510 3155.22 L 4510.36 3154.86 L 4510.73 3154.68 L 4511.27 3154.49 L 4512.18 3154.49 L 4512.73 3154.68 L 4513.09 3154.86 L 4513.45 3155.22 L 4513.64 3155.77 L 4513.64 3157.04 M 4509.82 3152.39 L 4510 3152.93 L 4510.36 3153.11 L 4510.73 3153.11 L 4511.09 3152.93 L 4511.27 3152.57 L 4511.45 3151.84 L 4511.64 3151.29 L 4512 3150.93 L 4512.36 3150.75 L 4512.91 3150.75 L 4513.27 3150.93 L 4513.45 3151.11 L 4513.64 3151.66 L 4513.64 3152.39 L 4513.45 3152.93 L 4513.27 3153.11 L 4512.91 3153.29 L 4512.36 3153.29 L 4512 3153.11 L 4511.64 3152.75 L 4511.45 3152.2 L 4511.27 3151.48 L 4511.09 3151.11 L 4510.73 3150.93 L 4510.36 3150.93 L 4510 3151.11 L 4509.82 3151.66 L 4509.82 3152.39" fill="none"  stroke-width="0.8"  /></g><g c_partid="part_pcbtext" c_etype="" c_origin="4522,3156.86" c_rotation="90" c_mirror="0" id="gge133" locked="0" layerid="3" c_shapetype="group" ><path c_fontsize="4" c_fontfamily="" c_text="D9" d="M 4519.82 3156.86 L 4523.64 3156.86 M 4519.82 3156.86 L 4519.82 3155.59 L 4520 3155.04 L 4520.36 3154.68 L 4520.73 3154.5 L 4521.27 3154.31 L 4522.18 3154.31 L 4522.73 3154.5 L 4523.09 3154.68 L 4523.45 3155.04 L 4523.64 3155.59 L 4523.64 3156.86 M 4521.09 3150.75 L 4521.64 3150.93 L 4522 3151.3 L 4522.18 3151.84 L 4522.18 3152.02 L 4522 3152.57 L 4521.64 3152.93 L 4521.09 3153.11 L 4520.91 3153.11 L 4520.36 3152.93 L 4520 3152.57 L 4519.82 3152.02 L 4519.82 3151.84 L 4520 3151.3 L 4520.36 3150.93 L 4521.09 3150.75 L 4522 3150.75 L 4522.91 3150.93 L 4523.45 3151.3 L 4523.64 3151.84 L 4523.64 3152.21 L 4523.45 3152.75 L 4523.09 3152.93" fill="none"  stroke-width="0.8"  /></g><g c_partid="part_pcbtext" c_etype="" c_origin="4533,3159.15" c_rotation="90" c_mirror="0" id="gge135" locked="0" layerid="3" c_shapetype="group" ><path c_fontsize="4" c_fontfamily="" c_text="D10" d="M 4530.82 3159.15 L 4534.64 3159.15 M 4530.82 3159.15 L 4530.82 3157.88 L 4531 3157.33 L 4531.36 3156.97 L 4531.73 3156.79 L 4532.27 3156.6 L 4533.18 3156.6 L 4533.73 3156.79 L 4534.09 3156.97 L 4534.45 3157.33 L 4534.64 3157.88 L 4534.64 3159.15 M 4531.55 3155.4 L 4531.36 3155.04 L 4530.82 3154.5 L 4534.64 3154.5 M 4530.82 3152.2 L 4531 3152.75 L 4531.55 3153.11 L 4532.45 3153.3 L 4533 3153.3 L 4533.91 3153.11 L 4534.45 3152.75 L 4534.64 3152.2 L 4534.64 3151.84 L 4534.45 3151.3 L 4533.91 3150.93 L 4533 3150.75 L 4532.45 3150.75 L 4531.55 3150.93 L 4531 3151.3 L 4530.82 3151.84 L 4530.82 3152.2" fill="none"  stroke-width="0.8"  /></g><g c_partid="part_pcbtext" c_etype="" c_origin="4542,3175.15" c_rotation="90" c_mirror="0" id="gge137" locked="0" layerid="3" c_shapetype="group" ><path c_fontsize="4" c_fontfamily="" c_text="D11/MOSI" d="M 4539.82 3175.15 L 4543.64 3175.15 M 4539.82 3175.15 L 4539.82 3173.88 L 4540 3173.33 L 4540.36 3172.97 L 4540.73 3172.79 L 4541.27 3172.6 L 4542.18 3172.6 L 4542.73 3172.79 L 4543.09 3172.97 L 4543.45 3173.33 L 4543.64 3173.88 L 4543.64 3175.15 M 4540.55 3171.4 L 4540.36 3171.04 L 4539.82 3170.5 L 4543.64 3170.5 M 4540.55 3169.3 L 4540.36 3168.93 L 4539.82 3168.39 L 4543.64 3168.39 M 4539.09 3163.91 L 4544.91 3167.19 M 4539.82 3162.71 L 4543.64 3162.71 M 4539.82 3162.71 L 4543.64 3161.26 M 4539.82 3159.8 L 4543.64 3161.26 M 4539.82 3159.8 L 4543.64 3159.8 M 4539.82 3157.51 L 4540 3157.88 L 4540.36 3158.24 L 4540.73 3158.42 L 4541.27 3158.6 L 4542.18 3158.6 L 4542.73 3158.42 L 4543.09 3158.24 L 4543.45 3157.88 L 4543.64 3157.51 L 4543.64 3156.79 L 4543.45 3156.42 L 4543.09 3156.06 L 4542.73 3155.88 L 4542.18 3155.7 L 4541.27 3155.7 L 4540.73 3155.88 L 4540.36 3156.06 L 4540 3156.42 L 4539.82 3156.79 L 4539.82 3157.51 M 4540.36 3151.95 L 4540 3152.31 L 4539.82 3152.86 L 4539.82 3153.59 L 4540 3154.13 L 4540.36 3154.5 L 4540.73 3154.5 L 4541.09 3154.31 L 4541.27 3154.13 L 4541.45 3153.77 L 4541.82 3152.68 L 4542 3152.31 L 4542.18 3152.13 L 4542.55 3151.95 L 4543.09 3151.95 L 4543.45 3152.31 L 4543.64 3152.86 L 4543.64 3153.59 L 4543.45 3154.13 L 4543.09 3154.5 M 4539.82 3150.75 L 4543.64 3150.75" fill="none"  stroke-width="0.8"  /></g><g c_partid="part_pcbtext" c_etype="" c_origin="4544,3070" c_rotation="90" c_mirror="0" id="gge139" locked="0" layerid="3" c_shapetype="group" ><path c_fontsize="4" c_fontfamily="" c_text="3V3" d="M 4541.82 3069.64 L 4541.82 3067.64 L 4543.27 3068.73 L 4543.27 3068.18 L 4543.45 3067.82 L 4543.64 3067.64 L 4544.18 3067.45 L 4544.55 3067.45 L 4545.09 3067.64 L 4545.45 3068 L 4545.64 3068.55 L 4545.64 3069.09 L 4545.45 3069.64 L 4545.27 3069.82 L 4544.91 3070 M 4541.82 3066.25 L 4545.64 3064.8 M 4541.82 3063.35 L 4545.64 3064.8 M 4541.82 3061.78 L 4541.82 3059.78 L 4543.27 3060.87 L 4543.27 3060.33 L 4543.45 3059.96 L 4543.64 3059.78 L 4544.18 3059.6 L 4544.55 3059.6 L 4545.09 3059.78 L 4545.45 3060.15 L 4545.64 3060.69 L 4545.64 3061.24 L 4545.45 3061.78 L 4545.27 3061.96 L 4544.91 3062.15" fill="none"  stroke-width="0.8"  /></g><g c_partid="part_pcbtext" c_etype="" c_origin="4533,3070" c_rotation="90" c_mirror="0" id="gge141" locked="0" layerid="3" c_shapetype="group" ><path c_fontsize="4" c_fontfamily="" c_text="AREF" d="M 4530.82 3068.55 L 4534.64 3070 M 4530.82 3068.55 L 4534.64 3067.09 M 4533.36 3069.45 L 4533.36 3067.64 M 4530.82 3065.89 L 4534.64 3065.89 M 4530.82 3065.89 L 4530.82 3064.25 L 4531 3063.71 L 4531.18 3063.53 L 4531.55 3063.35 L 4531.91 3063.35 L 4532.27 3063.53 L 4532.45 3063.71 L 4532.64 3064.25 L 4532.64 3065.89 M 4532.64 3064.62 L 4534.64 3063.35 M 4530.82 3062.15 L 4534.64 3062.15 M 4530.82 3062.15 L 4530.82 3059.78 M 4532.64 3062.15 L 4532.64 3060.69 M 4534.64 3062.15 L 4534.64 3059.78 M 4530.82 3058.58 L 4534.64 3058.58 M 4530.82 3058.58 L 4530.82 3056.22 M 4532.64 3058.58 L 4532.64 3057.13" fill="none"  stroke-width="0.8"  /></g><g c_partid="part_pcbtext" c_etype="" c_origin="4524,3070" c_rotation="90" c_mirror="0" id="gge143" locked="0" layerid="3" c_shapetype="group" ><path c_fontsize="4" c_fontfamily="" c_text="A0" d="M 4521.82 3068.55 L 4525.64 3070 M 4521.82 3068.55 L 4525.64 3067.09 M 4524.36 3069.45 L 4524.36 3067.64 M 4521.82 3064.8 L 4522 3065.35 L 4522.55 3065.71 L 4523.45 3065.89 L 4524 3065.89 L 4524.91 3065.71 L 4525.45 3065.35 L 4525.64 3064.8 L 4525.64 3064.44 L 4525.45 3063.89 L 4524.91 3063.53 L 4524 3063.35 L 4523.45 3063.35 L 4522.55 3063.53 L 4522 3063.89 L 4521.82 3064.44 L 4521.82 3064.8" fill="none"  stroke-width="0.8"  /></g><g c_partid="part_pcbtext" c_etype="" c_origin="4513,3070" c_rotation="90" c_mirror="0" id="gge145" locked="0" layerid="3" c_shapetype="group" ><path c_fontsize="4" c_fontfamily="" c_text="A1" d="M 4510.82 3068.55 L 4514.64 3070 M 4510.82 3068.55 L 4514.64 3067.09 M 4513.36 3069.45 L 4513.36 3067.64 M 4511.55 3065.89 L 4511.36 3065.53 L 4510.82 3064.98 L 4514.64 3064.98" fill="none"  stroke-width="0.8"  /></g><g c_partid="part_pcbtext" c_etype="" c_origin="4504,3070" c_rotation="90" c_mirror="0" id="gge147" locked="0" layerid="3" c_shapetype="group" ><path c_fontsize="4" c_fontfamily="" c_text="A2" d="M 4501.82 3068.55 L 4505.64 3070 M 4501.82 3068.55 L 4505.64 3067.09 M 4504.36 3069.45 L 4504.36 3067.64 M 4502.73 3065.71 L 4502.55 3065.71 L 4502.18 3065.53 L 4502 3065.35 L 4501.82 3064.98 L 4501.82 3064.25 L 4502 3063.89 L 4502.18 3063.71 L 4502.55 3063.53 L 4502.91 3063.53 L 4503.27 3063.71 L 4503.82 3064.07 L 4505.64 3065.89 L 4505.64 3063.35" fill="none"  stroke-width="0.8"  /></g><g c_partid="part_pcbtext" c_etype="" c_origin="4493,3070" c_rotation="90" c_mirror="0" id="gge149" locked="0" layerid="3" c_shapetype="group" ><path c_fontsize="4" c_fontfamily="" c_text="A3" d="M 4490.82 3068.55 L 4494.64 3070 M 4490.82 3068.55 L 4494.64 3067.09 M 4493.36 3069.45 L 4493.36 3067.64 M 4490.82 3065.53 L 4490.82 3063.53 L 4492.27 3064.62 L 4492.27 3064.07 L 4492.45 3063.71 L 4492.64 3063.53 L 4493.18 3063.35 L 4493.55 3063.35 L 4494.09 3063.53 L 4494.45 3063.89 L 4494.64 3064.44 L 4494.64 3064.98 L 4494.45 3065.53 L 4494.27 3065.71 L 4493.91 3065.89" fill="none"  stroke-width="0.8"  /></g><g c_partid="part_pcbtext" c_etype="" c_origin="4483,3070" c_rotation="90" c_mirror="0" id="gge151" locked="0" layerid="3" c_shapetype="group" ><path c_fontsize="4" c_fontfamily="" c_text="A4" d="M 4480.82 3068.55 L 4484.64 3070 M 4480.82 3068.55 L 4484.64 3067.09 M 4483.36 3069.45 L 4483.36 3067.64 M 4480.82 3064.07 L 4483.36 3065.89 L 4483.36 3063.16 M 4480.82 3064.07 L 4484.64 3064.07" fill="none"  stroke-width="0.8"  /></g><g c_partid="part_pcbtext" c_etype="" c_origin="4473,3070" c_rotation="90" c_mirror="0" id="gge153" locked="0" layerid="3" c_shapetype="group" ><path c_fontsize="4" c_fontfamily="" c_text="A5" d="M 4470.82 3068.55 L 4474.64 3070 M 4470.82 3068.55 L 4474.64 3067.09 M 4473.36 3069.45 L 4473.36 3067.64 M 4470.82 3063.71 L 4470.82 3065.53 L 4472.45 3065.71 L 4472.27 3065.53 L 4472.09 3064.98 L 4472.09 3064.44 L 4472.27 3063.89 L 4472.64 3063.53 L 4473.18 3063.35 L 4473.55 3063.35 L 4474.09 3063.53 L 4474.45 3063.89 L 4474.64 3064.44 L 4474.64 3064.98 L 4474.45 3065.53 L 4474.27 3065.71 L 4473.91 3065.89" fill="none"  stroke-width="0.8"  /></g><g c_partid="part_pcbtext" c_etype="" c_origin="4464,3070" c_rotation="90" c_mirror="0" id="gge155" locked="0" layerid="3" c_shapetype="group" ><path c_fontsize="4" c_fontfamily="" c_text="A6" d="M 4461.82 3068.55 L 4465.64 3070 M 4461.82 3068.55 L 4465.64 3067.09 M 4464.36 3069.45 L 4464.36 3067.64 M 4462.36 3063.71 L 4462 3063.89 L 4461.82 3064.44 L 4461.82 3064.8 L 4462 3065.35 L 4462.55 3065.71 L 4463.45 3065.89 L 4464.36 3065.89 L 4465.09 3065.71 L 4465.45 3065.35 L 4465.64 3064.8 L 4465.64 3064.62 L 4465.45 3064.07 L 4465.09 3063.71 L 4464.55 3063.53 L 4464.36 3063.53 L 4463.82 3063.71 L 4463.45 3064.07 L 4463.27 3064.62 L 4463.27 3064.8 L 4463.45 3065.35 L 4463.82 3065.71 L 4464.36 3065.89" fill="none"  stroke-width="0.8"  /></g><g c_partid="part_pcbtext" c_etype="" c_origin="4453,3070" c_rotation="90" c_mirror="0" id="gge157" locked="0" layerid="3" c_shapetype="group" ><path c_fontsize="4" c_fontfamily="" c_text="A7" d="M 4450.82 3068.55 L 4454.64 3070 M 4450.82 3068.55 L 4454.64 3067.09 M 4453.36 3069.45 L 4453.36 3067.64 M 4450.82 3063.35 L 4454.64 3065.16 M 4450.82 3065.89 L 4450.82 3063.35" fill="none"  stroke-width="0.8"  /></g><g c_partid="part_pcbtext" c_etype="" c_origin="4433,3070" c_rotation="90" c_mirror="0" id="gge159" locked="0" layerid="3" c_shapetype="group" ><path c_fontsize="4" c_fontfamily="" c_text="RESET" d="M 4430.82 3070 L 4434.64 3070 M 4430.82 3070 L 4430.82 3068.36 L 4431 3067.82 L 4431.18 3067.64 L 4431.55 3067.45 L 4431.91 3067.45 L 4432.27 3067.64 L 4432.45 3067.82 L 4432.64 3068.36 L 4432.64 3070 M 4432.64 3068.73 L 4434.64 3067.45 M 4430.82 3066.25 L 4434.64 3066.25 M 4430.82 3066.25 L 4430.82 3063.89 M 4432.64 3066.25 L 4432.64 3064.8 M 4434.64 3066.25 L 4434.64 3063.89 M 4431.36 3060.15 L 4431 3060.51 L 4430.82 3061.05 L 4430.82 3061.78 L 4431 3062.33 L 4431.36 3062.69 L 4431.73 3062.69 L 4432.09 3062.51 L 4432.27 3062.33 L 4432.45 3061.96 L 4432.82 3060.87 L 4433 3060.51 L 4433.18 3060.33 L 4433.55 3060.15 L 4434.09 3060.15 L 4434.45 3060.51 L 4434.64 3061.05 L 4434.64 3061.78 L 4434.45 3062.33 L 4434.09 3062.69 M 4430.82 3058.95 L 4434.64 3058.95 M 4430.82 3058.95 L 4430.82 3056.58 M 4432.64 3058.95 L 4432.64 3057.49 M 4434.64 3058.95 L 4434.64 3056.58 M 4430.82 3054.11 L 4434.64 3054.11 M 4430.82 3055.38 L 4430.82 3052.84" fill="none"  stroke-width="0.8"  /></g><g c_partid="part_pcbtext" c_etype="" c_origin="4339.24,3211.119" c_rotation="0" c_mirror="0" id="gge312" locked="0" layerid="3" c_shapetype="group" ><path c_fontsize="4.5" c_fontfamily="" c_text="MK2" d="M 4339.2402 3204.965 L 4339.2402 3209.265 M 4339.2402 3204.965 L 4340.8802 3209.265 M 4342.5102 3204.965 L 4340.8802 3209.265 M 4342.5102 3204.965 L 4342.5102 3209.265 M 4343.8602 3204.965 L 4343.8602 3209.265 M 4346.7302 3204.965 L 4343.8602 3207.825 M 4344.8902 3206.805 L 4346.7302 3209.265 M 4348.2802 3205.985 L 4348.2802 3205.785 L 4348.4902 3205.375 L 4348.6902 3205.165 L 4349.1002 3204.965 L 4349.9202 3204.965 L 4350.3302 3205.165 L 4350.5302 3205.375 L 4350.7402 3205.785 L 4350.7402 3206.195 L 4350.5302 3206.605 L 4350.1202 3207.215 L 4348.0802 3209.265 L 4350.9402 3209.265" fill="none"  stroke-width="0.6" c_note="note_pre" /></g><g c_partid="part_pcbtext" c_etype="" c_origin="4350.94,3208.611" c_rotation="180" c_mirror="0" id="gge314" locked="0" layerid="3" c_shapetype="group" display="none"><path c_fontsize="4.5" c_fontfamily="" c_text="NRF24L01+" d="M 4350.94 3214.765 L 4350.94 3210.465 M 4350.94 3214.765 L 4348.08 3210.465 M 4348.08 3214.765 L 4348.08 3210.465 M 4346.73 3214.765 L 4346.73 3210.465 M 4346.73 3214.765 L 4344.89 3214.765 L 4344.27 3214.565 L 4344.07 3214.355 L 4343.86 3213.945 L 4343.86 3213.535 L 4344.07 3213.125 L 4344.27 3212.925 L 4344.89 3212.715 L 4346.73 3212.715 M 4345.29 3212.715 L 4343.86 3210.465 M 4342.51 3214.765 L 4342.51 3210.465 M 4342.51 3214.765 L 4339.85 3214.765 M 4342.51 3212.715 L 4340.88 3212.715 M 4338.3 3213.745 L 4338.3 3213.945 L 4338.09 3214.355 L 4337.89 3214.565 L 4337.48 3214.765 L 4336.66 3214.765 L 4336.25 3214.565 L 4336.05 3214.355 L 4335.84 3213.945 L 4335.84 3213.535 L 4336.05 3213.125 L 4336.46 3212.515 L 4338.5 3210.465 L 4335.64 3210.465 M 4332.24 3214.765 L 4334.29 3211.905 L 4331.22 3211.905 M 4332.24 3214.765 L 4332.24 3210.465 M 4329.87 3214.765 L 4329.87 3210.465 M 4329.87 3210.465 L 4327.42 3210.465 M 4324.84 3214.765 L 4325.45 3214.565 L 4325.86 3213.945 L 4326.07 3212.925 L 4326.07 3212.315 L 4325.86 3211.285 L 4325.45 3210.675 L 4324.84 3210.465 L 4324.43 3210.465 L 4323.82 3210.675 L 4323.41 3211.285 L 4323.2 3212.315 L 4323.2 3212.925 L 4323.41 3213.945 L 4323.82 3214.565 L 4324.43 3214.765 L 4324.84 3214.765 M 4321.85 3213.945 L 4321.44 3214.155 L 4320.83 3214.765 L 4320.83 3210.465 M 4317.64 3214.155 L 4317.64 3210.465 M 4319.48 3212.315 L 4315.8 3212.315" fill="none"  stroke-width="0.6" c_note="note_name" /></g><g c_partid="part_pcbtext" c_etype="" c_origin="4381.626,3128.017" c_rotation="0" c_mirror="0" id="gge362" locked="0" layerid="3" c_shapetype="group" ><path c_fontsize="4.5" c_fontfamily="" c_text="C2" d="M 4384.696 3122.89 L 4384.486 3122.48 L 4384.076 3122.07 L 4383.676 3121.86 L 4382.856 3121.86 L 4382.446 3122.07 L 4382.036 3122.48 L 4381.826 3122.89 L 4381.626 3123.5 L 4381.626 3124.52 L 4381.826 3125.14 L 4382.036 3125.54 L 4382.446 3125.95 L 4382.856 3126.16 L 4383.676 3126.16 L 4384.076 3125.95 L 4384.486 3125.54 L 4384.696 3125.14 M 4386.246 3122.89 L 4386.246 3122.68 L 4386.456 3122.27 L 4386.656 3122.07 L 4387.066 3121.86 L 4387.886 3121.86 L 4388.296 3122.07 L 4388.496 3122.27 L 4388.706 3122.68 L 4388.706 3123.09 L 4388.496 3123.5 L 4388.086 3124.11 L 4386.046 3126.16 L 4388.906 3126.16" fill="none"  stroke-width="0.6" c_note="note_pre" /></g><g c_partid="part_pcbtext" c_etype="" c_origin="4381.626,3122.517" c_rotation="0" c_mirror="0" id="gge364" locked="0" layerid="3" c_shapetype="group" display="none"><path c_fontsize="4.5" c_fontfamily="" c_text="10uF" d="M 4381.626 3117.18 L 4382.036 3116.98 L 4382.646 3116.36 L 4382.646 3120.66 M 4385.226 3116.36 L 4384.616 3116.57 L 4384.206 3117.18 L 4383.996 3118.2 L 4383.996 3118.82 L 4384.206 3119.84 L 4384.616 3120.45 L 4385.226 3120.66 L 4385.636 3120.66 L 4386.246 3120.45 L 4386.656 3119.84 L 4386.866 3118.82 L 4386.866 3118.2 L 4386.656 3117.18 L 4386.246 3116.57 L 4385.636 3116.36 L 4385.226 3116.36 M 4388.216 3117.79 L 4388.216 3119.84 L 4388.416 3120.45 L 4388.826 3120.66 L 4389.436 3120.66 L 4389.846 3120.45 L 4390.466 3119.84 M 4390.466 3117.79 L 4390.466 3120.66 M 4391.816 3116.36 L 4391.816 3120.66 M 4391.816 3116.36 L 4394.476 3116.36 M 4391.816 3118.41 L 4393.446 3118.41" fill="none"  stroke-width="0.6" c_note="note_name" /></g><g c_partid="part_pcbtext" c_etype="" c_origin="4448.205,3164.165" c_rotation="0" c_mirror="0" id="gge381" locked="0" layerid="3" c_shapetype="group" ><path c_fontsize="4.5" c_fontfamily="" c_text="KEY1" d="M 4448.205 3158.012 L 4448.205 3162.302 M 4451.065 3158.012 L 4448.205 3160.872 M 4449.225 3159.852 L 4451.065 3162.302 M 4452.415 3158.012 L 4452.415 3162.302 M 4452.415 3158.012 L 4455.075 3158.012 M 4452.415 3160.052 L 4454.055 3160.052 M 4452.415 3162.302 L 4455.075 3162.302 M 4456.425 3158.012 L 4458.065 3160.052 L 4458.065 3162.302 M 4459.705 3158.012 L 4458.065 3160.052 M 4461.055 3158.832 L 4461.455 3158.622 L 4462.075 3158.012 L 4462.075 3162.302" fill="none"  stroke-width="0.6" c_note="note_pre" /></g><g c_partid="part_pcbtext" c_etype="" c_origin="4448.205,3158.665" c_rotation="0" c_mirror="0" id="gge383" locked="0" layerid="3" c_shapetype="group" display="none"><path c_fontsize="4.5" c_fontfamily="" c_text="button6*6*8.5" d="M 4448.205 3152.512 L 4448.205 3156.802 M 4448.205 3154.552 L 4448.615 3154.152 L 4449.025 3153.942 L 4449.635 3153.942 L 4450.045 3154.152 L 4450.455 3154.552 L 4450.655 3155.172 L 4450.655 3155.582 L 4450.455 3156.192 L 4450.045 3156.602 L 4449.635 3156.802 L 4449.025 3156.802 L 4448.615 3156.602 L 4448.205 3156.192 M 4452.005 3153.942 L 4452.005 3155.992 L 4452.215 3156.602 L 4452.625 3156.802 L 4453.235 3156.802 L 4453.645 3156.602 L 4454.255 3155.992 M 4454.255 3153.942 L 4454.255 3156.802 M 4456.225 3152.512 L 4456.225 3155.992 L 4456.425 3156.602 L 4456.835 3156.802 L 4457.245 3156.802 M 4455.605 3153.942 L 4457.045 3153.942 M 4459.205 3152.512 L 4459.205 3155.992 L 4459.415 3156.602 L 4459.825 3156.802 L 4460.235 3156.802 M 4458.595 3153.942 L 4460.025 3153.942 M 4462.605 3153.942 L 4462.195 3154.152 L 4461.785 3154.552 L 4461.585 3155.172 L 4461.585 3155.582 L 4461.785 3156.192 L 4462.195 3156.602 L 4462.605 3156.802 L 4463.215 3156.802 L 4463.625 3156.602 L 4464.035 3156.192 L 4464.245 3155.582 L 4464.245 3155.172 L 4464.035 3154.552 L 4463.625 3154.152 L 4463.215 3153.942 L 4462.605 3153.942 M 4465.595 3153.942 L 4465.595 3156.802 M 4465.595 3154.762 L 4466.205 3154.152 L 4466.615 3153.942 L 4467.225 3153.942 L 4467.635 3154.152 L 4467.845 3154.762 L 4467.845 3156.802 M 4471.645 3153.122 L 4471.445 3152.712 L 4470.825 3152.512 L 4470.415 3152.512 L 4469.805 3152.712 L 4469.395 3153.332 L 4469.195 3154.352 L 4469.195 3155.372 L 4469.395 3156.192 L 4469.805 3156.602 L 4470.415 3156.802 L 4470.625 3156.802 L 4471.235 3156.602 L 4471.645 3156.192 L 4471.855 3155.582 L 4471.855 3155.372 L 4471.645 3154.762 L 4471.235 3154.352 L 4470.625 3154.152 L 4470.415 3154.152 L 4469.805 3154.352 L 4469.395 3154.762 L 4469.195 3155.372 M 4474.225 3153.742 L 4474.225 3156.192 M 4473.205 3154.352 L 4475.245 3155.582 M 4475.245 3154.352 L 4473.205 3155.582 M 4479.055 3153.122 L 4478.845 3152.712 L 4478.235 3152.512 L 4477.825 3152.512 L 4477.205 3152.712 L 4476.805 3153.332 L 4476.595 3154.352 L 4476.595 3155.372 L 4476.805 3156.192 L 4477.205 3156.602 L 4477.825 3156.802 L 4478.025 3156.802 L 4478.645 3156.602 L 4479.055 3156.192 L 4479.255 3155.582 L 4479.255 3155.372 L 4479.055 3154.762 L 4478.645 3154.352 L 4478.025 3154.152 L 4477.825 3154.152 L 4477.205 3154.352 L 4476.805 3154.762 L 4476.595 3155.372 M 4481.625 3153.742 L 4481.625 3156.192 M 4480.605 3154.352 L 4482.655 3155.582 M 4482.655 3154.352 L 4480.605 3155.582 M 4485.025 3152.512 L 4484.405 3152.712 L 4484.205 3153.122 L 4484.205 3153.532 L 4484.405 3153.942 L 4484.815 3154.152 L 4485.635 3154.352 L 4486.255 3154.552 L 4486.655 3154.962 L 4486.865 3155.372 L 4486.865 3155.992 L 4486.655 3156.402 L 4486.455 3156.602 L 4485.845 3156.802 L 4485.025 3156.802 L 4484.405 3156.602 L 4484.205 3156.402 L 4484.005 3155.992 L 4484.005 3155.372 L 4484.205 3154.962 L 4484.615 3154.552 L 4485.225 3154.352 L 4486.045 3154.152 L 4486.455 3153.942 L 4486.655 3153.532 L 4486.655 3153.122 L 4486.455 3152.712 L 4485.845 3152.512 L 4485.025 3152.512 M 4488.415 3155.782 L 4488.215 3155.992 L 4488.415 3156.192 L 4488.625 3155.992 L 4488.415 3155.782 M 4492.425 3152.512 L 4490.385 3152.512 L 4490.175 3154.352 L 4490.385 3154.152 L 4490.995 3153.942 L 4491.605 3153.942 L 4492.225 3154.152 L 4492.635 3154.552 L 4492.835 3155.172 L 4492.835 3155.582 L 4492.635 3156.192 L 4492.225 3156.602 L 4491.605 3156.802 L 4490.995 3156.802 L 4490.385 3156.602 L 4490.175 3156.402 L 4489.975 3155.992" fill="none"  stroke-width="0.6" c_note="note_name" /></g><g c_partid="part_pcbtext" c_etype="" c_origin="4496.705,3164.665" c_rotation="0" c_mirror="0" id="gge400" locked="0" layerid="3" c_shapetype="group" ><path c_fontsize="4.5" c_fontfamily="" c_text="KEY2" d="M 4496.705 3158.512 L 4496.705 3162.802 M 4499.565 3158.512 L 4496.705 3161.372 M 4497.725 3160.352 L 4499.565 3162.802 M 4500.915 3158.512 L 4500.915 3162.802 M 4500.915 3158.512 L 4503.575 3158.512 M 4500.915 3160.552 L 4502.555 3160.552 M 4500.915 3162.802 L 4503.575 3162.802 M 4504.925 3158.512 L 4506.565 3160.552 L 4506.565 3162.802 M 4508.205 3158.512 L 4506.565 3160.552 M 4509.755 3159.532 L 4509.755 3159.332 L 4509.955 3158.922 L 4510.165 3158.712 L 4510.575 3158.512 L 4511.395 3158.512 L 4511.805 3158.712 L 4512.005 3158.922 L 4512.205 3159.332 L 4512.205 3159.742 L 4512.005 3160.152 L 4511.595 3160.762 L 4509.555 3162.802 L 4512.415 3162.802" fill="none"  stroke-width="0.6" c_note="note_pre" /></g><g c_partid="part_pcbtext" c_etype="" c_origin="4496.705,3159.165" c_rotation="0" c_mirror="0" id="gge402" locked="0" layerid="3" c_shapetype="group" display="none"><path c_fontsize="4.5" c_fontfamily="" c_text="button6*6*8.5" d="M 4496.705 3153.012 L 4496.705 3157.302 M 4496.705 3155.052 L 4497.115 3154.652 L 4497.525 3154.442 L 4498.135 3154.442 L 4498.545 3154.652 L 4498.955 3155.052 L 4499.155 3155.672 L 4499.155 3156.082 L 4498.955 3156.692 L 4498.545 3157.102 L 4498.135 3157.302 L 4497.525 3157.302 L 4497.115 3157.102 L 4496.705 3156.692 M 4500.505 3154.442 L 4500.505 3156.492 L 4500.715 3157.102 L 4501.125 3157.302 L 4501.735 3157.302 L 4502.145 3157.102 L 4502.755 3156.492 M 4502.755 3154.442 L 4502.755 3157.302 M 4504.725 3153.012 L 4504.725 3156.492 L 4504.925 3157.102 L 4505.335 3157.302 L 4505.745 3157.302 M 4504.105 3154.442 L 4505.545 3154.442 M 4507.705 3153.012 L 4507.705 3156.492 L 4507.915 3157.102 L 4508.325 3157.302 L 4508.735 3157.302 M 4507.095 3154.442 L 4508.525 3154.442 M 4511.105 3154.442 L 4510.695 3154.652 L 4510.285 3155.052 L 4510.085 3155.672 L 4510.085 3156.082 L 4510.285 3156.692 L 4510.695 3157.102 L 4511.105 3157.302 L 4511.715 3157.302 L 4512.125 3157.102 L 4512.535 3156.692 L 4512.745 3156.082 L 4512.745 3155.672 L 4512.535 3155.052 L 4512.125 3154.652 L 4511.715 3154.442 L 4511.105 3154.442 M 4514.095 3154.442 L 4514.095 3157.302 M 4514.095 3155.262 L 4514.705 3154.652 L 4515.115 3154.442 L 4515.725 3154.442 L 4516.135 3154.652 L 4516.345 3155.262 L 4516.345 3157.302 M 4520.145 3153.622 L 4519.945 3153.212 L 4519.325 3153.012 L 4518.915 3153.012 L 4518.305 3153.212 L 4517.895 3153.832 L 4517.695 3154.852 L 4517.695 3155.872 L 4517.895 3156.692 L 4518.305 3157.102 L 4518.915 3157.302 L 4519.125 3157.302 L 4519.735 3157.102 L 4520.145 3156.692 L 4520.355 3156.082 L 4520.355 3155.872 L 4520.145 3155.262 L 4519.735 3154.852 L 4519.125 3154.652 L 4518.915 3154.652 L 4518.305 3154.852 L 4517.895 3155.262 L 4517.695 3155.872 M 4522.725 3154.242 L 4522.725 3156.692 M 4521.705 3154.852 L 4523.745 3156.082 M 4523.745 3154.852 L 4521.705 3156.082 M 4527.555 3153.622 L 4527.345 3153.212 L 4526.735 3153.012 L 4526.325 3153.012 L 4525.705 3153.212 L 4525.305 3153.832 L 4525.095 3154.852 L 4525.095 3155.872 L 4525.305 3156.692 L 4525.705 3157.102 L 4526.325 3157.302 L 4526.525 3157.302 L 4527.145 3157.102 L 4527.555 3156.692 L 4527.755 3156.082 L 4527.755 3155.872 L 4527.555 3155.262 L 4527.145 3154.852 L 4526.525 3154.652 L 4526.325 3154.652 L 4525.705 3154.852 L 4525.305 3155.262 L 4525.095 3155.872 M 4530.125 3154.242 L 4530.125 3156.692 M 4529.105 3154.852 L 4531.155 3156.082 M 4531.155 3154.852 L 4529.105 3156.082 M 4533.525 3153.012 L 4532.905 3153.212 L 4532.705 3153.622 L 4532.705 3154.032 L 4532.905 3154.442 L 4533.315 3154.652 L 4534.135 3154.852 L 4534.755 3155.052 L 4535.155 3155.462 L 4535.365 3155.872 L 4535.365 3156.492 L 4535.155 3156.902 L 4534.955 3157.102 L 4534.345 3157.302 L 4533.525 3157.302 L 4532.905 3157.102 L 4532.705 3156.902 L 4532.505 3156.492 L 4532.505 3155.872 L 4532.705 3155.462 L 4533.115 3155.052 L 4533.725 3154.852 L 4534.545 3154.652 L 4534.955 3154.442 L 4535.155 3154.032 L 4535.155 3153.622 L 4534.955 3153.212 L 4534.345 3153.012 L 4533.525 3153.012 M 4536.915 3156.282 L 4536.715 3156.492 L 4536.915 3156.692 L 4537.125 3156.492 L 4536.915 3156.282 M 4540.925 3153.012 L 4538.885 3153.012 L 4538.675 3154.852 L 4538.885 3154.652 L 4539.495 3154.442 L 4540.105 3154.442 L 4540.725 3154.652 L 4541.135 3155.052 L 4541.335 3155.672 L 4541.335 3156.082 L 4541.135 3156.692 L 4540.725 3157.102 L 4540.105 3157.302 L 4539.495 3157.302 L 4538.885 3157.102 L 4538.675 3156.902 L 4538.475 3156.492" fill="none"  stroke-width="0.6" c_note="note_name" /></g><circle cx="4382.5" cy="3137" r="9.843" stroke-width="1.1811" fill="none" layerid="3" id="gge368" locked="0"  /><circle cx="4448.82" cy="3176.31" r="6.89" stroke-width="1" fill="none" layerid="3" id="gge389" locked="0"  /><circle cx="4448.82" cy="3176.31" r="2.95" stroke-width="1" fill="none" layerid="3" id="gge390" locked="0"  /><circle cx="4497.32" cy="3176.81" r="6.89" stroke-width="1" fill="none" layerid="3" id="gge408" locked="0"  /><circle cx="4497.32" cy="3176.81" r="2.95" stroke-width="1" fill="none" layerid="3" id="gge409" locked="0"  /><path d="M 4389.563 3130.5 A 8.99 8.99 0 0 1 4389.563 3143.5 Z " stroke-width="0"   net="" type="solid" layerid="3" id="gge369" locked="0" c_teardrop="" c_targetpad="" c_targetwire="" /><polyline points="4114 3050 4569 3050 4569 3223 4114 3223 4114 3114 4114 3050" stroke-width="1"  stroke-linecap="round" fill="none" layerid="10" net="" id="gge418" locked="0" /></svg>