<svg xmlns="http://www.w3.org/2000/svg" xmlns:xlink="http://www.w3.org/1999/xlink" width="135.509mm" height="62.23mm" viewBox="4075 3015.5 533.5 245"><title></title><style type="text/css">
*[layerid="1"] {stroke:#FF0000;fill:#FF0000;}
*[layerid="2"] {stroke:#0000FF;fill:#0000FF;}
*[layerid="3"] {stroke:#FFCC00;fill:#FFCC00;}
*[layerid="4"] {stroke:#66CC33;fill:#66CC33;}
*[layerid="5"] {stroke:#808080;fill:#808080;}
*[layerid="6"] {stroke:#800000;fill:#800000;}
*[layerid="7"] {stroke:#800080;fill:#800080;stroke-opacity:0.7;fill-opacity:0.7;}
*[layerid="8"] {stroke:#AA00FF;fill:#AA00FF;stroke-opacity:0.7;fill-opacity:0.7;}
*[layerid="9"] {stroke:#6464FF;fill:#6464FF;}
*[layerid="10"] {stroke:#FF00FF;fill:#FF00FF;}
*[layerid="11"] {stroke:#C0C0C0;fill:#C0C0C0;}
*[layerid="12"] {stroke:#FFFFFF;fill:#FFFFFF;}
*[layerid="13"] {stroke:#33CC99;fill:#33CC99;}
*[layerid="14"] {stroke:#5555FF;fill:#5555FF;}
*[layerid="15"] {stroke:#F022F0;fill:#F022F0;}
*[layerid="19"] {stroke:#66CCFF;fill:#66CCFF;}
*[layerid="21"] {stroke:#999966;fill:#999966;}
*[layerid="22"] {stroke:#008000;fill:#008000;}
*[layerid="23"] {stroke:#00FF00;fill:#00FF00;}
*[layerid="24"] {stroke:#BC8E00;fill:#BC8E00;}
*[layerid="25"] {stroke:#70DBFA;fill:#70DBFA;}
*[layerid="26"] {stroke:#00CC66;fill:#00CC66;}
*[layerid="27"] {stroke:#9966FF;fill:#9966FF;}
*[layerid="28"] {stroke:#800080;fill:#800080;}
*[layerid="29"] {stroke:#008080;fill:#008080;}
*[layerid="30"] {stroke:#15935F;fill:#15935F;}
*[layerid="31"] {stroke:#000080;fill:#000080;}
*[layerid="32"] {stroke:#00B400;fill:#00B400;}
*[layerid="33"] {stroke:#2E4756;fill:#2E4756;}
*[layerid="34"] {stroke:#99842F;fill:#99842F;}
*[layerid="35"] {stroke:#FFFFAA;fill:#FFFFAA;}
*[layerid="36"] {stroke:#99842F;fill:#99842F;}
*[layerid="37"] {stroke:#2E4756;fill:#2E4756;}
*[layerid="38"] {stroke:#3535FF;fill:#3535FF;}
*[layerid="39"] {stroke:#8000BC;fill:#8000BC;}
*[layerid="40"] {stroke:#43AE5F;fill:#43AE5F;}
*[layerid="41"] {stroke:#C3ECCE;fill:#C3ECCE;}
*[layerid="42"] {stroke:#728978;fill:#728978;}
*[layerid="43"] {stroke:#39503F;fill:#39503F;}
*[layerid="44"] {stroke:#0C715D;fill:#0C715D;}
*[layerid="45"] {stroke:#5A8A80;fill:#5A8A80;}
*[layerid="46"] {stroke:#2B937E;fill:#2B937E;}
*[layerid="47"] {stroke:#23999D;fill:#23999D;}
*[layerid="48"] {stroke:#45B4E3;fill:#45B4E3;}
*[layerid="49"] {stroke:#215DA1;fill:#215DA1;}
*[layerid="50"] {stroke:#4564D7;fill:#4564D7;}
*[layerid="51"] {stroke:#6969E9;fill:#6969E9;}
*[layerid="52"] {stroke:#9069E9;fill:#9069E9;}
*[layerid="99"] {stroke:#00CCCC;fill:#00CCCC;}
*[layerid="100"] {stroke:#CC9999;fill:#CC9999;}
*[layerid="Hole"] {stroke:#222222;fill:#222222;}
*[layerid="DRCError"] {stroke:#FAD609;fill:#FAD609;}
*[fill="none"] {fill: none;}
*[stroke="none"] {stroke: none;}
path, polyline, polygon, line {stroke-linecap:round;}
g[c_partid="part_pad"][layerid="1"] ellipse:not([c_etype="pad_outer"]) {fill:#FF0000;}
g[c_partid="part_pad"][layerid="1"] polygon:not([c_etype="pad_outer"]) {fill:#FF0000;}
g[c_partid="part_pad"][layerid="1"] polyline:not([c_etype="pad_outer"]) {stroke:#FF0000;}
g[c_partid="part_pad"][layerid="2"] ellipse:not([c_etype="pad_outer"]) {fill:#0000FF;}
g[c_partid="part_pad"][layerid="2"] polygon:not([c_etype="pad_outer"]) {fill:#0000FF;}
g[c_partid="part_pad"][layerid="2"] polyline:not([c_etype="pad_outer"]) {stroke:#0000FF;}
g[c_partid="part_pad"][layerid="11"] ellipse:not([c_etype="pad_outer"]) {fill:#C0C0C0;}
g[c_partid="part_pad"][layerid="11"] polygon:not([c_etype="pad_outer"]) {fill:#C0C0C0;}
g[c_partid="part_pad"][layerid="11"] polyline:not([c_etype="pad_outer"]) {stroke:#C0C0C0;}
g[c_partid="part_pad"][layerid="11"] circle {fill:#222222;}
g[c_partid="part_pad"][layerid="11"] > polyline:nth-of-type(2) {stroke:#222222;}
g[c_partid="part_pad"][layerid="11"][c_shape="ELLIPSE"]  polyline:nth-last-of-type(1) {stroke:#222222;}
g[c_partid="part_pad"][layerid="11"][c_shape="RECT"]  polyline:nth-last-of-type(1) {stroke:#222222;}
g[c_partid="part_pad"][layerid="11"][c_shape="POLYGON"]  polyline:nth-last-of-type(1) {stroke:#222222;}
g[c_partid="part_via"] > * + circle, #gCurParts g[c_partid="part_via"] > * + circle {fill:#222222;}
g[c_partid="part_pad"] > polygon[c_etype="pad_outer"], #gCurParts g[c_partid="part_pad"] > polygon[c_etype="pad_outer"] {stroke-linejoin: miter;stroke-miterlimit: 100;}
g[c_partid="part_hole"] > circle {fill: #222222;}path, polyline, polygon {stroke-linejoin:round;}
rect, circle, ellipse, polyline, line, polygon, path {shape-rendering:crispEdges;}
</style>
<rect x="4075" y="3015.5" width="533.5" height="245" fill="#000000" stroke="none"/><path d="M 4379.74443 3098.11665 A 0.4 0.4 0 0 1 4379.34443 3098.51665 L 4376.13004 3098.51665 A 0.4 0.4 0 0 1 4375.9902 3098.49141 L 4375.9902 3098.49141 A 8.5533 8.5533 0 0 0 4373.0 3097.9517 8.5533 8.5533 0 0 0 4371.93328 3098.01848 0.4 0.4 0 0 1 4371.8834 3098.0216 0.4 0.4 0 0 1 4371.4834 3097.6216 0.4 0.4 0 0 1 4371.48652 3097.57172 L 4371.48652 3097.57172 A 8.5533 8.5533 0 0 0 4371.5533 3096.505 8.5533 8.5533 0 0 0 4371.18616 3094.02593 L 4371.18616 3094.02593 A 0.4 0.4 0 0 1 4371.16899 3093.91 0.4 0.4 0 0 1 4371.56899 3093.51 L 4374.61165 3093.51 A 0.4 0.4 0 0 1 4375.01165 3093.91 L 4375.01165 3094.47335 4376.10113 3094.47335 A 0.4 0.4 0 0 1 4376.38398 3094.59051 L 4379.62728 3097.83381 A 0.4 0.4 0 0 1 4379.74443 3098.11665 Z " stroke-width="0" layerid="2" attachedcopperid="gge41" c_shapetype="line" id="gge41_0" class=""></path><path d="M 4379.10526 3154.99 A 0.4 0.4 0 0 1 4378.70526 3154.59 0.4 0.4 0 0 1 4378.74354 3154.41925 L 4378.74354 3154.41925 A 8.01 8.01 0 0 0 4379.3165 3152.75 L 4373.25 3152.75 4373.25 3153.19906 A 0.4 0.4 0 0 1 4372.85 3153.59906 0.4 0.4 0 0 1 4372.78579 3153.59387 8.01 8.01 0 0 0 4371.5 3153.49 8.01 8.01 0 0 0 4370.21421 3153.59387 L 4370.21421 3153.59387 A 0.4 0.4 0 0 1 4370.15 3153.59906 0.4 0.4 0 0 1 4369.75 3153.19906 L 4369.75 3152.71661 A 0.4 0.4 0 0 1 4369.51 3152.35 L 4369.51 3149.65 A 0.4 0.4 0 0 1 4369.75 3149.28339 L 4369.75 3143.10828 A 0.4 0.4 0 0 1 4369.51 3142.74167 L 4369.51 3138.11922 A 0.4 0.4 0 0 1 4369.91 3137.71922 0.4 0.4 0 0 1 4370.19284 3137.83637 L 4371.15281 3138.79634 A 0.4 0.4 0 0 1 4371.25611 3138.97482 L 4371.25611 3138.97482 A 7.56905 7.56905 0 0 0 4373.30191 3142.44164 L 4373.30191 3142.44164 A 0.4 0.4 0 0 1 4373.42388 3142.72921 0.4 0.4 0 0 1 4373.25 3143.05917 L 4373.25 3149.25 4379.3165 3149.25 A 8.01 8.01 0 0 0 4376.97326 3145.15162 0.4 0.4 0 0 1 4376.84658 3144.85957 0.4 0.4 0 0 1 4377.24658 3144.45957 0.4 0.4 0 0 1 4377.31266 3144.46506 L 4377.31266 3144.46506 A 7.56905 7.56905 0 0 0 4378.563 3144.56905 7.56905 7.56905 0 0 0 4382.30239 3143.58084 L 4382.30239 3143.58084 A 0.4 0.4 0 0 1 4382.5 3143.52862 0.4 0.4 0 0 1 4382.69761 3143.58084 7.56905 7.56905 0 0 0 4384.90747 3144.4129 L 4384.90747 3141.24474 A 0.4 0.4 0 0 1 4384.96894 3141.03168 L 4384.96894 3141.03168 A 7.56905 7.56905 0 0 0 4386.13205 3137.0 7.56905 7.56905 0 0 0 4384.96894 3132.96832 L 4384.96894 3132.96832 A 0.4 0.4 0 0 1 4384.90747 3132.75526 L 4384.90747 3129.5871 A 7.56905 7.56905 0 0 0 4382.69761 3130.41916 0.4 0.4 0 0 1 4382.5 3130.47138 0.4 0.4 0 0 1 4382.30239 3130.41916 7.56905 7.56905 0 0 0 4380.53782 3129.69311 L 4380.53782 3129.69311 A 0.4 0.4 0 0 1 4380.35934 3129.58981 L 4379.63382 3128.86429 A 0.4 0.4 0 0 1 4379.51666 3128.58144 0.4 0.4 0 0 1 4379.61626 3128.31732 8.81 8.81 0 0 0 4381.81 3122.5 8.81 8.81 0 0 0 4379.60989 3116.67545 L 4379.60989 3116.67545 A 0.4 0.4 0 0 1 4379.51 3116.41099 L 4379.51 3112.19828 A 0.4 0.4 0 0 1 4379.60129 3111.94393 L 4379.60129 3111.94393 A 8.5533 8.5533 0 0 0 4381.5533 3106.505 8.5533 8.5533 0 0 0 4380.08727 3101.71652 0.4 0.4 0 0 1 4380.01871 3101.49258 0.4 0.4 0 0 1 4380.08682 3101.26931 8.5533 8.5533 0 0 0 4380.86038 3099.84404 0.4 0.4 0 0 1 4381.22844 3099.60066 0.4 0.4 0 0 1 4381.51129 3099.71782 L 4399.89673 3118.10327 A 6.51 6.51 0 0 0 4404.5 3120.01 L 4404.5 3120.01 4499.63778 3120.01 A 0.4 0.4 0 0 1 4499.92063 3120.12716 L 4511.73594 3131.94247 A 0.4 0.4 0 0 1 4511.85309 3132.22531 0.4 0.4 0 0 1 4511.52254 3132.61924 L 4511.52254 3132.61924 A 8.51 8.51 0 0 0 4508.22447 3133.95625 L 4508.22447 3133.95625 A 0.4 0.4 0 0 1 4508.0 3134.02517 0.4 0.4 0 0 1 4507.77553 3133.95625 8.51 8.51 0 0 0 4503.0 3132.49 8.51 8.51 0 0 0 4498.22447 3133.95625 L 4498.22447 3133.95625 A 0.4 0.4 0 0 1 4498.0 3134.02517 0.4 0.4 0 0 1 4497.77553 3133.95625 8.51 8.51 0 0 0 4493.0 3132.49 8.51 8.51 0 0 0 4488.22447 3133.95625 L 4488.22447 3133.95625 A 0.4 0.4 0 0 1 4488.0 3134.02517 0.4 0.4 0 0 1 4487.77553 3133.95625 8.51 8.51 0 0 0 4483.0 3132.49 8.51 8.51 0 0 0 4478.22447 3133.95625 L 4478.22447 3133.95625 A 0.4 0.4 0 0 1 4478.0 3134.02517 0.4 0.4 0 0 1 4477.77553 3133.95625 8.51 8.51 0 0 0 4473.0 3132.49 8.51 8.51 0 0 0 4468.22447 3133.95625 L 4468.22447 3133.95625 A 0.4 0.4 0 0 1 4468.0 3134.02517 0.4 0.4 0 0 1 4467.77553 3133.95625 8.51 8.51 0 0 0 4463.0 3132.49 8.51 8.51 0 0 0 4458.22447 3133.95625 L 4458.22447 3133.95625 A 0.4 0.4 0 0 1 4458.0 3134.02517 0.4 0.4 0 0 1 4457.77553 3133.95625 8.51 8.51 0 0 0 4453.0 3132.49 8.51 8.51 0 0 0 4448.22447 3133.95625 L 4448.22447 3133.95625 A 0.4 0.4 0 0 1 4448.0 3134.02517 0.4 0.4 0 0 1 4447.77553 3133.95625 8.51 8.51 0 0 0 4445.0 3132.72836 L 4445.0 3138.02879 A 0.4 0.4 0 0 1 4444.9771 3138.16218 L 4444.9771 3138.16218 A 8.51 8.51 0 0 0 4444.49 3141.0 8.51 8.51 0 0 0 4444.51039 3141.58876 L 4444.51039 3141.58876 A 0.4 0.4 0 0 1 4444.51135 3141.61643 0.4 0.4 0 0 1 4444.39419 3141.89928 L 4441.68284 3144.61063 A 0.4 0.4 0 0 1 4441.4 3144.72778 0.4 0.4 0 0 1 4441.0 3144.32778 L 4441.0 3143.97121 A 0.4 0.4 0 0 1 4441.0229 3143.83782 L 4441.0229 3143.83782 A 8.51 8.51 0 0 0 4441.51 3141.0 8.51 8.51 0 0 0 4441.0229 3138.16218 0.4 0.4 0 0 1 4441.0 3138.02879 L 4441.0 3132.72836 A 8.51 8.51 0 0 0 4438.22447 3133.95625 L 4438.22447 3133.95625 A 0.4 0.4 0 0 1 4438.0 3134.02517 0.4 0.4 0 0 1 4437.77553 3133.95625 8.51 8.51 0 0 0 4433.0 3132.49 8.51 8.51 0 0 0 4428.22447 3133.95625 L 4428.22447 3133.95625 A 0.4 0.4 0 0 1 4428.0 3134.02517 0.4 0.4 0 0 1 4427.77553 3133.95625 8.51 8.51 0 0 0 4423.0 3132.49 8.51 8.51 0 0 0 4419.48732 3133.24879 L 4419.48732 3133.24879 A 0.4 0.4 0 0 1 4419.32221 3133.28446 0.4 0.4 0 0 1 4419.11355 3133.22572 L 4419.11355 3133.22572 A 5.01 5.01 0 0 0 4416.5 3132.49 L 4416.5 3132.49 4409.5 3132.49 4409.5 3132.49 A 5.01 5.01 0 0 0 4404.49 3137.5 L 4404.49 3144.5 A 5.01 5.01 0 0 0 4409.5 3149.51 L 4409.5 3149.51 4416.5 3149.51 4416.5 3149.51 A 5.01 5.01 0 0 0 4419.11355 3148.77428 0.4 0.4 0 0 1 4419.32221 3148.71554 0.4 0.4 0 0 1 4419.48732 3148.75121 L 4419.48732 3148.75121 A 8.51 8.51 0 0 0 4423.0 3149.51 8.51 8.51 0 0 0 4427.77553 3148.04375 L 4427.77553 3148.04375 A 0.4 0.4 0 0 1 4428.0 3147.97483 0.4 0.4 0 0 1 4428.22447 3148.04375 8.51 8.51 0 0 0 4433.0 3149.51 8.51 8.51 0 0 0 4436.39999 3148.80129 L 4436.39999 3148.80129 A 0.4 0.4 0 0 1 4436.5598 3148.76798 0.4 0.4 0 0 1 4436.9598 3149.16798 0.4 0.4 0 0 1 4436.84265 3149.45082 L 4435.66319 3150.63028 A 0.4 0.4 0 0 1 4435.44562 3150.74208 L 4430.95651 3151.48464 A 0.4 0.4 0 0 1 4430.89123 3151.49 L 4422.0 3151.49 4422.0 3151.49 A 6.51 6.51 0 0 0 4417.39673 3153.39673 L 4417.09111 3153.70235 A 0.4 0.4 0 0 1 4416.87355 3153.81415 L 4409.79742 3154.98464 A 0.4 0.4 0 0 1 4409.73214 3154.99 L 4379.10526 3154.99 Z M 4387.96652 3144.4129 A 7.56905 7.56905 0 0 0 4393.8499 3138.52952 L 4387.96652 3138.52952 4387.96652 3144.4129 Z M 4387.96652 3129.5871 L 4387.96652 3135.47048 4393.8499 3135.47048 A 7.56905 7.56905 0 0 0 4387.96652 3129.5871 Z " stroke-width="0" layerid="2" attachedcopperid="gge41" c_shapetype="line" id="gge41_1" class=""></path><path d="M 4316.36222 3165.99 A 0.4 0.4 0 0 1 4316.07937 3165.87284 L 4299.12716 3148.92063 A 0.4 0.4 0 0 1 4299.01 3148.63778 L 4299.01 3135.46859 A 0.4 0.4 0 0 1 4299.41 3135.06859 0.4 0.4 0 0 1 4299.47884 3135.07456 5.01 5.01 0 0 0 4300.341 3135.1493 L 4300.341 3135.1493 4301.4835 3135.1493 4301.4835 3128.9965 4299.41 3128.9965 A 0.4 0.4 0 0 1 4299.01 3128.5965 L 4299.01 3127.22544 A 0.4 0.4 0 0 1 4299.04234 3127.06787 L 4299.51974 3125.95393 A 0.4 0.4 0 0 1 4299.8874 3125.7115 L 4301.4835 3125.7115 4301.4835 3125.61859 A 0.4 0.4 0 0 1 4301.8835 3125.21859 0.4 0.4 0 0 1 4301.938 3125.22232 L 4301.938 3125.22232 A 7.795 7.795 0 0 0 4303.0 3125.295 7.795 7.795 0 0 0 4304.3017 3125.18554 L 4304.3017 3125.18554 A 0.4 0.4 0 0 1 4304.3685 3125.17993 0.4 0.4 0 0 1 4304.7685 3125.57993 L 4304.7685 3125.7115 4310.921 3125.7115 4310.921 3124.5693 A 5.01 5.01 0 0 0 4309.92415 3121.57017 L 4309.92415 3121.57017 A 0.4 0.4 0 0 1 4309.84456 3121.33072 0.4 0.4 0 0 1 4309.89095 3121.14374 L 4309.89095 3121.14374 A 7.795 7.795 0 0 0 4310.795 3117.5 7.795 7.795 0 0 0 4309.176 3112.74405 L 4309.176 3112.74405 A 0.4 0.4 0 0 1 4309.09292 3112.5 0.4 0.4 0 0 1 4309.176 3112.25595 7.795 7.795 0 0 0 4310.795 3107.5 7.795 7.795 0 0 0 4310.00724 3104.08523 L 4310.00724 3104.08523 A 0.4 0.4 0 0 1 4309.96681 3103.91 0.4 0.4 0 0 1 4310.36681 3103.51 L 4316.5 3103.51 4316.5 3103.51 A 6.51 6.51 0 0 0 4321.10327 3101.60327 L 4341.51411 3081.19242 A 0.4 0.4 0 0 1 4341.5802 3081.13908 L 4347.82411 3077.1134 A 0.4 0.4 0 0 1 4348.04086 3077.04959 0.4 0.4 0 0 1 4348.19345 3077.07984 L 4350.13112 3077.87951 A 0.4 0.4 0 0 1 4350.37852 3078.24926 0.4 0.4 0 0 1 4350.26137 3078.5321 L 4348.39673 3080.39673 A 6.51 6.51 0 0 0 4346.49 3085.0 L 4346.49 3088.10182 A 0.4 0.4 0 0 1 4346.09 3088.50182 0.4 0.4 0 0 1 4345.95195 3088.47724 8.5533 8.5533 0 0 0 4343.0 3087.9517 8.5533 8.5533 0 0 0 4337.56687 3089.89894 L 4337.56687 3089.89894 A 0.4 0.4 0 0 1 4337.31279 3089.99 L 4337.0 3089.99 4337.0 3089.99 A 6.51 6.51 0 0 0 4332.39673 3091.89673 L 4328.89673 3095.39673 A 6.51 6.51 0 0 0 4326.99 3100.0 L 4326.99 3143.95301 A 0.4 0.4 0 0 1 4326.59 3144.35301 0.4 0.4 0 0 1 4326.37169 3144.28819 L 4326.37169 3144.28819 A 8.01 8.01 0 0 0 4323.75 3143.1835 L 4323.75 3149.25 4326.59 3149.25 A 0.4 0.4 0 0 1 4326.99 3149.65 L 4326.99 3152.35 A 0.4 0.4 0 0 1 4326.59 3152.75 L 4323.75 3152.75 4323.75 3158.8165 A 8.01 8.01 0 0 0 4326.37169 3157.71181 L 4326.37169 3157.71181 A 0.4 0.4 0 0 1 4326.59 3157.64699 0.4 0.4 0 0 1 4326.99 3158.04699 L 4326.99 3165.45301 A 0.4 0.4 0 0 1 4326.59 3165.85301 0.4 0.4 0 0 1 4326.37169 3165.78819 L 4326.37169 3165.78819 A 8.01 8.01 0 0 0 4322.0 3164.49 8.01 8.01 0 0 0 4317.43426 3165.91866 L 4317.43426 3165.91866 A 0.4 0.4 0 0 1 4317.20625 3165.99 L 4316.36222 3165.99 Z M 4305.911 3135.1493 A 5.01 5.01 0 0 0 4310.921 3130.1393 L 4310.921 3128.9965 4304.7685 3128.9965 4304.7685 3135.1493 4305.911 3135.1493 Z M 4320.25 3143.1835 A 8.01 8.01 0 0 0 4314.1835 3149.25 L 4320.25 3149.25 4320.25 3143.1835 Z M 4320.25 3158.8165 L 4320.25 3152.75 4314.1835 3152.75 A 8.01 8.01 0 0 0 4320.25 3158.8165 Z " stroke-width="0" layerid="2" attachedcopperid="gge41" c_shapetype="line" id="gge41_2" class=""></path><path d="M 4452.28998 3187.59 A 0.4 0.4 0 0 1 4451.88998 3187.99 L 4446.11002 3187.99 A 0.4 0.4 0 0 1 4445.71002 3187.59 0.4 0.4 0 0 1 4445.71039 3187.57285 L 4445.71039 3187.57285 A 5.01 5.01 0 0 0 4445.715 3187.358 L 4445.715 3186.608 4438.705 3186.608 4438.705 3187.59 A 0.4 0.4 0 0 1 4438.305 3187.99 L 4434.105 3187.99 A 0.4 0.4 0 0 1 4433.705 3187.59 L 4433.705 3186.608 4430.89446 3186.608 A 0.4 0.4 0 0 1 4430.49446 3186.208 0.4 0.4 0 0 1 4430.66902 3185.87758 L 4430.66902 3185.87758 A 6.51 6.51 0 0 0 4431.60327 3185.10327 L 4432.48137 3184.22516 A 0.4 0.4 0 0 1 4432.76422 3184.108 L 4433.705 3184.108 4433.705 3183.91 A 0.4 0.4 0 0 1 4434.105 3183.51 L 4438.305 3183.51 A 0.4 0.4 0 0 1 4438.705 3183.91 L 4438.705 3184.108 4445.715 3184.108 4445.715 3183.91 A 0.4 0.4 0 0 1 4446.115 3183.51 L 4451.885 3183.51 A 0.4 0.4 0 0 1 4452.285 3183.91 L 4452.285 3184.108 4459.295 3184.108 4459.295 3183.91 A 0.4 0.4 0 0 1 4459.695 3183.51 L 4463.895 3183.51 A 0.4 0.4 0 0 1 4464.295 3183.91 L 4464.295 3184.108 4471.305 3184.108 4471.305 3183.91 A 0.4 0.4 0 0 1 4471.705 3183.51 L 4474.795 3183.51 A 0.4 0.4 0 0 1 4475.195 3183.91 L 4475.195 3184.608 4482.205 3184.608 4482.205 3180.66722 A 0.4 0.4 0 0 1 4482.32216 3180.38437 L 4484.54137 3178.16516 4487.43737 3175.26916 A 0.4 0.4 0 0 1 4487.72022 3175.152 L 4489.205 3175.152 4489.205 3175.152 A 5.01 5.01 0 0 0 4491.30861 3174.68897 0.4 0.4 0 0 1 4491.47656 3174.652 L 4503.52344 3174.652 A 0.4 0.4 0 0 1 4503.69139 3174.68897 5.01 5.01 0 0 0 4505.795 3175.152 L 4505.795 3175.152 4514.795 3175.152 4514.795 3175.152 A 5.01 5.01 0 0 0 4519.805 3170.142 L 4519.805 3166.142 A 5.01 5.01 0 0 0 4514.795 3161.132 L 4514.795 3161.132 4505.795 3161.132 4505.795 3161.132 A 5.01 5.01 0 0 0 4503.69139 3161.59503 0.4 0.4 0 0 1 4503.52344 3161.632 L 4491.62 3161.632 A 0.4 0.4 0 0 1 4491.22 3161.232 L 4491.22 3159.71 A 6.51 6.51 0 0 0 4489.31327 3155.10673 L 4484.26406 3150.05753 A 0.4 0.4 0 0 1 4484.14691 3149.77469 0.4 0.4 0 0 1 4484.47746 3149.38076 L 4484.47746 3149.38076 A 8.51 8.51 0 0 0 4487.77553 3148.04375 L 4487.77553 3148.04375 A 0.4 0.4 0 0 1 4488.0 3147.97483 0.4 0.4 0 0 1 4488.22447 3148.04375 8.51 8.51 0 0 0 4493.0 3149.51 8.51 8.51 0 0 0 4497.77553 3148.04375 L 4497.77553 3148.04375 A 0.4 0.4 0 0 1 4498.0 3147.97483 0.4 0.4 0 0 1 4498.22447 3148.04375 8.51 8.51 0 0 0 4503.0 3149.51 8.51 8.51 0 0 0 4507.77553 3148.04375 L 4507.77553 3148.04375 A 0.4 0.4 0 0 1 4508.0 3147.97483 0.4 0.4 0 0 1 4508.22447 3148.04375 8.51 8.51 0 0 0 4513.0 3149.51 8.51 8.51 0 0 0 4517.77553 3148.04375 L 4517.77553 3148.04375 A 0.4 0.4 0 0 1 4518.0 3147.97483 0.4 0.4 0 0 1 4518.22447 3148.04375 8.51 8.51 0 0 0 4523.0 3149.51 8.51 8.51 0 0 0 4525.95128 3148.98186 L 4525.95128 3148.98186 A 0.4 0.4 0 0 1 4526.09 3148.95703 0.4 0.4 0 0 1 4526.49 3149.35703 L 4526.49 3182.63778 A 0.4 0.4 0 0 1 4526.37284 3182.92063 L 4521.42063 3187.87284 A 0.4 0.4 0 0 1 4521.13778 3187.99 L 4520.205 3187.99 A 0.4 0.4 0 0 1 4519.805 3187.59 L 4519.805 3187.108 4512.795 3187.108 4512.795 3187.59 A 0.4 0.4 0 0 1 4512.395 3187.99 L 4508.195 3187.99 A 0.4 0.4 0 0 1 4507.795 3187.59 L 4507.795 3187.108 4500.785 3187.108 4500.785 3187.59 A 0.4 0.4 0 0 1 4500.385 3187.99 L 4494.615 3187.99 A 0.4 0.4 0 0 1 4494.215 3187.59 L 4494.215 3187.108 4487.205 3187.108 4487.205 3187.59 A 0.4 0.4 0 0 1 4486.805 3187.99 L 4482.605 3187.99 A 0.4 0.4 0 0 1 4482.205 3187.59 L 4482.205 3187.108 4475.195 3187.108 4475.195 3187.59 A 0.4 0.4 0 0 1 4474.795 3187.99 L 4471.70002 3187.99 A 0.4 0.4 0 0 1 4471.30002 3187.59 0.4 0.4 0 0 1 4471.30039 3187.57285 L 4471.30039 3187.57285 A 5.01 5.01 0 0 0 4471.305 3187.358 L 4471.305 3186.608 4464.295 3186.608 4464.295 3187.59 A 0.4 0.4 0 0 1 4463.895 3187.99 L 4459.695 3187.99 A 0.4 0.4 0 0 1 4459.295 3187.59 L 4459.295 3186.608 4452.285 3186.608 4452.285 3187.358 A 5.01 5.01 0 0 0 4452.28961 3187.57285 0.4 0.4 0 0 1 4452.28998 3187.59 Z M 4494.215 3184.608 L 4494.215 3183.858 A 5.01 5.01 0 0 0 4489.205 3178.848 L 4489.205 3178.848 4487.205 3178.848 4487.205 3184.608 4494.215 3184.608 Z M 4519.805 3184.608 L 4519.805 3183.858 A 5.01 5.01 0 0 0 4514.795 3178.848 L 4514.795 3178.848 4512.795 3178.848 4512.795 3184.608 4519.805 3184.608 Z M 4507.795 3184.608 L 4507.795 3178.848 4505.795 3178.848 4505.795 3178.848 A 5.01 5.01 0 0 0 4500.785 3183.858 L 4500.785 3184.608 4507.795 3184.608 Z " stroke-width="0" layerid="2" attachedcopperid="gge494" c_shapetype="line" id="gge494_0" class=""></path><path d="M 4114.41 3222.99 A 0.4 0.4 0 0 1 4114.01 3222.59 L 4114.01 3114.0 4114.01 3050.41 A 0.4 0.4 0 0 1 4114.41 3050.01 L 4568.59 3050.01 A 0.4 0.4 0 0 1 4568.99 3050.41 L 4568.99 3222.59 A 0.4 0.4 0 0 1 4568.59 3222.99 L 4114.41 3222.99 Z M 4543.5 3219.51 A 6.51 6.51 0 0 0 4548.10327 3217.60327 L 4557.60327 3208.10327 A 6.51 6.51 0 0 0 4559.51 3203.5 L 4559.51 3146.62494 A 0.4 0.4 0 0 1 4559.59979 3146.37242 8.51 8.51 0 0 0 4561.51 3141.0 8.51 8.51 0 0 0 4553.0 3132.49 8.51 8.51 0 0 0 4548.22447 3133.95625 L 4548.22447 3133.95625 A 0.4 0.4 0 0 1 4548.0 3134.02517 0.4 0.4 0 0 1 4547.77553 3133.95625 8.51 8.51 0 0 0 4543.0 3132.49 8.51 8.51 0 0 0 4538.22447 3133.95625 L 4538.22447 3133.95625 A 0.4 0.4 0 0 1 4538.0 3134.02517 0.4 0.4 0 0 1 4537.77553 3133.95625 8.51 8.51 0 0 0 4533.0 3132.49 8.51 8.51 0 0 0 4529.9291 3133.0634 0.4 0.4 0 0 1 4529.78476 3133.09035 0.4 0.4 0 0 1 4529.39201 3132.76616 L 4529.39201 3132.76616 A 6.51 6.51 0 0 0 4527.60327 3129.39673 L 4509.39937 3111.19284 A 0.4 0.4 0 0 1 4509.28222 3110.91 0.4 0.4 0 0 1 4509.68222 3110.51 L 4539.5 3110.51 4539.5 3110.51 A 6.51 6.51 0 0 0 4544.10327 3108.60327 L 4557.60327 3095.10327 A 6.51 6.51 0 0 0 4559.51 3090.5 L 4559.51 3086.62494 A 0.4 0.4 0 0 1 4559.59979 3086.37242 8.51 8.51 0 0 0 4561.51 3081.0 8.51 8.51 0 0 0 4553.0 3072.49 8.51 8.51 0 0 0 4548.22447 3073.95625 L 4548.22447 3073.95625 A 0.4 0.4 0 0 1 4548.0 3074.02517 0.4 0.4 0 0 1 4547.77553 3073.95625 8.51 8.51 0 0 0 4543.0 3072.49 8.51 8.51 0 0 0 4538.22447 3073.95625 L 4538.22447 3073.95625 A 0.4 0.4 0 0 1 4538.0 3074.02517 0.4 0.4 0 0 1 4537.77553 3073.95625 8.51 8.51 0 0 0 4533.0 3072.49 8.51 8.51 0 0 0 4528.22447 3073.95625 L 4528.22447 3073.95625 A 0.4 0.4 0 0 1 4528.0 3074.02517 0.4 0.4 0 0 1 4527.77553 3073.95625 8.51 8.51 0 0 0 4523.0 3072.49 8.51 8.51 0 0 0 4518.22447 3073.95625 L 4518.22447 3073.95625 A 0.4 0.4 0 0 1 4518.0 3074.02517 0.4 0.4 0 0 1 4517.77553 3073.95625 8.51 8.51 0 0 0 4513.0 3072.49 8.51 8.51 0 0 0 4508.22447 3073.95625 L 4508.22447 3073.95625 A 0.4 0.4 0 0 1 4508.0 3074.02517 0.4 0.4 0 0 1 4507.77553 3073.95625 8.51 8.51 0 0 0 4503.0 3072.49 8.51 8.51 0 0 0 4498.22447 3073.95625 L 4498.22447 3073.95625 A 0.4 0.4 0 0 1 4498.0 3074.02517 0.4 0.4 0 0 1 4497.77553 3073.95625 8.51 8.51 0 0 0 4493.0 3072.49 8.51 8.51 0 0 0 4488.22447 3073.95625 L 4488.22447 3073.95625 A 0.4 0.4 0 0 1 4488.0 3074.02517 0.4 0.4 0 0 1 4487.77553 3073.95625 8.51 8.51 0 0 0 4483.0 3072.49 8.51 8.51 0 0 0 4478.22447 3073.95625 L 4478.22447 3073.95625 A 0.4 0.4 0 0 1 4478.0 3074.02517 0.4 0.4 0 0 1 4477.77553 3073.95625 8.51 8.51 0 0 0 4473.0 3072.49 8.51 8.51 0 0 0 4468.22447 3073.95625 L 4468.22447 3073.95625 A 0.4 0.4 0 0 1 4468.0 3074.02517 0.4 0.4 0 0 1 4467.77553 3073.95625 8.51 8.51 0 0 0 4463.0 3072.49 8.51 8.51 0 0 0 4458.22447 3073.95625 L 4458.22447 3073.95625 A 0.4 0.4 0 0 1 4458.0 3074.02517 0.4 0.4 0 0 1 4457.77553 3073.95625 8.51 8.51 0 0 0 4453.0 3072.49 8.51 8.51 0 0 0 4448.22447 3073.95625 L 4448.22447 3073.95625 A 0.4 0.4 0 0 1 4448.0 3074.02517 0.4 0.4 0 0 1 4447.77553 3073.95625 8.51 8.51 0 0 0 4445.0 3072.72836 L 4445.0 3078.02879 A 0.4 0.4 0 0 1 4444.9771 3078.16218 L 4444.9771 3078.16218 A 8.51 8.51 0 0 0 4444.49 3081.0 8.51 8.51 0 0 0 4444.9771 3083.83782 0.4 0.4 0 0 1 4445.0 3083.97121 L 4445.0 3086.59 A 0.4 0.4 0 0 1 4444.6 3086.99 L 4441.4 3086.99 A 0.4 0.4 0 0 1 4441.0 3086.59 L 4441.0 3083.97121 A 0.4 0.4 0 0 1 4441.0229 3083.83782 L 4441.0229 3083.83782 A 8.51 8.51 0 0 0 4441.51 3081.0 8.51 8.51 0 0 0 4441.0229 3078.16218 0.4 0.4 0 0 1 4441.0 3078.02879 L 4441.0 3072.72836 A 8.51 8.51 0 0 0 4438.22447 3073.95625 L 4438.22447 3073.95625 A 0.4 0.4 0 0 1 4438.0 3074.02517 0.4 0.4 0 0 1 4437.77553 3073.95625 8.51 8.51 0 0 0 4433.0 3072.49 8.51 8.51 0 0 0 4428.22447 3073.95625 L 4428.22447 3073.95625 A 0.4 0.4 0 0 1 4428.0 3074.02517 0.4 0.4 0 0 1 4427.77553 3073.95625 8.51 8.51 0 0 0 4423.0 3072.49 8.51 8.51 0 0 0 4418.22447 3073.95625 L 4418.22447 3073.95625 A 0.4 0.4 0 0 1 4418.0 3074.02517 0.4 0.4 0 0 1 4417.77553 3073.95625 8.51 8.51 0 0 0 4413.0 3072.49 8.51 8.51 0 0 0 4404.49 3081.0 8.51 8.51 0 0 0 4406.97725 3087.0122 L 4406.97725 3087.0122 A 0.4 0.4 0 0 1 4407.09416 3087.29479 0.4 0.4 0 0 1 4406.98974 3087.56429 L 4406.98974 3087.56429 A 8.81 8.81 0 0 0 4405.38024 3090.08157 L 4405.38024 3090.08157 A 0.4 0.4 0 0 1 4405.01158 3090.32636 0.4 0.4 0 0 1 4404.73161 3090.21205 L 4389.05654 3074.85047 A 6.51 6.51 0 0 0 4384.5 3072.99 L 4384.5 3072.99 4358.5 3072.99 4358.5 3072.99 A 6.51 6.51 0 0 0 4354.76147 3074.1705 0.4 0.4 0 0 1 4354.53176 3074.24304 0.4 0.4 0 0 1 4354.37917 3074.21279 L 4349.91125 3072.36889 A 5.01 5.01 0 0 0 4348.0 3071.99 5.01 5.01 0 0 0 4345.28521 3072.7893 L 4345.28521 3072.7893 4310.89191 3094.96392 A 0.4 0.4 0 0 1 4310.67516 3095.02774 0.4 0.4 0 0 1 4310.30054 3094.76793 L 4310.30054 3094.76793 A 7.795 7.795 0 0 0 4304.6425 3089.88001 L 4304.6425 3095.8575 4308.14737 3095.8575 A 0.4 0.4 0 0 1 4308.54737 3096.2575 0.4 0.4 0 0 1 4308.36412 3096.59368 L 4307.28521 3097.2893 4307.28521 3097.2893 A 5.01 5.01 0 0 0 4305.68965 3098.94638 L 4305.68965 3098.94638 A 0.4 0.4 0 0 1 4305.34551 3099.1425 L 4304.6425 3099.1425 4304.6425 3099.39974 A 0.4 0.4 0 0 1 4304.2425 3099.79974 0.4 0.4 0 0 1 4304.18185 3099.79512 L 4304.18185 3099.79512 A 7.795 7.795 0 0 0 4303.0 3099.705 7.795 7.795 0 0 0 4301.81815 3099.79512 L 4301.81815 3099.79512 A 0.4 0.4 0 0 1 4301.7575 3099.79974 0.4 0.4 0 0 1 4301.3575 3099.39974 L 4301.3575 3099.1425 4295.38001 3099.1425 A 7.795 7.795 0 0 0 4295.78036 3100.43918 L 4295.78036 3100.43918 A 0.4 0.4 0 0 1 4295.80988 3100.59 0.4 0.4 0 0 1 4295.40988 3100.99 L 4292.5 3100.99 4292.5 3100.99 A 6.51 6.51 0 0 0 4287.89673 3102.89673 L 4277.89673 3112.89673 A 6.51 6.51 0 0 0 4275.99 3117.5 L 4275.99 3156.5 A 6.51 6.51 0 0 0 4277.89673 3161.10327 L 4304.39673 3187.60327 A 6.51 6.51 0 0 0 4309.0 3189.51 L 4309.0 3189.51 4317.20625 3189.51 A 0.4 0.4 0 0 1 4317.43426 3189.58134 L 4317.43426 3189.58134 A 8.01 8.01 0 0 0 4322.0 3191.01 8.01 8.01 0 0 0 4326.37169 3189.71181 L 4326.37169 3189.71181 A 0.4 0.4 0 0 1 4326.59 3189.64699 0.4 0.4 0 0 1 4326.99 3190.04699 L 4326.99 3213.0 A 6.51 6.51 0 0 0 4333.5 3219.51 L 4333.5 3219.51 4543.5 3219.51 Z M 4118.9825 3205.11 A 10.9155 10.9155 0 0 0 4129.898 3216.0255 10.9155 10.9155 0 0 0 4140.8135 3205.11 10.9155 10.9155 0 0 0 4129.898 3194.1945 10.9155 10.9155 0 0 0 4118.9825 3205.11 Z M 4293.1945 3073.221 A 10.9155 10.9155 0 0 0 4304.11 3084.1365 10.9155 10.9155 0 0 0 4315.0255 3073.221 10.9155 10.9155 0 0 0 4304.11 3062.3055 10.9155 10.9155 0 0 0 4293.1945 3073.221 Z M 4129.898 3084.1365 A 10.9155 10.9155 0 0 0 4140.8135 3073.221 10.9155 10.9155 0 0 0 4129.898 3062.3055 10.9155 10.9155 0 0 0 4118.9825 3073.221 10.9155 10.9155 0 0 0 4129.898 3084.1365 Z M 4293.1945 3205.11 A 10.9155 10.9155 0 0 0 4304.11 3216.0255 10.9155 10.9155 0 0 0 4315.0255 3205.11 10.9155 10.9155 0 0 0 4304.11 3194.1945 10.9155 10.9155 0 0 0 4293.1945 3205.11 Z M 4301.3575 3089.88001 A 7.795 7.795 0 0 0 4295.38001 3095.8575 L 4301.3575 3095.8575 4301.3575 3089.88001 Z " stroke-width="0" layerid="2" attachedcopperid="gge494" c_shapetype="line" id="gge494_1" class=""></path><polyline points="4553 3141 4553 3203.5 4543.5 3213 4333.5 3213 4333.5 3100 4337 3096.5 4343 3096.5" stroke-width="3"  stroke-linecap="round" fill="none" layerid="2" net="U2_15" id="gge8" locked="0" /><polyline points="4543 3141 4543 3192.5 4531.5 3204 4363.5 3204 4353 3193.5 4353 3106.5" stroke-width="3"  stroke-linecap="round" fill="none" layerid="2" net="U2_14" id="gge9" locked="0" /><polyline points="4533 3141 4533 3185.5 4524 3194.5 4372 3194.5 4363 3185.5 4363 3106.5" stroke-width="3"  stroke-linecap="round" fill="none" layerid="2" net="U2_13" id="gge10" locked="0" /><polyline points="4523 3141 4523 3134 4502.5 3113.5 4404.5 3113.5 4378 3087 4365.5 3087 4363 3089.5 4363 3096.5" stroke-width="3"  stroke-linecap="round" fill="none" layerid="2" net="U2_12" id="gge11" locked="0" /><polyline points="4443 3141 4443 3136.5 4436 3129.5 4393.937 3129.5 4386.437 3137" stroke-width="3"  stroke-linecap="round" fill="none" layerid="2" net="U2_4" id="gge12" locked="0" /><polyline points="4372.99 3096.5 4375 3096.5 4386.44 3107.94 4386.44 3137" stroke-width="3"  stroke-linecap="round" fill="none" layerid="2" net="U2_4" id="gge13" locked="0" /><polyline points="4543 3081 4543 3085.5 4535 3093.5 4413.5 3093.5" stroke-width="3"  stroke-linecap="round" fill="none" layerid="2" net="U2_17" id="gge14" locked="0" /><polyline points="4378.563 3137 4373 3131.437 4373 3122.5" stroke-width="3"  stroke-linecap="round" fill="none" layerid="2" net="U2_17" id="gge15" locked="0" /><polyline points="4373 3122.5 4373 3106.5049" stroke-width="3"  stroke-linecap="round" fill="none" layerid="2" net="U2_17" id="gge16" locked="0" /><polyline points="4443 3141 4433 3151" stroke-width="3"  stroke-linecap="round" fill="none" layerid="2" net="U2_4" id="gge473" locked="0" /><polyline points="4433 3151 4371.5 3151" stroke-width="3"  stroke-linecap="round" fill="none" layerid="2" net="U2_4" id="gge477" locked="0" /><polyline points="4322 3151 4313 3151 4303 3141 4303 3127.69 4303.13 3127.35" stroke-width="3"  stroke-linecap="round" fill="none" layerid="2" net="U2_4" id="gge19" locked="0" /><polyline points="4453 3141 4453 3142.5 4437.5 3158 4422 3158 4418.5 3161.5" stroke-width="3"  stroke-linecap="round" fill="none" layerid="2" net="U2_5" id="gge472" locked="0" /><polyline points="4418.5 3161.5 4371.5 3161.5" stroke-width="3"  stroke-linecap="round" fill="none" layerid="2" net="U2_5" id="gge476" locked="0" /><polyline points="4343 3106.5049 4343 3160.5 4343.5 3161" stroke-width="3"  stroke-linecap="round" fill="none" layerid="2" net="U2_5" id="gge21" locked="0" /><polyline points="4436.21 3167.64 4428.36 3167.64 4425 3171 4373 3171 4371.5 3172.5" stroke-width="3"  stroke-linecap="round" fill="none" layerid="2" net="U2_6" id="gge483" locked="0" /><polyline points="4322 3172.5 4313.5 3172.5 4292.5 3151.5 4292.5 3122 4297 3117.5 4303 3117.5" stroke-width="3"  stroke-linecap="round" fill="none" layerid="2" net="U2_6" id="gge23" locked="0" /><polyline points="4473 3141 4473 3148 4484.71 3159.71 4484.71 3168.14" stroke-width="3"  stroke-linecap="round" fill="none" layerid="2" net="U2_7" id="gge455" locked="0" /><polyline points="4553 3081 4553 3090.5 4539.5 3104 4409.5 3104 4384.5 3079.5 4358.5 3079.5 4353 3085 4353 3096.5" stroke-width="3"  stroke-linecap="round" fill="none" layerid="2" net="U2_16" id="gge31" locked="0" /><polyline points="4463 3141 4461.795 3142.205 4461.795 3167.642" stroke-width="3"  stroke-linecap="round" fill="none" layerid="2" net="U2_6" id="gge32" locked="0" /><polyline points="4461.795 3167.642 4436.205 3167.642" stroke-width="3"  stroke-linecap="round" fill="none" layerid="2" net="U2_6" id="gge33" locked="0" /><polyline points="4484.7051 3168.1421 4484.7051 3168.7949 4476.5 3177 4430.5 3177 4427 3180.5" stroke-width="3"  stroke-linecap="round" fill="none" layerid="2" net="U2_7" id="gge470" locked="0" /><polyline points="4427 3180.5 4374 3180.5 4371.5 3183" stroke-width="3"  stroke-linecap="round" fill="none" layerid="2" net="U2_7" id="gge474" locked="0" /><polyline points="4510.295 3168.142 4484.705 3168.142" stroke-width="3"  stroke-linecap="round" fill="none" layerid="2" net="U2_7" id="gge35" locked="0" /><polyline points="4443 3081 4453.5 3070.5 4555.5 3070.5 4562 3077 4562 3186 4561.5 3186.5" stroke-width="3"  stroke-linecap="round" fill="none" layerid="2" net="U2_27" id="gge36" locked="0" /><polyline points="4520 3186 4519.858 3185.858 4510.295 3185.858" stroke-width="3"  stroke-linecap="round" fill="none" layerid="2" net="U2_27" id="gge37" locked="0" /><polyline points="4510.295 3185.858 4484.705 3185.858" stroke-width="3"  stroke-linecap="round" fill="none" layerid="2" net="U2_27" id="gge38" locked="0" /><polyline points="4484.705 3185.858 4484.205 3185.358 4461.795 3185.358" stroke-width="3"  stroke-linecap="round" fill="none" layerid="2" net="U2_27" id="gge39" locked="0" /><polyline points="4461.795 3185.358 4436.205 3185.358" stroke-width="3"  stroke-linecap="round" fill="none" layerid="2" net="U2_27" id="gge40" locked="0" /><polyline points="4322 3183 4309 3183 4282.5 3156.5 4282.5 3117.5 4292.5 3107.5 4303 3107.5" stroke-width="3"  stroke-linecap="round" fill="none" layerid="2" net="U2_7" id="gge486" locked="0" /><polyline points="4443 3081 4443 3080.5 4432.5 3070 4343.5 3070 4316.5 3097 4303.5 3097 4303 3097.5" stroke-width="3"  stroke-linecap="round" fill="none" layerid="2" net="U2_27" id="gge489" locked="0" /><g c_partid="part_pad" c_etype="pinpart" c_origin="4371.5,3151" layerid="11" number="1" net="U2_4" plated ="Y"  id="gge425" locked="0" c_rotation="0" c_width="6" c_height="6" title="U2_4" c_shape="ELLIPSE" pasteexpansion="0" solderexpansion="0.4"><ellipse c_etype="pad_shell" cx="4371.5" cy="3151" rx="3" ry="3" layerid="11" stroke-width="0"/><circle c_etype="pad_hole" cx="4371.5" cy="3151" r="1.8" layerid="11" stroke-width="0"/></g><g c_partid="part_pad" c_etype="pinpart" c_origin="4371.5,3161.5" layerid="11" number="2" net="U2_5" plated ="Y"  id="gge428" locked="0" c_rotation="0" c_width="6" c_height="6" title="U2_5" c_shape="ELLIPSE" pasteexpansion="0" solderexpansion="0.4"><ellipse c_etype="pad_shell" cx="4371.5" cy="3161.5" rx="3" ry="3" layerid="11" stroke-width="0"/><circle c_etype="pad_hole" cx="4371.5" cy="3161.5" r="1.8" layerid="11" stroke-width="0"/></g><g c_partid="part_pad" c_etype="pinpart" c_origin="4371.5,3172.5" layerid="11" number="3" net="U2_6" plated ="Y"  id="gge431" locked="0" c_rotation="0" c_width="6" c_height="6" title="U2_6" c_shape="ELLIPSE" pasteexpansion="0" solderexpansion="0.4"><ellipse c_etype="pad_shell" cx="4371.5" cy="3172.5" rx="3" ry="3" layerid="11" stroke-width="0"/><circle c_etype="pad_hole" cx="4371.5" cy="3172.5" r="1.8" layerid="11" stroke-width="0"/></g><g c_partid="part_pad" c_etype="pinpart" c_origin="4371.5,3183" layerid="11" number="4" net="U2_7" plated ="Y"  id="gge434" locked="0" c_rotation="0" c_width="6" c_height="6" title="U2_7" c_shape="ELLIPSE" pasteexpansion="0" solderexpansion="0.4"><ellipse c_etype="pad_shell" cx="4371.5" cy="3183" rx="3" ry="3" layerid="11" stroke-width="0"/><circle c_etype="pad_hole" cx="4371.5" cy="3183" r="1.8" layerid="11" stroke-width="0"/></g><g c_partid="part_pad" c_etype="pinpart" c_origin="4322,3151" layerid="11" number="5" net="U2_4" plated ="Y"  id="gge437" locked="0" c_rotation="0" c_width="6" c_height="6" title="U2_4" c_shape="ELLIPSE" pasteexpansion="0" solderexpansion="0.4"><ellipse c_etype="pad_shell" cx="4322" cy="3151" rx="3" ry="3" layerid="11" stroke-width="0"/><circle c_etype="pad_hole" cx="4322" cy="3151" r="1.8" layerid="11" stroke-width="0"/></g><g c_partid="part_pad" c_etype="pinpart" c_origin="4343.5,3161" layerid="11" number="6" net="U2_5" plated ="Y"  id="gge440" locked="0" c_rotation="0" c_width="6" c_height="6" title="U2_5" c_shape="ELLIPSE" pasteexpansion="0" solderexpansion="0.4"><ellipse c_etype="pad_shell" cx="4343.5" cy="3161" rx="3" ry="3" layerid="11" stroke-width="0"/><circle c_etype="pad_hole" cx="4343.5" cy="3161" r="1.8" layerid="11" stroke-width="0"/></g><g c_partid="part_pad" c_etype="pinpart" c_origin="4322,3172.5" layerid="11" number="7" net="U2_6" plated ="Y"  id="gge443" locked="0" c_rotation="0" c_width="6" c_height="6" title="U2_6" c_shape="ELLIPSE" pasteexpansion="0" solderexpansion="0.4"><ellipse c_etype="pad_shell" cx="4322" cy="3172.5" rx="3" ry="3" layerid="11" stroke-width="0"/><circle c_etype="pad_hole" cx="4322" cy="3172.5" r="1.8" layerid="11" stroke-width="0"/></g><g c_partid="part_pad" c_etype="pinpart" c_origin="4322,3183" layerid="11" number="8" net="U2_7" plated ="Y"  id="gge446" locked="0" c_rotation="0" c_width="6" c_height="6" title="U2_7" c_shape="ELLIPSE" pasteexpansion="0" solderexpansion="0.4"><ellipse c_etype="pad_shell" cx="4322" cy="3183" rx="3" ry="3" layerid="11" stroke-width="0"/><circle c_etype="pad_hole" cx="4322" cy="3183" r="1.8" layerid="11" stroke-width="0"/></g><g c_partid="part_pad" c_etype="pinpart" c_origin="4303,3097.5" layerid="11" number="VCC" net="U2_27" plated ="Y"  id="gge71" locked="0" c_rotation="90" c_width="5.57" c_height="5.57" title="U2_27" c_shape="ELLIPSE" pasteexpansion="0" solderexpansion="0.4"><ellipse c_etype="pad_shell" cx="4303" cy="3097.5" rx="2.785" ry="2.785" layerid="11" stroke-width="0"/><circle c_etype="pad_hole" cx="4303" cy="3097.5" r="1.5" layerid="11" stroke-width="0"/></g><g c_partid="part_pad" c_etype="pinpart" c_origin="4303,3107.5" layerid="11" number="IN2" net="U2_7" plated ="Y"  id="gge76" locked="0" c_rotation="90" c_width="5.57" c_height="5.57" title="U2_7" c_shape="ELLIPSE" pasteexpansion="0" solderexpansion="0.4"><ellipse c_etype="pad_shell" cx="4303" cy="3107.5" rx="2.785" ry="2.785" layerid="11" stroke-width="0"/><circle c_etype="pad_hole" cx="4303" cy="3107.5" r="1.5" layerid="11" stroke-width="0"/></g><g c_partid="part_pad" c_etype="pinpart" c_origin="4303,3117.5" layerid="11" number="IN1" net="U2_6" plated ="Y"  id="gge81" locked="0" c_rotation="90" c_width="5.57" c_height="5.57" title="U2_6" c_shape="ELLIPSE" pasteexpansion="0" solderexpansion="0.4"><ellipse c_etype="pad_shell" cx="4303" cy="3117.5" rx="2.785" ry="2.785" layerid="11" stroke-width="0"/><circle c_etype="pad_hole" cx="4303" cy="3117.5" r="1.5" layerid="11" stroke-width="0"/></g><g c_partid="part_pad" c_etype="pinpart" c_origin="4303.126,3127.354" layerid="11" number="GND" net="U2_4" plated ="Y"  id="gge86" locked="0" c_rotation="90" c_width="5.57" c_height="5.57" title="U2_4" c_shape="RECT" pasteexpansion="0" solderexpansion="0.4"><polygon  c_etype="pad_shell" points="4300.341 3130.1393 4300.341 3124.5693 4305.911 3124.5693 4305.911 3130.1393" layerid="11" stroke-width="0" /><circle c_etype="pad_hole" cx="4303.126" cy="3127.3543" r="1.5" layerid="11" stroke-width="0"/></g><g c_partid="part_pad" c_etype="pinpart" c_origin="4413,3141" layerid="11" number="1" net="U2_1" plated ="Y"  id="gge161" locked="0" c_rotation="0" c_width="7" c_height="7" title="U2_1" c_shape="RECT" pasteexpansion="0" solderexpansion="0.4"><polygon  c_etype="pad_shell" points="4409.5 3137.5 4416.5 3137.5 4416.5 3144.5 4409.5 3144.5" layerid="11" stroke-width="0" /><circle c_etype="pad_hole" cx="4413" cy="3141" r="1.8" layerid="11" stroke-width="0"/></g><g c_partid="part_pad" c_etype="pinpart" c_origin="4423,3141" layerid="11" number="2" net="U2_2" plated ="Y"  id="gge166" locked="0" c_rotation="0" c_width="7" c_height="7" title="U2_2" c_shape="ELLIPSE" pasteexpansion="0" solderexpansion="0.4"><ellipse c_etype="pad_shell" cx="4423" cy="3141" rx="3.5" ry="3.5" layerid="11" stroke-width="0"/><circle c_etype="pad_hole" cx="4423" cy="3141" r="1.8" layerid="11" stroke-width="0"/></g><g c_partid="part_pad" c_etype="pinpart" c_origin="4433,3141" layerid="11" number="3" net="U2_3" plated ="Y"  id="gge171" locked="0" c_rotation="0" c_width="7" c_height="7" title="U2_3" c_shape="ELLIPSE" pasteexpansion="0" solderexpansion="0.4"><ellipse c_etype="pad_shell" cx="4433" cy="3141" rx="3.5" ry="3.5" layerid="11" stroke-width="0"/><circle c_etype="pad_hole" cx="4433" cy="3141" r="1.8" layerid="11" stroke-width="0"/></g><g c_partid="part_pad" c_etype="pinpart" c_origin="4443,3141" layerid="11" number="4" net="U2_4" plated ="Y"  id="gge176" locked="0" c_rotation="0" c_width="7" c_height="7" title="U2_4" c_shape="ELLIPSE" pasteexpansion="0" solderexpansion="0.4"><ellipse c_etype="pad_shell" cx="4443" cy="3141" rx="3.5" ry="3.5" layerid="11" stroke-width="0"/><circle c_etype="pad_hole" cx="4443" cy="3141" r="1.8" layerid="11" stroke-width="0"/></g><g c_partid="part_pad" c_etype="pinpart" c_origin="4453,3141" layerid="11" number="5" net="U2_5" plated ="Y"  id="gge181" locked="0" c_rotation="0" c_width="7" c_height="7" title="U2_5" c_shape="ELLIPSE" pasteexpansion="0" solderexpansion="0.4"><ellipse c_etype="pad_shell" cx="4453" cy="3141" rx="3.5" ry="3.5" layerid="11" stroke-width="0"/><circle c_etype="pad_hole" cx="4453" cy="3141" r="1.8" layerid="11" stroke-width="0"/></g><g c_partid="part_pad" c_etype="pinpart" c_origin="4463,3141" layerid="11" number="6" net="U2_6" plated ="Y"  id="gge186" locked="0" c_rotation="0" c_width="7" c_height="7" title="U2_6" c_shape="ELLIPSE" pasteexpansion="0" solderexpansion="0.4"><ellipse c_etype="pad_shell" cx="4463" cy="3141" rx="3.5" ry="3.5" layerid="11" stroke-width="0"/><circle c_etype="pad_hole" cx="4463" cy="3141" r="1.8" layerid="11" stroke-width="0"/></g><g c_partid="part_pad" c_etype="pinpart" c_origin="4473,3141" layerid="11" number="7" net="U2_7" plated ="Y"  id="gge191" locked="0" c_rotation="0" c_width="7" c_height="7" title="U2_7" c_shape="ELLIPSE" pasteexpansion="0" solderexpansion="0.4"><ellipse c_etype="pad_shell" cx="4473" cy="3141" rx="3.5" ry="3.5" layerid="11" stroke-width="0"/><circle c_etype="pad_hole" cx="4473" cy="3141" r="1.8" layerid="11" stroke-width="0"/></g><g c_partid="part_pad" c_etype="pinpart" c_origin="4483,3141" layerid="11" number="8" net="U2_8" plated ="Y"  id="gge196" locked="0" c_rotation="0" c_width="7" c_height="7" title="U2_8" c_shape="ELLIPSE" pasteexpansion="0" solderexpansion="0.4"><ellipse c_etype="pad_shell" cx="4483" cy="3141" rx="3.5" ry="3.5" layerid="11" stroke-width="0"/><circle c_etype="pad_hole" cx="4483" cy="3141" r="1.8" layerid="11" stroke-width="0"/></g><g c_partid="part_pad" c_etype="pinpart" c_origin="4493,3141" layerid="11" number="9" net="U2_9" plated ="Y"  id="gge201" locked="0" c_rotation="0" c_width="7" c_height="7" title="U2_9" c_shape="ELLIPSE" pasteexpansion="0" solderexpansion="0.4"><ellipse c_etype="pad_shell" cx="4493" cy="3141" rx="3.5" ry="3.5" layerid="11" stroke-width="0"/><circle c_etype="pad_hole" cx="4493" cy="3141" r="1.8" layerid="11" stroke-width="0"/></g><g c_partid="part_pad" c_etype="pinpart" c_origin="4503,3141" layerid="11" number="10" net="U2_10" plated ="Y"  id="gge206" locked="0" c_rotation="0" c_width="7" c_height="7" title="U2_10" c_shape="ELLIPSE" pasteexpansion="0" solderexpansion="0.4"><ellipse c_etype="pad_shell" cx="4503" cy="3141" rx="3.5" ry="3.5" layerid="11" stroke-width="0"/><circle c_etype="pad_hole" cx="4503" cy="3141" r="1.8" layerid="11" stroke-width="0"/></g><g c_partid="part_pad" c_etype="pinpart" c_origin="4513,3141" layerid="11" number="11" net="U2_11" plated ="Y"  id="gge211" locked="0" c_rotation="0" c_width="7" c_height="7" title="U2_11" c_shape="ELLIPSE" pasteexpansion="0" solderexpansion="0.4"><ellipse c_etype="pad_shell" cx="4513" cy="3141" rx="3.5" ry="3.5" layerid="11" stroke-width="0"/><circle c_etype="pad_hole" cx="4513" cy="3141" r="1.8" layerid="11" stroke-width="0"/></g><g c_partid="part_pad" c_etype="pinpart" c_origin="4523,3141" layerid="11" number="12" net="U2_12" plated ="Y"  id="gge216" locked="0" c_rotation="0" c_width="7" c_height="7" title="U2_12" c_shape="ELLIPSE" pasteexpansion="0" solderexpansion="0.4"><ellipse c_etype="pad_shell" cx="4523" cy="3141" rx="3.5" ry="3.5" layerid="11" stroke-width="0"/><circle c_etype="pad_hole" cx="4523" cy="3141" r="1.8" layerid="11" stroke-width="0"/></g><g c_partid="part_pad" c_etype="pinpart" c_origin="4533,3141" layerid="11" number="13" net="U2_13" plated ="Y"  id="gge221" locked="0" c_rotation="0" c_width="7" c_height="7" title="U2_13" c_shape="ELLIPSE" pasteexpansion="0" solderexpansion="0.4"><ellipse c_etype="pad_shell" cx="4533" cy="3141" rx="3.5" ry="3.5" layerid="11" stroke-width="0"/><circle c_etype="pad_hole" cx="4533" cy="3141" r="1.8" layerid="11" stroke-width="0"/></g><g c_partid="part_pad" c_etype="pinpart" c_origin="4543,3141" layerid="11" number="14" net="U2_14" plated ="Y"  id="gge226" locked="0" c_rotation="0" c_width="7" c_height="7" title="U2_14" c_shape="ELLIPSE" pasteexpansion="0" solderexpansion="0.4"><ellipse c_etype="pad_shell" cx="4543" cy="3141" rx="3.5" ry="3.5" layerid="11" stroke-width="0"/><circle c_etype="pad_hole" cx="4543" cy="3141" r="1.8" layerid="11" stroke-width="0"/></g><g c_partid="part_pad" c_etype="pinpart" c_origin="4553,3141" layerid="11" number="15" net="U2_15" plated ="Y"  id="gge231" locked="0" c_rotation="0" c_width="7" c_height="7" title="U2_15" c_shape="ELLIPSE" pasteexpansion="0" solderexpansion="0.4"><ellipse c_etype="pad_shell" cx="4553" cy="3141" rx="3.5" ry="3.5" layerid="11" stroke-width="0"/><circle c_etype="pad_hole" cx="4553" cy="3141" r="1.8" layerid="11" stroke-width="0"/></g><g c_partid="part_pad" c_etype="pinpart" c_origin="4413,3081" layerid="11" number="30" net="U2_30" plated ="Y"  id="gge236" locked="0" c_rotation="0" c_width="7" c_height="7" title="U2_30" c_shape="ELLIPSE" pasteexpansion="0" solderexpansion="0.4"><ellipse c_etype="pad_shell" cx="4413" cy="3081" rx="3.5" ry="3.5" layerid="11" stroke-width="0"/><circle c_etype="pad_hole" cx="4413" cy="3081" r="1.8" layerid="11" stroke-width="0"/></g><g c_partid="part_pad" c_etype="pinpart" c_origin="4423,3081" layerid="11" number="29" net="U2_29" plated ="Y"  id="gge241" locked="0" c_rotation="0" c_width="7" c_height="7" title="U2_29" c_shape="ELLIPSE" pasteexpansion="0" solderexpansion="0.4"><ellipse c_etype="pad_shell" cx="4423" cy="3081" rx="3.5" ry="3.5" layerid="11" stroke-width="0"/><circle c_etype="pad_hole" cx="4423" cy="3081" r="1.8" layerid="11" stroke-width="0"/></g><g c_partid="part_pad" c_etype="pinpart" c_origin="4433,3081" layerid="11" number="28" net="U2_28" plated ="Y"  id="gge246" locked="0" c_rotation="0" c_width="7" c_height="7" title="U2_28" c_shape="ELLIPSE" pasteexpansion="0" solderexpansion="0.4"><ellipse c_etype="pad_shell" cx="4433" cy="3081" rx="3.5" ry="3.5" layerid="11" stroke-width="0"/><circle c_etype="pad_hole" cx="4433" cy="3081" r="1.8" layerid="11" stroke-width="0"/></g><g c_partid="part_pad" c_etype="pinpart" c_origin="4443,3081" layerid="11" number="27" net="U2_27" plated ="Y"  id="gge251" locked="0" c_rotation="0" c_width="7" c_height="7" title="U2_27" c_shape="ELLIPSE" pasteexpansion="0" solderexpansion="0.4"><ellipse c_etype="pad_shell" cx="4443" cy="3081" rx="3.5" ry="3.5" layerid="11" stroke-width="0"/><circle c_etype="pad_hole" cx="4443" cy="3081" r="1.8" layerid="11" stroke-width="0"/></g><g c_partid="part_pad" c_etype="pinpart" c_origin="4453,3081" layerid="11" number="26" net="U2_26" plated ="Y"  id="gge256" locked="0" c_rotation="0" c_width="7" c_height="7" title="U2_26" c_shape="ELLIPSE" pasteexpansion="0" solderexpansion="0.4"><ellipse c_etype="pad_shell" cx="4453" cy="3081" rx="3.5" ry="3.5" layerid="11" stroke-width="0"/><circle c_etype="pad_hole" cx="4453" cy="3081" r="1.8" layerid="11" stroke-width="0"/></g><g c_partid="part_pad" c_etype="pinpart" c_origin="4463,3081" layerid="11" number="25" net="U2_25" plated ="Y"  id="gge261" locked="0" c_rotation="0" c_width="7" c_height="7" title="U2_25" c_shape="ELLIPSE" pasteexpansion="0" solderexpansion="0.4"><ellipse c_etype="pad_shell" cx="4463" cy="3081" rx="3.5" ry="3.5" layerid="11" stroke-width="0"/><circle c_etype="pad_hole" cx="4463" cy="3081" r="1.8" layerid="11" stroke-width="0"/></g><g c_partid="part_pad" c_etype="pinpart" c_origin="4473,3081" layerid="11" number="24" net="U2_24" plated ="Y"  id="gge266" locked="0" c_rotation="0" c_width="7" c_height="7" title="U2_24" c_shape="ELLIPSE" pasteexpansion="0" solderexpansion="0.4"><ellipse c_etype="pad_shell" cx="4473" cy="3081" rx="3.5" ry="3.5" layerid="11" stroke-width="0"/><circle c_etype="pad_hole" cx="4473" cy="3081" r="1.8" layerid="11" stroke-width="0"/></g><g c_partid="part_pad" c_etype="pinpart" c_origin="4483,3081" layerid="11" number="23" net="U2_23" plated ="Y"  id="gge271" locked="0" c_rotation="0" c_width="7" c_height="7" title="U2_23" c_shape="ELLIPSE" pasteexpansion="0" solderexpansion="0.4"><ellipse c_etype="pad_shell" cx="4483" cy="3081" rx="3.5" ry="3.5" layerid="11" stroke-width="0"/><circle c_etype="pad_hole" cx="4483" cy="3081" r="1.8" layerid="11" stroke-width="0"/></g><g c_partid="part_pad" c_etype="pinpart" c_origin="4493,3081" layerid="11" number="22" net="U2_22" plated ="Y"  id="gge276" locked="0" c_rotation="0" c_width="7" c_height="7" title="U2_22" c_shape="ELLIPSE" pasteexpansion="0" solderexpansion="0.4"><ellipse c_etype="pad_shell" cx="4493" cy="3081" rx="3.5" ry="3.5" layerid="11" stroke-width="0"/><circle c_etype="pad_hole" cx="4493" cy="3081" r="1.8" layerid="11" stroke-width="0"/></g><g c_partid="part_pad" c_etype="pinpart" c_origin="4503,3081" layerid="11" number="21" net="U2_21" plated ="Y"  id="gge281" locked="0" c_rotation="0" c_width="7" c_height="7" title="U2_21" c_shape="ELLIPSE" pasteexpansion="0" solderexpansion="0.4"><ellipse c_etype="pad_shell" cx="4503" cy="3081" rx="3.5" ry="3.5" layerid="11" stroke-width="0"/><circle c_etype="pad_hole" cx="4503" cy="3081" r="1.8" layerid="11" stroke-width="0"/></g><g c_partid="part_pad" c_etype="pinpart" c_origin="4513,3081" layerid="11" number="20" net="U2_20" plated ="Y"  id="gge286" locked="0" c_rotation="0" c_width="7" c_height="7" title="U2_20" c_shape="ELLIPSE" pasteexpansion="0" solderexpansion="0.4"><ellipse c_etype="pad_shell" cx="4513" cy="3081" rx="3.5" ry="3.5" layerid="11" stroke-width="0"/><circle c_etype="pad_hole" cx="4513" cy="3081" r="1.8" layerid="11" stroke-width="0"/></g><g c_partid="part_pad" c_etype="pinpart" c_origin="4523,3081" layerid="11" number="19" net="U2_19" plated ="Y"  id="gge291" locked="0" c_rotation="0" c_width="7" c_height="7" title="U2_19" c_shape="ELLIPSE" pasteexpansion="0" solderexpansion="0.4"><ellipse c_etype="pad_shell" cx="4523" cy="3081" rx="3.5" ry="3.5" layerid="11" stroke-width="0"/><circle c_etype="pad_hole" cx="4523" cy="3081" r="1.8" layerid="11" stroke-width="0"/></g><g c_partid="part_pad" c_etype="pinpart" c_origin="4533,3081" layerid="11" number="18" net="U2_18" plated ="Y"  id="gge296" locked="0" c_rotation="0" c_width="7" c_height="7" title="U2_18" c_shape="ELLIPSE" pasteexpansion="0" solderexpansion="0.4"><ellipse c_etype="pad_shell" cx="4533" cy="3081" rx="3.5" ry="3.5" layerid="11" stroke-width="0"/><circle c_etype="pad_hole" cx="4533" cy="3081" r="1.8" layerid="11" stroke-width="0"/></g><g c_partid="part_pad" c_etype="pinpart" c_origin="4543,3081" layerid="11" number="17" net="U2_17" plated ="Y"  id="gge301" locked="0" c_rotation="0" c_width="7" c_height="7" title="U2_17" c_shape="ELLIPSE" pasteexpansion="0" solderexpansion="0.4"><ellipse c_etype="pad_shell" cx="4543" cy="3081" rx="3.5" ry="3.5" layerid="11" stroke-width="0"/><circle c_etype="pad_hole" cx="4543" cy="3081" r="1.8" layerid="11" stroke-width="0"/></g><g c_partid="part_pad" c_etype="pinpart" c_origin="4553,3081" layerid="11" number="16" net="U2_16" plated ="Y"  id="gge306" locked="0" c_rotation="0" c_width="7" c_height="7" title="U2_16" c_shape="ELLIPSE" pasteexpansion="0" solderexpansion="0.4"><ellipse c_etype="pad_shell" cx="4553" cy="3081" rx="3.5" ry="3.5" layerid="11" stroke-width="0"/><circle c_etype="pad_hole" cx="4553" cy="3081" r="1.8" layerid="11" stroke-width="0"/></g><g c_partid="part_pad" c_etype="pinpart" c_origin="4372.99,3096.495" layerid="11" number="1" net="U2_4" plated ="Y"  id="gge321" locked="0" c_rotation="180" c_width="7.0866" c_height="7.0866" title="U2_4" c_shape="ELLIPSE" pasteexpansion="0" solderexpansion="0.4"><ellipse c_etype="pad_shell" cx="4372.99" cy="3096.495" rx="3.5433" ry="3.5433" layerid="11" stroke-width="0"/><circle c_etype="pad_hole" cx="4372.99" cy="3096.495" r="1.5" layerid="11" stroke-width="0"/></g><g c_partid="part_pad" c_etype="pinpart" c_origin="4373,3106.505" layerid="11" number="2" net="U2_17" plated ="Y"  id="gge326" locked="0" c_rotation="180" c_width="7.0866" c_height="7.0866" title="U2_17" c_shape="ELLIPSE" pasteexpansion="0" solderexpansion="0.4"><ellipse c_etype="pad_shell" cx="4373" cy="3106.505" rx="3.5433" ry="3.5433" layerid="11" stroke-width="0"/><circle c_etype="pad_hole" cx="4373" cy="3106.505" r="1.5" layerid="11" stroke-width="0"/></g><g c_partid="part_pad" c_etype="pinpart" c_origin="4363,3096.505" layerid="11" number="3" net="U2_12" plated ="Y"  id="gge331" locked="0" c_rotation="180" c_width="7.0866" c_height="7.0866" title="U2_12" c_shape="ELLIPSE" pasteexpansion="0" solderexpansion="0.4"><ellipse c_etype="pad_shell" cx="4363" cy="3096.505" rx="3.5433" ry="3.5433" layerid="11" stroke-width="0"/><circle c_etype="pad_hole" cx="4363" cy="3096.505" r="1.5" layerid="11" stroke-width="0"/></g><g c_partid="part_pad" c_etype="pinpart" c_origin="4363,3106.505" layerid="11" number="4" net="U2_13" plated ="Y"  id="gge336" locked="0" c_rotation="180" c_width="7.0866" c_height="7.0866" title="U2_13" c_shape="ELLIPSE" pasteexpansion="0" solderexpansion="0.4"><ellipse c_etype="pad_shell" cx="4363" cy="3106.505" rx="3.5433" ry="3.5433" layerid="11" stroke-width="0"/><circle c_etype="pad_hole" cx="4363" cy="3106.505" r="1.5" layerid="11" stroke-width="0"/></g><g c_partid="part_pad" c_etype="pinpart" c_origin="4353,3096.505" layerid="11" number="5" net="U2_16" plated ="Y"  id="gge341" locked="0" c_rotation="180" c_width="7.0866" c_height="7.0866" title="U2_16" c_shape="ELLIPSE" pasteexpansion="0" solderexpansion="0.4"><ellipse c_etype="pad_shell" cx="4353" cy="3096.505" rx="3.5433" ry="3.5433" layerid="11" stroke-width="0"/><circle c_etype="pad_hole" cx="4353" cy="3096.505" r="1.5" layerid="11" stroke-width="0"/></g><g c_partid="part_pad" c_etype="pinpart" c_origin="4353,3106.505" layerid="11" number="6" net="U2_14" plated ="Y"  id="gge346" locked="0" c_rotation="180" c_width="7.0866" c_height="7.0866" title="U2_14" c_shape="ELLIPSE" pasteexpansion="0" solderexpansion="0.4"><ellipse c_etype="pad_shell" cx="4353" cy="3106.505" rx="3.5433" ry="3.5433" layerid="11" stroke-width="0"/><circle c_etype="pad_hole" cx="4353" cy="3106.505" r="1.5" layerid="11" stroke-width="0"/></g><g c_partid="part_pad" c_etype="pinpart" c_origin="4343,3096.505" layerid="11" number="7" net="U2_15" plated ="Y"  id="gge351" locked="0" c_rotation="180" c_width="7.0866" c_height="7.0866" title="U2_15" c_shape="ELLIPSE" pasteexpansion="0" solderexpansion="0.4"><ellipse c_etype="pad_shell" cx="4343" cy="3096.505" rx="3.5433" ry="3.5433" layerid="11" stroke-width="0"/><circle c_etype="pad_hole" cx="4343" cy="3096.505" r="1.5" layerid="11" stroke-width="0"/></g><g c_partid="part_pad" c_etype="pinpart" c_origin="4343,3106.505" layerid="11" number="8" net="U2_5" plated ="Y"  id="gge356" locked="0" c_rotation="180" c_width="7.0866" c_height="7.0866" title="U2_5" c_shape="ELLIPSE" pasteexpansion="0" solderexpansion="0.4"><ellipse c_etype="pad_shell" cx="4343" cy="3106.505" rx="3.5433" ry="3.5433" layerid="11" stroke-width="0"/><circle c_etype="pad_hole" cx="4343" cy="3106.505" r="1.5" layerid="11" stroke-width="0"/></g><g c_partid="part_pad" c_etype="pinpart" c_origin="4378.563,3137" layerid="11" number="1" net="U2_17" plated ="Y"  id="gge370" locked="0" c_rotation="0" c_width="5.1181" c_height="5.1181" title="U2_17" c_shape="ELLIPSE" pasteexpansion="0" solderexpansion="0.4"><ellipse c_etype="pad_shell" cx="4378.563" cy="3137" rx="2.55905" ry="2.55905" layerid="11" stroke-width="0"/><circle c_etype="pad_hole" cx="4378.563" cy="3137" r="1.5748" layerid="11" stroke-width="0"/></g><g c_partid="part_pad" c_etype="pinpart" c_origin="4386.437,3137" layerid="11" number="2" net="U2_4" plated ="Y"  id="gge375" locked="0" c_rotation="0" c_width="5.1181" c_height="5.1181" title="U2_4" c_shape="ELLIPSE" pasteexpansion="0" solderexpansion="0.4"><ellipse c_etype="pad_shell" cx="4386.437" cy="3137" rx="2.55905" ry="2.55905" layerid="11" stroke-width="0"/><circle c_etype="pad_hole" cx="4386.437" cy="3137" r="1.5748" layerid="11" stroke-width="0"/></g><g c_partid="part_pad" c_etype="pinpart" c_origin="4436.205,3167.642" layerid="11" number="4" net="U2_6" plated ="Y"  id="gge391" locked="0" c_rotation="0" c_width="9" c_height="4" title="U2_6" c_shape="RECT" pasteexpansion="0" solderexpansion="0.4"><polygon  c_etype="pad_shell" points="4431.705 3165.642 4440.705 3165.642 4440.705 3169.642 4431.705 3169.642" layerid="11" stroke-width="0" /><circle c_etype="pad_hole" cx="4436.205" cy="3167.642" r="1.5" layerid="11" stroke-width="0"/></g><g c_partid="part_pad" c_etype="pinpart" c_origin="4461.795,3167.642" layerid="11" number="3" net="U2_6" plated ="Y"  id="gge393" locked="0" c_rotation="0" c_width="9" c_height="4" title="U2_6" c_shape="RECT" pasteexpansion="0" solderexpansion="0.4"><polygon  c_etype="pad_shell" points="4457.295 3165.642 4466.295 3165.642 4466.295 3169.642 4457.295 3169.642" layerid="11" stroke-width="0" /><circle c_etype="pad_hole" cx="4461.795" cy="3167.642" r="1.5" layerid="11" stroke-width="0"/></g><g c_partid="part_pad" c_etype="pinpart" c_origin="4461.795,3185.358" layerid="11" number="2" net="U2_27" plated ="Y"  id="gge395" locked="0" c_rotation="0" c_width="9" c_height="4" title="U2_27" c_shape="RECT" pasteexpansion="0" solderexpansion="0.4"><polygon  c_etype="pad_shell" points="4457.295 3183.358 4466.295 3183.358 4466.295 3187.358 4457.295 3187.358" layerid="11" stroke-width="0" /><circle c_etype="pad_hole" cx="4461.795" cy="3185.358" r="1.5" layerid="11" stroke-width="0"/></g><g c_partid="part_pad" c_etype="pinpart" c_origin="4436.205,3185.358" layerid="11" number="1" net="U2_27" plated ="Y"  id="gge397" locked="0" c_rotation="0" c_width="9" c_height="4" title="U2_27" c_shape="RECT" pasteexpansion="0" solderexpansion="0.4"><polygon  c_etype="pad_shell" points="4431.705 3183.358 4440.705 3183.358 4440.705 3187.358 4431.705 3187.358" layerid="11" stroke-width="0" /><circle c_etype="pad_hole" cx="4436.205" cy="3185.358" r="1.5" layerid="11" stroke-width="0"/></g><g c_partid="part_pad" c_etype="pinpart" c_origin="4484.705,3168.142" layerid="11" number="4" net="U2_7" plated ="Y"  id="gge410" locked="0" c_rotation="0" c_width="9" c_height="4" title="U2_7" c_shape="RECT" pasteexpansion="0" solderexpansion="0.4"><polygon  c_etype="pad_shell" points="4480.205 3166.142 4489.205 3166.142 4489.205 3170.142 4480.205 3170.142" layerid="11" stroke-width="0" /><circle c_etype="pad_hole" cx="4484.705" cy="3168.142" r="1.5" layerid="11" stroke-width="0"/></g><g c_partid="part_pad" c_etype="pinpart" c_origin="4510.295,3168.142" layerid="11" number="3" net="U2_7" plated ="Y"  id="gge412" locked="0" c_rotation="0" c_width="9" c_height="4" title="U2_7" c_shape="RECT" pasteexpansion="0" solderexpansion="0.4"><polygon  c_etype="pad_shell" points="4505.795 3166.142 4514.795 3166.142 4514.795 3170.142 4505.795 3170.142" layerid="11" stroke-width="0" /><circle c_etype="pad_hole" cx="4510.295" cy="3168.142" r="1.5" layerid="11" stroke-width="0"/></g><g c_partid="part_pad" c_etype="pinpart" c_origin="4510.295,3185.858" layerid="11" number="2" net="U2_27" plated ="Y"  id="gge414" locked="0" c_rotation="0" c_width="9" c_height="4" title="U2_27" c_shape="RECT" pasteexpansion="0" solderexpansion="0.4"><polygon  c_etype="pad_shell" points="4505.795 3183.858 4514.795 3183.858 4514.795 3187.858 4505.795 3187.858" layerid="11" stroke-width="0" /><circle c_etype="pad_hole" cx="4510.295" cy="3185.858" r="1.5" layerid="11" stroke-width="0"/></g><g c_partid="part_pad" c_etype="pinpart" c_origin="4484.705,3185.858" layerid="11" number="1" net="U2_27" plated ="Y"  id="gge416" locked="0" c_rotation="0" c_width="9" c_height="4" title="U2_27" c_shape="RECT" pasteexpansion="0" solderexpansion="0.4"><polygon  c_etype="pad_shell" points="4480.205 3183.858 4489.205 3183.858 4489.205 3187.858 4480.205 3187.858" layerid="11" stroke-width="0" /><circle c_etype="pad_hole" cx="4484.705" cy="3185.858" r="1.5" layerid="11" stroke-width="0"/></g><g c_partid="part_via" c_etype="pinpart" c_shapetype="group" net="U2_17" c_origin="4373,3122.5" layerid="11" id="gge419" locked="0" solderexpansion=""><circle cx="4373" cy="3122.5" r="3.8" stroke-width="0" c_etype="pad_shell"/><circle cx="4373" cy="3122.5" r="1.5"  stroke-width="0" c_etype="pad_hole"/></g><g c_partid="part_via" c_etype="pinpart" c_shapetype="group" net="U2_17" c_origin="4413.5,3093.5" layerid="11" id="gge422" locked="0" solderexpansion=""><circle cx="4413.5" cy="3093.5" r="3.8" stroke-width="0" c_etype="pad_shell"/><circle cx="4413.5" cy="3093.5" r="1.5"  stroke-width="0" c_etype="pad_hole"/></g><g c_partid="part_via" c_etype="pinpart" c_shapetype="group" net="U2_27" c_origin="4520,3186" layerid="11" id="gge449" locked="0" solderexpansion=""><circle cx="4520" cy="3186" r="3.8" stroke-width="0" c_etype="pad_shell"/><circle cx="4520" cy="3186" r="1.5"  stroke-width="0" c_etype="pad_hole"/></g><g c_partid="part_via" c_etype="pinpart" c_shapetype="group" net="U2_27" c_origin="4561.5,3186.5" layerid="11" id="gge452" locked="0" solderexpansion=""><circle cx="4561.5" cy="3186.5" r="3.8" stroke-width="0" c_etype="pad_shell"/><circle cx="4561.5" cy="3186.5" r="1.5"  stroke-width="0" c_etype="pad_hole"/></g><g c_partid="part_hole" c_etype="pinpart" c_shapetype="group" c_origin="4304.11,3205.11" layerid="11" id="gge55" locked="0" ><circle cx="4304.11" cy="3205.11" r="5.9055"  stroke-width="0" /></g><g c_partid="part_hole" c_etype="pinpart" c_shapetype="group" c_origin="4304.11,3073.221" layerid="11" id="gge59" locked="0" ><circle cx="4304.11" cy="3073.221" r="5.9055"  stroke-width="0" /></g><g c_partid="part_hole" c_etype="pinpart" c_shapetype="group" c_origin="4129.898,3073.221" layerid="11" id="gge63" locked="0" ><circle cx="4129.898" cy="3073.221" r="5.9055"  stroke-width="0" /></g><g c_partid="part_hole" c_etype="pinpart" c_shapetype="group" c_origin="4129.898,3205.11" layerid="11" id="gge67" locked="0" ><circle cx="4129.898" cy="3205.11" r="5.9055"  stroke-width="0" /></g><polyline points="4114 3050 4569 3050 4569 3223 4114 3223 4114 3114 4114 3050" stroke-width="1"  stroke-linecap="round" fill="none" layerid="10" net="" id="gge418" locked="0" /></svg>