<svg xmlns="http://www.w3.org/2000/svg" xmlns:xlink="http://www.w3.org/1999/xlink" width="80.391mm" height="59.182mm" viewBox="4027 3028.5 316.5 233"><title></title><style type="text/css">
*[layerid="1"] {stroke:#FF0000;fill:#FF0000;}
*[layerid="2"] {stroke:#0000FF;fill:#0000FF;}
*[layerid="3"] {stroke:#FFCC00;fill:#FFCC00;}
*[layerid="4"] {stroke:#66CC33;fill:#66CC33;}
*[layerid="5"] {stroke:#808080;fill:#808080;}
*[layerid="6"] {stroke:#800000;fill:#800000;}
*[layerid="7"] {stroke:#800080;fill:#800080;stroke-opacity:0.7;fill-opacity:0.7;}
*[layerid="8"] {stroke:#AA00FF;fill:#AA00FF;stroke-opacity:0.7;fill-opacity:0.7;}
*[layerid="9"] {stroke:#6464FF;fill:#6464FF;}
*[layerid="10"] {stroke:#FF00FF;fill:#FF00FF;}
*[layerid="11"] {stroke:#C0C0C0;fill:#C0C0C0;}
*[layerid="12"] {stroke:#FFFFFF;fill:#FFFFFF;}
*[layerid="13"] {stroke:#33CC99;fill:#33CC99;}
*[layerid="14"] {stroke:#5555FF;fill:#5555FF;}
*[layerid="15"] {stroke:#F022F0;fill:#F022F0;}
*[layerid="19"] {stroke:#66CCFF;fill:#66CCFF;}
*[layerid="21"] {stroke:#999966;fill:#999966;}
*[layerid="22"] {stroke:#008000;fill:#008000;}
*[layerid="23"] {stroke:#00FF00;fill:#00FF00;}
*[layerid="24"] {stroke:#BC8E00;fill:#BC8E00;}
*[layerid="25"] {stroke:#70DBFA;fill:#70DBFA;}
*[layerid="26"] {stroke:#00CC66;fill:#00CC66;}
*[layerid="27"] {stroke:#9966FF;fill:#9966FF;}
*[layerid="28"] {stroke:#800080;fill:#800080;}
*[layerid="29"] {stroke:#008080;fill:#008080;}
*[layerid="30"] {stroke:#15935F;fill:#15935F;}
*[layerid="31"] {stroke:#000080;fill:#000080;}
*[layerid="32"] {stroke:#00B400;fill:#00B400;}
*[layerid="33"] {stroke:#2E4756;fill:#2E4756;}
*[layerid="34"] {stroke:#99842F;fill:#99842F;}
*[layerid="35"] {stroke:#FFFFAA;fill:#FFFFAA;}
*[layerid="36"] {stroke:#99842F;fill:#99842F;}
*[layerid="37"] {stroke:#2E4756;fill:#2E4756;}
*[layerid="38"] {stroke:#3535FF;fill:#3535FF;}
*[layerid="39"] {stroke:#8000BC;fill:#8000BC;}
*[layerid="40"] {stroke:#43AE5F;fill:#43AE5F;}
*[layerid="41"] {stroke:#C3ECCE;fill:#C3ECCE;}
*[layerid="42"] {stroke:#728978;fill:#728978;}
*[layerid="43"] {stroke:#39503F;fill:#39503F;}
*[layerid="44"] {stroke:#0C715D;fill:#0C715D;}
*[layerid="45"] {stroke:#5A8A80;fill:#5A8A80;}
*[layerid="46"] {stroke:#2B937E;fill:#2B937E;}
*[layerid="47"] {stroke:#23999D;fill:#23999D;}
*[layerid="48"] {stroke:#45B4E3;fill:#45B4E3;}
*[layerid="49"] {stroke:#215DA1;fill:#215DA1;}
*[layerid="50"] {stroke:#4564D7;fill:#4564D7;}
*[layerid="51"] {stroke:#6969E9;fill:#6969E9;}
*[layerid="52"] {stroke:#9069E9;fill:#9069E9;}
*[layerid="99"] {stroke:#00CCCC;fill:#00CCCC;}
*[layerid="100"] {stroke:#CC9999;fill:#CC9999;}
*[layerid="Hole"] {stroke:#222222;fill:#222222;}
*[layerid="DRCError"] {stroke:#FAD609;fill:#FAD609;}
*[fill="none"] {fill: none;}
*[stroke="none"] {stroke: none;}
path, polyline, polygon, line {stroke-linecap:round;}
g[c_partid="part_pad"][layerid="1"] ellipse:not([c_etype="pad_outer"]) {fill:#FF0000;}
g[c_partid="part_pad"][layerid="1"] polygon:not([c_etype="pad_outer"]) {fill:#FF0000;}
g[c_partid="part_pad"][layerid="1"] polyline:not([c_etype="pad_outer"]) {stroke:#FF0000;}
g[c_partid="part_pad"][layerid="2"] ellipse:not([c_etype="pad_outer"]) {fill:#0000FF;}
g[c_partid="part_pad"][layerid="2"] polygon:not([c_etype="pad_outer"]) {fill:#0000FF;}
g[c_partid="part_pad"][layerid="2"] polyline:not([c_etype="pad_outer"]) {stroke:#0000FF;}
g[c_partid="part_pad"][layerid="11"] ellipse:not([c_etype="pad_outer"]) {fill:#C0C0C0;}
g[c_partid="part_pad"][layerid="11"] polygon:not([c_etype="pad_outer"]) {fill:#C0C0C0;}
g[c_partid="part_pad"][layerid="11"] polyline:not([c_etype="pad_outer"]) {stroke:#C0C0C0;}
g[c_partid="part_pad"][layerid="11"] circle {fill:#222222;}
g[c_partid="part_pad"][layerid="11"] > polyline:nth-of-type(2) {stroke:#222222;}
g[c_partid="part_pad"][layerid="11"][c_shape="ELLIPSE"]  polyline:nth-last-of-type(1) {stroke:#222222;}
g[c_partid="part_pad"][layerid="11"][c_shape="RECT"]  polyline:nth-last-of-type(1) {stroke:#222222;}
g[c_partid="part_pad"][layerid="11"][c_shape="POLYGON"]  polyline:nth-last-of-type(1) {stroke:#222222;}
g[c_partid="part_via"] > * + circle, #gCurParts g[c_partid="part_via"] > * + circle {fill:#222222;}
g[c_partid="part_pad"] > polygon[c_etype="pad_outer"], #gCurParts g[c_partid="part_pad"] > polygon[c_etype="pad_outer"] {stroke-linejoin: miter;stroke-miterlimit: 100;}
g[c_partid="part_hole"] > circle {fill: #222222;}path, polyline, polygon {stroke-linejoin:round;}
rect, circle, ellipse, polyline, line, polygon, path {shape-rendering:crispEdges;}
</style>
<rect x="4027" y="3028.5" width="316.5" height="233" fill="#000000" stroke="none"/><polyline points="4156 3114 4147 3114 4132.5 3128.5 4118 3128.5" stroke-width="3"  stroke-linecap="round" fill="none" layerid="1" net="C2_1" id="gge2" locked="0" /><polyline points="4117 3165.5 4087 3165.5" stroke-width="3"  stroke-linecap="round" fill="none" layerid="1" net="MK2_8" id="gge3" locked="0" /><polyline points="4310.5 3211 4296.72 3211" stroke-width="3"  stroke-linecap="round" fill="none" layerid="1" net="KEY1_1" id="gge4" locked="0" /><polyline points="4149 3147.5 4149 3161.28" stroke-width="3"  stroke-linecap="round" fill="none" layerid="1" net="R1_1" id="gge624" locked="0" /><g c_partid="part_pad" c_etype="pinpart" c_origin="4310.5,3211" layerid="11" number="1" net="KEY1_1" plated ="Y"  id="gge569" locked="0" c_rotation="0" c_width="5.9055" c_height="5.9055" title="KEY1_1" c_shape="RECT" pasteexpansion="0" solderexpansion="0.4"><polygon  c_etype="pad_shell" points="4313.453 3208.047 4307.547 3208.047 4307.547 3213.953 4313.453 3213.953" layerid="11" stroke-width="0" /><circle c_etype="pad_hole" cx="4310.5" cy="3211" r="0.05" layerid="11" stroke-width="0"/></g><g c_partid="part_pad" c_etype="pinpart" c_origin="4296.72,3211" layerid="11" number="2" net="KEY1_1" plated ="Y"  id="gge573" locked="0" c_rotation="0" c_width="5.9055" c_height="5.9055" title="KEY1_1" c_shape="RECT" pasteexpansion="0" solderexpansion="0.4"><polygon  c_etype="pad_shell" points="4299.673 3208.047 4293.768 3208.047 4293.768 3213.953 4299.673 3213.953" layerid="11" stroke-width="0" /><circle c_etype="pad_hole" cx="4296.72" cy="3211" r="0.05" layerid="11" stroke-width="0"/></g><g c_partid="part_pad" c_etype="pinpart" c_origin="4149,3147.5" layerid="11" number="1" net="R1_1" plated ="Y"  id="gge615" locked="0" c_rotation="90" c_width="5.9055" c_height="5.9055" title="R1_1" c_shape="RECT" pasteexpansion="0" solderexpansion="0.4"><polygon  c_etype="pad_shell" points="4146.047 3144.547 4146.047 3150.453 4151.953 3150.453 4151.953 3144.547" layerid="11" stroke-width="0" /><circle c_etype="pad_hole" cx="4149" cy="3147.5" r="0.05" layerid="11" stroke-width="0"/></g><g c_partid="part_pad" c_etype="pinpart" c_origin="4149,3161.28" layerid="11" number="2" net="R1_1" plated ="Y"  id="gge609" locked="0" c_rotation="90" c_width="5.9055" c_height="5.9055" title="R1_1" c_shape="RECT" pasteexpansion="0" solderexpansion="0.4"><polygon  c_etype="pad_shell" points="4146.047 3158.327 4146.047 3164.232 4151.953 3164.232 4151.953 3158.327" layerid="11" stroke-width="0" /><circle c_etype="pad_hole" cx="4149" cy="3161.28" r="0.05" layerid="11" stroke-width="0"/></g><g c_partid="part_pad" c_etype="pinpart" c_origin="4101.579,3072" layerid="11" number="1" net="R4_1" plated ="Y"  id="gge31" locked="0" c_rotation="0" c_width="6" c_height="6" title="R4_1" c_shape="RECT" pasteexpansion="0" solderexpansion="0.4"><polygon  c_etype="pad_shell" points="4098.5787 3069 4104.5787 3069 4104.5787 3075 4098.5787 3075" layerid="11" stroke-width="0" /><circle c_etype="pad_hole" cx="4101.5787" cy="3072" r="1.7717" layerid="11" stroke-width="0"/></g><g c_partid="part_pad" c_etype="pinpart" c_origin="4111.421,3072" layerid="11" number="2" net="KEY1_1" plated ="Y"  id="gge36" locked="0" c_rotation="0" c_width="6" c_height="6" title="KEY1_1" c_shape="ELLIPSE" pasteexpansion="0" solderexpansion="0.4"><ellipse c_etype="pad_shell" cx="4111.421" cy="3072" rx="3" ry="3" layerid="11" stroke-width="0"/><circle c_etype="pad_hole" cx="4111.4213" cy="3072" r="1.7717" layerid="11" stroke-width="0"/></g><g c_partid="part_pad" c_etype="pinpart" c_origin="4163.5,3138.5" layerid="11" number="1" net="U2_1" plated ="Y"  id="gge111" locked="0" c_rotation="0" c_width="7" c_height="7" title="U2_1" c_shape="RECT" pasteexpansion="0" solderexpansion="0.4"><polygon  c_etype="pad_shell" points="4160 3135 4167 3135 4167 3142 4160 3142" layerid="11" stroke-width="0" /><circle c_etype="pad_hole" cx="4163.5" cy="3138.5" r="1.8" layerid="11" stroke-width="0"/></g><g c_partid="part_pad" c_etype="pinpart" c_origin="4173.5,3138.5" layerid="11" number="2" net="U2_2" plated ="Y"  id="gge116" locked="0" c_rotation="0" c_width="7" c_height="7" title="U2_2" c_shape="ELLIPSE" pasteexpansion="0" solderexpansion="0.4"><ellipse c_etype="pad_shell" cx="4173.5" cy="3138.5" rx="3.5" ry="3.5" layerid="11" stroke-width="0"/><circle c_etype="pad_hole" cx="4173.5" cy="3138.5" r="1.8" layerid="11" stroke-width="0"/></g><g c_partid="part_pad" c_etype="pinpart" c_origin="4183.5,3138.5" layerid="11" number="3" net="U2_3" plated ="Y"  id="gge121" locked="0" c_rotation="0" c_width="7" c_height="7" title="U2_3" c_shape="ELLIPSE" pasteexpansion="0" solderexpansion="0.4"><ellipse c_etype="pad_shell" cx="4183.5" cy="3138.5" rx="3.5" ry="3.5" layerid="11" stroke-width="0"/><circle c_etype="pad_hole" cx="4183.5" cy="3138.5" r="1.8" layerid="11" stroke-width="0"/></g><g c_partid="part_pad" c_etype="pinpart" c_origin="4193.5,3138.5" layerid="11" number="4" net="R1_1" plated ="Y"  id="gge126" locked="0" c_rotation="0" c_width="7" c_height="7" title="R1_1" c_shape="ELLIPSE" pasteexpansion="0" solderexpansion="0.4"><ellipse c_etype="pad_shell" cx="4193.5" cy="3138.5" rx="3.5" ry="3.5" layerid="11" stroke-width="0"/><circle c_etype="pad_hole" cx="4193.5" cy="3138.5" r="1.8" layerid="11" stroke-width="0"/></g><g c_partid="part_pad" c_etype="pinpart" c_origin="4203.5,3138.5" layerid="11" number="5" net="MK2_8" plated ="Y"  id="gge131" locked="0" c_rotation="0" c_width="7" c_height="7" title="MK2_8" c_shape="ELLIPSE" pasteexpansion="0" solderexpansion="0.4"><ellipse c_etype="pad_shell" cx="4203.5" cy="3138.5" rx="3.5" ry="3.5" layerid="11" stroke-width="0"/><circle c_etype="pad_hole" cx="4203.5" cy="3138.5" r="1.8" layerid="11" stroke-width="0"/></g><g c_partid="part_pad" c_etype="pinpart" c_origin="4213.5,3138.5" layerid="11" number="6" net="U2_6" plated ="Y"  id="gge136" locked="0" c_rotation="0" c_width="7" c_height="7" title="U2_6" c_shape="ELLIPSE" pasteexpansion="0" solderexpansion="0.4"><ellipse c_etype="pad_shell" cx="4213.5" cy="3138.5" rx="3.5" ry="3.5" layerid="11" stroke-width="0"/><circle c_etype="pad_hole" cx="4213.5" cy="3138.5" r="1.8" layerid="11" stroke-width="0"/></g><g c_partid="part_pad" c_etype="pinpart" c_origin="4223.5,3138.5" layerid="11" number="7" net="U2_7" plated ="Y"  id="gge141" locked="0" c_rotation="0" c_width="7" c_height="7" title="U2_7" c_shape="ELLIPSE" pasteexpansion="0" solderexpansion="0.4"><ellipse c_etype="pad_shell" cx="4223.5" cy="3138.5" rx="3.5" ry="3.5" layerid="11" stroke-width="0"/><circle c_etype="pad_hole" cx="4223.5" cy="3138.5" r="1.8" layerid="11" stroke-width="0"/></g><g c_partid="part_pad" c_etype="pinpart" c_origin="4233.5,3138.5" layerid="11" number="8" net="U2_8" plated ="Y"  id="gge146" locked="0" c_rotation="0" c_width="7" c_height="7" title="U2_8" c_shape="ELLIPSE" pasteexpansion="0" solderexpansion="0.4"><ellipse c_etype="pad_shell" cx="4233.5" cy="3138.5" rx="3.5" ry="3.5" layerid="11" stroke-width="0"/><circle c_etype="pad_hole" cx="4233.5" cy="3138.5" r="1.8" layerid="11" stroke-width="0"/></g><g c_partid="part_pad" c_etype="pinpart" c_origin="4243.5,3138.5" layerid="11" number="9" net="U2_9" plated ="Y"  id="gge151" locked="0" c_rotation="0" c_width="7" c_height="7" title="U2_9" c_shape="ELLIPSE" pasteexpansion="0" solderexpansion="0.4"><ellipse c_etype="pad_shell" cx="4243.5" cy="3138.5" rx="3.5" ry="3.5" layerid="11" stroke-width="0"/><circle c_etype="pad_hole" cx="4243.5" cy="3138.5" r="1.8" layerid="11" stroke-width="0"/></g><g c_partid="part_pad" c_etype="pinpart" c_origin="4253.5,3138.5" layerid="11" number="10" net="U2_10" plated ="Y"  id="gge156" locked="0" c_rotation="0" c_width="7" c_height="7" title="U2_10" c_shape="ELLIPSE" pasteexpansion="0" solderexpansion="0.4"><ellipse c_etype="pad_shell" cx="4253.5" cy="3138.5" rx="3.5" ry="3.5" layerid="11" stroke-width="0"/><circle c_etype="pad_hole" cx="4253.5" cy="3138.5" r="1.8" layerid="11" stroke-width="0"/></g><g c_partid="part_pad" c_etype="pinpart" c_origin="4263.5,3138.5" layerid="11" number="11" net="R1_2" plated ="Y"  id="gge161" locked="0" c_rotation="0" c_width="7" c_height="7" title="R1_2" c_shape="ELLIPSE" pasteexpansion="0" solderexpansion="0.4"><ellipse c_etype="pad_shell" cx="4263.5" cy="3138.5" rx="3.5" ry="3.5" layerid="11" stroke-width="0"/><circle c_etype="pad_hole" cx="4263.5" cy="3138.5" r="1.8" layerid="11" stroke-width="0"/></g><g c_partid="part_pad" c_etype="pinpart" c_origin="4273.5,3138.5" layerid="11" number="12" net="MK2_3" plated ="Y"  id="gge166" locked="0" c_rotation="0" c_width="7" c_height="7" title="MK2_3" c_shape="ELLIPSE" pasteexpansion="0" solderexpansion="0.4"><ellipse c_etype="pad_shell" cx="4273.5" cy="3138.5" rx="3.5" ry="3.5" layerid="11" stroke-width="0"/><circle c_etype="pad_hole" cx="4273.5" cy="3138.5" r="1.8" layerid="11" stroke-width="0"/></g><g c_partid="part_pad" c_etype="pinpart" c_origin="4283.5,3138.5" layerid="11" number="13" net="MK2_4" plated ="Y"  id="gge171" locked="0" c_rotation="0" c_width="7" c_height="7" title="MK2_4" c_shape="ELLIPSE" pasteexpansion="0" solderexpansion="0.4"><ellipse c_etype="pad_shell" cx="4283.5" cy="3138.5" rx="3.5" ry="3.5" layerid="11" stroke-width="0"/><circle c_etype="pad_hole" cx="4283.5" cy="3138.5" r="1.8" layerid="11" stroke-width="0"/></g><g c_partid="part_pad" c_etype="pinpart" c_origin="4293.5,3138.5" layerid="11" number="14" net="MK2_6" plated ="Y"  id="gge176" locked="0" c_rotation="0" c_width="7" c_height="7" title="MK2_6" c_shape="ELLIPSE" pasteexpansion="0" solderexpansion="0.4"><ellipse c_etype="pad_shell" cx="4293.5" cy="3138.5" rx="3.5" ry="3.5" layerid="11" stroke-width="0"/><circle c_etype="pad_hole" cx="4293.5" cy="3138.5" r="1.8" layerid="11" stroke-width="0"/></g><g c_partid="part_pad" c_etype="pinpart" c_origin="4303.5,3138.5" layerid="11" number="15" net="MK2_7" plated ="Y"  id="gge181" locked="0" c_rotation="0" c_width="7" c_height="7" title="MK2_7" c_shape="ELLIPSE" pasteexpansion="0" solderexpansion="0.4"><ellipse c_etype="pad_shell" cx="4303.5" cy="3138.5" rx="3.5" ry="3.5" layerid="11" stroke-width="0"/><circle c_etype="pad_hole" cx="4303.5" cy="3138.5" r="1.8" layerid="11" stroke-width="0"/></g><g c_partid="part_pad" c_etype="pinpart" c_origin="4163.5,3078.5" layerid="11" number="30" net="U2_30" plated ="Y"  id="gge186" locked="0" c_rotation="0" c_width="7" c_height="7" title="U2_30" c_shape="ELLIPSE" pasteexpansion="0" solderexpansion="0.4"><ellipse c_etype="pad_shell" cx="4163.5" cy="3078.5" rx="3.5" ry="3.5" layerid="11" stroke-width="0"/><circle c_etype="pad_hole" cx="4163.5" cy="3078.5" r="1.8" layerid="11" stroke-width="0"/></g><g c_partid="part_pad" c_etype="pinpart" c_origin="4173.5,3078.5" layerid="11" number="29" net="R4_2" plated ="Y"  id="gge191" locked="0" c_rotation="0" c_width="7" c_height="7" title="R4_2" c_shape="ELLIPSE" pasteexpansion="0" solderexpansion="0.4"><ellipse c_etype="pad_shell" cx="4173.5" cy="3078.5" rx="3.5" ry="3.5" layerid="11" stroke-width="0"/><circle c_etype="pad_hole" cx="4173.5" cy="3078.5" r="1.8" layerid="11" stroke-width="0"/></g><g c_partid="part_pad" c_etype="pinpart" c_origin="4183.5,3078.5" layerid="11" number="28" net="U2_28" plated ="Y"  id="gge196" locked="0" c_rotation="0" c_width="7" c_height="7" title="U2_28" c_shape="ELLIPSE" pasteexpansion="0" solderexpansion="0.4"><ellipse c_etype="pad_shell" cx="4183.5" cy="3078.5" rx="3.5" ry="3.5" layerid="11" stroke-width="0"/><circle c_etype="pad_hole" cx="4183.5" cy="3078.5" r="1.8" layerid="11" stroke-width="0"/></g><g c_partid="part_pad" c_etype="pinpart" c_origin="4193.5,3078.5" layerid="11" number="27" net="KEY1_1" plated ="Y"  id="gge201" locked="0" c_rotation="0" c_width="7" c_height="7" title="KEY1_1" c_shape="ELLIPSE" pasteexpansion="0" solderexpansion="0.4"><ellipse c_etype="pad_shell" cx="4193.5" cy="3078.5" rx="3.5" ry="3.5" layerid="11" stroke-width="0"/><circle c_etype="pad_hole" cx="4193.5" cy="3078.5" r="1.8" layerid="11" stroke-width="0"/></g><g c_partid="part_pad" c_etype="pinpart" c_origin="4203.5,3078.5" layerid="11" number="26" net="U2_26" plated ="Y"  id="gge206" locked="0" c_rotation="0" c_width="7" c_height="7" title="U2_26" c_shape="ELLIPSE" pasteexpansion="0" solderexpansion="0.4"><ellipse c_etype="pad_shell" cx="4203.5" cy="3078.5" rx="3.5" ry="3.5" layerid="11" stroke-width="0"/><circle c_etype="pad_hole" cx="4203.5" cy="3078.5" r="1.8" layerid="11" stroke-width="0"/></g><g c_partid="part_pad" c_etype="pinpart" c_origin="4213.5,3078.5" layerid="11" number="25" net="U2_25" plated ="Y"  id="gge211" locked="0" c_rotation="0" c_width="7" c_height="7" title="U2_25" c_shape="ELLIPSE" pasteexpansion="0" solderexpansion="0.4"><ellipse c_etype="pad_shell" cx="4213.5" cy="3078.5" rx="3.5" ry="3.5" layerid="11" stroke-width="0"/><circle c_etype="pad_hole" cx="4213.5" cy="3078.5" r="1.8" layerid="11" stroke-width="0"/></g><g c_partid="part_pad" c_etype="pinpart" c_origin="4223.5,3078.5" layerid="11" number="24" net="U2_24" plated ="Y"  id="gge216" locked="0" c_rotation="0" c_width="7" c_height="7" title="U2_24" c_shape="ELLIPSE" pasteexpansion="0" solderexpansion="0.4"><ellipse c_etype="pad_shell" cx="4223.5" cy="3078.5" rx="3.5" ry="3.5" layerid="11" stroke-width="0"/><circle c_etype="pad_hole" cx="4223.5" cy="3078.5" r="1.8" layerid="11" stroke-width="0"/></g><g c_partid="part_pad" c_etype="pinpart" c_origin="4233.5,3078.5" layerid="11" number="23" net="U2_23" plated ="Y"  id="gge221" locked="0" c_rotation="0" c_width="7" c_height="7" title="U2_23" c_shape="ELLIPSE" pasteexpansion="0" solderexpansion="0.4"><ellipse c_etype="pad_shell" cx="4233.5" cy="3078.5" rx="3.5" ry="3.5" layerid="11" stroke-width="0"/><circle c_etype="pad_hole" cx="4233.5" cy="3078.5" r="1.8" layerid="11" stroke-width="0"/></g><g c_partid="part_pad" c_etype="pinpart" c_origin="4243.5,3078.5" layerid="11" number="22" net="U2_22" plated ="Y"  id="gge226" locked="0" c_rotation="0" c_width="7" c_height="7" title="U2_22" c_shape="ELLIPSE" pasteexpansion="0" solderexpansion="0.4"><ellipse c_etype="pad_shell" cx="4243.5" cy="3078.5" rx="3.5" ry="3.5" layerid="11" stroke-width="0"/><circle c_etype="pad_hole" cx="4243.5" cy="3078.5" r="1.8" layerid="11" stroke-width="0"/></g><g c_partid="part_pad" c_etype="pinpart" c_origin="4253.5,3078.5" layerid="11" number="21" net="U2_21" plated ="Y"  id="gge231" locked="0" c_rotation="0" c_width="7" c_height="7" title="U2_21" c_shape="ELLIPSE" pasteexpansion="0" solderexpansion="0.4"><ellipse c_etype="pad_shell" cx="4253.5" cy="3078.5" rx="3.5" ry="3.5" layerid="11" stroke-width="0"/><circle c_etype="pad_hole" cx="4253.5" cy="3078.5" r="1.8" layerid="11" stroke-width="0"/></g><g c_partid="part_pad" c_etype="pinpart" c_origin="4263.5,3078.5" layerid="11" number="20" net="U2_20" plated ="Y"  id="gge236" locked="0" c_rotation="0" c_width="7" c_height="7" title="U2_20" c_shape="ELLIPSE" pasteexpansion="0" solderexpansion="0.4"><ellipse c_etype="pad_shell" cx="4263.5" cy="3078.5" rx="3.5" ry="3.5" layerid="11" stroke-width="0"/><circle c_etype="pad_hole" cx="4263.5" cy="3078.5" r="1.8" layerid="11" stroke-width="0"/></g><g c_partid="part_pad" c_etype="pinpart" c_origin="4273.5,3078.5" layerid="11" number="19" net="R4_1" plated ="Y"  id="gge241" locked="0" c_rotation="0" c_width="7" c_height="7" title="R4_1" c_shape="ELLIPSE" pasteexpansion="0" solderexpansion="0.4"><ellipse c_etype="pad_shell" cx="4273.5" cy="3078.5" rx="3.5" ry="3.5" layerid="11" stroke-width="0"/><circle c_etype="pad_hole" cx="4273.5" cy="3078.5" r="1.8" layerid="11" stroke-width="0"/></g><g c_partid="part_pad" c_etype="pinpart" c_origin="4283.5,3078.5" layerid="11" number="18" net="U2_18" plated ="Y"  id="gge246" locked="0" c_rotation="0" c_width="7" c_height="7" title="U2_18" c_shape="ELLIPSE" pasteexpansion="0" solderexpansion="0.4"><ellipse c_etype="pad_shell" cx="4283.5" cy="3078.5" rx="3.5" ry="3.5" layerid="11" stroke-width="0"/><circle c_etype="pad_hole" cx="4283.5" cy="3078.5" r="1.8" layerid="11" stroke-width="0"/></g><g c_partid="part_pad" c_etype="pinpart" c_origin="4293.5,3078.5" layerid="11" number="17" net="C2_1" plated ="Y"  id="gge251" locked="0" c_rotation="0" c_width="7" c_height="7" title="C2_1" c_shape="ELLIPSE" pasteexpansion="0" solderexpansion="0.4"><ellipse c_etype="pad_shell" cx="4293.5" cy="3078.5" rx="3.5" ry="3.5" layerid="11" stroke-width="0"/><circle c_etype="pad_hole" cx="4293.5" cy="3078.5" r="1.8" layerid="11" stroke-width="0"/></g><g c_partid="part_pad" c_etype="pinpart" c_origin="4303.5,3078.5" layerid="11" number="16" net="MK2_5" plated ="Y"  id="gge256" locked="0" c_rotation="0" c_width="7" c_height="7" title="MK2_5" c_shape="ELLIPSE" pasteexpansion="0" solderexpansion="0.4"><ellipse c_etype="pad_shell" cx="4303.5" cy="3078.5" rx="3.5" ry="3.5" layerid="11" stroke-width="0"/><circle c_etype="pad_hole" cx="4303.5" cy="3078.5" r="1.8" layerid="11" stroke-width="0"/></g><g c_partid="part_pad" c_etype="pinpart" c_origin="4116.99,3106.995" layerid="11" number="1" net="R1_1" plated ="Y"  id="gge271" locked="0" c_rotation="180" c_width="7.0866" c_height="7.0866" title="R1_1" c_shape="ELLIPSE" pasteexpansion="0" solderexpansion="0.4"><ellipse c_etype="pad_shell" cx="4116.99" cy="3106.995" rx="3.5433" ry="3.5433" layerid="11" stroke-width="0"/><circle c_etype="pad_hole" cx="4116.99" cy="3106.995" r="1.6" layerid="11" stroke-width="0"/></g><g c_partid="part_pad" c_etype="pinpart" c_origin="4117,3117.005" layerid="11" number="2" net="C2_1" plated ="Y"  id="gge276" locked="0" c_rotation="180" c_width="7.0866" c_height="7.0866" title="C2_1" c_shape="ELLIPSE" pasteexpansion="0" solderexpansion="0.4"><ellipse c_etype="pad_shell" cx="4117" cy="3117.005" rx="3.5433" ry="3.5433" layerid="11" stroke-width="0"/><circle c_etype="pad_hole" cx="4117" cy="3117.005" r="1.6" layerid="11" stroke-width="0"/></g><g c_partid="part_pad" c_etype="pinpart" c_origin="4107,3107.005" layerid="11" number="3" net="MK2_3" plated ="Y"  id="gge281" locked="0" c_rotation="180" c_width="7.0866" c_height="7.0866" title="MK2_3" c_shape="ELLIPSE" pasteexpansion="0" solderexpansion="0.4"><ellipse c_etype="pad_shell" cx="4107" cy="3107.005" rx="3.5433" ry="3.5433" layerid="11" stroke-width="0"/><circle c_etype="pad_hole" cx="4107" cy="3107.005" r="1.6" layerid="11" stroke-width="0"/></g><g c_partid="part_pad" c_etype="pinpart" c_origin="4107,3117.005" layerid="11" number="4" net="MK2_4" plated ="Y"  id="gge286" locked="0" c_rotation="180" c_width="7.0866" c_height="7.0866" title="MK2_4" c_shape="ELLIPSE" pasteexpansion="0" solderexpansion="0.4"><ellipse c_etype="pad_shell" cx="4107" cy="3117.005" rx="3.5433" ry="3.5433" layerid="11" stroke-width="0"/><circle c_etype="pad_hole" cx="4107" cy="3117.005" r="1.6" layerid="11" stroke-width="0"/></g><g c_partid="part_pad" c_etype="pinpart" c_origin="4097,3107.005" layerid="11" number="5" net="MK2_5" plated ="Y"  id="gge291" locked="0" c_rotation="180" c_width="7.0866" c_height="7.0866" title="MK2_5" c_shape="ELLIPSE" pasteexpansion="0" solderexpansion="0.4"><ellipse c_etype="pad_shell" cx="4097" cy="3107.005" rx="3.5433" ry="3.5433" layerid="11" stroke-width="0"/><circle c_etype="pad_hole" cx="4097" cy="3107.005" r="1.6" layerid="11" stroke-width="0"/></g><g c_partid="part_pad" c_etype="pinpart" c_origin="4097,3117.005" layerid="11" number="6" net="MK2_6" plated ="Y"  id="gge296" locked="0" c_rotation="180" c_width="7.0866" c_height="7.0866" title="MK2_6" c_shape="ELLIPSE" pasteexpansion="0" solderexpansion="0.4"><ellipse c_etype="pad_shell" cx="4097" cy="3117.005" rx="3.5433" ry="3.5433" layerid="11" stroke-width="0"/><circle c_etype="pad_hole" cx="4097" cy="3117.005" r="1.6" layerid="11" stroke-width="0"/></g><g c_partid="part_pad" c_etype="pinpart" c_origin="4087,3107.005" layerid="11" number="7" net="MK2_7" plated ="Y"  id="gge301" locked="0" c_rotation="180" c_width="7.0866" c_height="7.0866" title="MK2_7" c_shape="ELLIPSE" pasteexpansion="0" solderexpansion="0.4"><ellipse c_etype="pad_shell" cx="4087" cy="3107.005" rx="3.5433" ry="3.5433" layerid="11" stroke-width="0"/><circle c_etype="pad_hole" cx="4087" cy="3107.005" r="1.6" layerid="11" stroke-width="0"/></g><g c_partid="part_pad" c_etype="pinpart" c_origin="4087,3117.005" layerid="11" number="8" net="MK2_8" plated ="Y"  id="gge306" locked="0" c_rotation="180" c_width="7.0866" c_height="7.0866" title="MK2_8" c_shape="ELLIPSE" pasteexpansion="0" solderexpansion="0.4"><ellipse c_etype="pad_shell" cx="4087" cy="3117.005" rx="3.5433" ry="3.5433" layerid="11" stroke-width="0"/><circle c_etype="pad_hole" cx="4087" cy="3117.005" r="1.6" layerid="11" stroke-width="0"/></g><g c_partid="part_pad" c_etype="pinpart" c_origin="4202.5,3177.5" layerid="11" number="2" net="R1_1" plated ="Y"  id="gge322" locked="0" c_rotation="180" c_width="6" c_height="6" title="R1_1" c_shape="ELLIPSE" pasteexpansion="0" solderexpansion="0.4"><ellipse c_etype="pad_shell" cx="4202.5" cy="3177.5" rx="3" ry="3" layerid="11" stroke-width="0"/><circle c_etype="pad_hole" cx="4202.5" cy="3177.5" r="1.7717" layerid="11" stroke-width="0"/></g><g c_partid="part_pad" c_etype="pinpart" c_origin="4212.5,3177.5" layerid="11" number="1" net="LED3_1" plated ="Y"  id="gge327" locked="0" c_rotation="180" c_width="6" c_height="6" title="LED3_1" c_shape="ELLIPSE" pasteexpansion="0" solderexpansion="0.4"><ellipse c_etype="pad_shell" cx="4212.5" cy="3177.5" rx="3" ry="3" layerid="11" stroke-width="0"/><circle c_etype="pad_hole" cx="4212.5" cy="3177.5" r="1.7717" layerid="11" stroke-width="0"/></g><g c_partid="part_pad" c_etype="pinpart" c_origin="4182.5,3177.5" layerid="11" number="2" net="R1_1" plated ="Y"  id="gge343" locked="0" c_rotation="180" c_width="6" c_height="6" title="R1_1" c_shape="ELLIPSE" pasteexpansion="0" solderexpansion="0.4"><ellipse c_etype="pad_shell" cx="4182.5" cy="3177.5" rx="3" ry="3" layerid="11" stroke-width="0"/><circle c_etype="pad_hole" cx="4182.5" cy="3177.5" r="1.7717" layerid="11" stroke-width="0"/></g><g c_partid="part_pad" c_etype="pinpart" c_origin="4192.5,3177.5" layerid="11" number="1" net="LED2_1" plated ="Y"  id="gge348" locked="0" c_rotation="180" c_width="6" c_height="6" title="LED2_1" c_shape="ELLIPSE" pasteexpansion="0" solderexpansion="0.4"><ellipse c_etype="pad_shell" cx="4192.5" cy="3177.5" rx="3" ry="3" layerid="11" stroke-width="0"/><circle c_etype="pad_hole" cx="4192.5" cy="3177.5" r="1.7717" layerid="11" stroke-width="0"/></g><g c_partid="part_pad" c_etype="pinpart" c_origin="4162.5,3177.5" layerid="11" number="2" net="R1_1" plated ="Y"  id="gge364" locked="0" c_rotation="180" c_width="6" c_height="6" title="R1_1" c_shape="ELLIPSE" pasteexpansion="0" solderexpansion="0.4"><ellipse c_etype="pad_shell" cx="4162.5" cy="3177.5" rx="3" ry="3" layerid="11" stroke-width="0"/><circle c_etype="pad_hole" cx="4162.4999" cy="3177.5" r="1.7717" layerid="11" stroke-width="0"/></g><g c_partid="part_pad" c_etype="pinpart" c_origin="4172.5,3177.5" layerid="11" number="1" net="R6_2" plated ="Y"  id="gge369" locked="0" c_rotation="180" c_width="6" c_height="6" title="R6_2" c_shape="ELLIPSE" pasteexpansion="0" solderexpansion="0.4"><ellipse c_etype="pad_shell" cx="4172.5" cy="3177.5" rx="3" ry="3" layerid="11" stroke-width="0"/><circle c_etype="pad_hole" cx="4172.4999" cy="3177.5" r="1.7717" layerid="11" stroke-width="0"/></g><g c_partid="part_pad" c_etype="pinpart" c_origin="4222.5,3177.5" layerid="11" number="2" net="R1_1" plated ="Y"  id="gge385" locked="0" c_rotation="180" c_width="6" c_height="6" title="R1_1" c_shape="ELLIPSE" pasteexpansion="0" solderexpansion="0.4"><ellipse c_etype="pad_shell" cx="4222.5" cy="3177.5" rx="3" ry="3" layerid="11" stroke-width="0"/><circle c_etype="pad_hole" cx="4222.5" cy="3177.5" r="1.7717" layerid="11" stroke-width="0"/></g><g c_partid="part_pad" c_etype="pinpart" c_origin="4232.5,3177.5" layerid="11" number="1" net="R8_2" plated ="Y"  id="gge390" locked="0" c_rotation="180" c_width="6" c_height="6" title="R8_2" c_shape="ELLIPSE" pasteexpansion="0" solderexpansion="0.4"><ellipse c_etype="pad_shell" cx="4232.5" cy="3177.5" rx="3" ry="3" layerid="11" stroke-width="0"/><circle c_etype="pad_hole" cx="4232.5" cy="3177.5" r="1.7717" layerid="11" stroke-width="0"/></g><g c_partid="part_pad" c_etype="pinpart" c_origin="4242.5,3177.5" layerid="11" number="2" net="R1_1" plated ="Y"  id="gge406" locked="0" c_rotation="180" c_width="6" c_height="6" title="R1_1" c_shape="ELLIPSE" pasteexpansion="0" solderexpansion="0.4"><ellipse c_etype="pad_shell" cx="4242.5" cy="3177.5" rx="3" ry="3" layerid="11" stroke-width="0"/><circle c_etype="pad_hole" cx="4242.5" cy="3177.5" r="1.7717" layerid="11" stroke-width="0"/></g><g c_partid="part_pad" c_etype="pinpart" c_origin="4252.5,3177.5" layerid="11" number="1" net="R7_2" plated ="Y"  id="gge411" locked="0" c_rotation="180" c_width="6" c_height="6" title="R7_2" c_shape="ELLIPSE" pasteexpansion="0" solderexpansion="0.4"><ellipse c_etype="pad_shell" cx="4252.5" cy="3177.5" rx="3" ry="3" layerid="11" stroke-width="0"/><circle c_etype="pad_hole" cx="4252.5" cy="3177.5" r="1.7717" layerid="11" stroke-width="0"/></g><g c_partid="part_pad" c_etype="pinpart" c_origin="4121.563,3144" layerid="11" number="1" net="C2_1" plated ="Y"  id="gge425" locked="0" c_rotation="0" c_width="5.1181" c_height="5.1181" title="C2_1" c_shape="ELLIPSE" pasteexpansion="0" solderexpansion="0.4"><ellipse c_etype="pad_shell" cx="4121.563" cy="3144" rx="2.55905" ry="2.55905" layerid="11" stroke-width="0"/><circle c_etype="pad_hole" cx="4121.563" cy="3144" r="1.25" layerid="11" stroke-width="0"/></g><g c_partid="part_pad" c_etype="pinpart" c_origin="4129.437,3144" layerid="11" number="2" net="R1_1" plated ="Y"  id="gge430" locked="0" c_rotation="0" c_width="5.1181" c_height="5.1181" title="R1_1" c_shape="ELLIPSE" pasteexpansion="0" solderexpansion="0.4"><ellipse c_etype="pad_shell" cx="4129.437" cy="3144" rx="2.55905" ry="2.55905" layerid="11" stroke-width="0"/><circle c_etype="pad_hole" cx="4129.437" cy="3144" r="1.25" layerid="11" stroke-width="0"/></g><g c_partid="part_pad" c_etype="pinpart" c_origin="4258.142,3213.795" layerid="11" number="4" net="R1_2" plated ="Y"  id="gge443" locked="0" c_rotation="90" c_width="5.3" c_height="9" title="R1_2" c_shape="RECT" pasteexpansion="0" solderexpansion="0.4"><polygon  c_etype="pad_shell" points="4253.642 3216.445 4253.642 3211.145 4262.642 3211.145 4262.642 3216.445" layerid="11" stroke-width="0" /><circle c_etype="pad_hole" cx="4258.142" cy="3213.795" r="2.362" layerid="11" stroke-width="0"/></g><g c_partid="part_pad" c_etype="pinpart" c_origin="4258.142,3188.205" layerid="11" number="3" net="R1_2" plated ="Y"  id="gge445" locked="0" c_rotation="90" c_width="5.3" c_height="9" title="R1_2" c_shape="RECT" pasteexpansion="0" solderexpansion="0.4"><polygon  c_etype="pad_shell" points="4253.642 3190.855 4253.642 3185.555 4262.642 3185.555 4262.642 3190.855" layerid="11" stroke-width="0" /><circle c_etype="pad_hole" cx="4258.142" cy="3188.205" r="2.362" layerid="11" stroke-width="0"/></g><g c_partid="part_pad" c_etype="pinpart" c_origin="4275.858,3188.205" layerid="11" number="2" net="KEY1_1" plated ="Y"  id="gge447" locked="0" c_rotation="90" c_width="5.3" c_height="9" title="KEY1_1" c_shape="RECT" pasteexpansion="0" solderexpansion="0.4"><polygon  c_etype="pad_shell" points="4271.358 3190.855 4271.358 3185.555 4280.358 3185.555 4280.358 3190.855" layerid="11" stroke-width="0" /><circle c_etype="pad_hole" cx="4275.858" cy="3188.205" r="2.362" layerid="11" stroke-width="0"/></g><g c_partid="part_pad" c_etype="pinpart" c_origin="4275.858,3213.795" layerid="11" number="1" net="KEY1_1" plated ="Y"  id="gge449" locked="0" c_rotation="90" c_width="5.3" c_height="9" title="KEY1_1" c_shape="RECT" pasteexpansion="0" solderexpansion="0.4"><polygon  c_etype="pad_shell" points="4271.358 3216.445 4271.358 3211.145 4280.358 3211.145 4280.358 3216.445" layerid="11" stroke-width="0" /><circle c_etype="pad_hole" cx="4275.858" cy="3213.795" r="2.362" layerid="11" stroke-width="0"/></g><g c_partid="part_via" c_etype="pinpart" c_shapetype="group" net="C2_1" c_origin="4156,3114" layerid="11" id="gge557" locked="0" solderexpansion=""><circle cx="4156" cy="3114" r="3.8" stroke-width="0" c_etype="pad_shell"/><circle cx="4156" cy="3114" r="1.6"  stroke-width="0" c_etype="pad_hole"/></g><g c_partid="part_via" c_etype="pinpart" c_shapetype="group" net="C2_1" c_origin="4118,3128.5" layerid="11" id="gge560" locked="0" solderexpansion=""><circle cx="4118" cy="3128.5" r="3.8" stroke-width="0" c_etype="pad_shell"/><circle cx="4118" cy="3128.5" r="1.6"  stroke-width="0" c_etype="pad_hole"/></g><g c_partid="part_via" c_etype="pinpart" c_shapetype="group" net="MK2_8" c_origin="4117,3165.5" layerid="11" id="gge563" locked="0" solderexpansion=""><circle cx="4117" cy="3165.5" r="3.8" stroke-width="0" c_etype="pad_shell"/><circle cx="4117" cy="3165.5" r="1.6"  stroke-width="0" c_etype="pad_hole"/></g><g c_partid="part_via" c_etype="pinpart" c_shapetype="group" net="MK2_8" c_origin="4087,3165.5" layerid="11" id="gge566" locked="0" solderexpansion=""><circle cx="4087" cy="3165.5" r="3.8" stroke-width="0" c_etype="pad_shell"/><circle cx="4087" cy="3165.5" r="1.6"  stroke-width="0" c_etype="pad_hole"/></g><polyline points="4093.7051 3059.2046 4119.2949 3059.2047" stroke-width="1"  stroke-linecap="round" fill="none" layerid="3" net="" id="gge27" locked="0" /><polyline points="4119.2949 3059.2047 4119.2949 3084.7954" stroke-width="1"  stroke-linecap="round" fill="none" layerid="3" net="" id="gge28" locked="0" /><polyline points="4119.2949 3084.7953 4093.7051 3084.7954" stroke-width="1"  stroke-linecap="round" fill="none" layerid="3" net="" id="gge29" locked="0" /><polyline points="4093.7051 3084.7954 4093.7051 3059.2047" stroke-width="1"  stroke-linecap="round" fill="none" layerid="3" net="" id="gge30" locked="0" /><polyline points="4318.5 3143.5 4318.5 3073.5" stroke-width="1"  stroke-linecap="round" fill="none" layerid="3" net="" id="gge46" locked="0" /><polyline points="4318.5 3073.5 4148.5 3073.5" stroke-width="1"  stroke-linecap="round" fill="none" layerid="3" net="" id="gge47" locked="0" /><polyline points="4148.5 3073.5 4148.5 3143.5" stroke-width="1"  stroke-linecap="round" fill="none" layerid="3" net="" id="gge48" locked="0" /><polyline points="4148.5 3143.5 4318.5 3143.5" stroke-width="1"  stroke-linecap="round" fill="none" layerid="3" net="" id="gge49" locked="0" /><polyline points="4303.5 3123.5 4333.5 3123.5 4333.5 3093.5 4303.5 3093.5 4303.5 3123.5" stroke-width="1"  stroke-linecap="round" fill="none" layerid="3" net="" id="gge50" locked="0" /><polyline points="4124.467 3214.471 4124.467 3100.298" stroke-width="1"  stroke-linecap="round" fill="none" layerid="3" net="" id="gge266" locked="0" /><polyline points="4124.467 3214.471 4065.412 3214.471" stroke-width="1"  stroke-linecap="round" fill="none" layerid="3" net="" id="gge267" locked="0" /><polyline points="4065.412 3100.298 4065.412 3214.471" stroke-width="1"  stroke-linecap="round" fill="none" layerid="3" net="" id="gge268" locked="0" /><polyline points="4065.373 3100.298 4124.428 3100.298" stroke-width="1"  stroke-linecap="round" fill="none" layerid="3" net="" id="gge269" locked="0" /><polyline points="4122.496 3122.738 4081.551 3122.738 4081.551 3102.266 4122.496 3102.266 4122.496 3122.738" stroke-width="1"  stroke-linecap="round" fill="none" layerid="3" net="" id="gge270" locked="0" /><polyline points="4201.3189 3181.437 4201.3189 3181.2269" stroke-width="1"  stroke-linecap="round" fill="none" layerid="3" net="" id="gge318" locked="0" /><polyline points="4201.2424 3173.7496 4201.2424 3173.7983" stroke-width="1"  stroke-linecap="round" fill="none" layerid="3" net="" id="gge319" locked="0" /><polyline points="4210.2559 3183.0118 4210.2559 3181.0118" stroke-width="1"  stroke-linecap="round" fill="none" layerid="3" net="" id="gge320" locked="0" /><polyline points="4211.2559 3182.0118 4209.2559 3182.0118" stroke-width="1"  stroke-linecap="round" fill="none" layerid="3" net="" id="gge321" locked="0" /><polyline points="4181.3189 3181.437 4181.3189 3181.2269" stroke-width="1"  stroke-linecap="round" fill="none" layerid="3" net="" id="gge339" locked="0" /><polyline points="4181.2424 3173.7496 4181.2424 3173.7983" stroke-width="1"  stroke-linecap="round" fill="none" layerid="3" net="" id="gge340" locked="0" /><polyline points="4190.2559 3183.0118 4190.2559 3181.0118" stroke-width="1"  stroke-linecap="round" fill="none" layerid="3" net="" id="gge341" locked="0" /><polyline points="4191.2559 3182.0118 4189.2559 3182.0118" stroke-width="1"  stroke-linecap="round" fill="none" layerid="3" net="" id="gge342" locked="0" /><polyline points="4161.3188 3181.437 4161.3188 3181.2269" stroke-width="1"  stroke-linecap="round" fill="none" layerid="3" net="" id="gge360" locked="0" /><polyline points="4161.2423 3173.7496 4161.2423 3173.7983" stroke-width="1"  stroke-linecap="round" fill="none" layerid="3" net="" id="gge361" locked="0" /><polyline points="4170.2558 3183.0118 4170.2558 3181.0118" stroke-width="1"  stroke-linecap="round" fill="none" layerid="3" net="" id="gge362" locked="0" /><polyline points="4171.2558 3182.0118 4169.2558 3182.0118" stroke-width="1"  stroke-linecap="round" fill="none" layerid="3" net="" id="gge363" locked="0" /><polyline points="4221.3189 3181.437 4221.3189 3181.2269" stroke-width="1"  stroke-linecap="round" fill="none" layerid="3" net="" id="gge381" locked="0" /><polyline points="4221.2424 3173.7496 4221.2424 3173.7983" stroke-width="1"  stroke-linecap="round" fill="none" layerid="3" net="" id="gge382" locked="0" /><polyline points="4230.2559 3183.0118 4230.2559 3181.0118" stroke-width="1"  stroke-linecap="round" fill="none" layerid="3" net="" id="gge383" locked="0" /><polyline points="4231.2559 3182.0118 4229.2559 3182.0118" stroke-width="1"  stroke-linecap="round" fill="none" layerid="3" net="" id="gge384" locked="0" /><polyline points="4241.3189 3181.437 4241.3189 3181.2269" stroke-width="1"  stroke-linecap="round" fill="none" layerid="3" net="" id="gge402" locked="0" /><polyline points="4241.2424 3173.7496 4241.2424 3173.7983" stroke-width="1"  stroke-linecap="round" fill="none" layerid="3" net="" id="gge403" locked="0" /><polyline points="4250.2559 3183.0118 4250.2559 3181.0118" stroke-width="1"  stroke-linecap="round" fill="none" layerid="3" net="" id="gge404" locked="0" /><polyline points="4251.2559 3182.0118 4249.2559 3182.0118" stroke-width="1"  stroke-linecap="round" fill="none" layerid="3" net="" id="gge405" locked="0" /><polyline points="4119.531 3138.095 4123.531 3138.095" stroke-width="1"  stroke-linecap="round" fill="none" layerid="3" net="" id="gge421" locked="0" /><polyline points="4121.563 3136.126 4121.563 3140.126" stroke-width="1"  stroke-linecap="round" fill="none" layerid="3" net="" id="gge422" locked="0" /><polyline points="4255.184 3212.424 4278.408 3212.424 4278.408 3189.595 4255.184 3189.595 4255.184 3212.424" stroke-width="1"  stroke-linecap="round" fill="none" layerid="3" net="" id="gge442" locked="0" /><g c_partid="part_pcbtext" c_etype="" c_origin="4106.5,3060.065" c_rotation="0" c_mirror="0" id="gge23" locked="0" layerid="3" c_shapetype="group" ><path c_fontsize="4.5" c_fontfamily="" c_text="R5" d="M 4106.5 3053.91 L 4106.5 3058.21 M 4106.5 3053.91 L 4108.34 3053.91 L 4108.95 3054.11 L 4109.16 3054.32 L 4109.36 3054.73 L 4109.36 3055.14 L 4109.16 3055.55 L 4108.95 3055.75 L 4108.34 3055.96 L 4106.5 3055.96 M 4107.93 3055.96 L 4109.36 3058.21 M 4113.17 3053.91 L 4111.12 3053.91 L 4110.92 3055.75 L 4111.12 3055.55 L 4111.74 3055.34 L 4112.35 3055.34 L 4112.96 3055.55 L 4113.37 3055.96 L 4113.58 3056.57 L 4113.58 3056.98 L 4113.37 3057.59 L 4112.96 3058 L 4112.35 3058.21 L 4111.74 3058.21 L 4111.12 3058 L 4110.92 3057.8 L 4110.71 3057.39" fill="none"  stroke-width="0.6" c_note="note_pre" /></g><g c_partid="part_pcbtext" c_etype="" c_origin="4106.5,3054.565" c_rotation="0" c_mirror="0" id="gge25" locked="0" layerid="3" c_shapetype="group" display="none"><path c_fontsize="4.5" c_fontfamily="" c_text="Thermistor" d="M 4107.93 3048.41 L 4107.93 3052.71 M 4106.5 3048.41 L 4109.36 3048.41 M 4110.71 3048.41 L 4110.71 3052.71 M 4110.71 3050.66 L 4111.33 3050.05 L 4111.74 3049.84 L 4112.35 3049.84 L 4112.76 3050.05 L 4112.96 3050.66 L 4112.96 3052.71 M 4114.31 3051.07 L 4116.77 3051.07 L 4116.77 3050.66 L 4116.56 3050.25 L 4116.36 3050.05 L 4115.95 3049.84 L 4115.34 3049.84 L 4114.93 3050.05 L 4114.52 3050.46 L 4114.31 3051.07 L 4114.31 3051.48 L 4114.52 3052.09 L 4114.93 3052.5 L 4115.34 3052.71 L 4115.95 3052.71 L 4116.36 3052.5 L 4116.77 3052.09 M 4118.12 3049.84 L 4118.12 3052.71 M 4118.12 3051.07 L 4118.32 3050.46 L 4118.73 3050.05 L 4119.14 3049.84 L 4119.75 3049.84 M 4121.1 3049.84 L 4121.1 3052.71 M 4121.1 3050.66 L 4121.72 3050.05 L 4122.13 3049.84 L 4122.74 3049.84 L 4123.15 3050.05 L 4123.35 3050.66 L 4123.35 3052.71 M 4123.35 3050.66 L 4123.97 3050.05 L 4124.38 3049.84 L 4124.99 3049.84 L 4125.4 3050.05 L 4125.6 3050.66 L 4125.6 3052.71 M 4126.95 3048.41 L 4127.16 3048.61 L 4127.36 3048.41 L 4127.16 3048.21 L 4126.95 3048.41 M 4127.16 3049.84 L 4127.16 3052.71 M 4130.96 3050.46 L 4130.76 3050.05 L 4130.15 3049.84 L 4129.53 3049.84 L 4128.92 3050.05 L 4128.71 3050.46 L 4128.92 3050.86 L 4129.33 3051.07 L 4130.35 3051.27 L 4130.76 3051.48 L 4130.96 3051.89 L 4130.96 3052.09 L 4130.76 3052.5 L 4130.15 3052.71 L 4129.53 3052.71 L 4128.92 3052.5 L 4128.71 3052.09 M 4132.93 3048.41 L 4132.93 3051.89 L 4133.13 3052.5 L 4133.54 3052.71 L 4133.95 3052.71 M 4132.31 3049.84 L 4133.75 3049.84 M 4136.32 3049.84 L 4135.91 3050.05 L 4135.5 3050.46 L 4135.3 3051.07 L 4135.3 3051.48 L 4135.5 3052.09 L 4135.91 3052.5 L 4136.32 3052.71 L 4136.94 3052.71 L 4137.35 3052.5 L 4137.75 3052.09 L 4137.96 3051.48 L 4137.96 3051.07 L 4137.75 3050.46 L 4137.35 3050.05 L 4136.94 3049.84 L 4136.32 3049.84 M 4139.31 3049.84 L 4139.31 3052.71 M 4139.31 3051.07 L 4139.51 3050.46 L 4139.92 3050.05 L 4140.33 3049.84 L 4140.95 3049.84" fill="none"  stroke-width="0.6" c_note="note_name" /></g><g c_partid="part_pcbtext" c_etype="" c_origin="4149.36,3109.5" c_rotation="90" c_mirror="0" id="gge42" locked="0" layerid="3" c_shapetype="group" ><path c_fontsize="4.5" c_fontfamily="" c_text="U2" d="M 4143.21 3109.5 L 4146.27 3109.5 L 4146.89 3109.3 L 4147.3 3108.89 L 4147.5 3108.27 L 4147.5 3107.86 L 4147.3 3107.25 L 4146.89 3106.84 L 4146.27 3106.64 L 4143.21 3106.64 M 4144.23 3105.08 L 4144.02 3105.08 L 4143.61 3104.88 L 4143.41 3104.67 L 4143.21 3104.26 L 4143.21 3103.45 L 4143.41 3103.04 L 4143.61 3102.83 L 4144.02 3102.63 L 4144.43 3102.63 L 4144.84 3102.83 L 4145.46 3103.24 L 4147.5 3105.29 L 4147.5 3102.42" fill="none"  stroke-width="0.6" c_note="note_pre" /></g><g c_partid="part_pcbtext" c_etype="" c_origin="4143.86,3109.5" c_rotation="90" c_mirror="0" id="gge44" locked="0" layerid="3" c_shapetype="group" display="none"><path c_fontsize="4.5" c_fontfamily="" c_text="ARDUINO_NANO" d="M 4137.71 3107.86 L 4142 3109.5 M 4137.71 3107.86 L 4142 3106.23 M 4140.57 3108.89 L 4140.57 3106.84 M 4137.71 3104.88 L 4142 3104.88 M 4137.71 3104.88 L 4137.71 3103.04 L 4137.91 3102.42 L 4138.11 3102.22 L 4138.52 3102.01 L 4138.93 3102.01 L 4139.34 3102.22 L 4139.55 3102.42 L 4139.75 3103.04 L 4139.75 3104.88 M 4139.75 3103.45 L 4142 3102.01 M 4137.71 3100.66 L 4142 3100.66 M 4137.71 3100.66 L 4137.71 3099.23 L 4137.91 3098.62 L 4138.32 3098.21 L 4138.73 3098 L 4139.34 3097.8 L 4140.36 3097.8 L 4140.98 3098 L 4141.39 3098.21 L 4141.8 3098.62 L 4142 3099.23 L 4142 3100.66 M 4137.71 3096.45 L 4140.77 3096.45 L 4141.39 3096.25 L 4141.8 3095.84 L 4142 3095.22 L 4142 3094.81 L 4141.8 3094.2 L 4141.39 3093.79 L 4140.77 3093.59 L 4137.71 3093.59 M 4137.71 3092.24 L 4142 3092.24 M 4137.71 3090.89 L 4142 3090.89 M 4137.71 3090.89 L 4142 3088.02 M 4137.71 3088.02 L 4142 3088.02 M 4137.71 3085.45 L 4137.91 3085.85 L 4138.32 3086.26 L 4138.73 3086.47 L 4139.34 3086.67 L 4140.36 3086.67 L 4140.98 3086.47 L 4141.39 3086.26 L 4141.8 3085.85 L 4142 3085.45 L 4142 3084.63 L 4141.8 3084.22 L 4141.39 3083.81 L 4140.98 3083.6 L 4140.36 3083.4 L 4139.34 3083.4 L 4138.73 3083.6 L 4138.32 3083.81 L 4137.91 3084.22 L 4137.71 3084.63 L 4137.71 3085.45 M 4143.43 3082.05 L 4143.43 3078.37 M 4137.71 3077.02 L 4142 3077.02 M 4137.71 3077.02 L 4142 3074.15 M 4137.71 3074.15 L 4142 3074.15 M 4137.71 3071.17 L 4142 3072.8 M 4137.71 3071.17 L 4142 3069.53 M 4140.57 3072.19 L 4140.57 3070.15 M 4137.71 3068.18 L 4142 3068.18 M 4137.71 3068.18 L 4142 3065.32 M 4137.71 3065.32 L 4142 3065.32 M 4137.71 3062.74 L 4137.91 3063.15 L 4138.32 3063.56 L 4138.73 3063.76 L 4139.34 3063.97 L 4140.36 3063.97 L 4140.98 3063.76 L 4141.39 3063.56 L 4141.8 3063.15 L 4142 3062.74 L 4142 3061.92 L 4141.8 3061.51 L 4141.39 3061.1 L 4140.98 3060.9 L 4140.36 3060.7 L 4139.34 3060.7 L 4138.73 3060.9 L 4138.32 3061.1 L 4137.91 3061.51 L 4137.71 3061.92 L 4137.71 3062.74" fill="none"  stroke-width="0.6" c_note="note_name" /></g><g c_partid="part_pcbtext" c_etype="" c_origin="4162.41,3164.87" c_rotation="90" c_mirror="0" id="gge51" locked="0" layerid="3" c_shapetype="group" ><path c_fontsize="4" c_fontfamily="" c_text="D1/TX" d="M 4160.23 3164.87 L 4164.05 3164.87 M 4160.23 3164.87 L 4160.23 3163.6 L 4160.41 3163.05 L 4160.77 3162.69 L 4161.14 3162.51 L 4161.68 3162.32 L 4162.59 3162.32 L 4163.14 3162.51 L 4163.5 3162.69 L 4163.86 3163.05 L 4164.05 3163.6 L 4164.05 3164.87 M 4160.96 3161.12 L 4160.77 3160.76 L 4160.23 3160.22 L 4164.05 3160.22 M 4159.5 3155.74 L 4165.32 3159.02 M 4160.23 3153.27 L 4164.05 3153.27 M 4160.23 3154.54 L 4160.23 3152 M 4160.23 3150.8 L 4164.05 3148.25 M 4160.23 3148.25 L 4164.05 3150.8" fill="none"  stroke-width="0.8"  /></g><g c_partid="part_pcbtext" c_etype="" c_origin="4173.5,3067.5" c_rotation="90" c_mirror="0" id="gge53" locked="0" layerid="3" c_shapetype="group" ><path c_fontsize="4" c_fontfamily="" c_text="GND" d="M 4172.23 3064.77 L 4171.86 3064.95 L 4171.5 3065.32 L 4171.32 3065.68 L 4171.32 3066.41 L 4171.5 3066.77 L 4171.86 3067.14 L 4172.23 3067.32 L 4172.77 3067.5 L 4173.68 3067.5 L 4174.23 3067.32 L 4174.59 3067.14 L 4174.95 3066.77 L 4175.14 3066.41 L 4175.14 3065.68 L 4174.95 3065.32 L 4174.59 3064.95 L 4174.23 3064.77 L 4173.68 3064.77 M 4173.68 3065.68 L 4173.68 3064.77 M 4171.32 3063.57 L 4175.14 3063.57 M 4171.32 3063.57 L 4175.14 3061.03 M 4171.32 3061.03 L 4175.14 3061.03 M 4171.32 3059.83 L 4175.14 3059.83 M 4171.32 3059.83 L 4171.32 3058.55 L 4171.5 3058.01 L 4171.86 3057.65 L 4172.23 3057.46 L 4172.77 3057.28 L 4173.68 3057.28 L 4174.23 3057.46 L 4174.59 3057.65 L 4174.95 3058.01 L 4175.14 3058.55 L 4175.14 3059.83" fill="none"  stroke-width="0.8"  /></g><g c_partid="part_pcbtext" c_etype="" c_origin="4194.5,3067.5" c_rotation="90" c_mirror="0" id="gge55" locked="0" layerid="3" c_shapetype="group" ><path c_fontsize="4" c_fontfamily="" c_text="+5V" d="M 4192.86 3065.86 L 4196.14 3065.86 M 4194.5 3067.5 L 4194.5 3064.23 M 4192.32 3060.85 L 4192.32 3062.66 L 4193.95 3062.85 L 4193.77 3062.66 L 4193.59 3062.12 L 4193.59 3061.57 L 4193.77 3061.03 L 4194.14 3060.66 L 4194.68 3060.48 L 4195.05 3060.48 L 4195.59 3060.66 L 4195.95 3061.03 L 4196.14 3061.57 L 4196.14 3062.12 L 4195.95 3062.66 L 4195.77 3062.85 L 4195.41 3063.03 M 4192.32 3059.28 L 4196.14 3057.83 M 4192.32 3056.37 L 4196.14 3057.83" fill="none"  stroke-width="0.8"  /></g><g c_partid="part_pcbtext" c_etype="" c_origin="4303.5,3174.29" c_rotation="90" c_mirror="0" id="gge57" locked="0" layerid="3" c_shapetype="group" ><path c_fontsize="4" c_fontfamily="" c_text="D12/MISO" d="M 4301.32 3174.29 L 4305.14 3174.29 M 4301.32 3174.29 L 4301.32 3173.02 L 4301.5 3172.47 L 4301.86 3172.11 L 4302.23 3171.93 L 4302.77 3171.74 L 4303.68 3171.74 L 4304.23 3171.93 L 4304.59 3172.11 L 4304.95 3172.47 L 4305.14 3173.02 L 4305.14 3174.29 M 4302.05 3170.54 L 4301.86 3170.18 L 4301.32 3169.64 L 4305.14 3169.64 M 4302.23 3168.25 L 4302.05 3168.25 L 4301.68 3168.07 L 4301.5 3167.89 L 4301.32 3167.53 L 4301.32 3166.8 L 4301.5 3166.44 L 4301.68 3166.25 L 4302.05 3166.07 L 4302.41 3166.07 L 4302.77 3166.25 L 4303.32 3166.62 L 4305.14 3168.44 L 4305.14 3165.89 M 4300.59 3161.42 L 4306.41 3164.69 M 4301.32 3160.22 L 4305.14 3160.22 M 4301.32 3160.22 L 4305.14 3158.76 M 4301.32 3157.31 L 4305.14 3158.76 M 4301.32 3157.31 L 4305.14 3157.31 M 4301.32 3156.11 L 4305.14 3156.11 M 4301.86 3152.36 L 4301.5 3152.73 L 4301.32 3153.27 L 4301.32 3154 L 4301.5 3154.54 L 4301.86 3154.91 L 4302.23 3154.91 L 4302.59 3154.73 L 4302.77 3154.54 L 4302.95 3154.18 L 4303.32 3153.09 L 4303.5 3152.73 L 4303.68 3152.54 L 4304.05 3152.36 L 4304.59 3152.36 L 4304.95 3152.73 L 4305.14 3153.27 L 4305.14 3154 L 4304.95 3154.54 L 4304.59 3154.91 M 4301.32 3150.07 L 4301.5 3150.44 L 4301.86 3150.8 L 4302.23 3150.98 L 4302.77 3151.16 L 4303.68 3151.16 L 4304.23 3150.98 L 4304.59 3150.8 L 4304.95 3150.44 L 4305.14 3150.07 L 4305.14 3149.34 L 4304.95 3148.98 L 4304.59 3148.62 L 4304.23 3148.44 L 4303.68 3148.25 L 4302.77 3148.25 L 4302.23 3148.44 L 4301.86 3148.62 L 4301.5 3148.98 L 4301.32 3149.34 L 4301.32 3150.07" fill="none"  stroke-width="0.8"  /></g><g c_partid="part_pcbtext" c_etype="" c_origin="4163.5,3067.5" c_rotation="90" c_mirror="0" id="gge59" locked="0" layerid="3" c_shapetype="group" ><path c_fontsize="4" c_fontfamily="" c_text="VIN" d="M 4161.32 3067.5 L 4165.14 3066.05 M 4161.32 3064.59 L 4165.14 3066.05 M 4161.32 3063.39 L 4165.14 3063.39 M 4161.32 3062.19 L 4165.14 3062.19 M 4161.32 3062.19 L 4165.14 3059.65 M 4161.32 3059.65 L 4165.14 3059.65" fill="none"  stroke-width="0.8"  /></g><g c_partid="part_pcbtext" c_etype="" c_origin="4304.5,3067.5" c_rotation="90" c_mirror="0" id="gge61" locked="0" layerid="3" c_shapetype="group" ><path c_fontsize="4" c_fontfamily="" c_text="D13/SCK" d="M 4302.32 3067.5 L 4306.14 3067.5 M 4302.32 3067.5 L 4302.32 3066.23 L 4302.5 3065.68 L 4302.86 3065.32 L 4303.23 3065.14 L 4303.77 3064.95 L 4304.68 3064.95 L 4305.23 3065.14 L 4305.59 3065.32 L 4305.95 3065.68 L 4306.14 3066.23 L 4306.14 3067.5 M 4303.05 3063.75 L 4302.86 3063.39 L 4302.32 3062.85 L 4306.14 3062.85 M 4302.32 3061.28 L 4302.32 3059.28 L 4303.77 3060.37 L 4303.77 3059.83 L 4303.95 3059.46 L 4304.14 3059.28 L 4304.68 3059.1 L 4305.05 3059.1 L 4305.59 3059.28 L 4305.95 3059.65 L 4306.14 3060.19 L 4306.14 3060.74 L 4305.95 3061.28 L 4305.77 3061.46 L 4305.41 3061.65 M 4301.59 3054.63 L 4307.41 3057.9 M 4302.86 3050.88 L 4302.5 3051.25 L 4302.32 3051.79 L 4302.32 3052.52 L 4302.5 3053.06 L 4302.86 3053.43 L 4303.23 3053.43 L 4303.59 3053.25 L 4303.77 3053.06 L 4303.95 3052.7 L 4304.32 3051.61 L 4304.5 3051.25 L 4304.68 3051.06 L 4305.05 3050.88 L 4305.59 3050.88 L 4305.95 3051.25 L 4306.14 3051.79 L 4306.14 3052.52 L 4305.95 3053.06 L 4305.59 3053.43 M 4303.23 3046.95 L 4302.86 3047.14 L 4302.5 3047.5 L 4302.32 3047.86 L 4302.32 3048.59 L 4302.5 3048.95 L 4302.86 3049.32 L 4303.23 3049.5 L 4303.77 3049.68 L 4304.68 3049.68 L 4305.23 3049.5 L 4305.59 3049.32 L 4305.95 3048.95 L 4306.14 3048.59 L 4306.14 3047.86 L 4305.95 3047.5 L 4305.59 3047.14 L 4305.23 3046.95 M 4302.32 3045.75 L 4306.14 3045.75 M 4302.32 3043.21 L 4304.86 3045.75 M 4303.95 3044.85 L 4306.14 3043.21" fill="none"  stroke-width="0.8"  /></g><g c_partid="part_pcbtext" c_etype="" c_origin="4193.5,3158.47" c_rotation="90" c_mirror="0" id="gge63" locked="0" layerid="3" c_shapetype="group" ><path c_fontsize="4" c_fontfamily="" c_text="GND" d="M 4192.23 3155.74 L 4191.86 3155.92 L 4191.5 3156.29 L 4191.32 3156.65 L 4191.32 3157.38 L 4191.5 3157.74 L 4191.86 3158.11 L 4192.23 3158.29 L 4192.77 3158.47 L 4193.68 3158.47 L 4194.23 3158.29 L 4194.59 3158.11 L 4194.95 3157.74 L 4195.14 3157.38 L 4195.14 3156.65 L 4194.95 3156.29 L 4194.59 3155.92 L 4194.23 3155.74 L 4193.68 3155.74 M 4193.68 3156.65 L 4193.68 3155.74 M 4191.32 3154.54 L 4195.14 3154.54 M 4191.32 3154.54 L 4195.14 3152 M 4191.32 3152 L 4195.14 3152 M 4191.32 3150.8 L 4195.14 3150.8 M 4191.32 3150.8 L 4191.32 3149.52 L 4191.5 3148.98 L 4191.86 3148.62 L 4192.23 3148.43 L 4192.77 3148.25 L 4193.68 3148.25 L 4194.23 3148.43 L 4194.59 3148.62 L 4194.95 3148.98 L 4195.14 3149.52 L 4195.14 3150.8" fill="none"  stroke-width="0.8"  /></g><g c_partid="part_pcbtext" c_etype="" c_origin="4174.41,3166.5" c_rotation="90" c_mirror="0" id="gge65" locked="0" layerid="3" c_shapetype="group" ><path c_fontsize="4" c_fontfamily="" c_text="D0/RX" d="M 4172.23 3166.5 L 4176.05 3166.5 M 4172.23 3166.5 L 4172.23 3165.23 L 4172.41 3164.68 L 4172.77 3164.32 L 4173.14 3164.14 L 4173.68 3163.95 L 4174.59 3163.95 L 4175.14 3164.14 L 4175.5 3164.32 L 4175.86 3164.68 L 4176.05 3165.23 L 4176.05 3166.5 M 4172.23 3161.66 L 4172.41 3162.21 L 4172.96 3162.57 L 4173.86 3162.75 L 4174.41 3162.75 L 4175.32 3162.57 L 4175.86 3162.21 L 4176.05 3161.66 L 4176.05 3161.3 L 4175.86 3160.75 L 4175.32 3160.39 L 4174.41 3160.21 L 4173.86 3160.21 L 4172.96 3160.39 L 4172.41 3160.75 L 4172.23 3161.3 L 4172.23 3161.66 M 4171.5 3155.74 L 4177.32 3159.01 M 4172.23 3154.54 L 4176.05 3154.54 M 4172.23 3154.54 L 4172.23 3152.9 L 4172.41 3152.35 L 4172.59 3152.17 L 4172.96 3151.99 L 4173.32 3151.99 L 4173.68 3152.17 L 4173.86 3152.35 L 4174.05 3152.9 L 4174.05 3154.54 M 4174.05 3153.26 L 4176.05 3151.99 M 4172.23 3150.79 L 4176.05 3148.25 M 4172.23 3148.25 L 4176.05 3150.79" fill="none"  stroke-width="0.8"  /></g><g c_partid="part_pcbtext" c_etype="" c_origin="4183.68,3165.41" c_rotation="90" c_mirror="0" id="gge67" locked="0" layerid="3" c_shapetype="group" ><path c_fontsize="4" c_fontfamily="" c_text="RESET" d="M 4181.5 3165.41 L 4185.32 3165.41 M 4181.5 3165.41 L 4181.5 3163.77 L 4181.68 3163.23 L 4181.86 3163.05 L 4182.23 3162.86 L 4182.59 3162.86 L 4182.95 3163.05 L 4183.13 3163.23 L 4183.32 3163.77 L 4183.32 3165.41 M 4183.32 3164.14 L 4185.32 3162.86 M 4181.5 3161.66 L 4185.32 3161.66 M 4181.5 3161.66 L 4181.5 3159.3 M 4183.32 3161.66 L 4183.32 3160.21 M 4185.32 3161.66 L 4185.32 3159.3 M 4182.04 3155.56 L 4181.68 3155.92 L 4181.5 3156.46 L 4181.5 3157.19 L 4181.68 3157.74 L 4182.04 3158.1 L 4182.41 3158.1 L 4182.77 3157.92 L 4182.95 3157.74 L 4183.13 3157.37 L 4183.5 3156.28 L 4183.68 3155.92 L 4183.86 3155.74 L 4184.23 3155.56 L 4184.77 3155.56 L 4185.13 3155.92 L 4185.32 3156.46 L 4185.32 3157.19 L 4185.13 3157.74 L 4184.77 3158.1 M 4181.5 3154.36 L 4185.32 3154.36 M 4181.5 3154.36 L 4181.5 3151.99 M 4183.32 3154.36 L 4183.32 3152.9 M 4185.32 3154.36 L 4185.32 3151.99 M 4181.5 3149.52 L 4185.32 3149.52 M 4181.5 3150.79 L 4181.5 3148.25" fill="none"  stroke-width="0.8"  /></g><g c_partid="part_pcbtext" c_etype="" c_origin="4203.5,3154.54" c_rotation="90" c_mirror="0" id="gge69" locked="0" layerid="3" c_shapetype="group" ><path c_fontsize="4" c_fontfamily="" c_text="D2" d="M 4201.32 3154.54 L 4205.14 3154.54 M 4201.32 3154.54 L 4201.32 3153.27 L 4201.5 3152.72 L 4201.86 3152.36 L 4202.23 3152.18 L 4202.77 3151.99 L 4203.68 3151.99 L 4204.23 3152.18 L 4204.59 3152.36 L 4204.95 3152.72 L 4205.14 3153.27 L 4205.14 3154.54 M 4202.23 3150.61 L 4202.05 3150.61 L 4201.68 3150.43 L 4201.5 3150.25 L 4201.32 3149.89 L 4201.32 3149.16 L 4201.5 3148.79 L 4201.68 3148.61 L 4202.05 3148.43 L 4202.41 3148.43 L 4202.77 3148.61 L 4203.32 3148.98 L 4205.14 3150.79 L 4205.14 3148.25" fill="none"  stroke-width="0.8"  /></g><g c_partid="part_pcbtext" c_etype="" c_origin="4213.5,3154.54" c_rotation="90" c_mirror="0" id="gge71" locked="0" layerid="3" c_shapetype="group" ><path c_fontsize="4" c_fontfamily="" c_text="D3" d="M 4211.32 3154.54 L 4215.14 3154.54 M 4211.32 3154.54 L 4211.32 3153.27 L 4211.5 3152.72 L 4211.86 3152.36 L 4212.23 3152.18 L 4212.77 3151.99 L 4213.68 3151.99 L 4214.23 3152.18 L 4214.59 3152.36 L 4214.95 3152.72 L 4215.14 3153.27 L 4215.14 3154.54 M 4211.32 3150.43 L 4211.32 3148.43 L 4212.77 3149.52 L 4212.77 3148.98 L 4212.95 3148.61 L 4213.14 3148.43 L 4213.68 3148.25 L 4214.05 3148.25 L 4214.59 3148.43 L 4214.95 3148.79 L 4215.14 3149.34 L 4215.14 3149.89 L 4214.95 3150.43 L 4214.77 3150.61 L 4214.41 3150.79" fill="none"  stroke-width="0.8"  /></g><g c_partid="part_pcbtext" c_etype="" c_origin="4223.5,3154.72" c_rotation="90" c_mirror="0" id="gge73" locked="0" layerid="3" c_shapetype="group" ><path c_fontsize="4" c_fontfamily="" c_text="D4" d="M 4221.32 3154.72 L 4225.14 3154.72 M 4221.32 3154.72 L 4221.32 3153.45 L 4221.5 3152.9 L 4221.86 3152.54 L 4222.23 3152.36 L 4222.77 3152.17 L 4223.68 3152.17 L 4224.23 3152.36 L 4224.59 3152.54 L 4224.95 3152.9 L 4225.14 3153.45 L 4225.14 3154.72 M 4221.32 3149.16 L 4223.86 3150.97 L 4223.86 3148.25 M 4221.32 3149.16 L 4225.14 3149.16" fill="none"  stroke-width="0.8"  /></g><g c_partid="part_pcbtext" c_etype="" c_origin="4232.5,3154.54" c_rotation="90" c_mirror="0" id="gge75" locked="0" layerid="3" c_shapetype="group" ><path c_fontsize="4" c_fontfamily="" c_text="D5" d="M 4230.32 3154.54 L 4234.14 3154.54 M 4230.32 3154.54 L 4230.32 3153.27 L 4230.5 3152.72 L 4230.86 3152.36 L 4231.23 3152.18 L 4231.77 3151.99 L 4232.68 3151.99 L 4233.23 3152.18 L 4233.59 3152.36 L 4233.95 3152.72 L 4234.14 3153.27 L 4234.14 3154.54 M 4230.32 3148.61 L 4230.32 3150.43 L 4231.95 3150.61 L 4231.77 3150.43 L 4231.59 3149.89 L 4231.59 3149.34 L 4231.77 3148.79 L 4232.14 3148.43 L 4232.68 3148.25 L 4233.05 3148.25 L 4233.59 3148.43 L 4233.95 3148.79 L 4234.14 3149.34 L 4234.14 3149.89 L 4233.95 3150.43 L 4233.77 3150.61 L 4233.41 3150.79" fill="none"  stroke-width="0.8"  /></g><g c_partid="part_pcbtext" c_etype="" c_origin="4242.5,3154.36" c_rotation="90" c_mirror="0" id="gge77" locked="0" layerid="3" c_shapetype="group" ><path c_fontsize="4" c_fontfamily="" c_text="D6" d="M 4240.32 3154.36 L 4244.14 3154.36 M 4240.32 3154.36 L 4240.32 3153.09 L 4240.5 3152.54 L 4240.86 3152.18 L 4241.23 3152 L 4241.77 3151.81 L 4242.68 3151.81 L 4243.23 3152 L 4243.59 3152.18 L 4243.95 3152.54 L 4244.14 3153.09 L 4244.14 3154.36 M 4240.86 3148.43 L 4240.5 3148.61 L 4240.32 3149.16 L 4240.32 3149.52 L 4240.5 3150.07 L 4241.05 3150.43 L 4241.95 3150.61 L 4242.86 3150.61 L 4243.59 3150.43 L 4243.95 3150.07 L 4244.14 3149.52 L 4244.14 3149.34 L 4243.95 3148.8 L 4243.59 3148.43 L 4243.05 3148.25 L 4242.86 3148.25 L 4242.32 3148.43 L 4241.95 3148.8 L 4241.77 3149.34 L 4241.77 3149.52 L 4241.95 3150.07 L 4242.32 3150.43 L 4242.86 3150.61" fill="none"  stroke-width="0.8"  /></g><g c_partid="part_pcbtext" c_etype="" c_origin="4253.5,3154.54" c_rotation="90" c_mirror="0" id="gge79" locked="0" layerid="3" c_shapetype="group" ><path c_fontsize="4" c_fontfamily="" c_text="D7" d="M 4251.32 3154.54 L 4255.14 3154.54 M 4251.32 3154.54 L 4251.32 3153.27 L 4251.5 3152.72 L 4251.86 3152.36 L 4252.23 3152.18 L 4252.77 3151.99 L 4253.68 3151.99 L 4254.23 3152.18 L 4254.59 3152.36 L 4254.95 3152.72 L 4255.14 3153.27 L 4255.14 3154.54 M 4251.32 3148.25 L 4255.14 3150.07 M 4251.32 3150.79 L 4251.32 3148.25" fill="none"  stroke-width="0.8"  /></g><g c_partid="part_pcbtext" c_etype="" c_origin="4262.5,3154.54" c_rotation="90" c_mirror="0" id="gge81" locked="0" layerid="3" c_shapetype="group" ><path c_fontsize="4" c_fontfamily="" c_text="D8" d="M 4260.32 3154.54 L 4264.14 3154.54 M 4260.32 3154.54 L 4260.32 3153.27 L 4260.5 3152.72 L 4260.86 3152.36 L 4261.23 3152.18 L 4261.77 3151.99 L 4262.68 3151.99 L 4263.23 3152.18 L 4263.59 3152.36 L 4263.95 3152.72 L 4264.14 3153.27 L 4264.14 3154.54 M 4260.32 3149.89 L 4260.5 3150.43 L 4260.86 3150.61 L 4261.23 3150.61 L 4261.59 3150.43 L 4261.77 3150.07 L 4261.95 3149.34 L 4262.14 3148.79 L 4262.5 3148.43 L 4262.86 3148.25 L 4263.41 3148.25 L 4263.77 3148.43 L 4263.95 3148.61 L 4264.14 3149.16 L 4264.14 3149.89 L 4263.95 3150.43 L 4263.77 3150.61 L 4263.41 3150.79 L 4262.86 3150.79 L 4262.5 3150.61 L 4262.14 3150.25 L 4261.95 3149.7 L 4261.77 3148.98 L 4261.59 3148.61 L 4261.23 3148.43 L 4260.86 3148.43 L 4260.5 3148.61 L 4260.32 3149.16 L 4260.32 3149.89" fill="none"  stroke-width="0.8"  /></g><g c_partid="part_pcbtext" c_etype="" c_origin="4272.5,3154.36" c_rotation="90" c_mirror="0" id="gge83" locked="0" layerid="3" c_shapetype="group" ><path c_fontsize="4" c_fontfamily="" c_text="D9" d="M 4270.32 3154.36 L 4274.14 3154.36 M 4270.32 3154.36 L 4270.32 3153.09 L 4270.5 3152.54 L 4270.86 3152.18 L 4271.23 3152 L 4271.77 3151.81 L 4272.68 3151.81 L 4273.23 3152 L 4273.59 3152.18 L 4273.95 3152.54 L 4274.14 3153.09 L 4274.14 3154.36 M 4271.59 3148.25 L 4272.14 3148.43 L 4272.5 3148.8 L 4272.68 3149.34 L 4272.68 3149.52 L 4272.5 3150.07 L 4272.14 3150.43 L 4271.59 3150.61 L 4271.41 3150.61 L 4270.86 3150.43 L 4270.5 3150.07 L 4270.32 3149.52 L 4270.32 3149.34 L 4270.5 3148.8 L 4270.86 3148.43 L 4271.59 3148.25 L 4272.5 3148.25 L 4273.41 3148.43 L 4273.95 3148.8 L 4274.14 3149.34 L 4274.14 3149.71 L 4273.95 3150.25 L 4273.59 3150.43" fill="none"  stroke-width="0.8"  /></g><g c_partid="part_pcbtext" c_etype="" c_origin="4283.5,3156.65" c_rotation="90" c_mirror="0" id="gge85" locked="0" layerid="3" c_shapetype="group" ><path c_fontsize="4" c_fontfamily="" c_text="D10" d="M 4281.32 3156.65 L 4285.14 3156.65 M 4281.32 3156.65 L 4281.32 3155.38 L 4281.5 3154.83 L 4281.86 3154.47 L 4282.23 3154.29 L 4282.77 3154.1 L 4283.68 3154.1 L 4284.23 3154.29 L 4284.59 3154.47 L 4284.95 3154.83 L 4285.14 3155.38 L 4285.14 3156.65 M 4282.05 3152.9 L 4281.86 3152.54 L 4281.32 3152 L 4285.14 3152 M 4281.32 3149.7 L 4281.5 3150.25 L 4282.05 3150.61 L 4282.95 3150.8 L 4283.5 3150.8 L 4284.41 3150.61 L 4284.95 3150.25 L 4285.14 3149.7 L 4285.14 3149.34 L 4284.95 3148.8 L 4284.41 3148.43 L 4283.5 3148.25 L 4282.95 3148.25 L 4282.05 3148.43 L 4281.5 3148.8 L 4281.32 3149.34 L 4281.32 3149.7" fill="none"  stroke-width="0.8"  /></g><g c_partid="part_pcbtext" c_etype="" c_origin="4292.5,3172.65" c_rotation="90" c_mirror="0" id="gge87" locked="0" layerid="3" c_shapetype="group" ><path c_fontsize="4" c_fontfamily="" c_text="D11/MOSI" d="M 4290.32 3172.65 L 4294.14 3172.65 M 4290.32 3172.65 L 4290.32 3171.38 L 4290.5 3170.83 L 4290.86 3170.47 L 4291.23 3170.29 L 4291.77 3170.1 L 4292.68 3170.1 L 4293.23 3170.29 L 4293.59 3170.47 L 4293.95 3170.83 L 4294.14 3171.38 L 4294.14 3172.65 M 4291.05 3168.9 L 4290.86 3168.54 L 4290.32 3168 L 4294.14 3168 M 4291.05 3166.8 L 4290.86 3166.43 L 4290.32 3165.89 L 4294.14 3165.89 M 4289.59 3161.41 L 4295.41 3164.69 M 4290.32 3160.21 L 4294.14 3160.21 M 4290.32 3160.21 L 4294.14 3158.76 M 4290.32 3157.3 L 4294.14 3158.76 M 4290.32 3157.3 L 4294.14 3157.3 M 4290.32 3155.01 L 4290.5 3155.38 L 4290.86 3155.74 L 4291.23 3155.92 L 4291.77 3156.1 L 4292.68 3156.1 L 4293.23 3155.92 L 4293.59 3155.74 L 4293.95 3155.38 L 4294.14 3155.01 L 4294.14 3154.29 L 4293.95 3153.92 L 4293.59 3153.56 L 4293.23 3153.38 L 4292.68 3153.2 L 4291.77 3153.2 L 4291.23 3153.38 L 4290.86 3153.56 L 4290.5 3153.92 L 4290.32 3154.29 L 4290.32 3155.01 M 4290.86 3149.45 L 4290.5 3149.81 L 4290.32 3150.36 L 4290.32 3151.09 L 4290.5 3151.63 L 4290.86 3152 L 4291.23 3152 L 4291.59 3151.81 L 4291.77 3151.63 L 4291.95 3151.27 L 4292.32 3150.18 L 4292.5 3149.81 L 4292.68 3149.63 L 4293.05 3149.45 L 4293.59 3149.45 L 4293.95 3149.81 L 4294.14 3150.36 L 4294.14 3151.09 L 4293.95 3151.63 L 4293.59 3152 M 4290.32 3148.25 L 4294.14 3148.25" fill="none"  stroke-width="0.8"  /></g><g c_partid="part_pcbtext" c_etype="" c_origin="4294.5,3067.5" c_rotation="90" c_mirror="0" id="gge89" locked="0" layerid="3" c_shapetype="group" ><path c_fontsize="4" c_fontfamily="" c_text="3V3" d="M 4292.32 3067.14 L 4292.32 3065.14 L 4293.77 3066.23 L 4293.77 3065.68 L 4293.95 3065.32 L 4294.14 3065.14 L 4294.68 3064.95 L 4295.05 3064.95 L 4295.59 3065.14 L 4295.95 3065.5 L 4296.14 3066.05 L 4296.14 3066.59 L 4295.95 3067.14 L 4295.77 3067.32 L 4295.41 3067.5 M 4292.32 3063.75 L 4296.14 3062.3 M 4292.32 3060.85 L 4296.14 3062.3 M 4292.32 3059.28 L 4292.32 3057.28 L 4293.77 3058.37 L 4293.77 3057.83 L 4293.95 3057.46 L 4294.14 3057.28 L 4294.68 3057.1 L 4295.05 3057.1 L 4295.59 3057.28 L 4295.95 3057.65 L 4296.14 3058.19 L 4296.14 3058.74 L 4295.95 3059.28 L 4295.77 3059.46 L 4295.41 3059.65" fill="none"  stroke-width="0.8"  /></g><g c_partid="part_pcbtext" c_etype="" c_origin="4283.5,3067.5" c_rotation="90" c_mirror="0" id="gge91" locked="0" layerid="3" c_shapetype="group" ><path c_fontsize="4" c_fontfamily="" c_text="AREF" d="M 4281.32 3066.05 L 4285.14 3067.5 M 4281.32 3066.05 L 4285.14 3064.59 M 4283.86 3066.95 L 4283.86 3065.14 M 4281.32 3063.39 L 4285.14 3063.39 M 4281.32 3063.39 L 4281.32 3061.75 L 4281.5 3061.21 L 4281.68 3061.03 L 4282.05 3060.85 L 4282.41 3060.85 L 4282.77 3061.03 L 4282.95 3061.21 L 4283.14 3061.75 L 4283.14 3063.39 M 4283.14 3062.12 L 4285.14 3060.85 M 4281.32 3059.65 L 4285.14 3059.65 M 4281.32 3059.65 L 4281.32 3057.28 M 4283.14 3059.65 L 4283.14 3058.19 M 4285.14 3059.65 L 4285.14 3057.28 M 4281.32 3056.08 L 4285.14 3056.08 M 4281.32 3056.08 L 4281.32 3053.72 M 4283.14 3056.08 L 4283.14 3054.63" fill="none"  stroke-width="0.8"  /></g><g c_partid="part_pcbtext" c_etype="" c_origin="4274.5,3067.5" c_rotation="90" c_mirror="0" id="gge93" locked="0" layerid="3" c_shapetype="group" ><path c_fontsize="4" c_fontfamily="" c_text="A0" d="M 4272.32 3066.05 L 4276.14 3067.5 M 4272.32 3066.05 L 4276.14 3064.59 M 4274.86 3066.95 L 4274.86 3065.14 M 4272.32 3062.3 L 4272.5 3062.85 L 4273.05 3063.21 L 4273.95 3063.39 L 4274.5 3063.39 L 4275.41 3063.21 L 4275.95 3062.85 L 4276.14 3062.3 L 4276.14 3061.94 L 4275.95 3061.39 L 4275.41 3061.03 L 4274.5 3060.85 L 4273.95 3060.85 L 4273.05 3061.03 L 4272.5 3061.39 L 4272.32 3061.94 L 4272.32 3062.3" fill="none"  stroke-width="0.8"  /></g><g c_partid="part_pcbtext" c_etype="" c_origin="4263.5,3067.5" c_rotation="90" c_mirror="0" id="gge95" locked="0" layerid="3" c_shapetype="group" ><path c_fontsize="4" c_fontfamily="" c_text="A1" d="M 4261.32 3066.05 L 4265.14 3067.5 M 4261.32 3066.05 L 4265.14 3064.59 M 4263.86 3066.95 L 4263.86 3065.14 M 4262.05 3063.39 L 4261.86 3063.03 L 4261.32 3062.48 L 4265.14 3062.48" fill="none"  stroke-width="0.8"  /></g><g c_partid="part_pcbtext" c_etype="" c_origin="4254.5,3067.5" c_rotation="90" c_mirror="0" id="gge97" locked="0" layerid="3" c_shapetype="group" ><path c_fontsize="4" c_fontfamily="" c_text="A2" d="M 4252.32 3066.05 L 4256.14 3067.5 M 4252.32 3066.05 L 4256.14 3064.59 M 4254.86 3066.95 L 4254.86 3065.14 M 4253.23 3063.21 L 4253.05 3063.21 L 4252.68 3063.03 L 4252.5 3062.85 L 4252.32 3062.48 L 4252.32 3061.75 L 4252.5 3061.39 L 4252.68 3061.21 L 4253.05 3061.03 L 4253.41 3061.03 L 4253.77 3061.21 L 4254.32 3061.57 L 4256.14 3063.39 L 4256.14 3060.85" fill="none"  stroke-width="0.8"  /></g><g c_partid="part_pcbtext" c_etype="" c_origin="4243.5,3067.5" c_rotation="90" c_mirror="0" id="gge99" locked="0" layerid="3" c_shapetype="group" ><path c_fontsize="4" c_fontfamily="" c_text="A3" d="M 4241.32 3066.05 L 4245.14 3067.5 M 4241.32 3066.05 L 4245.14 3064.59 M 4243.86 3066.95 L 4243.86 3065.14 M 4241.32 3063.03 L 4241.32 3061.03 L 4242.77 3062.12 L 4242.77 3061.57 L 4242.95 3061.21 L 4243.14 3061.03 L 4243.68 3060.85 L 4244.05 3060.85 L 4244.59 3061.03 L 4244.95 3061.39 L 4245.14 3061.94 L 4245.14 3062.48 L 4244.95 3063.03 L 4244.77 3063.21 L 4244.41 3063.39" fill="none"  stroke-width="0.8"  /></g><g c_partid="part_pcbtext" c_etype="" c_origin="4233.5,3067.5" c_rotation="90" c_mirror="0" id="gge101" locked="0" layerid="3" c_shapetype="group" ><path c_fontsize="4" c_fontfamily="" c_text="A4" d="M 4231.32 3066.05 L 4235.14 3067.5 M 4231.32 3066.05 L 4235.14 3064.59 M 4233.86 3066.95 L 4233.86 3065.14 M 4231.32 3061.57 L 4233.86 3063.39 L 4233.86 3060.66 M 4231.32 3061.57 L 4235.14 3061.57" fill="none"  stroke-width="0.8"  /></g><g c_partid="part_pcbtext" c_etype="" c_origin="4223.5,3067.5" c_rotation="90" c_mirror="0" id="gge103" locked="0" layerid="3" c_shapetype="group" ><path c_fontsize="4" c_fontfamily="" c_text="A5" d="M 4221.32 3066.05 L 4225.14 3067.5 M 4221.32 3066.05 L 4225.14 3064.59 M 4223.86 3066.95 L 4223.86 3065.14 M 4221.32 3061.21 L 4221.32 3063.03 L 4222.95 3063.21 L 4222.77 3063.03 L 4222.59 3062.48 L 4222.59 3061.94 L 4222.77 3061.39 L 4223.14 3061.03 L 4223.68 3060.85 L 4224.05 3060.85 L 4224.59 3061.03 L 4224.95 3061.39 L 4225.14 3061.94 L 4225.14 3062.48 L 4224.95 3063.03 L 4224.77 3063.21 L 4224.41 3063.39" fill="none"  stroke-width="0.8"  /></g><g c_partid="part_pcbtext" c_etype="" c_origin="4214.5,3067.5" c_rotation="90" c_mirror="0" id="gge105" locked="0" layerid="3" c_shapetype="group" ><path c_fontsize="4" c_fontfamily="" c_text="A6" d="M 4212.32 3066.05 L 4216.14 3067.5 M 4212.32 3066.05 L 4216.14 3064.59 M 4214.86 3066.95 L 4214.86 3065.14 M 4212.86 3061.21 L 4212.5 3061.39 L 4212.32 3061.94 L 4212.32 3062.3 L 4212.5 3062.85 L 4213.05 3063.21 L 4213.95 3063.39 L 4214.86 3063.39 L 4215.59 3063.21 L 4215.95 3062.85 L 4216.14 3062.3 L 4216.14 3062.12 L 4215.95 3061.57 L 4215.59 3061.21 L 4215.05 3061.03 L 4214.86 3061.03 L 4214.32 3061.21 L 4213.95 3061.57 L 4213.77 3062.12 L 4213.77 3062.3 L 4213.95 3062.85 L 4214.32 3063.21 L 4214.86 3063.39" fill="none"  stroke-width="0.8"  /></g><g c_partid="part_pcbtext" c_etype="" c_origin="4203.5,3067.5" c_rotation="90" c_mirror="0" id="gge107" locked="0" layerid="3" c_shapetype="group" ><path c_fontsize="4" c_fontfamily="" c_text="A7" d="M 4201.32 3066.05 L 4205.14 3067.5 M 4201.32 3066.05 L 4205.14 3064.59 M 4203.86 3066.95 L 4203.86 3065.14 M 4201.32 3060.85 L 4205.14 3062.66 M 4201.32 3063.39 L 4201.32 3060.85" fill="none"  stroke-width="0.8"  /></g><g c_partid="part_pcbtext" c_etype="" c_origin="4183.5,3067.5" c_rotation="90" c_mirror="0" id="gge109" locked="0" layerid="3" c_shapetype="group" ><path c_fontsize="4" c_fontfamily="" c_text="RESET" d="M 4181.32 3067.5 L 4185.14 3067.5 M 4181.32 3067.5 L 4181.32 3065.86 L 4181.5 3065.32 L 4181.68 3065.14 L 4182.05 3064.95 L 4182.41 3064.95 L 4182.77 3065.14 L 4182.95 3065.32 L 4183.14 3065.86 L 4183.14 3067.5 M 4183.14 3066.23 L 4185.14 3064.95 M 4181.32 3063.75 L 4185.14 3063.75 M 4181.32 3063.75 L 4181.32 3061.39 M 4183.14 3063.75 L 4183.14 3062.3 M 4185.14 3063.75 L 4185.14 3061.39 M 4181.86 3057.65 L 4181.5 3058.01 L 4181.32 3058.55 L 4181.32 3059.28 L 4181.5 3059.83 L 4181.86 3060.19 L 4182.23 3060.19 L 4182.59 3060.01 L 4182.77 3059.83 L 4182.95 3059.46 L 4183.32 3058.37 L 4183.5 3058.01 L 4183.68 3057.83 L 4184.05 3057.65 L 4184.59 3057.65 L 4184.95 3058.01 L 4185.14 3058.55 L 4185.14 3059.28 L 4184.95 3059.83 L 4184.59 3060.19 M 4181.32 3056.45 L 4185.14 3056.45 M 4181.32 3056.45 L 4181.32 3054.08 M 4183.14 3056.45 L 4183.14 3054.99 M 4185.14 3056.45 L 4185.14 3054.08 M 4181.32 3051.61 L 4185.14 3051.61 M 4181.32 3052.88 L 4181.32 3050.34" fill="none"  stroke-width="0.8"  /></g><g c_partid="part_pcbtext" c_etype="" c_origin="4083.24,3221.619" c_rotation="0" c_mirror="0" id="gge262" locked="0" layerid="3" c_shapetype="group" ><path c_fontsize="4.5" c_fontfamily="" c_text="MK2" d="M 4083.2399 3215.465 L 4083.2399 3219.765 M 4083.2399 3215.465 L 4084.8799 3219.765 M 4086.5099 3215.465 L 4084.8799 3219.765 M 4086.5099 3215.465 L 4086.5099 3219.765 M 4087.8599 3215.465 L 4087.8599 3219.765 M 4090.7299 3215.465 L 4087.8599 3218.325 M 4088.8899 3217.305 L 4090.7299 3219.765 M 4092.2799 3216.485 L 4092.2799 3216.285 L 4092.4899 3215.875 L 4092.6899 3215.665 L 4093.0999 3215.465 L 4093.9199 3215.465 L 4094.3299 3215.665 L 4094.5299 3215.875 L 4094.7399 3216.285 L 4094.7399 3216.695 L 4094.5299 3217.105 L 4094.1199 3217.715 L 4092.0799 3219.765 L 4094.9399 3219.765" fill="none"  stroke-width="0.6" c_note="note_pre" /></g><g c_partid="part_pcbtext" c_etype="" c_origin="4094.94,3219.111" c_rotation="180" c_mirror="0" id="gge264" locked="0" layerid="3" c_shapetype="group" display="none"><path c_fontsize="4.5" c_fontfamily="" c_text="NRF24L01+" d="M 4094.94 3225.265 L 4094.94 3220.965 M 4094.94 3225.265 L 4092.08 3220.965 M 4092.08 3225.265 L 4092.08 3220.965 M 4090.73 3225.265 L 4090.73 3220.965 M 4090.73 3225.265 L 4088.89 3225.265 L 4088.27 3225.065 L 4088.07 3224.855 L 4087.86 3224.445 L 4087.86 3224.035 L 4088.07 3223.625 L 4088.27 3223.425 L 4088.89 3223.215 L 4090.73 3223.215 M 4089.29 3223.215 L 4087.86 3220.965 M 4086.51 3225.265 L 4086.51 3220.965 M 4086.51 3225.265 L 4083.85 3225.265 M 4086.51 3223.215 L 4084.88 3223.215 M 4082.3 3224.245 L 4082.3 3224.445 L 4082.09 3224.855 L 4081.89 3225.065 L 4081.48 3225.265 L 4080.66 3225.265 L 4080.25 3225.065 L 4080.05 3224.855 L 4079.84 3224.445 L 4079.84 3224.035 L 4080.05 3223.625 L 4080.46 3223.015 L 4082.5 3220.965 L 4079.64 3220.965 M 4076.24 3225.265 L 4078.29 3222.405 L 4075.22 3222.405 M 4076.24 3225.265 L 4076.24 3220.965 M 4073.87 3225.265 L 4073.87 3220.965 M 4073.87 3220.965 L 4071.42 3220.965 M 4068.84 3225.265 L 4069.45 3225.065 L 4069.86 3224.445 L 4070.07 3223.425 L 4070.07 3222.815 L 4069.86 3221.785 L 4069.45 3221.175 L 4068.84 3220.965 L 4068.43 3220.965 L 4067.82 3221.175 L 4067.41 3221.785 L 4067.2 3222.815 L 4067.2 3223.425 L 4067.41 3224.445 L 4067.82 3225.065 L 4068.43 3225.265 L 4068.84 3225.265 M 4065.85 3224.445 L 4065.44 3224.655 L 4064.83 3225.265 L 4064.83 3220.965 M 4061.64 3224.655 L 4061.64 3220.965 M 4063.48 3222.815 L 4059.8 3222.815" fill="none"  stroke-width="0.6" c_note="note_name" /></g><g c_partid="part_pcbtext" c_etype="" c_origin="4192.718,3192.082" c_rotation="0" c_mirror="0" id="gge312" locked="0" layerid="3" c_shapetype="group" ><path c_fontsize="4.5" c_fontfamily="" c_text="LED3" d="M 4192.7181 3185.9299 L 4192.7181 3190.2199 M 4192.7181 3190.2199 L 4195.1681 3190.2199 M 4196.5181 3185.9299 L 4196.5181 3190.2199 M 4196.5181 3185.9299 L 4199.1781 3185.9299 M 4196.5181 3187.9699 L 4198.1581 3187.9699 M 4196.5181 3190.2199 L 4199.1781 3190.2199 M 4200.5281 3185.9299 L 4200.5281 3190.2199 M 4200.5281 3185.9299 L 4201.9681 3185.9299 L 4202.5781 3186.1299 L 4202.9881 3186.5399 L 4203.1881 3186.9499 L 4203.3981 3187.5599 L 4203.3981 3188.5899 L 4203.1881 3189.1999 L 4202.9881 3189.6099 L 4202.5781 3190.0199 L 4201.9681 3190.2199 L 4200.5281 3190.2199 M 4205.1581 3185.9299 L 4207.4081 3185.9299 L 4206.1781 3187.5599 L 4206.7881 3187.5599 L 4207.1981 3187.7699 L 4207.4081 3187.9699 L 4207.6081 3188.5899 L 4207.6081 3188.9999 L 4207.4081 3189.6099 L 4206.9981 3190.0199 L 4206.3781 3190.2199 L 4205.7681 3190.2199 L 4205.1581 3190.0199 L 4204.9481 3189.8099 L 4204.7481 3189.3999" fill="none"  stroke-width="0.6" c_note="note_pre" /></g><g c_partid="part_pcbtext" c_etype="" c_origin="4207.608,3189.568" c_rotation="180" c_mirror="0" id="gge314" locked="0" layerid="3" c_shapetype="group" display="none"><path c_fontsize="4.5" c_fontfamily="" c_text="Green" d="M 4204.5381 3194.7 L 4204.7481 3195.11 L 4205.1581 3195.52 L 4205.5581 3195.72 L 4206.3781 3195.72 L 4206.7881 3195.52 L 4207.1981 3195.11 L 4207.4081 3194.7 L 4207.6081 3194.09 L 4207.6081 3193.06 L 4207.4081 3192.45 L 4207.1981 3192.04 L 4206.7881 3191.63 L 4206.3781 3191.43 L 4205.5581 3191.43 L 4205.1581 3191.63 L 4204.7481 3192.04 L 4204.5381 3192.45 L 4204.5381 3193.06 M 4205.5581 3193.06 L 4204.5381 3193.06 M 4203.1881 3194.29 L 4203.1881 3191.43 M 4203.1881 3193.06 L 4202.9881 3193.68 L 4202.5781 3194.09 L 4202.1681 3194.29 L 4201.5581 3194.29 M 4200.2081 3193.06 L 4197.7481 3193.06 L 4197.7481 3193.47 L 4197.9581 3193.88 L 4198.1581 3194.09 L 4198.5681 3194.29 L 4199.1781 3194.29 L 4199.5881 3194.09 L 4199.9981 3193.68 L 4200.2081 3193.06 L 4200.2081 3192.65 L 4199.9981 3192.04 L 4199.5881 3191.63 L 4199.1781 3191.43 L 4198.5681 3191.43 L 4198.1581 3191.63 L 4197.7481 3192.04 M 4196.3981 3193.06 L 4193.9481 3193.06 L 4193.9481 3193.47 L 4194.1481 3193.88 L 4194.3581 3194.09 L 4194.7581 3194.29 L 4195.3781 3194.29 L 4195.7881 3194.09 L 4196.1981 3193.68 L 4196.3981 3193.06 L 4196.3981 3192.65 L 4196.1981 3192.04 L 4195.7881 3191.63 L 4195.3781 3191.43 L 4194.7581 3191.43 L 4194.3581 3191.63 L 4193.9481 3192.04 M 4192.5981 3194.29 L 4192.5981 3191.43 M 4192.5981 3193.47 L 4191.9781 3194.09 L 4191.5681 3194.29 L 4190.9581 3194.29 L 4190.5481 3194.09 L 4190.3481 3193.47 L 4190.3481 3191.43" fill="none"  stroke-width="0.6" c_note="note_name" /></g><g c_partid="part_pcbtext" c_etype="" c_origin="4172.718,3192.082" c_rotation="0" c_mirror="0" id="gge333" locked="0" layerid="3" c_shapetype="group" ><path c_fontsize="4.5" c_fontfamily="" c_text="LED2" d="M 4172.7181 3185.9299 L 4172.7181 3190.2199 M 4172.7181 3190.2199 L 4175.1681 3190.2199 M 4176.5181 3185.9299 L 4176.5181 3190.2199 M 4176.5181 3185.9299 L 4179.1781 3185.9299 M 4176.5181 3187.9699 L 4178.1581 3187.9699 M 4176.5181 3190.2199 L 4179.1781 3190.2199 M 4180.5281 3185.9299 L 4180.5281 3190.2199 M 4180.5281 3185.9299 L 4181.9681 3185.9299 L 4182.5781 3186.1299 L 4182.9881 3186.5399 L 4183.1881 3186.9499 L 4183.3981 3187.5599 L 4183.3981 3188.5899 L 4183.1881 3189.1999 L 4182.9881 3189.6099 L 4182.5781 3190.0199 L 4181.9681 3190.2199 L 4180.5281 3190.2199 M 4184.9481 3186.9499 L 4184.9481 3186.7499 L 4185.1581 3186.3399 L 4185.3581 3186.1299 L 4185.7681 3185.9299 L 4186.5881 3185.9299 L 4186.9981 3186.1299 L 4187.1981 3186.3399 L 4187.4081 3186.7499 L 4187.4081 3187.1499 L 4187.1981 3187.5599 L 4186.7881 3188.1799 L 4184.7481 3190.2199 L 4187.6081 3190.2199" fill="none"  stroke-width="0.6" c_note="note_pre" /></g><g c_partid="part_pcbtext" c_etype="" c_origin="4187.608,3189.568" c_rotation="180" c_mirror="0" id="gge335" locked="0" layerid="3" c_shapetype="group" display="none"><path c_fontsize="4.5" c_fontfamily="" c_text="Blue" d="M 4187.6081 3195.72 L 4187.6081 3191.43 M 4187.6081 3195.72 L 4185.7681 3195.72 L 4185.1581 3195.52 L 4184.9481 3195.31 L 4184.7481 3194.9 L 4184.7481 3194.5 L 4184.9481 3194.09 L 4185.1581 3193.88 L 4185.7681 3193.68 M 4187.6081 3193.68 L 4185.7681 3193.68 L 4185.1581 3193.47 L 4184.9481 3193.27 L 4184.7481 3192.86 L 4184.7481 3192.25 L 4184.9481 3191.84 L 4185.1581 3191.63 L 4185.7681 3191.43 L 4187.6081 3191.43 M 4183.3981 3195.72 L 4183.3981 3191.43 M 4182.0481 3194.29 L 4182.0481 3192.25 L 4181.8381 3191.63 L 4181.4281 3191.43 L 4180.8181 3191.43 L 4180.4081 3191.63 L 4179.7981 3192.25 M 4179.7981 3194.29 L 4179.7981 3191.43 M 4178.4481 3193.06 L 4175.9881 3193.06 L 4175.9881 3193.47 L 4176.1981 3193.88 L 4176.3981 3194.09 L 4176.8081 3194.29 L 4177.4181 3194.29 L 4177.8281 3194.09 L 4178.2381 3193.68 L 4178.4481 3193.06 L 4178.4481 3192.65 L 4178.2381 3192.04 L 4177.8281 3191.63 L 4177.4181 3191.43 L 4176.8081 3191.43 L 4176.3981 3191.63 L 4175.9881 3192.04" fill="none"  stroke-width="0.6" c_note="note_name" /></g><g c_partid="part_pcbtext" c_etype="" c_origin="4154.558,3192.082" c_rotation="0" c_mirror="0" id="gge354" locked="0" layerid="3" c_shapetype="group" ><path c_fontsize="4.5" c_fontfamily="" c_text="LED1" d="M 4154.5578 3185.9299 L 4154.5578 3190.2199 M 4154.5578 3190.2199 L 4157.0078 3190.2199 M 4158.3578 3185.9299 L 4158.3578 3190.2199 M 4158.3578 3185.9299 L 4161.0178 3185.9299 M 4158.3578 3187.9699 L 4159.9978 3187.9699 M 4158.3578 3190.2199 L 4161.0178 3190.2199 M 4162.3678 3185.9299 L 4162.3678 3190.2199 M 4162.3678 3185.9299 L 4163.8078 3185.9299 L 4164.4178 3186.1299 L 4164.8278 3186.5399 L 4165.0278 3186.9499 L 4165.2378 3187.5599 L 4165.2378 3188.5899 L 4165.0278 3189.1999 L 4164.8278 3189.6099 L 4164.4178 3190.0199 L 4163.8078 3190.2199 L 4162.3678 3190.2199 M 4166.5878 3186.7499 L 4166.9978 3186.5399 L 4167.6078 3185.9299 L 4167.6078 3190.2199" fill="none"  stroke-width="0.6" c_note="note_pre" /></g><g c_partid="part_pcbtext" c_etype="" c_origin="4167.608,3189.568" c_rotation="180" c_mirror="0" id="gge356" locked="0" layerid="3" c_shapetype="group" display="none"><path c_fontsize="4.5" c_fontfamily="" c_text="Red" d="M 4167.608 3195.72 L 4167.608 3191.43 M 4167.608 3195.72 L 4165.768 3195.72 L 4165.158 3195.52 L 4164.948 3195.31 L 4164.748 3194.9 L 4164.748 3194.5 L 4164.948 3194.09 L 4165.158 3193.88 L 4165.768 3193.68 L 4167.608 3193.68 M 4166.178 3193.68 L 4164.748 3191.43 M 4163.398 3193.06 L 4160.938 3193.06 L 4160.938 3193.47 L 4161.148 3193.88 L 4161.348 3194.09 L 4161.758 3194.29 L 4162.368 3194.29 L 4162.778 3194.09 L 4163.188 3193.68 L 4163.398 3193.06 L 4163.398 3192.65 L 4163.188 3192.04 L 4162.778 3191.63 L 4162.368 3191.43 L 4161.758 3191.43 L 4161.348 3191.63 L 4160.938 3192.04 M 4157.138 3195.72 L 4157.138 3191.43 M 4157.138 3193.68 L 4157.548 3194.09 L 4157.958 3194.29 L 4158.568 3194.29 L 4158.978 3194.09 L 4159.388 3193.68 L 4159.588 3193.06 L 4159.588 3192.65 L 4159.388 3192.04 L 4158.978 3191.63 L 4158.568 3191.43 L 4157.958 3191.43 L 4157.548 3191.63 L 4157.138 3192.04" fill="none"  stroke-width="0.6" c_note="note_name" /></g><g c_partid="part_pcbtext" c_etype="" c_origin="4212.508,3192.082" c_rotation="0" c_mirror="0" id="gge375" locked="0" layerid="3" c_shapetype="group" ><path c_fontsize="4.5" c_fontfamily="" c_text="LED4" d="M 4212.5081 3185.9299 L 4212.5081 3190.2199 M 4212.5081 3190.2199 L 4214.9581 3190.2199 M 4216.3081 3185.9299 L 4216.3081 3190.2199 M 4216.3081 3185.9299 L 4218.9681 3185.9299 M 4216.3081 3187.9699 L 4217.9481 3187.9699 M 4216.3081 3190.2199 L 4218.9681 3190.2199 M 4220.3181 3185.9299 L 4220.3181 3190.2199 M 4220.3181 3185.9299 L 4221.7581 3185.9299 L 4222.3681 3186.1299 L 4222.7781 3186.5399 L 4222.9781 3186.9499 L 4223.1881 3187.5599 L 4223.1881 3188.5899 L 4222.9781 3189.1999 L 4222.7781 3189.6099 L 4222.3681 3190.0199 L 4221.7581 3190.2199 L 4220.3181 3190.2199 M 4226.5781 3185.9299 L 4224.5381 3188.7899 L 4227.6081 3188.7899 M 4226.5781 3185.9299 L 4226.5781 3190.2199" fill="none"  stroke-width="0.6" c_note="note_pre" /></g><g c_partid="part_pcbtext" c_etype="" c_origin="4227.608,3189.568" c_rotation="180" c_mirror="0" id="gge377" locked="0" layerid="3" c_shapetype="group" display="none"><path c_fontsize="4.5" c_fontfamily="" c_text="Blue" d="M 4227.6081 3195.72 L 4227.6081 3191.43 M 4227.6081 3195.72 L 4225.7681 3195.72 L 4225.1581 3195.52 L 4224.9481 3195.31 L 4224.7481 3194.9 L 4224.7481 3194.5 L 4224.9481 3194.09 L 4225.1581 3193.88 L 4225.7681 3193.68 M 4227.6081 3193.68 L 4225.7681 3193.68 L 4225.1581 3193.47 L 4224.9481 3193.27 L 4224.7481 3192.86 L 4224.7481 3192.25 L 4224.9481 3191.84 L 4225.1581 3191.63 L 4225.7681 3191.43 L 4227.6081 3191.43 M 4223.3981 3195.72 L 4223.3981 3191.43 M 4222.0481 3194.29 L 4222.0481 3192.25 L 4221.8381 3191.63 L 4221.4281 3191.43 L 4220.8181 3191.43 L 4220.4081 3191.63 L 4219.7981 3192.25 M 4219.7981 3194.29 L 4219.7981 3191.43 M 4218.4481 3193.06 L 4215.9881 3193.06 L 4215.9881 3193.47 L 4216.1981 3193.88 L 4216.3981 3194.09 L 4216.8081 3194.29 L 4217.4181 3194.29 L 4217.8281 3194.09 L 4218.2381 3193.68 L 4218.4481 3193.06 L 4218.4481 3192.65 L 4218.2381 3192.04 L 4217.8281 3191.63 L 4217.4181 3191.43 L 4216.8081 3191.43 L 4216.3981 3191.63 L 4215.9881 3192.04" fill="none"  stroke-width="0.6" c_note="note_name" /></g><g c_partid="part_pcbtext" c_etype="" c_origin="4232.718,3192.082" c_rotation="0" c_mirror="0" id="gge396" locked="0" layerid="3" c_shapetype="group" ><path c_fontsize="4.5" c_fontfamily="" c_text="LED5" d="M 4232.7181 3185.9299 L 4232.7181 3190.2199 M 4232.7181 3190.2199 L 4235.1681 3190.2199 M 4236.5181 3185.9299 L 4236.5181 3190.2199 M 4236.5181 3185.9299 L 4239.1781 3185.9299 M 4236.5181 3187.9699 L 4238.1581 3187.9699 M 4236.5181 3190.2199 L 4239.1781 3190.2199 M 4240.5281 3185.9299 L 4240.5281 3190.2199 M 4240.5281 3185.9299 L 4241.9681 3185.9299 L 4242.5781 3186.1299 L 4242.9881 3186.5399 L 4243.1881 3186.9499 L 4243.3981 3187.5599 L 4243.3981 3188.5899 L 4243.1881 3189.1999 L 4242.9881 3189.6099 L 4242.5781 3190.0199 L 4241.9681 3190.2199 L 4240.5281 3190.2199 M 4247.1981 3185.9299 L 4245.1581 3185.9299 L 4244.9481 3187.7699 L 4245.1581 3187.5599 L 4245.7681 3187.3599 L 4246.3781 3187.3599 L 4246.9981 3187.5599 L 4247.4081 3187.9699 L 4247.6081 3188.5899 L 4247.6081 3188.9999 L 4247.4081 3189.6099 L 4246.9981 3190.0199 L 4246.3781 3190.2199 L 4245.7681 3190.2199 L 4245.1581 3190.0199 L 4244.9481 3189.8099 L 4244.7481 3189.3999" fill="none"  stroke-width="0.6" c_note="note_pre" /></g><g c_partid="part_pcbtext" c_etype="" c_origin="4247.608,3189.568" c_rotation="180" c_mirror="0" id="gge398" locked="0" layerid="3" c_shapetype="group" display="none"><path c_fontsize="4.5" c_fontfamily="" c_text="Green" d="M 4244.5381 3194.7 L 4244.7481 3195.11 L 4245.1581 3195.52 L 4245.5581 3195.72 L 4246.3781 3195.72 L 4246.7881 3195.52 L 4247.1981 3195.11 L 4247.4081 3194.7 L 4247.6081 3194.09 L 4247.6081 3193.06 L 4247.4081 3192.45 L 4247.1981 3192.04 L 4246.7881 3191.63 L 4246.3781 3191.43 L 4245.5581 3191.43 L 4245.1581 3191.63 L 4244.7481 3192.04 L 4244.5381 3192.45 L 4244.5381 3193.06 M 4245.5581 3193.06 L 4244.5381 3193.06 M 4243.1881 3194.29 L 4243.1881 3191.43 M 4243.1881 3193.06 L 4242.9881 3193.68 L 4242.5781 3194.09 L 4242.1681 3194.29 L 4241.5581 3194.29 M 4240.2081 3193.06 L 4237.7481 3193.06 L 4237.7481 3193.47 L 4237.9581 3193.88 L 4238.1581 3194.09 L 4238.5681 3194.29 L 4239.1781 3194.29 L 4239.5881 3194.09 L 4239.9981 3193.68 L 4240.2081 3193.06 L 4240.2081 3192.65 L 4239.9981 3192.04 L 4239.5881 3191.63 L 4239.1781 3191.43 L 4238.5681 3191.43 L 4238.1581 3191.63 L 4237.7481 3192.04 M 4236.3981 3193.06 L 4233.9481 3193.06 L 4233.9481 3193.47 L 4234.1481 3193.88 L 4234.3581 3194.09 L 4234.7581 3194.29 L 4235.3781 3194.29 L 4235.7881 3194.09 L 4236.1981 3193.68 L 4236.3981 3193.06 L 4236.3981 3192.65 L 4236.1981 3192.04 L 4235.7881 3191.63 L 4235.3781 3191.43 L 4234.7581 3191.43 L 4234.3581 3191.63 L 4233.9481 3192.04 M 4232.5981 3194.29 L 4232.5981 3191.43 M 4232.5981 3193.47 L 4231.9781 3194.09 L 4231.5681 3194.29 L 4230.9581 3194.29 L 4230.5481 3194.09 L 4230.3481 3193.47 L 4230.3481 3191.43" fill="none"  stroke-width="0.6" c_note="note_name" /></g><g c_partid="part_pcbtext" c_etype="" c_origin="4124.626,3135.017" c_rotation="0" c_mirror="0" id="gge417" locked="0" layerid="3" c_shapetype="group" ><path c_fontsize="4.5" c_fontfamily="" c_text="C2" d="M 4127.696 3129.89 L 4127.486 3129.48 L 4127.076 3129.07 L 4126.676 3128.86 L 4125.856 3128.86 L 4125.446 3129.07 L 4125.036 3129.48 L 4124.826 3129.89 L 4124.626 3130.5 L 4124.626 3131.52 L 4124.826 3132.14 L 4125.036 3132.54 L 4125.446 3132.95 L 4125.856 3133.16 L 4126.676 3133.16 L 4127.076 3132.95 L 4127.486 3132.54 L 4127.696 3132.14 M 4129.246 3129.89 L 4129.246 3129.68 L 4129.456 3129.27 L 4129.656 3129.07 L 4130.066 3128.86 L 4130.886 3128.86 L 4131.296 3129.07 L 4131.496 3129.27 L 4131.706 3129.68 L 4131.706 3130.09 L 4131.496 3130.5 L 4131.086 3131.11 L 4129.046 3133.16 L 4131.906 3133.16" fill="none"  stroke-width="0.6" c_note="note_pre" /></g><g c_partid="part_pcbtext" c_etype="" c_origin="4124.626,3129.517" c_rotation="0" c_mirror="0" id="gge419" locked="0" layerid="3" c_shapetype="group" display="none"><path c_fontsize="4.5" c_fontfamily="" c_text="10uF" d="M 4124.626 3124.18 L 4125.036 3123.98 L 4125.646 3123.36 L 4125.646 3127.66 M 4128.226 3123.36 L 4127.616 3123.57 L 4127.206 3124.18 L 4126.996 3125.2 L 4126.996 3125.82 L 4127.206 3126.84 L 4127.616 3127.45 L 4128.226 3127.66 L 4128.636 3127.66 L 4129.246 3127.45 L 4129.656 3126.84 L 4129.866 3125.82 L 4129.866 3125.2 L 4129.656 3124.18 L 4129.246 3123.57 L 4128.636 3123.36 L 4128.226 3123.36 M 4131.216 3124.79 L 4131.216 3126.84 L 4131.416 3127.45 L 4131.826 3127.66 L 4132.436 3127.66 L 4132.846 3127.45 L 4133.466 3126.84 M 4133.466 3124.79 L 4133.466 3127.66 M 4134.816 3123.36 L 4134.816 3127.66 M 4134.816 3123.36 L 4137.476 3123.36 M 4134.816 3125.41 L 4136.446 3125.41" fill="none"  stroke-width="0.6" c_note="note_name" /></g><g c_partid="part_pcbtext" c_etype="" c_origin="4254.665,3201.795" c_rotation="90" c_mirror="0" id="gge436" locked="0" layerid="3" c_shapetype="group" ><path c_fontsize="4.5" c_fontfamily="" c_text="KEY1" d="M 4248.512 3201.795 L 4252.802 3201.795 M 4248.512 3198.935 L 4251.372 3201.795 M 4250.352 3200.775 L 4252.802 3198.935 M 4248.512 3197.585 L 4252.802 3197.585 M 4248.512 3197.585 L 4248.512 3194.925 M 4250.552 3197.585 L 4250.552 3195.945 M 4252.802 3197.585 L 4252.802 3194.925 M 4248.512 3193.575 L 4250.552 3191.935 L 4252.802 3191.935 M 4248.512 3190.295 L 4250.552 3191.935 M 4249.332 3188.945 L 4249.122 3188.545 L 4248.512 3187.925 L 4252.802 3187.925" fill="none"  stroke-width="0.6" c_note="note_pre" /></g><g c_partid="part_pcbtext" c_etype="" c_origin="4249.165,3201.795" c_rotation="90" c_mirror="0" id="gge438" locked="0" layerid="3" c_shapetype="group" display="none"><path c_fontsize="4.5" c_fontfamily="" c_text="button6*6*8.5" d="M 4243.012 3201.795 L 4247.302 3201.795 M 4245.052 3201.795 L 4244.652 3201.385 L 4244.442 3200.975 L 4244.442 3200.365 L 4244.652 3199.955 L 4245.052 3199.545 L 4245.672 3199.345 L 4246.082 3199.345 L 4246.692 3199.545 L 4247.102 3199.955 L 4247.302 3200.365 L 4247.302 3200.975 L 4247.102 3201.385 L 4246.692 3201.795 M 4244.442 3197.995 L 4246.492 3197.995 L 4247.102 3197.785 L 4247.302 3197.375 L 4247.302 3196.765 L 4247.102 3196.355 L 4246.492 3195.745 M 4244.442 3195.745 L 4247.302 3195.745 M 4243.012 3193.775 L 4246.492 3193.775 L 4247.102 3193.575 L 4247.302 3193.165 L 4247.302 3192.755 M 4244.442 3194.395 L 4244.442 3192.955 M 4243.012 3190.795 L 4246.492 3190.795 L 4247.102 3190.585 L 4247.302 3190.175 L 4247.302 3189.765 M 4244.442 3191.405 L 4244.442 3189.975 M 4244.442 3187.395 L 4244.652 3187.805 L 4245.052 3188.215 L 4245.672 3188.415 L 4246.082 3188.415 L 4246.692 3188.215 L 4247.102 3187.805 L 4247.302 3187.395 L 4247.302 3186.785 L 4247.102 3186.375 L 4246.692 3185.965 L 4246.082 3185.755 L 4245.672 3185.755 L 4245.052 3185.965 L 4244.652 3186.375 L 4244.442 3186.785 L 4244.442 3187.395 M 4244.442 3184.405 L 4247.302 3184.405 M 4245.262 3184.405 L 4244.652 3183.795 L 4244.442 3183.385 L 4244.442 3182.775 L 4244.652 3182.365 L 4245.262 3182.155 L 4247.302 3182.155 M 4243.622 3178.355 L 4243.212 3178.555 L 4243.012 3179.175 L 4243.012 3179.585 L 4243.212 3180.195 L 4243.832 3180.605 L 4244.852 3180.805 L 4245.872 3180.805 L 4246.692 3180.605 L 4247.102 3180.195 L 4247.302 3179.585 L 4247.302 3179.375 L 4247.102 3178.765 L 4246.692 3178.355 L 4246.082 3178.145 L 4245.872 3178.145 L 4245.262 3178.355 L 4244.852 3178.765 L 4244.652 3179.375 L 4244.652 3179.585 L 4244.852 3180.195 L 4245.262 3180.605 L 4245.872 3180.805 M 4244.242 3175.775 L 4246.692 3175.775 M 4244.852 3176.795 L 4246.082 3174.755 M 4244.852 3174.755 L 4246.082 3176.795 M 4243.622 3170.945 L 4243.212 3171.155 L 4243.012 3171.765 L 4243.012 3172.175 L 4243.212 3172.795 L 4243.832 3173.195 L 4244.852 3173.405 L 4245.872 3173.405 L 4246.692 3173.195 L 4247.102 3172.795 L 4247.302 3172.175 L 4247.302 3171.975 L 4247.102 3171.355 L 4246.692 3170.945 L 4246.082 3170.745 L 4245.872 3170.745 L 4245.262 3170.945 L 4244.852 3171.355 L 4244.652 3171.975 L 4244.652 3172.175 L 4244.852 3172.795 L 4245.262 3173.195 L 4245.872 3173.405 M 4244.242 3168.375 L 4246.692 3168.375 M 4244.852 3169.395 L 4246.082 3167.345 M 4244.852 3167.345 L 4246.082 3169.395 M 4243.012 3164.975 L 4243.212 3165.595 L 4243.622 3165.795 L 4244.032 3165.795 L 4244.442 3165.595 L 4244.652 3165.185 L 4244.852 3164.365 L 4245.052 3163.745 L 4245.462 3163.345 L 4245.872 3163.135 L 4246.492 3163.135 L 4246.902 3163.345 L 4247.102 3163.545 L 4247.302 3164.155 L 4247.302 3164.975 L 4247.102 3165.595 L 4246.902 3165.795 L 4246.492 3165.995 L 4245.872 3165.995 L 4245.462 3165.795 L 4245.052 3165.385 L 4244.852 3164.775 L 4244.652 3163.955 L 4244.442 3163.545 L 4244.032 3163.345 L 4243.622 3163.345 L 4243.212 3163.545 L 4243.012 3164.155 L 4243.012 3164.975 M 4246.282 3161.585 L 4246.492 3161.785 L 4246.692 3161.585 L 4246.492 3161.375 L 4246.282 3161.585 M 4243.012 3157.575 L 4243.012 3159.615 L 4244.852 3159.825 L 4244.652 3159.615 L 4244.442 3159.005 L 4244.442 3158.395 L 4244.652 3157.775 L 4245.052 3157.365 L 4245.672 3157.165 L 4246.082 3157.165 L 4246.692 3157.365 L 4247.102 3157.775 L 4247.302 3158.395 L 4247.302 3159.005 L 4247.102 3159.615 L 4246.902 3159.825 L 4246.492 3160.025" fill="none"  stroke-width="0.6" c_note="note_name" /></g><path d="M 4201.3189 3181.437 A 7.4283 7.4283 0 0 0 4214.3394 3180.663" locked="0"  fill="none" stroke-width="1" c_helper_type="arc2" net="" layerid="3" id="gge316" /><path d="M 4214.311 3174.3504 A 7.397 7.397 0 0 0 4201.2424 3173.7496" locked="0"  fill="none" stroke-width="1" c_helper_type="arc2" net="" layerid="3" id="gge317" /><path d="M 4181.3189 3181.437 A 7.4283 7.4283 0 0 0 4194.3394 3180.663" locked="0"  fill="none" stroke-width="1" c_helper_type="arc2" net="" layerid="3" id="gge337" /><path d="M 4194.311 3174.3504 A 7.397 7.397 0 0 0 4181.2424 3173.7496" locked="0"  fill="none" stroke-width="1" c_helper_type="arc2" net="" layerid="3" id="gge338" /><path d="M 4161.3188 3181.437 A 7.4283 7.4283 0 0 0 4174.3393 3180.663" locked="0"  fill="none" stroke-width="1" c_helper_type="arc2" net="" layerid="3" id="gge358" /><path d="M 4174.3109 3174.3504 A 7.397 7.397 0 0 0 4161.2423 3173.7496" locked="0"  fill="none" stroke-width="1" c_helper_type="arc2" net="" layerid="3" id="gge359" /><path d="M 4221.3189 3181.437 A 7.4283 7.4283 0 0 0 4234.3394 3180.663" locked="0"  fill="none" stroke-width="1" c_helper_type="arc2" net="" layerid="3" id="gge379" /><path d="M 4234.311 3174.3504 A 7.397 7.397 0 0 0 4221.2424 3173.7496" locked="0"  fill="none" stroke-width="1" c_helper_type="arc2" net="" layerid="3" id="gge380" /><path d="M 4241.3189 3181.437 A 7.4283 7.4283 0 0 0 4254.3394 3180.663" locked="0"  fill="none" stroke-width="1" c_helper_type="arc2" net="" layerid="3" id="gge400" /><path d="M 4254.311 3174.3504 A 7.397 7.397 0 0 0 4241.2424 3173.7496" locked="0"  fill="none" stroke-width="1" c_helper_type="arc2" net="" layerid="3" id="gge401" /><circle cx="4125.5" cy="3144" r="9.843" stroke-width="1.1811" fill="none" layerid="3" id="gge423" locked="0"  /><circle cx="4266.81" cy="3201.18" r="6.89" stroke-width="1" fill="none" layerid="3" id="gge440" locked="0"  /><circle cx="4266.81" cy="3201.18" r="2.95" stroke-width="1" fill="none" layerid="3" id="gge441" locked="0"  /><path d="M 4132.563 3137.5 A 8.99 8.99 0 0 1 4132.563 3150.5 Z " stroke-width="0"   net="" type="solid" layerid="3" id="gge424" locked="0" c_teardrop="" c_targetpad="" c_targetwire="" /><polyline points="4050 3050 4325.5908 3050 4325.5908 3238.9761 4050 3238.9761 4050 3050" stroke-width="1"  stroke-linecap="round" fill="none" layerid="10" net="" id="gge556" locked="0" /></svg>